%TF.GenerationSoftware,KiCad,Pcbnew,9.0.6*%
%TF.CreationDate,2026-02-01T14:10:18+01:00*%
%TF.ProjectId,hw,68772e6b-6963-4616-945f-706362585858,rev?*%
%TF.SameCoordinates,Original*%
%TF.FileFunction,Copper,L2,Bot*%
%TF.FilePolarity,Positive*%
%FSLAX46Y46*%
G04 Gerber Fmt 4.6, Leading zero omitted, Abs format (unit mm)*
G04 Created by KiCad (PCBNEW 9.0.6) date 2026-02-01 14:10:18*
%MOMM*%
%LPD*%
G01*
G04 APERTURE LIST*
G04 Aperture macros list*
%AMRoundRect*
0 Rectangle with rounded corners*
0 $1 Rounding radius*
0 $2 $3 $4 $5 $6 $7 $8 $9 X,Y pos of 4 corners*
0 Add a 4 corners polygon primitive as box body*
4,1,4,$2,$3,$4,$5,$6,$7,$8,$9,$2,$3,0*
0 Add four circle primitives for the rounded corners*
1,1,$1+$1,$2,$3*
1,1,$1+$1,$4,$5*
1,1,$1+$1,$6,$7*
1,1,$1+$1,$8,$9*
0 Add four rect primitives between the rounded corners*
20,1,$1+$1,$2,$3,$4,$5,0*
20,1,$1+$1,$4,$5,$6,$7,0*
20,1,$1+$1,$6,$7,$8,$9,0*
20,1,$1+$1,$8,$9,$2,$3,0*%
G04 Aperture macros list end*
%TA.AperFunction,ComponentPad*%
%ADD10C,1.700000*%
%TD*%
%TA.AperFunction,ComponentPad*%
%ADD11RoundRect,0.250000X0.750000X-0.750000X0.750000X0.750000X-0.750000X0.750000X-0.750000X-0.750000X0*%
%TD*%
%TA.AperFunction,ComponentPad*%
%ADD12C,2.000000*%
%TD*%
%TA.AperFunction,ComponentPad*%
%ADD13C,1.473200*%
%TD*%
%TA.AperFunction,ComponentPad*%
%ADD14O,1.600000X2.000000*%
%TD*%
%TA.AperFunction,ViaPad*%
%ADD15C,0.600000*%
%TD*%
%TA.AperFunction,Conductor*%
%ADD16C,0.200000*%
%TD*%
G04 APERTURE END LIST*
D10*
%TO.P,SW3,1,1*%
%TO.N,Net-(U1-D10)*%
X170230000Y-64688000D03*
X170230000Y-58188000D03*
%TO.P,SW3,2,2*%
%TO.N,GND*%
X174730000Y-64688000D03*
X174730000Y-58188000D03*
%TD*%
D11*
%TO.P,J1,1,Pin_1*%
%TO.N,+12V*%
X181123500Y-63296000D03*
D12*
%TO.P,J1,2,Pin_2*%
%TO.N,GND*%
X181123500Y-60756001D03*
%TD*%
D13*
%TO.P,U3,1,OUT*%
%TO.N,Net-(U1-D1)*%
X124789400Y-121457000D03*
%TO.P,U3,2,GND*%
%TO.N,GND*%
X124789400Y-118917000D03*
%TO.P,U3,3,VS*%
%TO.N,Net-(U3-VS)*%
X124789400Y-116377000D03*
%TD*%
D14*
%TO.P,OLED1,1,GND*%
%TO.N,GND*%
X150926000Y-57068000D03*
%TO.P,OLED1,2,VCC*%
%TO.N,/3V3*%
X153466000Y-57068000D03*
%TO.P,OLED1,3,SCL*%
%TO.N,Net-(OLED1-SCL)*%
X156006000Y-57068000D03*
%TO.P,OLED1,4,SDA*%
%TO.N,Net-(OLED1-SDA)*%
X158546000Y-57068000D03*
%TD*%
D10*
%TO.P,SW4,1,1*%
%TO.N,Net-(U1-D9)*%
X170266000Y-74034000D03*
X170266000Y-67534000D03*
%TO.P,SW4,2,2*%
%TO.N,GND*%
X174766000Y-74034000D03*
X174766000Y-67534000D03*
%TD*%
D15*
%TO.N,Net-(OLED1-SCL)*%
X155956000Y-60706000D03*
%TO.N,Net-(U1-D2)*%
X124117000Y-100076000D03*
X125317000Y-101473000D03*
%TO.N,Net-(U1-D3)*%
X122555000Y-86487000D03*
X124206000Y-114427000D03*
%TO.N,Net-(OLED1-SDA)*%
X137414000Y-89535000D03*
X154813000Y-72136000D03*
%TO.N,Net-(D1-K)*%
X148234000Y-87884000D03*
X146136160Y-87884000D03*
%TO.N,/3V3*%
X133985000Y-107442000D03*
X126492000Y-93345000D03*
X136144000Y-109601000D03*
X123952000Y-90805000D03*
X131064000Y-91059000D03*
X132207000Y-89755000D03*
%TO.N,GND*%
X142494000Y-93472000D03*
X165481000Y-73279000D03*
X157480000Y-88519000D03*
X131064000Y-117094000D03*
X128270000Y-89154000D03*
X146812000Y-95631000D03*
X134112000Y-73533000D03*
X148082000Y-101854000D03*
X125222000Y-89027000D03*
X149479000Y-89535000D03*
X145034000Y-79375000D03*
X122047000Y-95377000D03*
X147320000Y-72390000D03*
X131572000Y-56896000D03*
%TO.N,Net-(PS1-FB)*%
X141605000Y-96716000D03*
X141986000Y-98679000D03*
X146561500Y-99695000D03*
X143637000Y-94869000D03*
%TO.N,Net-(PS1-SW)*%
X145669000Y-91440000D03*
X144124000Y-91059000D03*
X148234000Y-91440000D03*
%TO.N,Net-(LED1-A)*%
X139446000Y-79248000D03*
X137922000Y-79248000D03*
%TO.N,Net-(U1-D8)*%
X131445000Y-88646000D03*
X130429000Y-81407000D03*
X133350000Y-91821000D03*
X130556000Y-82677000D03*
%TO.N,Net-(U1-D10)*%
X134747000Y-106299000D03*
X141351000Y-106934000D03*
X168021000Y-72009000D03*
X168021000Y-73279000D03*
%TO.N,Net-(U1-D9)*%
X136017000Y-105664000D03*
X138303000Y-107696000D03*
X169037000Y-73279000D03*
%TO.N,+5V*%
X121285000Y-97282000D03*
X153924000Y-92964000D03*
X154862265Y-92025735D03*
X150368000Y-94488000D03*
%TO.N,Net-(PS1-EN)*%
X144525000Y-96901000D03*
X145553315Y-97801315D03*
%TD*%
D16*
%TO.N,Net-(OLED1-SCL)*%
X156006000Y-60656000D02*
X156006000Y-57068000D01*
X155956000Y-60706000D02*
X156006000Y-60656000D01*
%TO.N,Net-(U1-D2)*%
X125317000Y-101276000D02*
X124117000Y-100076000D01*
X125317000Y-101473000D02*
X125317000Y-101276000D01*
%TO.N,Net-(U1-D3)*%
X118237000Y-90805000D02*
X122555000Y-86487000D01*
X124206000Y-114427000D02*
X118237000Y-108458000D01*
X118237000Y-108458000D02*
X118237000Y-90805000D01*
%TO.N,Net-(OLED1-SDA)*%
X137414000Y-89535000D02*
X154813000Y-72136000D01*
%TO.N,Net-(D1-K)*%
X148234000Y-87884000D02*
X146136160Y-87884000D01*
%TO.N,/3V3*%
X126492000Y-93345000D02*
X123952000Y-90805000D01*
X133985000Y-107442000D02*
X136144000Y-109601000D01*
X131064000Y-90898000D02*
X132207000Y-89755000D01*
X131064000Y-91059000D02*
X131064000Y-90898000D01*
%TO.N,Net-(PS1-FB)*%
X143002000Y-99695000D02*
X141986000Y-98679000D01*
X143637000Y-94869000D02*
X141790000Y-96716000D01*
X146561500Y-99695000D02*
X143002000Y-99695000D01*
X141790000Y-96716000D02*
X141605000Y-96716000D01*
%TO.N,Net-(PS1-SW)*%
X145669000Y-91440000D02*
X148234000Y-91440000D01*
X144124000Y-91059000D02*
X145288000Y-91059000D01*
X145288000Y-91059000D02*
X145669000Y-91440000D01*
%TO.N,Net-(LED1-A)*%
X137922000Y-79248000D02*
X139446000Y-79248000D01*
%TO.N,Net-(U1-D8)*%
X130429000Y-81407000D02*
X130429000Y-82550000D01*
X132588000Y-88646000D02*
X133350000Y-89408000D01*
X133350000Y-89408000D02*
X133350000Y-91821000D01*
X131445000Y-88646000D02*
X132588000Y-88646000D01*
X130429000Y-82550000D02*
X130556000Y-82677000D01*
%TO.N,Net-(U1-D10)*%
X137668000Y-109220000D02*
X139065000Y-109220000D01*
X141351000Y-106934000D02*
X141478000Y-106807000D01*
X139065000Y-109220000D02*
X141351000Y-106934000D01*
X168021000Y-72009000D02*
X168021000Y-73279000D01*
X134747000Y-106299000D02*
X137668000Y-109220000D01*
%TO.N,Net-(U1-D9)*%
X169037000Y-73279000D02*
X169037000Y-68763000D01*
X136017000Y-105664000D02*
X138049000Y-107696000D01*
X138049000Y-107696000D02*
X138303000Y-107696000D01*
X169037000Y-68763000D02*
X170266000Y-67534000D01*
%TO.N,+5V*%
X142118057Y-97316000D02*
X144946057Y-94488000D01*
X121505000Y-97316000D02*
X121471000Y-97282000D01*
X121471000Y-97282000D02*
X121285000Y-97282000D01*
X121505000Y-97316000D02*
X142118057Y-97316000D01*
X154862265Y-92025735D02*
X153924000Y-92964000D01*
X144946057Y-94488000D02*
X150368000Y-94488000D01*
%TO.N,Net-(PS1-EN)*%
X144653000Y-96901000D02*
X145553315Y-97801315D01*
X144525000Y-96901000D02*
X144653000Y-96901000D01*
%TD*%
%TA.AperFunction,Conductor*%
%TO.N,GND*%
G36*
X150037698Y-55705186D02*
G01*
X150083453Y-55757990D01*
X150093397Y-55827148D01*
X150064372Y-55890704D01*
X150058340Y-55897182D01*
X149934417Y-56021104D01*
X149934417Y-56021105D01*
X149814140Y-56186650D01*
X149721244Y-56368968D01*
X149658009Y-56563582D01*
X149626000Y-56765682D01*
X149626000Y-56818000D01*
X150492988Y-56818000D01*
X150460075Y-56875007D01*
X150426000Y-57002174D01*
X150426000Y-57133826D01*
X150460075Y-57260993D01*
X150492988Y-57318000D01*
X149626000Y-57318000D01*
X149626000Y-57370317D01*
X149658009Y-57572417D01*
X149721244Y-57767031D01*
X149814140Y-57949349D01*
X149934417Y-58114894D01*
X149934417Y-58114895D01*
X150079104Y-58259582D01*
X150244650Y-58379859D01*
X150426968Y-58472754D01*
X150621578Y-58535988D01*
X150676000Y-58544607D01*
X150676000Y-57501012D01*
X150733007Y-57533925D01*
X150860174Y-57568000D01*
X150991826Y-57568000D01*
X151118993Y-57533925D01*
X151176000Y-57501012D01*
X151176000Y-58544606D01*
X151230421Y-58535988D01*
X151425031Y-58472754D01*
X151607349Y-58379859D01*
X151772894Y-58259582D01*
X151772895Y-58259582D01*
X151917582Y-58114895D01*
X151917582Y-58114894D01*
X152037861Y-57949347D01*
X152085234Y-57856371D01*
X152133208Y-57805575D01*
X152201028Y-57788779D01*
X152267164Y-57811316D01*
X152306203Y-57856369D01*
X152353713Y-57949611D01*
X152474028Y-58115213D01*
X152618786Y-58259971D01*
X152773749Y-58372556D01*
X152784390Y-58380287D01*
X152865499Y-58421614D01*
X152966776Y-58473218D01*
X152966778Y-58473218D01*
X152966781Y-58473220D01*
X153041818Y-58497601D01*
X153161465Y-58536477D01*
X153262557Y-58552488D01*
X153363648Y-58568500D01*
X153363649Y-58568500D01*
X153568351Y-58568500D01*
X153568352Y-58568500D01*
X153770534Y-58536477D01*
X153965219Y-58473220D01*
X154147610Y-58380287D01*
X154265981Y-58294286D01*
X154313213Y-58259971D01*
X154313215Y-58259968D01*
X154313219Y-58259966D01*
X154457966Y-58115219D01*
X154457968Y-58115215D01*
X154457971Y-58115213D01*
X154578284Y-57949614D01*
X154578286Y-57949611D01*
X154578287Y-57949610D01*
X154625516Y-57856917D01*
X154673489Y-57806123D01*
X154741310Y-57789328D01*
X154807445Y-57811865D01*
X154846483Y-57856917D01*
X154858751Y-57880993D01*
X154893715Y-57949614D01*
X155014028Y-58115213D01*
X155014034Y-58115219D01*
X155158781Y-58259966D01*
X155324390Y-58380287D01*
X155337793Y-58387116D01*
X155388589Y-58435088D01*
X155405500Y-58497601D01*
X155405500Y-60073059D01*
X155385815Y-60140098D01*
X155369181Y-60160740D01*
X155334213Y-60195707D01*
X155334210Y-60195711D01*
X155246609Y-60326814D01*
X155246602Y-60326827D01*
X155186264Y-60472498D01*
X155186261Y-60472510D01*
X155155500Y-60627153D01*
X155155500Y-60784846D01*
X155186261Y-60939489D01*
X155186264Y-60939501D01*
X155246602Y-61085172D01*
X155246609Y-61085185D01*
X155334210Y-61216288D01*
X155334213Y-61216292D01*
X155445707Y-61327786D01*
X155445711Y-61327789D01*
X155576814Y-61415390D01*
X155576827Y-61415397D01*
X155722498Y-61475735D01*
X155722503Y-61475737D01*
X155877153Y-61506499D01*
X155877156Y-61506500D01*
X155877158Y-61506500D01*
X156034844Y-61506500D01*
X156034845Y-61506499D01*
X156189497Y-61475737D01*
X156335179Y-61415394D01*
X156466289Y-61327789D01*
X156577789Y-61216289D01*
X156665394Y-61085179D01*
X156725737Y-60939497D01*
X156756500Y-60784842D01*
X156756500Y-60627158D01*
X156756500Y-60627155D01*
X156756499Y-60627153D01*
X156725738Y-60472510D01*
X156725737Y-60472503D01*
X156665394Y-60326821D01*
X156627396Y-60269953D01*
X156606520Y-60203276D01*
X156606500Y-60201064D01*
X156606500Y-58497601D01*
X156626185Y-58430562D01*
X156674206Y-58387116D01*
X156687610Y-58380287D01*
X156853219Y-58259966D01*
X156997966Y-58115219D01*
X156997968Y-58115215D01*
X156997971Y-58115213D01*
X157118284Y-57949614D01*
X157118286Y-57949611D01*
X157118287Y-57949610D01*
X157165516Y-57856917D01*
X157213489Y-57806123D01*
X157281310Y-57789328D01*
X157347445Y-57811865D01*
X157386483Y-57856917D01*
X157398751Y-57880993D01*
X157433715Y-57949614D01*
X157554028Y-58115213D01*
X157698786Y-58259971D01*
X157853749Y-58372556D01*
X157864390Y-58380287D01*
X157945499Y-58421614D01*
X158046776Y-58473218D01*
X158046778Y-58473218D01*
X158046781Y-58473220D01*
X158121818Y-58497601D01*
X158241465Y-58536477D01*
X158342557Y-58552488D01*
X158443648Y-58568500D01*
X158443649Y-58568500D01*
X158648351Y-58568500D01*
X158648352Y-58568500D01*
X158850534Y-58536477D01*
X159045219Y-58473220D01*
X159227610Y-58380287D01*
X159345981Y-58294286D01*
X159393213Y-58259971D01*
X159393215Y-58259968D01*
X159393219Y-58259966D01*
X159537966Y-58115219D01*
X159562309Y-58081713D01*
X168879500Y-58081713D01*
X168879500Y-58294286D01*
X168912735Y-58504127D01*
X168912754Y-58504243D01*
X168975696Y-58697959D01*
X168978444Y-58706414D01*
X169074951Y-58895820D01*
X169199890Y-59067786D01*
X169350213Y-59218109D01*
X169522179Y-59343048D01*
X169522181Y-59343049D01*
X169522184Y-59343051D01*
X169711588Y-59439557D01*
X169913757Y-59505246D01*
X170123713Y-59538500D01*
X170123714Y-59538500D01*
X170336286Y-59538500D01*
X170336287Y-59538500D01*
X170546243Y-59505246D01*
X170748412Y-59439557D01*
X170937816Y-59343051D01*
X170992572Y-59303269D01*
X171109786Y-59218109D01*
X171109788Y-59218106D01*
X171109792Y-59218104D01*
X171260104Y-59067792D01*
X171260106Y-59067788D01*
X171260109Y-59067786D01*
X171385048Y-58895820D01*
X171385047Y-58895820D01*
X171385051Y-58895816D01*
X171481557Y-58706412D01*
X171547246Y-58504243D01*
X171580500Y-58294287D01*
X171580500Y-58081753D01*
X173380000Y-58081753D01*
X173380000Y-58294246D01*
X173413242Y-58504127D01*
X173413242Y-58504130D01*
X173478904Y-58706217D01*
X173575375Y-58895550D01*
X173614728Y-58949716D01*
X174247037Y-58317408D01*
X174264075Y-58380993D01*
X174329901Y-58495007D01*
X174422993Y-58588099D01*
X174537007Y-58653925D01*
X174600590Y-58670962D01*
X173968282Y-59303269D01*
X173968282Y-59303270D01*
X174022449Y-59342624D01*
X174211782Y-59439095D01*
X174413870Y-59504757D01*
X174623754Y-59538000D01*
X174836246Y-59538000D01*
X175046127Y-59504757D01*
X175046130Y-59504757D01*
X175175665Y-59462669D01*
X175248217Y-59439095D01*
X175437554Y-59342622D01*
X175491716Y-59303270D01*
X175491717Y-59303270D01*
X174859408Y-58670962D01*
X174922993Y-58653925D01*
X175037007Y-58588099D01*
X175130099Y-58495007D01*
X175195925Y-58380993D01*
X175212962Y-58317408D01*
X175845270Y-58949717D01*
X175845270Y-58949716D01*
X175884622Y-58895554D01*
X175981095Y-58706217D01*
X176046757Y-58504130D01*
X176046757Y-58504127D01*
X176080000Y-58294246D01*
X176080000Y-58081753D01*
X176046757Y-57871872D01*
X176046757Y-57871869D01*
X175981095Y-57669782D01*
X175884624Y-57480449D01*
X175845270Y-57426282D01*
X175845269Y-57426282D01*
X175212962Y-58058590D01*
X175195925Y-57995007D01*
X175130099Y-57880993D01*
X175037007Y-57787901D01*
X174922993Y-57722075D01*
X174859409Y-57705037D01*
X175491716Y-57072728D01*
X175437550Y-57033375D01*
X175248217Y-56936904D01*
X175046129Y-56871242D01*
X174836246Y-56838000D01*
X174623754Y-56838000D01*
X174413872Y-56871242D01*
X174413869Y-56871242D01*
X174211782Y-56936904D01*
X174022439Y-57033380D01*
X173968282Y-57072727D01*
X173968282Y-57072728D01*
X174600591Y-57705037D01*
X174537007Y-57722075D01*
X174422993Y-57787901D01*
X174329901Y-57880993D01*
X174264075Y-57995007D01*
X174247037Y-58058591D01*
X173614728Y-57426282D01*
X173614727Y-57426282D01*
X173575380Y-57480439D01*
X173478904Y-57669782D01*
X173413242Y-57871869D01*
X173413242Y-57871872D01*
X173380000Y-58081753D01*
X171580500Y-58081753D01*
X171580500Y-58081713D01*
X171547246Y-57871757D01*
X171481557Y-57669588D01*
X171385051Y-57480184D01*
X171385049Y-57480181D01*
X171385048Y-57480179D01*
X171260109Y-57308213D01*
X171109786Y-57157890D01*
X170937820Y-57032951D01*
X170748414Y-56936444D01*
X170748413Y-56936443D01*
X170748412Y-56936443D01*
X170546243Y-56870754D01*
X170546241Y-56870753D01*
X170546240Y-56870753D01*
X170384957Y-56845208D01*
X170336287Y-56837500D01*
X170123713Y-56837500D01*
X170075042Y-56845208D01*
X169913760Y-56870753D01*
X169711585Y-56936444D01*
X169522179Y-57032951D01*
X169350213Y-57157890D01*
X169199890Y-57308213D01*
X169074951Y-57480179D01*
X168978444Y-57669585D01*
X168912753Y-57871760D01*
X168879500Y-58081713D01*
X159562309Y-58081713D01*
X159658287Y-57949610D01*
X159751220Y-57767219D01*
X159814477Y-57572534D01*
X159846500Y-57370352D01*
X159846500Y-56765648D01*
X159815195Y-56568000D01*
X159814477Y-56563465D01*
X159785127Y-56473137D01*
X159751220Y-56368781D01*
X159751218Y-56368778D01*
X159751218Y-56368776D01*
X159711705Y-56291229D01*
X159658287Y-56186390D01*
X159650556Y-56175749D01*
X159537971Y-56020786D01*
X159414367Y-55897182D01*
X159380882Y-55835859D01*
X159385866Y-55766167D01*
X159427738Y-55710234D01*
X159493202Y-55685817D01*
X159502048Y-55685501D01*
X179659759Y-55685501D01*
X179659763Y-55685502D01*
X179722952Y-55685501D01*
X179728357Y-55685618D01*
X180112410Y-55702383D01*
X180123183Y-55703325D01*
X180501638Y-55753146D01*
X180512245Y-55755016D01*
X180884940Y-55837637D01*
X180895377Y-55840434D01*
X181054818Y-55890704D01*
X181259423Y-55955214D01*
X181269588Y-55958914D01*
X181622228Y-56104979D01*
X181632032Y-56109550D01*
X181779644Y-56186390D01*
X181970626Y-56285806D01*
X181979981Y-56291208D01*
X182102042Y-56368968D01*
X182301910Y-56496296D01*
X182310769Y-56502499D01*
X182613604Y-56734868D01*
X182621881Y-56741812D01*
X182767239Y-56875007D01*
X182904710Y-57000974D01*
X182908618Y-57004716D01*
X191293196Y-65389294D01*
X191297057Y-65393333D01*
X191564812Y-65686378D01*
X191571968Y-65694955D01*
X191691870Y-65852606D01*
X191807960Y-66005246D01*
X191810580Y-66008690D01*
X191816935Y-66017877D01*
X192026343Y-66351813D01*
X192031845Y-66361534D01*
X192060896Y-66418727D01*
X192180511Y-66654213D01*
X192210347Y-66712950D01*
X192214952Y-66723128D01*
X192361104Y-67089181D01*
X192364775Y-67099731D01*
X192477397Y-67477466D01*
X192480103Y-67488304D01*
X192558270Y-67874628D01*
X192559990Y-67885665D01*
X192603075Y-68277459D01*
X192603795Y-68288606D01*
X192611445Y-68682700D01*
X192611158Y-68693867D01*
X192583314Y-69087031D01*
X192582024Y-69098127D01*
X192518907Y-69487207D01*
X192516623Y-69498141D01*
X192418753Y-69879945D01*
X192415495Y-69890630D01*
X192283655Y-70262094D01*
X192279448Y-70272442D01*
X192114723Y-70630513D01*
X192109603Y-70640441D01*
X191913311Y-70982257D01*
X191907317Y-70991683D01*
X191681066Y-71314438D01*
X191674248Y-71323287D01*
X191419868Y-71624372D01*
X191412283Y-71632572D01*
X191131842Y-71909542D01*
X191123548Y-71917025D01*
X190819322Y-72167631D01*
X190810389Y-72174338D01*
X190482698Y-72398013D01*
X190478014Y-72401058D01*
X189387635Y-73075409D01*
X187262334Y-74434099D01*
X187222980Y-74459258D01*
X186993706Y-74610702D01*
X185079227Y-75875286D01*
X182956777Y-77323238D01*
X180856326Y-78802636D01*
X178778106Y-80313314D01*
X176722718Y-81854839D01*
X174690571Y-83426903D01*
X172682165Y-85029116D01*
X170697857Y-86661197D01*
X168738175Y-88322713D01*
X166803573Y-90013276D01*
X164894403Y-91732576D01*
X163011091Y-93480236D01*
X161154129Y-95255796D01*
X159323893Y-97058894D01*
X157650137Y-98757842D01*
X157520792Y-98889134D01*
X157238176Y-99184707D01*
X155745235Y-100746092D01*
X153997575Y-102629404D01*
X152278275Y-104538574D01*
X150587712Y-106473176D01*
X148926196Y-108432858D01*
X147294116Y-110417166D01*
X145691902Y-112425572D01*
X144119838Y-114457719D01*
X142578313Y-116513107D01*
X141067635Y-118591327D01*
X139588238Y-120691779D01*
X138140285Y-122814228D01*
X136724250Y-124957992D01*
X135340409Y-127122636D01*
X134666163Y-128212843D01*
X134663118Y-128217527D01*
X134439330Y-128545384D01*
X134432623Y-128554317D01*
X134182017Y-128858542D01*
X134174534Y-128866835D01*
X133897565Y-129147277D01*
X133889365Y-129154864D01*
X133588276Y-129409246D01*
X133579427Y-129416063D01*
X133256683Y-129642306D01*
X133247257Y-129648300D01*
X132905435Y-129844595D01*
X132895507Y-129849715D01*
X132537437Y-130014439D01*
X132527089Y-130018646D01*
X132155629Y-130150484D01*
X132144945Y-130153742D01*
X131763138Y-130251614D01*
X131752203Y-130253898D01*
X131363125Y-130317014D01*
X131352029Y-130318304D01*
X130958866Y-130346148D01*
X130947699Y-130346435D01*
X130553606Y-130338785D01*
X130542459Y-130338065D01*
X130150666Y-130294980D01*
X130139629Y-130293260D01*
X129753305Y-130215093D01*
X129742467Y-130212387D01*
X129364738Y-130099768D01*
X129354187Y-130096097D01*
X128988127Y-129949941D01*
X128977951Y-129945336D01*
X128779622Y-129844595D01*
X128626533Y-129766833D01*
X128616823Y-129761338D01*
X128282880Y-129551925D01*
X128273695Y-129545571D01*
X127959961Y-129306960D01*
X127951384Y-129299804D01*
X127658150Y-129031876D01*
X127654111Y-129028015D01*
X124327131Y-125701035D01*
X128587398Y-125701035D01*
X128587398Y-125996062D01*
X128606380Y-126140239D01*
X128625905Y-126288542D01*
X128625906Y-126288544D01*
X128702259Y-126573500D01*
X128702262Y-126573510D01*
X128815152Y-126846049D01*
X128815156Y-126846059D01*
X128962659Y-127101542D01*
X129142250Y-127335589D01*
X129142256Y-127335596D01*
X129350850Y-127544190D01*
X129350857Y-127544196D01*
X129584904Y-127723787D01*
X129840387Y-127871290D01*
X129840388Y-127871290D01*
X129840391Y-127871292D01*
X130112946Y-127984188D01*
X130397905Y-128060542D01*
X130690392Y-128099049D01*
X130690399Y-128099049D01*
X130985397Y-128099049D01*
X130985404Y-128099049D01*
X131277891Y-128060542D01*
X131562850Y-127984188D01*
X131835405Y-127871292D01*
X132090892Y-127723787D01*
X132324940Y-127544195D01*
X132533544Y-127335591D01*
X132713136Y-127101543D01*
X132860641Y-126846056D01*
X132973537Y-126573501D01*
X133049891Y-126288542D01*
X133088398Y-125996055D01*
X133088398Y-125701043D01*
X133049891Y-125408556D01*
X132973537Y-125123597D01*
X132860641Y-124851042D01*
X132713136Y-124595555D01*
X132533544Y-124361507D01*
X132533539Y-124361501D01*
X132324945Y-124152907D01*
X132324938Y-124152901D01*
X132090891Y-123973310D01*
X131835408Y-123825807D01*
X131835398Y-123825803D01*
X131562859Y-123712913D01*
X131562852Y-123712911D01*
X131562850Y-123712910D01*
X131277891Y-123636556D01*
X131229011Y-123630120D01*
X130985411Y-123598049D01*
X130985404Y-123598049D01*
X130690392Y-123598049D01*
X130690384Y-123598049D01*
X130411983Y-123634702D01*
X130397905Y-123636556D01*
X130112946Y-123712910D01*
X130112936Y-123712913D01*
X129840397Y-123825803D01*
X129840387Y-123825807D01*
X129584904Y-123973310D01*
X129350857Y-124152901D01*
X129350850Y-124152907D01*
X129142256Y-124361501D01*
X129142250Y-124361508D01*
X128962659Y-124595555D01*
X128815156Y-124851038D01*
X128815152Y-124851048D01*
X128702262Y-125123587D01*
X128702259Y-125123597D01*
X128625906Y-125408553D01*
X128625904Y-125408564D01*
X128587398Y-125701035D01*
X124327131Y-125701035D01*
X119270301Y-120644205D01*
X119266559Y-120640296D01*
X119006848Y-120356866D01*
X118999895Y-120348580D01*
X118767529Y-120045751D01*
X118761324Y-120036889D01*
X118556242Y-119714970D01*
X118550833Y-119705602D01*
X118494577Y-119597532D01*
X118374576Y-119367006D01*
X118370015Y-119357225D01*
X118223940Y-119004562D01*
X118220248Y-118994415D01*
X118105464Y-118630357D01*
X118102673Y-118619943D01*
X118020052Y-118247244D01*
X118018181Y-118236633D01*
X117968360Y-117858180D01*
X117967418Y-117847406D01*
X117950618Y-117462534D01*
X117950500Y-117457126D01*
X117950500Y-117435061D01*
X117950501Y-117394764D01*
X117950500Y-117394760D01*
X117950500Y-109320097D01*
X117970185Y-109253058D01*
X118022989Y-109207303D01*
X118092147Y-109197359D01*
X118155703Y-109226384D01*
X118162181Y-109232416D01*
X123371425Y-114441660D01*
X123404910Y-114502983D01*
X123405361Y-114505149D01*
X123436261Y-114660491D01*
X123436264Y-114660501D01*
X123496602Y-114806172D01*
X123496609Y-114806185D01*
X123584210Y-114937288D01*
X123584213Y-114937292D01*
X123695707Y-115048786D01*
X123695711Y-115048789D01*
X123826814Y-115136390D01*
X123826827Y-115136397D01*
X123978130Y-115199068D01*
X123977559Y-115200445D01*
X124029819Y-115234685D01*
X124058283Y-115298494D01*
X124047730Y-115367562D01*
X124008282Y-115415375D01*
X123983487Y-115433390D01*
X123983481Y-115433395D01*
X123845795Y-115571081D01*
X123731338Y-115728617D01*
X123642936Y-115902116D01*
X123582761Y-116087315D01*
X123552300Y-116279638D01*
X123552300Y-116474362D01*
X123582762Y-116666688D01*
X123642935Y-116851881D01*
X123731338Y-117025382D01*
X123845793Y-117182916D01*
X123983484Y-117320607D01*
X124141018Y-117435062D01*
X124314519Y-117523465D01*
X124332576Y-117529332D01*
X124390249Y-117568767D01*
X124417448Y-117633125D01*
X124405535Y-117701972D01*
X124358292Y-117753448D01*
X124332578Y-117765192D01*
X124314708Y-117770998D01*
X124141277Y-117859366D01*
X124108867Y-117882913D01*
X124108866Y-117882913D01*
X124674198Y-118448244D01*
X124603123Y-118467289D01*
X124493077Y-118530824D01*
X124403224Y-118620677D01*
X124339689Y-118730723D01*
X124320644Y-118801797D01*
X123755313Y-118236466D01*
X123755313Y-118236467D01*
X123731766Y-118268877D01*
X123643399Y-118442305D01*
X123583248Y-118627428D01*
X123552800Y-118819671D01*
X123552800Y-119014328D01*
X123583248Y-119206571D01*
X123643399Y-119391694D01*
X123731766Y-119565122D01*
X123755312Y-119597531D01*
X123755313Y-119597531D01*
X124320644Y-119032201D01*
X124339689Y-119103277D01*
X124403224Y-119213323D01*
X124493077Y-119303176D01*
X124603123Y-119366711D01*
X124674197Y-119385755D01*
X124108867Y-119951085D01*
X124141283Y-119974636D01*
X124314705Y-120062999D01*
X124332573Y-120068805D01*
X124390249Y-120108242D01*
X124417449Y-120172600D01*
X124405535Y-120241447D01*
X124358292Y-120292923D01*
X124332578Y-120304667D01*
X124314517Y-120310535D01*
X124141017Y-120398938D01*
X123983481Y-120513395D01*
X123845795Y-120651081D01*
X123731338Y-120808617D01*
X123642936Y-120982116D01*
X123582761Y-121167315D01*
X123578017Y-121197270D01*
X123552300Y-121359638D01*
X123552300Y-121554362D01*
X123582762Y-121746688D01*
X123642935Y-121931881D01*
X123731338Y-122105382D01*
X123845793Y-122262916D01*
X123983484Y-122400607D01*
X124141018Y-122515062D01*
X124314519Y-122603465D01*
X124499712Y-122663638D01*
X124692038Y-122694100D01*
X124692039Y-122694100D01*
X124886761Y-122694100D01*
X124886762Y-122694100D01*
X125079088Y-122663638D01*
X125264281Y-122603465D01*
X125437782Y-122515062D01*
X125595316Y-122400607D01*
X125733007Y-122262916D01*
X125847462Y-122105382D01*
X125935865Y-121931881D01*
X125996038Y-121746688D01*
X126026500Y-121554362D01*
X126026500Y-121359638D01*
X125996038Y-121167312D01*
X125935865Y-120982119D01*
X125847462Y-120808618D01*
X125733007Y-120651084D01*
X125595316Y-120513393D01*
X125437782Y-120398938D01*
X125264285Y-120310536D01*
X125256702Y-120308072D01*
X125246221Y-120304667D01*
X125188548Y-120265230D01*
X125161350Y-120200871D01*
X125173265Y-120132024D01*
X125220510Y-120080549D01*
X125246227Y-120068805D01*
X125264093Y-120063000D01*
X125437512Y-119974638D01*
X125437525Y-119974630D01*
X125469931Y-119951086D01*
X125469932Y-119951085D01*
X124904602Y-119385755D01*
X124975677Y-119366711D01*
X125085723Y-119303176D01*
X125175576Y-119213323D01*
X125239111Y-119103277D01*
X125258155Y-119032202D01*
X125823485Y-119597532D01*
X125823486Y-119597531D01*
X125847030Y-119565125D01*
X125847038Y-119565112D01*
X125935400Y-119391694D01*
X125995551Y-119206571D01*
X126026000Y-119014328D01*
X126026000Y-118819671D01*
X125995551Y-118627428D01*
X125935400Y-118442305D01*
X125847036Y-118268883D01*
X125823485Y-118236467D01*
X125258155Y-118801797D01*
X125239111Y-118730723D01*
X125175576Y-118620677D01*
X125085723Y-118530824D01*
X124975677Y-118467289D01*
X124904602Y-118448244D01*
X125469931Y-117882913D01*
X125469931Y-117882912D01*
X125437522Y-117859366D01*
X125264095Y-117771000D01*
X125246222Y-117765193D01*
X125188547Y-117725754D01*
X125161350Y-117661395D01*
X125173265Y-117592549D01*
X125220510Y-117541074D01*
X125246218Y-117529333D01*
X125264281Y-117523465D01*
X125437782Y-117435062D01*
X125595316Y-117320607D01*
X125733007Y-117182916D01*
X125847462Y-117025382D01*
X125935865Y-116851881D01*
X125996038Y-116666688D01*
X126026500Y-116474362D01*
X126026500Y-116279638D01*
X125996038Y-116087312D01*
X125935865Y-115902119D01*
X125847462Y-115728618D01*
X125733007Y-115571084D01*
X125595316Y-115433393D01*
X125437782Y-115318938D01*
X125264281Y-115230535D01*
X125079088Y-115170362D01*
X125079086Y-115170361D01*
X125079084Y-115170361D01*
X124901163Y-115142181D01*
X124838028Y-115112252D01*
X124801097Y-115052940D01*
X124802095Y-114983078D01*
X124824711Y-114941039D01*
X124827781Y-114937296D01*
X124827789Y-114937289D01*
X124915394Y-114806179D01*
X124975737Y-114660497D01*
X125006500Y-114505842D01*
X125006500Y-114348158D01*
X125006500Y-114348155D01*
X125006499Y-114348153D01*
X124975738Y-114193510D01*
X124975737Y-114193503D01*
X124975735Y-114193498D01*
X124915397Y-114047827D01*
X124915390Y-114047814D01*
X124827789Y-113916711D01*
X124827786Y-113916707D01*
X124716292Y-113805213D01*
X124716288Y-113805210D01*
X124585185Y-113717609D01*
X124585172Y-113717602D01*
X124439501Y-113657264D01*
X124439491Y-113657261D01*
X124284151Y-113626362D01*
X124222241Y-113593977D01*
X124220662Y-113592426D01*
X118873819Y-108245583D01*
X118840334Y-108184260D01*
X118837500Y-108157902D01*
X118837500Y-107363153D01*
X133184500Y-107363153D01*
X133184500Y-107520846D01*
X133215261Y-107675489D01*
X133215264Y-107675501D01*
X133275602Y-107821172D01*
X133275609Y-107821185D01*
X133363210Y-107952288D01*
X133363213Y-107952292D01*
X133474707Y-108063786D01*
X133474711Y-108063789D01*
X133605814Y-108151390D01*
X133605827Y-108151397D01*
X133751498Y-108211735D01*
X133751503Y-108211737D01*
X133816147Y-108224595D01*
X133906849Y-108242638D01*
X133968760Y-108275023D01*
X133970339Y-108276574D01*
X135309425Y-109615660D01*
X135342910Y-109676983D01*
X135343361Y-109679149D01*
X135374261Y-109834491D01*
X135374264Y-109834501D01*
X135434602Y-109980172D01*
X135434609Y-109980185D01*
X135522210Y-110111288D01*
X135522213Y-110111292D01*
X135633707Y-110222786D01*
X135633711Y-110222789D01*
X135764814Y-110310390D01*
X135764827Y-110310397D01*
X135910498Y-110370735D01*
X135910503Y-110370737D01*
X136065153Y-110401499D01*
X136065156Y-110401500D01*
X136065158Y-110401500D01*
X136222844Y-110401500D01*
X136222845Y-110401499D01*
X136377497Y-110370737D01*
X136523179Y-110310394D01*
X136654289Y-110222789D01*
X136765789Y-110111289D01*
X136853394Y-109980179D01*
X136913737Y-109834497D01*
X136944500Y-109679842D01*
X136944500Y-109645097D01*
X136950738Y-109623851D01*
X136952318Y-109601763D01*
X136960390Y-109590979D01*
X136964185Y-109578058D01*
X136980918Y-109563558D01*
X136994190Y-109545830D01*
X137006810Y-109541122D01*
X137016989Y-109532303D01*
X137038906Y-109529151D01*
X137059654Y-109521413D01*
X137072814Y-109524275D01*
X137086147Y-109522359D01*
X137106290Y-109531558D01*
X137127927Y-109536265D01*
X137145652Y-109549533D01*
X137149703Y-109551384D01*
X137156181Y-109557416D01*
X137183139Y-109584374D01*
X137183149Y-109584385D01*
X137187479Y-109588715D01*
X137187480Y-109588716D01*
X137299284Y-109700520D01*
X137386095Y-109750639D01*
X137386097Y-109750641D01*
X137424151Y-109772611D01*
X137436215Y-109779577D01*
X137588943Y-109820501D01*
X137588946Y-109820501D01*
X137754653Y-109820501D01*
X137754669Y-109820500D01*
X138978331Y-109820500D01*
X138978347Y-109820501D01*
X138985943Y-109820501D01*
X139144054Y-109820501D01*
X139144057Y-109820501D01*
X139296785Y-109779577D01*
X139346904Y-109750639D01*
X139433716Y-109700520D01*
X139545520Y-109588716D01*
X139545520Y-109588714D01*
X139555728Y-109578507D01*
X139555729Y-109578504D01*
X141365662Y-107768572D01*
X141426983Y-107735089D01*
X141429150Y-107734638D01*
X141487085Y-107723113D01*
X141584497Y-107703737D01*
X141730179Y-107643394D01*
X141861289Y-107555789D01*
X141972789Y-107444289D01*
X142060394Y-107313179D01*
X142120737Y-107167497D01*
X142151500Y-107012842D01*
X142151500Y-106855158D01*
X142151500Y-106855155D01*
X142151499Y-106855153D01*
X142144549Y-106820213D01*
X142120737Y-106700503D01*
X142098963Y-106647936D01*
X142060397Y-106554827D01*
X142060390Y-106554814D01*
X141972789Y-106423711D01*
X141972786Y-106423707D01*
X141861292Y-106312213D01*
X141861288Y-106312210D01*
X141730185Y-106224609D01*
X141730172Y-106224602D01*
X141584501Y-106164264D01*
X141584489Y-106164261D01*
X141429845Y-106133500D01*
X141429842Y-106133500D01*
X141272158Y-106133500D01*
X141272155Y-106133500D01*
X141117510Y-106164261D01*
X141117498Y-106164264D01*
X140971827Y-106224602D01*
X140971814Y-106224609D01*
X140840711Y-106312210D01*
X140840707Y-106312213D01*
X140729213Y-106423707D01*
X140729210Y-106423711D01*
X140641609Y-106554814D01*
X140641602Y-106554827D01*
X140581264Y-106700498D01*
X140581261Y-106700508D01*
X140550361Y-106855850D01*
X140517976Y-106917761D01*
X140516425Y-106919339D01*
X139201493Y-108234271D01*
X139140170Y-108267756D01*
X139070478Y-108262772D01*
X139014545Y-108220900D01*
X138990128Y-108155436D01*
X139004980Y-108087163D01*
X139010709Y-108077699D01*
X139012394Y-108075179D01*
X139072737Y-107929497D01*
X139103500Y-107774842D01*
X139103500Y-107617158D01*
X139103500Y-107617155D01*
X139103499Y-107617153D01*
X139072738Y-107462510D01*
X139072737Y-107462503D01*
X139044058Y-107393265D01*
X139012397Y-107316827D01*
X139012390Y-107316814D01*
X138924789Y-107185711D01*
X138924786Y-107185707D01*
X138813292Y-107074213D01*
X138813288Y-107074210D01*
X138682185Y-106986609D01*
X138682172Y-106986602D01*
X138536501Y-106926264D01*
X138536489Y-106926261D01*
X138381845Y-106895500D01*
X138381842Y-106895500D01*
X138224158Y-106895500D01*
X138224155Y-106895500D01*
X138183715Y-106903544D01*
X138114124Y-106897317D01*
X138071843Y-106869608D01*
X136851574Y-105649339D01*
X136818089Y-105588016D01*
X136817638Y-105585849D01*
X136786738Y-105430510D01*
X136786737Y-105430505D01*
X136786737Y-105430503D01*
X136786735Y-105430498D01*
X136726397Y-105284827D01*
X136726390Y-105284814D01*
X136638789Y-105153711D01*
X136638786Y-105153707D01*
X136527292Y-105042213D01*
X136527288Y-105042210D01*
X136396185Y-104954609D01*
X136396172Y-104954602D01*
X136250501Y-104894264D01*
X136250489Y-104894261D01*
X136095845Y-104863500D01*
X136095842Y-104863500D01*
X135938158Y-104863500D01*
X135938155Y-104863500D01*
X135783510Y-104894261D01*
X135783498Y-104894264D01*
X135637827Y-104954602D01*
X135637814Y-104954609D01*
X135506711Y-105042210D01*
X135506707Y-105042213D01*
X135395213Y-105153707D01*
X135395210Y-105153711D01*
X135307609Y-105284814D01*
X135307602Y-105284827D01*
X135247264Y-105430498D01*
X135247262Y-105430505D01*
X135238283Y-105475643D01*
X135205896Y-105537553D01*
X135145180Y-105572126D01*
X135075410Y-105568385D01*
X135069214Y-105566010D01*
X134980501Y-105529264D01*
X134980489Y-105529261D01*
X134825845Y-105498500D01*
X134825842Y-105498500D01*
X134668158Y-105498500D01*
X134668155Y-105498500D01*
X134513510Y-105529261D01*
X134513498Y-105529264D01*
X134367827Y-105589602D01*
X134367814Y-105589609D01*
X134236711Y-105677210D01*
X134236707Y-105677213D01*
X134125213Y-105788707D01*
X134125210Y-105788711D01*
X134037609Y-105919814D01*
X134037602Y-105919827D01*
X133977264Y-106065498D01*
X133977261Y-106065510D01*
X133946500Y-106220153D01*
X133946500Y-106377846D01*
X133971221Y-106502128D01*
X133964994Y-106571720D01*
X133922131Y-106626897D01*
X133873796Y-106647936D01*
X133751508Y-106672261D01*
X133751498Y-106672264D01*
X133605827Y-106732602D01*
X133605814Y-106732609D01*
X133474711Y-106820210D01*
X133474707Y-106820213D01*
X133363213Y-106931707D01*
X133363210Y-106931711D01*
X133275609Y-107062814D01*
X133275602Y-107062827D01*
X133215264Y-107208498D01*
X133215261Y-107208510D01*
X133184500Y-107363153D01*
X118837500Y-107363153D01*
X118837500Y-99997153D01*
X123316500Y-99997153D01*
X123316500Y-100154846D01*
X123347261Y-100309489D01*
X123347264Y-100309501D01*
X123407602Y-100455172D01*
X123407609Y-100455185D01*
X123495210Y-100586288D01*
X123495213Y-100586292D01*
X123606707Y-100697786D01*
X123606711Y-100697789D01*
X123737814Y-100785390D01*
X123737827Y-100785397D01*
X123883498Y-100845735D01*
X123883503Y-100845737D01*
X123948147Y-100858595D01*
X124038849Y-100876638D01*
X124100760Y-100909023D01*
X124102339Y-100910574D01*
X124481254Y-101289489D01*
X124514739Y-101350812D01*
X124516976Y-101389322D01*
X124516500Y-101394155D01*
X124516500Y-101551846D01*
X124547261Y-101706489D01*
X124547264Y-101706501D01*
X124607602Y-101852172D01*
X124607609Y-101852185D01*
X124695210Y-101983288D01*
X124695213Y-101983292D01*
X124806707Y-102094786D01*
X124806711Y-102094789D01*
X124937814Y-102182390D01*
X124937827Y-102182397D01*
X125083498Y-102242735D01*
X125083503Y-102242737D01*
X125238153Y-102273499D01*
X125238156Y-102273500D01*
X125238158Y-102273500D01*
X125395844Y-102273500D01*
X125395845Y-102273499D01*
X125550497Y-102242737D01*
X125696179Y-102182394D01*
X125827289Y-102094789D01*
X125938789Y-101983289D01*
X126026394Y-101852179D01*
X126086737Y-101706497D01*
X126117500Y-101551842D01*
X126117500Y-101394158D01*
X126117500Y-101394155D01*
X126117499Y-101394153D01*
X126086738Y-101239510D01*
X126086737Y-101239503D01*
X126086735Y-101239498D01*
X126026397Y-101093827D01*
X126026390Y-101093814D01*
X125938789Y-100962711D01*
X125938786Y-100962707D01*
X125827292Y-100851213D01*
X125827288Y-100851210D01*
X125696185Y-100763609D01*
X125696175Y-100763604D01*
X125646689Y-100743106D01*
X125606461Y-100716226D01*
X124951574Y-100061339D01*
X124918089Y-100000016D01*
X124917638Y-99997849D01*
X124886738Y-99842510D01*
X124886737Y-99842503D01*
X124858297Y-99773842D01*
X124826397Y-99696827D01*
X124826390Y-99696814D01*
X124738789Y-99565711D01*
X124738786Y-99565707D01*
X124627292Y-99454213D01*
X124627288Y-99454210D01*
X124496185Y-99366609D01*
X124496172Y-99366602D01*
X124350501Y-99306264D01*
X124350489Y-99306261D01*
X124195845Y-99275500D01*
X124195842Y-99275500D01*
X124038158Y-99275500D01*
X124038155Y-99275500D01*
X123883510Y-99306261D01*
X123883498Y-99306264D01*
X123737827Y-99366602D01*
X123737814Y-99366609D01*
X123606711Y-99454210D01*
X123606707Y-99454213D01*
X123495213Y-99565707D01*
X123495210Y-99565711D01*
X123407609Y-99696814D01*
X123407602Y-99696827D01*
X123347264Y-99842498D01*
X123347261Y-99842510D01*
X123316500Y-99997153D01*
X118837500Y-99997153D01*
X118837500Y-97203153D01*
X120484500Y-97203153D01*
X120484500Y-97360846D01*
X120515261Y-97515489D01*
X120515264Y-97515501D01*
X120575602Y-97661172D01*
X120575609Y-97661185D01*
X120663210Y-97792288D01*
X120663213Y-97792292D01*
X120774707Y-97903786D01*
X120774711Y-97903789D01*
X120905814Y-97991390D01*
X120905827Y-97991397D01*
X121051498Y-98051735D01*
X121051503Y-98051737D01*
X121206153Y-98082499D01*
X121206156Y-98082500D01*
X121206158Y-98082500D01*
X121363844Y-98082500D01*
X121363845Y-98082499D01*
X121518497Y-98051737D01*
X121664179Y-97991394D01*
X121744990Y-97937398D01*
X121811668Y-97916520D01*
X121813881Y-97916500D01*
X141317059Y-97916500D01*
X141384098Y-97936185D01*
X141429853Y-97988989D01*
X141439797Y-98058147D01*
X141410772Y-98121703D01*
X141404740Y-98128181D01*
X141364213Y-98168707D01*
X141364210Y-98168711D01*
X141276609Y-98299814D01*
X141276602Y-98299827D01*
X141216264Y-98445498D01*
X141216261Y-98445510D01*
X141185500Y-98600153D01*
X141185500Y-98757846D01*
X141216261Y-98912489D01*
X141216264Y-98912501D01*
X141276602Y-99058172D01*
X141276607Y-99058181D01*
X141364210Y-99189288D01*
X141364213Y-99189292D01*
X141475707Y-99300786D01*
X141475711Y-99300789D01*
X141606814Y-99388390D01*
X141606827Y-99388397D01*
X141752498Y-99448735D01*
X141752503Y-99448737D01*
X141816656Y-99461498D01*
X141907849Y-99479638D01*
X141969760Y-99512023D01*
X141971339Y-99513574D01*
X142517139Y-100059374D01*
X142517149Y-100059385D01*
X142521479Y-100063715D01*
X142521480Y-100063716D01*
X142633284Y-100175520D01*
X142684845Y-100205288D01*
X142720095Y-100225639D01*
X142720097Y-100225641D01*
X142758151Y-100247611D01*
X142770215Y-100254577D01*
X142922943Y-100295501D01*
X142922946Y-100295501D01*
X143088653Y-100295501D01*
X143088669Y-100295500D01*
X145981734Y-100295500D01*
X146048773Y-100315185D01*
X146050625Y-100316398D01*
X146182314Y-100404390D01*
X146182327Y-100404397D01*
X146304942Y-100455185D01*
X146328003Y-100464737D01*
X146482653Y-100495499D01*
X146482656Y-100495500D01*
X146482658Y-100495500D01*
X146640344Y-100495500D01*
X146640345Y-100495499D01*
X146794997Y-100464737D01*
X146940679Y-100404394D01*
X147071789Y-100316789D01*
X147183289Y-100205289D01*
X147270894Y-100074179D01*
X147276213Y-100061339D01*
X147331235Y-99928501D01*
X147331237Y-99928497D01*
X147362000Y-99773842D01*
X147362000Y-99616158D01*
X147362000Y-99616155D01*
X147361999Y-99616153D01*
X147351965Y-99565711D01*
X147331237Y-99461503D01*
X147300956Y-99388397D01*
X147270897Y-99315827D01*
X147270890Y-99315814D01*
X147183289Y-99184711D01*
X147183286Y-99184707D01*
X147071792Y-99073213D01*
X147071788Y-99073210D01*
X146940685Y-98985609D01*
X146940672Y-98985602D01*
X146795001Y-98925264D01*
X146794989Y-98925261D01*
X146640345Y-98894500D01*
X146640342Y-98894500D01*
X146482658Y-98894500D01*
X146482655Y-98894500D01*
X146328010Y-98925261D01*
X146327998Y-98925264D01*
X146182327Y-98985602D01*
X146182314Y-98985609D01*
X146050625Y-99073602D01*
X145983947Y-99094480D01*
X145981734Y-99094500D01*
X143302097Y-99094500D01*
X143235058Y-99074815D01*
X143214416Y-99058181D01*
X142820574Y-98664339D01*
X142787089Y-98603016D01*
X142786638Y-98600849D01*
X142755738Y-98445510D01*
X142755737Y-98445503D01*
X142700275Y-98311604D01*
X142695397Y-98299827D01*
X142695390Y-98299814D01*
X142607789Y-98168711D01*
X142607786Y-98168707D01*
X142496292Y-98057213D01*
X142496288Y-98057210D01*
X142448378Y-98025197D01*
X142403573Y-97971584D01*
X142394866Y-97902259D01*
X142425021Y-97839232D01*
X142434708Y-97829576D01*
X142444220Y-97821087D01*
X142486773Y-97796520D01*
X142598577Y-97684716D01*
X142598578Y-97684713D01*
X143512819Y-96770471D01*
X143574142Y-96736987D01*
X143643834Y-96741971D01*
X143699767Y-96783843D01*
X143724184Y-96849307D01*
X143724500Y-96858153D01*
X143724500Y-96979846D01*
X143755261Y-97134489D01*
X143755264Y-97134501D01*
X143815602Y-97280172D01*
X143815609Y-97280185D01*
X143903210Y-97411288D01*
X143903213Y-97411292D01*
X144014707Y-97522786D01*
X144014711Y-97522789D01*
X144145814Y-97610390D01*
X144145827Y-97610397D01*
X144268442Y-97661185D01*
X144291503Y-97670737D01*
X144445801Y-97701429D01*
X144446153Y-97701499D01*
X144446156Y-97701500D01*
X144552903Y-97701500D01*
X144582343Y-97710144D01*
X144612330Y-97716668D01*
X144617345Y-97720422D01*
X144619942Y-97721185D01*
X144640584Y-97737819D01*
X144718740Y-97815975D01*
X144752225Y-97877298D01*
X144752676Y-97879464D01*
X144783576Y-98034806D01*
X144783579Y-98034816D01*
X144843917Y-98180487D01*
X144843924Y-98180500D01*
X144931525Y-98311603D01*
X144931528Y-98311607D01*
X145043022Y-98423101D01*
X145043026Y-98423104D01*
X145174129Y-98510705D01*
X145174142Y-98510712D01*
X145319813Y-98571050D01*
X145319818Y-98571052D01*
X145466118Y-98600153D01*
X145474468Y-98601814D01*
X145474471Y-98601815D01*
X145474473Y-98601815D01*
X145632159Y-98601815D01*
X145632160Y-98601814D01*
X145786812Y-98571052D01*
X145932494Y-98510709D01*
X146063604Y-98423104D01*
X146175104Y-98311604D01*
X146262709Y-98180494D01*
X146323052Y-98034812D01*
X146353815Y-97880157D01*
X146353815Y-97722473D01*
X146353815Y-97722470D01*
X146353814Y-97722468D01*
X146343524Y-97670737D01*
X146323052Y-97567818D01*
X146301377Y-97515489D01*
X146262712Y-97422142D01*
X146262705Y-97422129D01*
X146175104Y-97291026D01*
X146175101Y-97291022D01*
X146063607Y-97179528D01*
X146063603Y-97179525D01*
X145932500Y-97091924D01*
X145932487Y-97091917D01*
X145786816Y-97031579D01*
X145786804Y-97031576D01*
X145631466Y-97000677D01*
X145569555Y-96968292D01*
X145568026Y-96966790D01*
X145327789Y-96726554D01*
X145298408Y-96672747D01*
X145296503Y-96673325D01*
X145294737Y-96667503D01*
X145234395Y-96521823D01*
X145234390Y-96521814D01*
X145146789Y-96390711D01*
X145146786Y-96390707D01*
X145035292Y-96279213D01*
X145035288Y-96279210D01*
X144904185Y-96191609D01*
X144904172Y-96191602D01*
X144758501Y-96131264D01*
X144758489Y-96131261D01*
X144603845Y-96100500D01*
X144603842Y-96100500D01*
X144482154Y-96100500D01*
X144415115Y-96080815D01*
X144369360Y-96028011D01*
X144359416Y-95958853D01*
X144388441Y-95895297D01*
X144394473Y-95888819D01*
X145158473Y-95124819D01*
X145219796Y-95091334D01*
X145246154Y-95088500D01*
X149788234Y-95088500D01*
X149855273Y-95108185D01*
X149857125Y-95109398D01*
X149988814Y-95197390D01*
X149988827Y-95197397D01*
X150129807Y-95255792D01*
X150134503Y-95257737D01*
X150289153Y-95288499D01*
X150289156Y-95288500D01*
X150289158Y-95288500D01*
X150446844Y-95288500D01*
X150446845Y-95288499D01*
X150601497Y-95257737D01*
X150747179Y-95197394D01*
X150878289Y-95109789D01*
X150989789Y-94998289D01*
X151077394Y-94867179D01*
X151082713Y-94854339D01*
X151137735Y-94721501D01*
X151137737Y-94721497D01*
X151168500Y-94566842D01*
X151168500Y-94409158D01*
X151168500Y-94409155D01*
X151168499Y-94409153D01*
X151158465Y-94358711D01*
X151137737Y-94254503D01*
X151092587Y-94145500D01*
X151077397Y-94108827D01*
X151077390Y-94108814D01*
X150989789Y-93977711D01*
X150989786Y-93977707D01*
X150878292Y-93866213D01*
X150878288Y-93866210D01*
X150747185Y-93778609D01*
X150747172Y-93778602D01*
X150601501Y-93718264D01*
X150601489Y-93718261D01*
X150446845Y-93687500D01*
X150446842Y-93687500D01*
X150289158Y-93687500D01*
X150289155Y-93687500D01*
X150134510Y-93718261D01*
X150134498Y-93718264D01*
X149988827Y-93778602D01*
X149988814Y-93778609D01*
X149857125Y-93866602D01*
X149790447Y-93887480D01*
X149788234Y-93887500D01*
X145032726Y-93887500D01*
X145032710Y-93887499D01*
X145025114Y-93887499D01*
X144867000Y-93887499D01*
X144714272Y-93928423D01*
X144714271Y-93928423D01*
X144714269Y-93928424D01*
X144684696Y-93945499D01*
X144684694Y-93945500D01*
X144577344Y-94007477D01*
X144577339Y-94007481D01*
X144330131Y-94254690D01*
X144268808Y-94288175D01*
X144199116Y-94283191D01*
X144154769Y-94254690D01*
X144147292Y-94247213D01*
X144147288Y-94247210D01*
X144016185Y-94159609D01*
X144016172Y-94159602D01*
X143870501Y-94099264D01*
X143870489Y-94099261D01*
X143715845Y-94068500D01*
X143715842Y-94068500D01*
X143558158Y-94068500D01*
X143558155Y-94068500D01*
X143403510Y-94099261D01*
X143403498Y-94099264D01*
X143257827Y-94159602D01*
X143257814Y-94159609D01*
X143126711Y-94247210D01*
X143126707Y-94247213D01*
X143015213Y-94358707D01*
X143015210Y-94358711D01*
X142927609Y-94489814D01*
X142927602Y-94489827D01*
X142867264Y-94635498D01*
X142867261Y-94635508D01*
X142836361Y-94790850D01*
X142803976Y-94852761D01*
X142802425Y-94854339D01*
X141777583Y-95879181D01*
X141716260Y-95912666D01*
X141689902Y-95915500D01*
X141526155Y-95915500D01*
X141371510Y-95946261D01*
X141371498Y-95946264D01*
X141225827Y-96006602D01*
X141225814Y-96006609D01*
X141094711Y-96094210D01*
X141094707Y-96094213D01*
X140983213Y-96205707D01*
X140983210Y-96205711D01*
X140895609Y-96336814D01*
X140895602Y-96336827D01*
X140835264Y-96482498D01*
X140835261Y-96482508D01*
X140808769Y-96615692D01*
X140776384Y-96677603D01*
X140715668Y-96712177D01*
X140687152Y-96715500D01*
X121901941Y-96715500D01*
X121834902Y-96695815D01*
X121814260Y-96679181D01*
X121795292Y-96660213D01*
X121795288Y-96660210D01*
X121664185Y-96572609D01*
X121664172Y-96572602D01*
X121518501Y-96512264D01*
X121518489Y-96512261D01*
X121363845Y-96481500D01*
X121363842Y-96481500D01*
X121206158Y-96481500D01*
X121206155Y-96481500D01*
X121051510Y-96512261D01*
X121051498Y-96512264D01*
X120905827Y-96572602D01*
X120905814Y-96572609D01*
X120774711Y-96660210D01*
X120774707Y-96660213D01*
X120663213Y-96771707D01*
X120663210Y-96771711D01*
X120575609Y-96902814D01*
X120575602Y-96902827D01*
X120515264Y-97048498D01*
X120515261Y-97048510D01*
X120484500Y-97203153D01*
X118837500Y-97203153D01*
X118837500Y-91105097D01*
X118857185Y-91038058D01*
X118873819Y-91017416D01*
X119165082Y-90726153D01*
X123151500Y-90726153D01*
X123151500Y-90883846D01*
X123182261Y-91038489D01*
X123182264Y-91038501D01*
X123242602Y-91184172D01*
X123242609Y-91184185D01*
X123330210Y-91315288D01*
X123330213Y-91315292D01*
X123441707Y-91426786D01*
X123441711Y-91426789D01*
X123572814Y-91514390D01*
X123572827Y-91514397D01*
X123718498Y-91574735D01*
X123718503Y-91574737D01*
X123782656Y-91587498D01*
X123873849Y-91605638D01*
X123935760Y-91638023D01*
X123937339Y-91639574D01*
X125657425Y-93359660D01*
X125690910Y-93420983D01*
X125691361Y-93423149D01*
X125722261Y-93578491D01*
X125722264Y-93578501D01*
X125782602Y-93724172D01*
X125782609Y-93724185D01*
X125870210Y-93855288D01*
X125870213Y-93855292D01*
X125981707Y-93966786D01*
X125981711Y-93966789D01*
X126112814Y-94054390D01*
X126112827Y-94054397D01*
X126244220Y-94108821D01*
X126258503Y-94114737D01*
X126413153Y-94145499D01*
X126413156Y-94145500D01*
X126413158Y-94145500D01*
X126570844Y-94145500D01*
X126570845Y-94145499D01*
X126725497Y-94114737D01*
X126871179Y-94054394D01*
X127002289Y-93966789D01*
X127113789Y-93855289D01*
X127201394Y-93724179D01*
X127203845Y-93718263D01*
X127222431Y-93673390D01*
X127261737Y-93578497D01*
X127292500Y-93423842D01*
X127292500Y-93266158D01*
X127292500Y-93266155D01*
X127292499Y-93266153D01*
X127261738Y-93111510D01*
X127261737Y-93111503D01*
X127233297Y-93042842D01*
X127201397Y-92965827D01*
X127201393Y-92965820D01*
X127189458Y-92947958D01*
X127189457Y-92947956D01*
X127147493Y-92885153D01*
X153123500Y-92885153D01*
X153123500Y-93042846D01*
X153154261Y-93197489D01*
X153154264Y-93197501D01*
X153214602Y-93343172D01*
X153214609Y-93343185D01*
X153302210Y-93474288D01*
X153302213Y-93474292D01*
X153413707Y-93585786D01*
X153413711Y-93585789D01*
X153544814Y-93673390D01*
X153544827Y-93673397D01*
X153667442Y-93724185D01*
X153690503Y-93733737D01*
X153845153Y-93764499D01*
X153845156Y-93764500D01*
X153845158Y-93764500D01*
X154002844Y-93764500D01*
X154002845Y-93764499D01*
X154157497Y-93733737D01*
X154303179Y-93673394D01*
X154434289Y-93585789D01*
X154545789Y-93474289D01*
X154633394Y-93343179D01*
X154693737Y-93197497D01*
X154713113Y-93100085D01*
X154724638Y-93042150D01*
X154733402Y-93025393D01*
X154737423Y-93006914D01*
X154756167Y-92981875D01*
X154757023Y-92980239D01*
X154758518Y-92978716D01*
X154876927Y-92860307D01*
X154938248Y-92826824D01*
X154940415Y-92826373D01*
X154998350Y-92814848D01*
X155095762Y-92795472D01*
X155241444Y-92735129D01*
X155372554Y-92647524D01*
X155484054Y-92536024D01*
X155571659Y-92404914D01*
X155632002Y-92259232D01*
X155662765Y-92104577D01*
X155662765Y-91946893D01*
X155662765Y-91946890D01*
X155662764Y-91946888D01*
X155639262Y-91828737D01*
X155632002Y-91792238D01*
X155622124Y-91768390D01*
X155571662Y-91646562D01*
X155571655Y-91646549D01*
X155484054Y-91515446D01*
X155484051Y-91515442D01*
X155372557Y-91403948D01*
X155372553Y-91403945D01*
X155241450Y-91316344D01*
X155241437Y-91316337D01*
X155095766Y-91255999D01*
X155095754Y-91255996D01*
X154941110Y-91225235D01*
X154941107Y-91225235D01*
X154783423Y-91225235D01*
X154783420Y-91225235D01*
X154628775Y-91255996D01*
X154628763Y-91255999D01*
X154483092Y-91316337D01*
X154483079Y-91316344D01*
X154351976Y-91403945D01*
X154351972Y-91403948D01*
X154240478Y-91515442D01*
X154240475Y-91515446D01*
X154152874Y-91646549D01*
X154152867Y-91646562D01*
X154092529Y-91792233D01*
X154092526Y-91792243D01*
X154061626Y-91947585D01*
X154052860Y-91964341D01*
X154048841Y-91982820D01*
X154030098Y-92007856D01*
X154029241Y-92009496D01*
X154027690Y-92011074D01*
X153909339Y-92129425D01*
X153848016Y-92162910D01*
X153845850Y-92163361D01*
X153690508Y-92194261D01*
X153690498Y-92194264D01*
X153544827Y-92254602D01*
X153544814Y-92254609D01*
X153413711Y-92342210D01*
X153413707Y-92342213D01*
X153302213Y-92453707D01*
X153302210Y-92453711D01*
X153214609Y-92584814D01*
X153214602Y-92584827D01*
X153154264Y-92730498D01*
X153154261Y-92730510D01*
X153123500Y-92885153D01*
X127147493Y-92885153D01*
X127113789Y-92834711D01*
X127113786Y-92834707D01*
X127002292Y-92723213D01*
X127002288Y-92723210D01*
X126871185Y-92635609D01*
X126871172Y-92635602D01*
X126725501Y-92575264D01*
X126725491Y-92575261D01*
X126570149Y-92544361D01*
X126508238Y-92511976D01*
X126506660Y-92510425D01*
X124976388Y-90980153D01*
X130263500Y-90980153D01*
X130263500Y-91137846D01*
X130294261Y-91292489D01*
X130294264Y-91292501D01*
X130354602Y-91438172D01*
X130354609Y-91438185D01*
X130442210Y-91569288D01*
X130442213Y-91569292D01*
X130553707Y-91680786D01*
X130553711Y-91680789D01*
X130684814Y-91768390D01*
X130684827Y-91768397D01*
X130807442Y-91819185D01*
X130830503Y-91828737D01*
X130985153Y-91859499D01*
X130985156Y-91859500D01*
X130985158Y-91859500D01*
X131142844Y-91859500D01*
X131142845Y-91859499D01*
X131297497Y-91828737D01*
X131443179Y-91768394D01*
X131574289Y-91680789D01*
X131685789Y-91569289D01*
X131773394Y-91438179D01*
X131833737Y-91292497D01*
X131864500Y-91137842D01*
X131864500Y-90998096D01*
X131884185Y-90931057D01*
X131900819Y-90910415D01*
X132054969Y-90756265D01*
X132221662Y-90589572D01*
X132282983Y-90556089D01*
X132285150Y-90555638D01*
X132343085Y-90544113D01*
X132440497Y-90524737D01*
X132578048Y-90467761D01*
X132647517Y-90460293D01*
X132709996Y-90491568D01*
X132745648Y-90551657D01*
X132749500Y-90582323D01*
X132749500Y-91241234D01*
X132729815Y-91308273D01*
X132728602Y-91310125D01*
X132640609Y-91441814D01*
X132640602Y-91441827D01*
X132580264Y-91587498D01*
X132580261Y-91587510D01*
X132549500Y-91742153D01*
X132549500Y-91899846D01*
X132580261Y-92054489D01*
X132580264Y-92054501D01*
X132640602Y-92200172D01*
X132640609Y-92200185D01*
X132728210Y-92331288D01*
X132728213Y-92331292D01*
X132839707Y-92442786D01*
X132839711Y-92442789D01*
X132970814Y-92530390D01*
X132970827Y-92530397D01*
X133102220Y-92584821D01*
X133116503Y-92590737D01*
X133271153Y-92621499D01*
X133271156Y-92621500D01*
X133271158Y-92621500D01*
X133428844Y-92621500D01*
X133428845Y-92621499D01*
X133583497Y-92590737D01*
X133729179Y-92530394D01*
X133860289Y-92442789D01*
X133971789Y-92331289D01*
X134059394Y-92200179D01*
X134061845Y-92194263D01*
X134088701Y-92129425D01*
X134119737Y-92054497D01*
X134150500Y-91899842D01*
X134150500Y-91742158D01*
X134150500Y-91742155D01*
X134150499Y-91742153D01*
X134134058Y-91659500D01*
X134119737Y-91587503D01*
X134091297Y-91518842D01*
X134059397Y-91441827D01*
X134059390Y-91441814D01*
X133971398Y-91310125D01*
X133950520Y-91243447D01*
X133950500Y-91241234D01*
X133950500Y-90980153D01*
X143323500Y-90980153D01*
X143323500Y-91137846D01*
X143354261Y-91292489D01*
X143354264Y-91292501D01*
X143414602Y-91438172D01*
X143414609Y-91438185D01*
X143502210Y-91569288D01*
X143502213Y-91569292D01*
X143613707Y-91680786D01*
X143613711Y-91680789D01*
X143744814Y-91768390D01*
X143744827Y-91768397D01*
X143867442Y-91819185D01*
X143890503Y-91828737D01*
X144045153Y-91859499D01*
X144045156Y-91859500D01*
X144045158Y-91859500D01*
X144202844Y-91859500D01*
X144202845Y-91859499D01*
X144357497Y-91828737D01*
X144503179Y-91768394D01*
X144542444Y-91742158D01*
X144634875Y-91680398D01*
X144652921Y-91674747D01*
X144668831Y-91664523D01*
X144699792Y-91660071D01*
X144701553Y-91659520D01*
X144703766Y-91659500D01*
X144810611Y-91659500D01*
X144877650Y-91679185D01*
X144923405Y-91731989D01*
X144925172Y-91736048D01*
X144959602Y-91819172D01*
X144959609Y-91819185D01*
X145047210Y-91950288D01*
X145047213Y-91950292D01*
X145158707Y-92061786D01*
X145158711Y-92061789D01*
X145289814Y-92149390D01*
X145289827Y-92149397D01*
X145412442Y-92200185D01*
X145435503Y-92209737D01*
X145590153Y-92240499D01*
X145590156Y-92240500D01*
X145590158Y-92240500D01*
X145747844Y-92240500D01*
X145747845Y-92240499D01*
X145902497Y-92209737D01*
X146048179Y-92149394D01*
X146078065Y-92129425D01*
X146179875Y-92061398D01*
X146246553Y-92040520D01*
X146248766Y-92040500D01*
X147654234Y-92040500D01*
X147721273Y-92060185D01*
X147723125Y-92061398D01*
X147854814Y-92149390D01*
X147854827Y-92149397D01*
X147977442Y-92200185D01*
X148000503Y-92209737D01*
X148155153Y-92240499D01*
X148155156Y-92240500D01*
X148155158Y-92240500D01*
X148312844Y-92240500D01*
X148312845Y-92240499D01*
X148467497Y-92209737D01*
X148613179Y-92149394D01*
X148744289Y-92061789D01*
X148855789Y-91950289D01*
X148943394Y-91819179D01*
X149003737Y-91673497D01*
X149034500Y-91518842D01*
X149034500Y-91361158D01*
X149034500Y-91361155D01*
X149034499Y-91361153D01*
X149013582Y-91255996D01*
X149003737Y-91206503D01*
X148961734Y-91105097D01*
X148943397Y-91060827D01*
X148943390Y-91060814D01*
X148855789Y-90929711D01*
X148855786Y-90929707D01*
X148744292Y-90818213D01*
X148744288Y-90818210D01*
X148613185Y-90730609D01*
X148613172Y-90730602D01*
X148467501Y-90670264D01*
X148467489Y-90670261D01*
X148312845Y-90639500D01*
X148312842Y-90639500D01*
X148155158Y-90639500D01*
X148155155Y-90639500D01*
X148000510Y-90670261D01*
X148000498Y-90670264D01*
X147854827Y-90730602D01*
X147854814Y-90730609D01*
X147723125Y-90818602D01*
X147656447Y-90839480D01*
X147654234Y-90839500D01*
X146248766Y-90839500D01*
X146181727Y-90819815D01*
X146179875Y-90818602D01*
X146048185Y-90730609D01*
X146048172Y-90730602D01*
X145902501Y-90670264D01*
X145902491Y-90670261D01*
X145747151Y-90639362D01*
X145700990Y-90619855D01*
X145691668Y-90613432D01*
X145656716Y-90578480D01*
X145563630Y-90524737D01*
X145519785Y-90499423D01*
X145367057Y-90458499D01*
X145208943Y-90458499D01*
X145201347Y-90458499D01*
X145201331Y-90458500D01*
X144703766Y-90458500D01*
X144636727Y-90438815D01*
X144634875Y-90437602D01*
X144503185Y-90349609D01*
X144503172Y-90349602D01*
X144357501Y-90289264D01*
X144357489Y-90289261D01*
X144202845Y-90258500D01*
X144202842Y-90258500D01*
X144045158Y-90258500D01*
X144045155Y-90258500D01*
X143890510Y-90289261D01*
X143890498Y-90289264D01*
X143744827Y-90349602D01*
X143744814Y-90349609D01*
X143613711Y-90437210D01*
X143613707Y-90437213D01*
X143502213Y-90548707D01*
X143502210Y-90548711D01*
X143414609Y-90679814D01*
X143414602Y-90679827D01*
X143354264Y-90825498D01*
X143354261Y-90825510D01*
X143323500Y-90980153D01*
X133950500Y-90980153D01*
X133950500Y-89497057D01*
X133950500Y-89487060D01*
X133950501Y-89487058D01*
X133950501Y-89456153D01*
X136613500Y-89456153D01*
X136613500Y-89613846D01*
X136644261Y-89768489D01*
X136644264Y-89768501D01*
X136704602Y-89914172D01*
X136704609Y-89914185D01*
X136792210Y-90045288D01*
X136792213Y-90045292D01*
X136903707Y-90156786D01*
X136903711Y-90156789D01*
X137034814Y-90244390D01*
X137034827Y-90244397D01*
X137156288Y-90294707D01*
X137180503Y-90304737D01*
X137335153Y-90335499D01*
X137335156Y-90335500D01*
X137335158Y-90335500D01*
X137492844Y-90335500D01*
X137492845Y-90335499D01*
X137647497Y-90304737D01*
X137793179Y-90244394D01*
X137924289Y-90156789D01*
X138035789Y-90045289D01*
X138123394Y-89914179D01*
X138183737Y-89768497D01*
X138203113Y-89671085D01*
X138214638Y-89613150D01*
X138247023Y-89551239D01*
X138248518Y-89549716D01*
X139993081Y-87805153D01*
X145335660Y-87805153D01*
X145335660Y-87962846D01*
X145366421Y-88117489D01*
X145366424Y-88117501D01*
X145426762Y-88263172D01*
X145426769Y-88263185D01*
X145514370Y-88394288D01*
X145514373Y-88394292D01*
X145625867Y-88505786D01*
X145625871Y-88505789D01*
X145756974Y-88593390D01*
X145756987Y-88593397D01*
X145902658Y-88653735D01*
X145902663Y-88653737D01*
X146057313Y-88684499D01*
X146057316Y-88684500D01*
X146057318Y-88684500D01*
X146215004Y-88684500D01*
X146215005Y-88684499D01*
X146369657Y-88653737D01*
X146515339Y-88593394D01*
X146554604Y-88567158D01*
X146647035Y-88505398D01*
X146713713Y-88484520D01*
X146715926Y-88484500D01*
X147654234Y-88484500D01*
X147721273Y-88504185D01*
X147723125Y-88505398D01*
X147854814Y-88593390D01*
X147854827Y-88593397D01*
X148000498Y-88653735D01*
X148000503Y-88653737D01*
X148155153Y-88684499D01*
X148155156Y-88684500D01*
X148155158Y-88684500D01*
X148312844Y-88684500D01*
X148312845Y-88684499D01*
X148467497Y-88653737D01*
X148613179Y-88593394D01*
X148744289Y-88505789D01*
X148855789Y-88394289D01*
X148943394Y-88263179D01*
X149003737Y-88117497D01*
X149034500Y-87962842D01*
X149034500Y-87805158D01*
X149034500Y-87805155D01*
X149034499Y-87805153D01*
X149003738Y-87650510D01*
X149003737Y-87650503D01*
X149003735Y-87650498D01*
X148943397Y-87504827D01*
X148943390Y-87504814D01*
X148855789Y-87373711D01*
X148855786Y-87373707D01*
X148744292Y-87262213D01*
X148744288Y-87262210D01*
X148613185Y-87174609D01*
X148613172Y-87174602D01*
X148467501Y-87114264D01*
X148467489Y-87114261D01*
X148312845Y-87083500D01*
X148312842Y-87083500D01*
X148155158Y-87083500D01*
X148155155Y-87083500D01*
X148000510Y-87114261D01*
X148000498Y-87114264D01*
X147854827Y-87174602D01*
X147854814Y-87174609D01*
X147723125Y-87262602D01*
X147656447Y-87283480D01*
X147654234Y-87283500D01*
X146715926Y-87283500D01*
X146648887Y-87263815D01*
X146647035Y-87262602D01*
X146515345Y-87174609D01*
X146515332Y-87174602D01*
X146369661Y-87114264D01*
X146369649Y-87114261D01*
X146215005Y-87083500D01*
X146215002Y-87083500D01*
X146057318Y-87083500D01*
X146057315Y-87083500D01*
X145902670Y-87114261D01*
X145902658Y-87114264D01*
X145756987Y-87174602D01*
X145756974Y-87174609D01*
X145625871Y-87262210D01*
X145625867Y-87262213D01*
X145514373Y-87373707D01*
X145514370Y-87373711D01*
X145426769Y-87504814D01*
X145426762Y-87504827D01*
X145366424Y-87650498D01*
X145366421Y-87650510D01*
X145335660Y-87805153D01*
X139993081Y-87805153D01*
X154827664Y-72970571D01*
X154888985Y-72937088D01*
X154891152Y-72936637D01*
X154891841Y-72936500D01*
X154891842Y-72936500D01*
X155046497Y-72905737D01*
X155192179Y-72845394D01*
X155323289Y-72757789D01*
X155434789Y-72646289D01*
X155522394Y-72515179D01*
X155582737Y-72369497D01*
X155613500Y-72214842D01*
X155613500Y-72057158D01*
X155613500Y-72057155D01*
X155613499Y-72057153D01*
X155591839Y-71948257D01*
X155588238Y-71930153D01*
X167220500Y-71930153D01*
X167220500Y-72087846D01*
X167251261Y-72242489D01*
X167251264Y-72242501D01*
X167311602Y-72388172D01*
X167311609Y-72388185D01*
X167399602Y-72519874D01*
X167405252Y-72537920D01*
X167415477Y-72553830D01*
X167419928Y-72584789D01*
X167420480Y-72586551D01*
X167420500Y-72588765D01*
X167420500Y-72699234D01*
X167400815Y-72766273D01*
X167399602Y-72768125D01*
X167311609Y-72899814D01*
X167311602Y-72899827D01*
X167251264Y-73045498D01*
X167251261Y-73045510D01*
X167220500Y-73200153D01*
X167220500Y-73357846D01*
X167251261Y-73512489D01*
X167251264Y-73512501D01*
X167311602Y-73658172D01*
X167311609Y-73658185D01*
X167399210Y-73789288D01*
X167399213Y-73789292D01*
X167510707Y-73900786D01*
X167510711Y-73900789D01*
X167641814Y-73988390D01*
X167641827Y-73988397D01*
X167751922Y-74033999D01*
X167787503Y-74048737D01*
X167942153Y-74079499D01*
X167942156Y-74079500D01*
X167942158Y-74079500D01*
X168099844Y-74079500D01*
X168099845Y-74079499D01*
X168254497Y-74048737D01*
X168400179Y-73988394D01*
X168460109Y-73948349D01*
X168526786Y-73927472D01*
X168594166Y-73945956D01*
X168597874Y-73948338D01*
X168657821Y-73988394D01*
X168657823Y-73988395D01*
X168657827Y-73988397D01*
X168745230Y-74024599D01*
X168803503Y-74048737D01*
X168819409Y-74051900D01*
X168881319Y-74084285D01*
X168915894Y-74145000D01*
X168917691Y-74154120D01*
X168948735Y-74350127D01*
X168948754Y-74350243D01*
X168984175Y-74459258D01*
X169014444Y-74552414D01*
X169110951Y-74741820D01*
X169235890Y-74913786D01*
X169386213Y-75064109D01*
X169558179Y-75189048D01*
X169558181Y-75189049D01*
X169558184Y-75189051D01*
X169747588Y-75285557D01*
X169949757Y-75351246D01*
X170159713Y-75384500D01*
X170159714Y-75384500D01*
X170372286Y-75384500D01*
X170372287Y-75384500D01*
X170582243Y-75351246D01*
X170784412Y-75285557D01*
X170973816Y-75189051D01*
X171028572Y-75149269D01*
X171145786Y-75064109D01*
X171145788Y-75064106D01*
X171145792Y-75064104D01*
X171296104Y-74913792D01*
X171296106Y-74913788D01*
X171296109Y-74913786D01*
X171421048Y-74741820D01*
X171421047Y-74741820D01*
X171421051Y-74741816D01*
X171517557Y-74552412D01*
X171583246Y-74350243D01*
X171616500Y-74140287D01*
X171616500Y-73927753D01*
X173416000Y-73927753D01*
X173416000Y-74140246D01*
X173449242Y-74350127D01*
X173449242Y-74350130D01*
X173514904Y-74552217D01*
X173611375Y-74741550D01*
X173650728Y-74795716D01*
X174283037Y-74163408D01*
X174300075Y-74226993D01*
X174365901Y-74341007D01*
X174458993Y-74434099D01*
X174573007Y-74499925D01*
X174636590Y-74516962D01*
X174004282Y-75149269D01*
X174004282Y-75149270D01*
X174058449Y-75188624D01*
X174247782Y-75285095D01*
X174449870Y-75350757D01*
X174659754Y-75384000D01*
X174872246Y-75384000D01*
X175082127Y-75350757D01*
X175082130Y-75350757D01*
X175284217Y-75285095D01*
X175473554Y-75188622D01*
X175527716Y-75149270D01*
X175527717Y-75149270D01*
X174895408Y-74516962D01*
X174958993Y-74499925D01*
X175073007Y-74434099D01*
X175166099Y-74341007D01*
X175231925Y-74226993D01*
X175248962Y-74163408D01*
X175881270Y-74795717D01*
X175881270Y-74795716D01*
X175920622Y-74741554D01*
X176017095Y-74552217D01*
X176082757Y-74350130D01*
X176082757Y-74350127D01*
X176116000Y-74140246D01*
X176116000Y-73927753D01*
X176082757Y-73717872D01*
X176082757Y-73717869D01*
X176017095Y-73515782D01*
X175920624Y-73326449D01*
X175881270Y-73272282D01*
X175881269Y-73272282D01*
X175248962Y-73904590D01*
X175231925Y-73841007D01*
X175166099Y-73726993D01*
X175073007Y-73633901D01*
X174958993Y-73568075D01*
X174895409Y-73551037D01*
X175527716Y-72918728D01*
X175473550Y-72879375D01*
X175284217Y-72782904D01*
X175082129Y-72717242D01*
X174872246Y-72684000D01*
X174659754Y-72684000D01*
X174449872Y-72717242D01*
X174449869Y-72717242D01*
X174247782Y-72782904D01*
X174058439Y-72879380D01*
X174004282Y-72918727D01*
X174004282Y-72918728D01*
X174636591Y-73551037D01*
X174573007Y-73568075D01*
X174458993Y-73633901D01*
X174365901Y-73726993D01*
X174300075Y-73841007D01*
X174283037Y-73904591D01*
X173650728Y-73272282D01*
X173650727Y-73272282D01*
X173611380Y-73326439D01*
X173514904Y-73515782D01*
X173449242Y-73717869D01*
X173449242Y-73717872D01*
X173416000Y-73927753D01*
X171616500Y-73927753D01*
X171616500Y-73927713D01*
X171583246Y-73717757D01*
X171517557Y-73515588D01*
X171421051Y-73326184D01*
X171421049Y-73326181D01*
X171421048Y-73326179D01*
X171296109Y-73154213D01*
X171145786Y-73003890D01*
X170973820Y-72878951D01*
X170784414Y-72782444D01*
X170784413Y-72782443D01*
X170784412Y-72782443D01*
X170582243Y-72716754D01*
X170582241Y-72716753D01*
X170582240Y-72716753D01*
X170420957Y-72691208D01*
X170372287Y-72683500D01*
X170159713Y-72683500D01*
X170120202Y-72689757D01*
X169949759Y-72716753D01*
X169799818Y-72765472D01*
X169729977Y-72767467D01*
X169670144Y-72731386D01*
X169639316Y-72668685D01*
X169637500Y-72647541D01*
X169637500Y-69063096D01*
X169646145Y-69033652D01*
X169652668Y-69003670D01*
X169656422Y-68998654D01*
X169657185Y-68996057D01*
X169673810Y-68975424D01*
X169781480Y-68867754D01*
X169842798Y-68834272D01*
X169907473Y-68837506D01*
X169949757Y-68851246D01*
X170159713Y-68884500D01*
X170159714Y-68884500D01*
X170372286Y-68884500D01*
X170372287Y-68884500D01*
X170582243Y-68851246D01*
X170784412Y-68785557D01*
X170973816Y-68689051D01*
X171012058Y-68661267D01*
X171145786Y-68564109D01*
X171145788Y-68564106D01*
X171145792Y-68564104D01*
X171296104Y-68413792D01*
X171296106Y-68413788D01*
X171296109Y-68413786D01*
X171421048Y-68241820D01*
X171421047Y-68241820D01*
X171421051Y-68241816D01*
X171517557Y-68052412D01*
X171583246Y-67850243D01*
X171616500Y-67640287D01*
X171616500Y-67427713D01*
X171583246Y-67217757D01*
X171517557Y-67015588D01*
X171421051Y-66826184D01*
X171421049Y-66826181D01*
X171421048Y-66826179D01*
X171296109Y-66654213D01*
X171145786Y-66503890D01*
X170973820Y-66378951D01*
X170784414Y-66282444D01*
X170784413Y-66282443D01*
X170784412Y-66282443D01*
X170601717Y-66223081D01*
X170544042Y-66183644D01*
X170516844Y-66119286D01*
X170528759Y-66050439D01*
X170576003Y-65998964D01*
X170601710Y-65987223D01*
X170748412Y-65939557D01*
X170937816Y-65843051D01*
X171045186Y-65765043D01*
X171109786Y-65718109D01*
X171109788Y-65718106D01*
X171109792Y-65718104D01*
X171260104Y-65567792D01*
X171260106Y-65567788D01*
X171260109Y-65567786D01*
X171385048Y-65395820D01*
X171385047Y-65395820D01*
X171385051Y-65395816D01*
X171481557Y-65206412D01*
X171547246Y-65004243D01*
X171580500Y-64794287D01*
X171580500Y-64581753D01*
X173380000Y-64581753D01*
X173380000Y-64794246D01*
X173413242Y-65004127D01*
X173413242Y-65004130D01*
X173478904Y-65206217D01*
X173575375Y-65395550D01*
X173614728Y-65449716D01*
X174247037Y-64817408D01*
X174264075Y-64880993D01*
X174329901Y-64995007D01*
X174422993Y-65088099D01*
X174537007Y-65153925D01*
X174600590Y-65170962D01*
X173968282Y-65803269D01*
X173968282Y-65803270D01*
X174022449Y-65842624D01*
X174211782Y-65939095D01*
X174395896Y-65998917D01*
X174453571Y-66038354D01*
X174480770Y-66102713D01*
X174468856Y-66171559D01*
X174421612Y-66223035D01*
X174395896Y-66234779D01*
X174247783Y-66282904D01*
X174058439Y-66379380D01*
X174004282Y-66418727D01*
X174004282Y-66418728D01*
X174636591Y-67051037D01*
X174573007Y-67068075D01*
X174458993Y-67133901D01*
X174365901Y-67226993D01*
X174300075Y-67341007D01*
X174283037Y-67404591D01*
X173650728Y-66772282D01*
X173650727Y-66772282D01*
X173611380Y-66826439D01*
X173514904Y-67015782D01*
X173449242Y-67217869D01*
X173449242Y-67217872D01*
X173416000Y-67427753D01*
X173416000Y-67640246D01*
X173449242Y-67850127D01*
X173449242Y-67850130D01*
X173514904Y-68052217D01*
X173611375Y-68241550D01*
X173650728Y-68295716D01*
X174283037Y-67663408D01*
X174300075Y-67726993D01*
X174365901Y-67841007D01*
X174458993Y-67934099D01*
X174573007Y-67999925D01*
X174636590Y-68016962D01*
X174004282Y-68649269D01*
X174004282Y-68649270D01*
X174058449Y-68688624D01*
X174247782Y-68785095D01*
X174449870Y-68850757D01*
X174659754Y-68884000D01*
X174872246Y-68884000D01*
X175082127Y-68850757D01*
X175082130Y-68850757D01*
X175284217Y-68785095D01*
X175473554Y-68688622D01*
X175527716Y-68649270D01*
X175527717Y-68649270D01*
X175303832Y-68425385D01*
X185863048Y-68425385D01*
X185863048Y-68720412D01*
X185895119Y-68964012D01*
X185901555Y-69012892D01*
X185958593Y-69225761D01*
X185977909Y-69297850D01*
X185977912Y-69297860D01*
X186090802Y-69570399D01*
X186090806Y-69570409D01*
X186238309Y-69825892D01*
X186417900Y-70059939D01*
X186417906Y-70059946D01*
X186626500Y-70268540D01*
X186626507Y-70268546D01*
X186860554Y-70448137D01*
X187116037Y-70595640D01*
X187116038Y-70595640D01*
X187116041Y-70595642D01*
X187388596Y-70708538D01*
X187673555Y-70784892D01*
X187966042Y-70823399D01*
X187966049Y-70823399D01*
X188261047Y-70823399D01*
X188261054Y-70823399D01*
X188553541Y-70784892D01*
X188838500Y-70708538D01*
X189111055Y-70595642D01*
X189366542Y-70448137D01*
X189600590Y-70268545D01*
X189809194Y-70059941D01*
X189988786Y-69825893D01*
X190136291Y-69570406D01*
X190249187Y-69297851D01*
X190325541Y-69012892D01*
X190364048Y-68720405D01*
X190364048Y-68425393D01*
X190325541Y-68132906D01*
X190249187Y-67847947D01*
X190136291Y-67575392D01*
X190112393Y-67534000D01*
X189988786Y-67319905D01*
X189809195Y-67085858D01*
X189809189Y-67085851D01*
X189600595Y-66877257D01*
X189600588Y-66877251D01*
X189366541Y-66697660D01*
X189111058Y-66550157D01*
X189111048Y-66550153D01*
X188838509Y-66437263D01*
X188838502Y-66437261D01*
X188838500Y-66437260D01*
X188553541Y-66360906D01*
X188504661Y-66354470D01*
X188261061Y-66322399D01*
X188261054Y-66322399D01*
X187966042Y-66322399D01*
X187966034Y-66322399D01*
X187687633Y-66359052D01*
X187673555Y-66360906D01*
X187457763Y-66418727D01*
X187388596Y-66437260D01*
X187388586Y-66437263D01*
X187116047Y-66550153D01*
X187116037Y-66550157D01*
X186860554Y-66697660D01*
X186626507Y-66877251D01*
X186626500Y-66877257D01*
X186417906Y-67085851D01*
X186417900Y-67085858D01*
X186238309Y-67319905D01*
X186090806Y-67575388D01*
X186090802Y-67575398D01*
X185977912Y-67847937D01*
X185977909Y-67847947D01*
X185923176Y-68052217D01*
X185901556Y-68132903D01*
X185901554Y-68132914D01*
X185863048Y-68425385D01*
X175303832Y-68425385D01*
X174895408Y-68016962D01*
X174958993Y-67999925D01*
X175073007Y-67934099D01*
X175166099Y-67841007D01*
X175231925Y-67726993D01*
X175248962Y-67663408D01*
X175881270Y-68295717D01*
X175881270Y-68295716D01*
X175920622Y-68241554D01*
X176017095Y-68052217D01*
X176082757Y-67850130D01*
X176082757Y-67850127D01*
X176116000Y-67640246D01*
X176116000Y-67427753D01*
X176082757Y-67217872D01*
X176082757Y-67217869D01*
X176017095Y-67015782D01*
X175920624Y-66826449D01*
X175881270Y-66772282D01*
X175881269Y-66772282D01*
X175248962Y-67404590D01*
X175231925Y-67341007D01*
X175166099Y-67226993D01*
X175073007Y-67133901D01*
X174958993Y-67068075D01*
X174895409Y-67051037D01*
X175527716Y-66418728D01*
X175473550Y-66379375D01*
X175284217Y-66282904D01*
X175100103Y-66223082D01*
X175042427Y-66183645D01*
X175015229Y-66119286D01*
X175027144Y-66050440D01*
X175074388Y-65998964D01*
X175100103Y-65987220D01*
X175248217Y-65939095D01*
X175437554Y-65842622D01*
X175491716Y-65803270D01*
X175491717Y-65803270D01*
X174859408Y-65170962D01*
X174922993Y-65153925D01*
X175037007Y-65088099D01*
X175130099Y-64995007D01*
X175195925Y-64880993D01*
X175212962Y-64817408D01*
X175845270Y-65449717D01*
X175845270Y-65449716D01*
X175884622Y-65395554D01*
X175981095Y-65206217D01*
X176046757Y-65004130D01*
X176046757Y-65004127D01*
X176080000Y-64794246D01*
X176080000Y-64581753D01*
X176046757Y-64371872D01*
X176046757Y-64371869D01*
X175981095Y-64169782D01*
X175884624Y-63980449D01*
X175845270Y-63926282D01*
X175845269Y-63926282D01*
X175212962Y-64558590D01*
X175195925Y-64495007D01*
X175130099Y-64380993D01*
X175037007Y-64287901D01*
X174922993Y-64222075D01*
X174859409Y-64205037D01*
X175491716Y-63572728D01*
X175437550Y-63533375D01*
X175248217Y-63436904D01*
X175046129Y-63371242D01*
X174836246Y-63338000D01*
X174623754Y-63338000D01*
X174413872Y-63371242D01*
X174413869Y-63371242D01*
X174211782Y-63436904D01*
X174022439Y-63533380D01*
X173968282Y-63572727D01*
X173968282Y-63572728D01*
X174600591Y-64205037D01*
X174537007Y-64222075D01*
X174422993Y-64287901D01*
X174329901Y-64380993D01*
X174264075Y-64495007D01*
X174247037Y-64558591D01*
X173614728Y-63926282D01*
X173614727Y-63926282D01*
X173575380Y-63980439D01*
X173478904Y-64169782D01*
X173413242Y-64371869D01*
X173413242Y-64371872D01*
X173380000Y-64581753D01*
X171580500Y-64581753D01*
X171580500Y-64581713D01*
X171547246Y-64371757D01*
X171481557Y-64169588D01*
X171385051Y-63980184D01*
X171385049Y-63980181D01*
X171385048Y-63980179D01*
X171260109Y-63808213D01*
X171109786Y-63657890D01*
X170937820Y-63532951D01*
X170748414Y-63436444D01*
X170748413Y-63436443D01*
X170748412Y-63436443D01*
X170546243Y-63370754D01*
X170546241Y-63370753D01*
X170546240Y-63370753D01*
X170384957Y-63345208D01*
X170336287Y-63337500D01*
X170123713Y-63337500D01*
X170075042Y-63345208D01*
X169913760Y-63370753D01*
X169711585Y-63436444D01*
X169522179Y-63532951D01*
X169350213Y-63657890D01*
X169199890Y-63808213D01*
X169074951Y-63980179D01*
X168978444Y-64169585D01*
X168912753Y-64371760D01*
X168911291Y-64380993D01*
X168879500Y-64581713D01*
X168879500Y-64794287D01*
X168879851Y-64796500D01*
X168912753Y-65004239D01*
X168978444Y-65206414D01*
X169074951Y-65395820D01*
X169199890Y-65567786D01*
X169350213Y-65718109D01*
X169522179Y-65843048D01*
X169522181Y-65843049D01*
X169522184Y-65843051D01*
X169711588Y-65939557D01*
X169894283Y-65998918D01*
X169951956Y-66038354D01*
X169979155Y-66102713D01*
X169967240Y-66171559D01*
X169919996Y-66223035D01*
X169894282Y-66234779D01*
X169747583Y-66282444D01*
X169558179Y-66378951D01*
X169386213Y-66503890D01*
X169235890Y-66654213D01*
X169110951Y-66826179D01*
X169014444Y-67015585D01*
X168948753Y-67217760D01*
X168915500Y-67427713D01*
X168915500Y-67640286D01*
X168948754Y-67850244D01*
X168948754Y-67850247D01*
X168962491Y-67892523D01*
X168964486Y-67962364D01*
X168932241Y-68018522D01*
X168668286Y-68282478D01*
X168556481Y-68394282D01*
X168556479Y-68394285D01*
X168509959Y-68474862D01*
X168509958Y-68474863D01*
X168494431Y-68501757D01*
X168477423Y-68531215D01*
X168436499Y-68683943D01*
X168436499Y-68683945D01*
X168436499Y-68852046D01*
X168436500Y-68852059D01*
X168436500Y-71129072D01*
X168416815Y-71196111D01*
X168364011Y-71241866D01*
X168294853Y-71251810D01*
X168265048Y-71243633D01*
X168254501Y-71239264D01*
X168254489Y-71239261D01*
X168099845Y-71208500D01*
X168099842Y-71208500D01*
X167942158Y-71208500D01*
X167942155Y-71208500D01*
X167787510Y-71239261D01*
X167787498Y-71239264D01*
X167641827Y-71299602D01*
X167641814Y-71299609D01*
X167510711Y-71387210D01*
X167510707Y-71387213D01*
X167399213Y-71498707D01*
X167399210Y-71498711D01*
X167311609Y-71629814D01*
X167311602Y-71629827D01*
X167251264Y-71775498D01*
X167251261Y-71775510D01*
X167220500Y-71930153D01*
X155588238Y-71930153D01*
X155582738Y-71902508D01*
X155582737Y-71902507D01*
X155582737Y-71902503D01*
X155580414Y-71896895D01*
X155522397Y-71756827D01*
X155522390Y-71756814D01*
X155434789Y-71625711D01*
X155434786Y-71625707D01*
X155323292Y-71514213D01*
X155323288Y-71514210D01*
X155192185Y-71426609D01*
X155192172Y-71426602D01*
X155046501Y-71366264D01*
X155046489Y-71366261D01*
X154891845Y-71335500D01*
X154891842Y-71335500D01*
X154734158Y-71335500D01*
X154734155Y-71335500D01*
X154579510Y-71366261D01*
X154579498Y-71366264D01*
X154433827Y-71426602D01*
X154433814Y-71426609D01*
X154302711Y-71514210D01*
X154302707Y-71514213D01*
X154191213Y-71625707D01*
X154191210Y-71625711D01*
X154103609Y-71756814D01*
X154103602Y-71756827D01*
X154043264Y-71902498D01*
X154043261Y-71902508D01*
X154012362Y-72057848D01*
X153979977Y-72119759D01*
X153978426Y-72121337D01*
X137399339Y-88700425D01*
X137338016Y-88733910D01*
X137335850Y-88734361D01*
X137180508Y-88765261D01*
X137180498Y-88765264D01*
X137034827Y-88825602D01*
X137034814Y-88825609D01*
X136903711Y-88913210D01*
X136903707Y-88913213D01*
X136792213Y-89024707D01*
X136792210Y-89024711D01*
X136704609Y-89155814D01*
X136704602Y-89155827D01*
X136644264Y-89301498D01*
X136644261Y-89301510D01*
X136613500Y-89456153D01*
X133950501Y-89456153D01*
X133950501Y-89328943D01*
X133909577Y-89176216D01*
X133897798Y-89155814D01*
X133830524Y-89039290D01*
X133830518Y-89039282D01*
X133075590Y-88284355D01*
X133075588Y-88284352D01*
X132956717Y-88165481D01*
X132956716Y-88165480D01*
X132869904Y-88115360D01*
X132869904Y-88115359D01*
X132869900Y-88115358D01*
X132819785Y-88086423D01*
X132667057Y-88045499D01*
X132508943Y-88045499D01*
X132501347Y-88045499D01*
X132501331Y-88045500D01*
X132024766Y-88045500D01*
X131957727Y-88025815D01*
X131955875Y-88024602D01*
X131824185Y-87936609D01*
X131824172Y-87936602D01*
X131678501Y-87876264D01*
X131678489Y-87876261D01*
X131523845Y-87845500D01*
X131523842Y-87845500D01*
X131366158Y-87845500D01*
X131366155Y-87845500D01*
X131211510Y-87876261D01*
X131211498Y-87876264D01*
X131065827Y-87936602D01*
X131065814Y-87936609D01*
X130934711Y-88024210D01*
X130934707Y-88024213D01*
X130823213Y-88135707D01*
X130823210Y-88135711D01*
X130735609Y-88266814D01*
X130735602Y-88266827D01*
X130675264Y-88412498D01*
X130675261Y-88412510D01*
X130644500Y-88567153D01*
X130644500Y-88724846D01*
X130675261Y-88879489D01*
X130675264Y-88879501D01*
X130735602Y-89025172D01*
X130735609Y-89025185D01*
X130823210Y-89156288D01*
X130823213Y-89156292D01*
X130934707Y-89267786D01*
X130934711Y-89267789D01*
X131065814Y-89355390D01*
X131065827Y-89355397D01*
X131211498Y-89415735D01*
X131211503Y-89415737D01*
X131270472Y-89427466D01*
X131327290Y-89438769D01*
X131335311Y-89442965D01*
X131344353Y-89443450D01*
X131365787Y-89458906D01*
X131389201Y-89471154D01*
X131393680Y-89479021D01*
X131401025Y-89484317D01*
X131410700Y-89508909D01*
X131423775Y-89531869D01*
X131423967Y-89542627D01*
X131426606Y-89549335D01*
X131424716Y-89584578D01*
X131406361Y-89676850D01*
X131373975Y-89738761D01*
X131372425Y-89740339D01*
X130835992Y-90276771D01*
X130795764Y-90303651D01*
X130684824Y-90349604D01*
X130684814Y-90349609D01*
X130553711Y-90437210D01*
X130553707Y-90437213D01*
X130442213Y-90548707D01*
X130442210Y-90548711D01*
X130354609Y-90679814D01*
X130354602Y-90679827D01*
X130294264Y-90825498D01*
X130294261Y-90825510D01*
X130263500Y-90980153D01*
X124976388Y-90980153D01*
X124786574Y-90790339D01*
X124753089Y-90729016D01*
X124752638Y-90726849D01*
X124731355Y-90619855D01*
X124721737Y-90571503D01*
X124715166Y-90555638D01*
X124661397Y-90425827D01*
X124661390Y-90425814D01*
X124573789Y-90294711D01*
X124573786Y-90294707D01*
X124462292Y-90183213D01*
X124462288Y-90183210D01*
X124331185Y-90095609D01*
X124331172Y-90095602D01*
X124185501Y-90035264D01*
X124185489Y-90035261D01*
X124030845Y-90004500D01*
X124030842Y-90004500D01*
X123873158Y-90004500D01*
X123873155Y-90004500D01*
X123718510Y-90035261D01*
X123718498Y-90035264D01*
X123572827Y-90095602D01*
X123572814Y-90095609D01*
X123441711Y-90183210D01*
X123441707Y-90183213D01*
X123330213Y-90294707D01*
X123330210Y-90294711D01*
X123242609Y-90425814D01*
X123242602Y-90425827D01*
X123182264Y-90571498D01*
X123182261Y-90571510D01*
X123151500Y-90726153D01*
X119165082Y-90726153D01*
X119258850Y-90632385D01*
X120866528Y-89024707D01*
X122569662Y-87321572D01*
X122630983Y-87288089D01*
X122633150Y-87287638D01*
X122691085Y-87276113D01*
X122788497Y-87256737D01*
X122934179Y-87196394D01*
X123065289Y-87108789D01*
X123176789Y-86997289D01*
X123264394Y-86866179D01*
X123324737Y-86720497D01*
X123355500Y-86565842D01*
X123355500Y-86408158D01*
X123355500Y-86408155D01*
X123355499Y-86408153D01*
X123324738Y-86253510D01*
X123324738Y-86253508D01*
X123324737Y-86253503D01*
X123324735Y-86253498D01*
X123264397Y-86107827D01*
X123264390Y-86107814D01*
X123176789Y-85976711D01*
X123176786Y-85976707D01*
X123065292Y-85865213D01*
X123065288Y-85865210D01*
X122934185Y-85777609D01*
X122934172Y-85777602D01*
X122788501Y-85717264D01*
X122788489Y-85717261D01*
X122633845Y-85686500D01*
X122633842Y-85686500D01*
X122476158Y-85686500D01*
X122476155Y-85686500D01*
X122321510Y-85717261D01*
X122321498Y-85717264D01*
X122175827Y-85777602D01*
X122175814Y-85777609D01*
X122044711Y-85865210D01*
X122044707Y-85865213D01*
X121933213Y-85976707D01*
X121933210Y-85976711D01*
X121845609Y-86107814D01*
X121845602Y-86107827D01*
X121785264Y-86253498D01*
X121785261Y-86253508D01*
X121754361Y-86408850D01*
X121721976Y-86470761D01*
X121720425Y-86472339D01*
X118162181Y-90030584D01*
X118100858Y-90064069D01*
X118031166Y-90059085D01*
X117975233Y-90017213D01*
X117950816Y-89951749D01*
X117950500Y-89942903D01*
X117950500Y-81328153D01*
X129628500Y-81328153D01*
X129628500Y-81485846D01*
X129659261Y-81640489D01*
X129659264Y-81640501D01*
X129719602Y-81786172D01*
X129719609Y-81786185D01*
X129807602Y-81917874D01*
X129828480Y-81984551D01*
X129828500Y-81986765D01*
X129828500Y-82316869D01*
X129819061Y-82364321D01*
X129786263Y-82443501D01*
X129786260Y-82443511D01*
X129755500Y-82598153D01*
X129755500Y-82755846D01*
X129786261Y-82910489D01*
X129786264Y-82910501D01*
X129846602Y-83056172D01*
X129846609Y-83056185D01*
X129934210Y-83187288D01*
X129934213Y-83187292D01*
X130045707Y-83298786D01*
X130045711Y-83298789D01*
X130176814Y-83386390D01*
X130176827Y-83386397D01*
X130274607Y-83426898D01*
X130322503Y-83446737D01*
X130477153Y-83477499D01*
X130477156Y-83477500D01*
X130477158Y-83477500D01*
X130634844Y-83477500D01*
X130634845Y-83477499D01*
X130789497Y-83446737D01*
X130935179Y-83386394D01*
X131066289Y-83298789D01*
X131177789Y-83187289D01*
X131265394Y-83056179D01*
X131325737Y-82910497D01*
X131356500Y-82755842D01*
X131356500Y-82598158D01*
X131356500Y-82598155D01*
X131356499Y-82598153D01*
X131325737Y-82443503D01*
X131273284Y-82316869D01*
X131265397Y-82297827D01*
X131265390Y-82297814D01*
X131177789Y-82166711D01*
X131177786Y-82166707D01*
X131073712Y-82062633D01*
X131040227Y-82001310D01*
X131045211Y-81931618D01*
X131058291Y-81906061D01*
X131138394Y-81786179D01*
X131198737Y-81640497D01*
X131229500Y-81485842D01*
X131229500Y-81328158D01*
X131229500Y-81328155D01*
X131229499Y-81328153D01*
X131198738Y-81173510D01*
X131198737Y-81173503D01*
X131155716Y-81069640D01*
X131138397Y-81027827D01*
X131138390Y-81027814D01*
X131050789Y-80896711D01*
X131050786Y-80896707D01*
X130939292Y-80785213D01*
X130939288Y-80785210D01*
X130808185Y-80697609D01*
X130808172Y-80697602D01*
X130662501Y-80637264D01*
X130662489Y-80637261D01*
X130507845Y-80606500D01*
X130507842Y-80606500D01*
X130350158Y-80606500D01*
X130350155Y-80606500D01*
X130195510Y-80637261D01*
X130195498Y-80637264D01*
X130049827Y-80697602D01*
X130049814Y-80697609D01*
X129918711Y-80785210D01*
X129918707Y-80785213D01*
X129807213Y-80896707D01*
X129807210Y-80896711D01*
X129719609Y-81027814D01*
X129719602Y-81027827D01*
X129659264Y-81173498D01*
X129659261Y-81173510D01*
X129628500Y-81328153D01*
X117950500Y-81328153D01*
X117950500Y-80137000D01*
X140793999Y-80137000D01*
X140794493Y-80195016D01*
X140794495Y-80195054D01*
X140802419Y-80310898D01*
X140802420Y-80310908D01*
X140818227Y-80425919D01*
X140841854Y-80539617D01*
X140873178Y-80651417D01*
X140912064Y-80760833D01*
X140912069Y-80760845D01*
X140958321Y-80867327D01*
X140958325Y-80867337D01*
X141011746Y-80970431D01*
X141011747Y-80970434D01*
X141072073Y-81069636D01*
X141072075Y-81069639D01*
X141139027Y-81164490D01*
X141139044Y-81164513D01*
X141212306Y-81254564D01*
X141212314Y-81254572D01*
X141291568Y-81339432D01*
X141376427Y-81418685D01*
X141376435Y-81418693D01*
X141466486Y-81491955D01*
X141466496Y-81491962D01*
X141466498Y-81491964D01*
X141561360Y-81558924D01*
X141660570Y-81619255D01*
X141701573Y-81640501D01*
X141763662Y-81672674D01*
X141763670Y-81672677D01*
X141870166Y-81718935D01*
X141979575Y-81757819D01*
X142091383Y-81789146D01*
X142205068Y-81812770D01*
X142205075Y-81812770D01*
X142205080Y-81812772D01*
X142241291Y-81817748D01*
X142320100Y-81828581D01*
X142435943Y-81836505D01*
X142435950Y-81836505D01*
X142552050Y-81836505D01*
X142552057Y-81836505D01*
X142667900Y-81828581D01*
X142760902Y-81815797D01*
X142782919Y-81812772D01*
X142782922Y-81812771D01*
X142782932Y-81812770D01*
X142896617Y-81789146D01*
X143008425Y-81757819D01*
X143117834Y-81718935D01*
X143224335Y-81672675D01*
X143327430Y-81619255D01*
X143426640Y-81558924D01*
X143521502Y-81491964D01*
X143529943Y-81485096D01*
X143611564Y-81418693D01*
X143611566Y-81418690D01*
X143611572Y-81418686D01*
X143696432Y-81339432D01*
X143775686Y-81254572D01*
X143848964Y-81164502D01*
X143915924Y-81069640D01*
X143976255Y-80970430D01*
X144029675Y-80867335D01*
X144075935Y-80760834D01*
X144114819Y-80651425D01*
X144146146Y-80539617D01*
X144169770Y-80425932D01*
X144185581Y-80310900D01*
X144193505Y-80195057D01*
X144193505Y-80078943D01*
X144185581Y-79963100D01*
X144169832Y-79848520D01*
X144169772Y-79848080D01*
X144151114Y-79758292D01*
X144146146Y-79734383D01*
X144114819Y-79622575D01*
X144075935Y-79513166D01*
X144029675Y-79406665D01*
X144029674Y-79406662D01*
X144010162Y-79369008D01*
X143976255Y-79303570D01*
X143915924Y-79204360D01*
X143848964Y-79109498D01*
X143848962Y-79109496D01*
X143848955Y-79109486D01*
X143775693Y-79019435D01*
X143775685Y-79019427D01*
X143771082Y-79014498D01*
X143696432Y-78934568D01*
X143611572Y-78855314D01*
X143611564Y-78855306D01*
X143521513Y-78782044D01*
X143521490Y-78782027D01*
X143426639Y-78715075D01*
X143426636Y-78715073D01*
X143327434Y-78654747D01*
X143327432Y-78654746D01*
X143327430Y-78654745D01*
X143275458Y-78627815D01*
X143224337Y-78601325D01*
X143224327Y-78601321D01*
X143117845Y-78555069D01*
X143117833Y-78555064D01*
X143008417Y-78516178D01*
X142896617Y-78484854D01*
X142782919Y-78461227D01*
X142667908Y-78445420D01*
X142667905Y-78445419D01*
X142667900Y-78445419D01*
X142552057Y-78437495D01*
X142435943Y-78437495D01*
X142320100Y-78445419D01*
X142320097Y-78445419D01*
X142320091Y-78445420D01*
X142205080Y-78461227D01*
X142091382Y-78484854D01*
X141979582Y-78516178D01*
X141870166Y-78555064D01*
X141870154Y-78555069D01*
X141763672Y-78601321D01*
X141763662Y-78601325D01*
X141660568Y-78654746D01*
X141660565Y-78654747D01*
X141561363Y-78715073D01*
X141561360Y-78715075D01*
X141466509Y-78782027D01*
X141466486Y-78782044D01*
X141376435Y-78855306D01*
X141376427Y-78855314D01*
X141291568Y-78934568D01*
X141212314Y-79019427D01*
X141212306Y-79019435D01*
X141139044Y-79109486D01*
X141139027Y-79109509D01*
X141072075Y-79204360D01*
X141072073Y-79204363D01*
X141011747Y-79303565D01*
X141011746Y-79303568D01*
X140958325Y-79406662D01*
X140958321Y-79406672D01*
X140912069Y-79513154D01*
X140912064Y-79513166D01*
X140873178Y-79622582D01*
X140841854Y-79734382D01*
X140818227Y-79848080D01*
X140803204Y-79957390D01*
X140802419Y-79963100D01*
X140796578Y-80048500D01*
X140794495Y-80078945D01*
X140794493Y-80078983D01*
X140793999Y-80137000D01*
X117950500Y-80137000D01*
X117950500Y-79169153D01*
X137121500Y-79169153D01*
X137121500Y-79326846D01*
X137152261Y-79481489D01*
X137152264Y-79481501D01*
X137212602Y-79627172D01*
X137212609Y-79627185D01*
X137300210Y-79758288D01*
X137300213Y-79758292D01*
X137411707Y-79869786D01*
X137411711Y-79869789D01*
X137542814Y-79957390D01*
X137542827Y-79957397D01*
X137688498Y-80017735D01*
X137688503Y-80017737D01*
X137843153Y-80048499D01*
X137843156Y-80048500D01*
X137843158Y-80048500D01*
X138000844Y-80048500D01*
X138000845Y-80048499D01*
X138155497Y-80017737D01*
X138287401Y-79963101D01*
X138301172Y-79957397D01*
X138301172Y-79957396D01*
X138301179Y-79957394D01*
X138301185Y-79957390D01*
X138432875Y-79869398D01*
X138499553Y-79848520D01*
X138501766Y-79848500D01*
X138866234Y-79848500D01*
X138933273Y-79868185D01*
X138935125Y-79869398D01*
X139066814Y-79957390D01*
X139066827Y-79957397D01*
X139212498Y-80017735D01*
X139212503Y-80017737D01*
X139367153Y-80048499D01*
X139367156Y-80048500D01*
X139367158Y-80048500D01*
X139524844Y-80048500D01*
X139524845Y-80048499D01*
X139576856Y-80038153D01*
X139679494Y-80017738D01*
X139679497Y-80017737D01*
X139825172Y-79957397D01*
X139825172Y-79957396D01*
X139825179Y-79957394D01*
X139956289Y-79869789D01*
X140067789Y-79758289D01*
X140155394Y-79627179D01*
X140215737Y-79481497D01*
X140246500Y-79326842D01*
X140246500Y-79169158D01*
X140246500Y-79169155D01*
X140246499Y-79169153D01*
X140216718Y-79019435D01*
X140215737Y-79014503D01*
X140182627Y-78934568D01*
X140155397Y-78868827D01*
X140155390Y-78868814D01*
X140067789Y-78737711D01*
X140067786Y-78737707D01*
X139956292Y-78626213D01*
X139956288Y-78626210D01*
X139825185Y-78538609D01*
X139825172Y-78538602D01*
X139679501Y-78478264D01*
X139679489Y-78478261D01*
X139524845Y-78447500D01*
X139524842Y-78447500D01*
X139367158Y-78447500D01*
X139367155Y-78447500D01*
X139212510Y-78478261D01*
X139212498Y-78478264D01*
X139066827Y-78538602D01*
X139066814Y-78538609D01*
X138935125Y-78626602D01*
X138868447Y-78647480D01*
X138866234Y-78647500D01*
X138501766Y-78647500D01*
X138434727Y-78627815D01*
X138432875Y-78626602D01*
X138301185Y-78538609D01*
X138301172Y-78538602D01*
X138155501Y-78478264D01*
X138155489Y-78478261D01*
X138000845Y-78447500D01*
X138000842Y-78447500D01*
X137843158Y-78447500D01*
X137843155Y-78447500D01*
X137688510Y-78478261D01*
X137688498Y-78478264D01*
X137542827Y-78538602D01*
X137542814Y-78538609D01*
X137411711Y-78626210D01*
X137411707Y-78626213D01*
X137300213Y-78737707D01*
X137300210Y-78737711D01*
X137212609Y-78868814D01*
X137212602Y-78868827D01*
X137152264Y-79014498D01*
X137152261Y-79014510D01*
X137121500Y-79169153D01*
X117950500Y-79169153D01*
X117950500Y-67007485D01*
X127972700Y-67007485D01*
X127972700Y-67259314D01*
X128012012Y-67507525D01*
X128012095Y-67508044D01*
X128089915Y-67747548D01*
X128204243Y-67971930D01*
X128352265Y-68175665D01*
X128530335Y-68353735D01*
X128734070Y-68501757D01*
X128958452Y-68616085D01*
X129197956Y-68693905D01*
X129446685Y-68733300D01*
X129446686Y-68733300D01*
X129698514Y-68733300D01*
X129698515Y-68733300D01*
X129947244Y-68693905D01*
X130186748Y-68616085D01*
X130411130Y-68501757D01*
X130614865Y-68353735D01*
X130792935Y-68175665D01*
X130940957Y-67971930D01*
X131055285Y-67747548D01*
X131133105Y-67508044D01*
X131172500Y-67259315D01*
X131172500Y-67021989D01*
X132372700Y-67021989D01*
X132372700Y-67244810D01*
X132372701Y-67244826D01*
X132401785Y-67465742D01*
X132459461Y-67680991D01*
X132544732Y-67886853D01*
X132544736Y-67886862D01*
X132563890Y-67920037D01*
X132656152Y-68079840D01*
X132656157Y-68079846D01*
X132656158Y-68079848D01*
X132791804Y-68256625D01*
X132791810Y-68256632D01*
X132949367Y-68414189D01*
X132949374Y-68414195D01*
X133028437Y-68474862D01*
X133126160Y-68549848D01*
X133319140Y-68661265D01*
X133525013Y-68746540D01*
X133740254Y-68804214D01*
X133961183Y-68833300D01*
X133961190Y-68833300D01*
X134184010Y-68833300D01*
X134184017Y-68833300D01*
X134404946Y-68804214D01*
X134620187Y-68746540D01*
X134826060Y-68661265D01*
X135019040Y-68549848D01*
X135195827Y-68414194D01*
X135353394Y-68256627D01*
X135489048Y-68079840D01*
X135600465Y-67886860D01*
X135685740Y-67680987D01*
X135743414Y-67465746D01*
X135772500Y-67244817D01*
X135772500Y-67021983D01*
X135743414Y-66801054D01*
X135685740Y-66585813D01*
X135600465Y-66379940D01*
X135489048Y-66186960D01*
X135359306Y-66017877D01*
X135353395Y-66010174D01*
X135353389Y-66010167D01*
X135195832Y-65852610D01*
X135195825Y-65852604D01*
X135019048Y-65716958D01*
X135019046Y-65716957D01*
X135019040Y-65716952D01*
X134826060Y-65605535D01*
X134747260Y-65572895D01*
X134620191Y-65520261D01*
X134404942Y-65462585D01*
X134184026Y-65433501D01*
X134184023Y-65433500D01*
X134184017Y-65433500D01*
X133961183Y-65433500D01*
X133961177Y-65433500D01*
X133961173Y-65433501D01*
X133740257Y-65462585D01*
X133525008Y-65520261D01*
X133319146Y-65605532D01*
X133319137Y-65605536D01*
X133126166Y-65716948D01*
X133126151Y-65716958D01*
X132949374Y-65852604D01*
X132949367Y-65852610D01*
X132791810Y-66010167D01*
X132791804Y-66010174D01*
X132656158Y-66186951D01*
X132656148Y-66186966D01*
X132544736Y-66379937D01*
X132544732Y-66379946D01*
X132459461Y-66585808D01*
X132401785Y-66801057D01*
X132372701Y-67021973D01*
X132372700Y-67021989D01*
X131172500Y-67021989D01*
X131172500Y-67007485D01*
X131133105Y-66758756D01*
X131055285Y-66519252D01*
X130940957Y-66294870D01*
X130792935Y-66091135D01*
X130614865Y-65913065D01*
X130411130Y-65765043D01*
X130256741Y-65686378D01*
X130186750Y-65650716D01*
X130186749Y-65650715D01*
X130186748Y-65650715D01*
X129947244Y-65572895D01*
X129947242Y-65572894D01*
X129947241Y-65572894D01*
X129756173Y-65542632D01*
X129698515Y-65533500D01*
X129446685Y-65533500D01*
X129389026Y-65542632D01*
X129197959Y-65572894D01*
X128958449Y-65650716D01*
X128734069Y-65765043D01*
X128530332Y-65913067D01*
X128352267Y-66091132D01*
X128204243Y-66294869D01*
X128089916Y-66519249D01*
X128012094Y-66758759D01*
X127972700Y-67007485D01*
X117950500Y-67007485D01*
X117950500Y-62495983D01*
X179623000Y-62495983D01*
X179623000Y-64096001D01*
X179623001Y-64096018D01*
X179633500Y-64198796D01*
X179633501Y-64198799D01*
X179688685Y-64365331D01*
X179688687Y-64365336D01*
X179698344Y-64380993D01*
X179780788Y-64514656D01*
X179904844Y-64638712D01*
X180054166Y-64730814D01*
X180220703Y-64785999D01*
X180323491Y-64796500D01*
X181923508Y-64796499D01*
X182026297Y-64785999D01*
X182192834Y-64730814D01*
X182342156Y-64638712D01*
X182466212Y-64514656D01*
X182558314Y-64365334D01*
X182613499Y-64198797D01*
X182624000Y-64096009D01*
X182623999Y-62495992D01*
X182613499Y-62393203D01*
X182558314Y-62226666D01*
X182466212Y-62077344D01*
X182342156Y-61953288D01*
X182224387Y-61880648D01*
X182192836Y-61861187D01*
X182192831Y-61861185D01*
X182191362Y-61860698D01*
X182026297Y-61806001D01*
X182026295Y-61806000D01*
X181923516Y-61795500D01*
X181860807Y-61795500D01*
X181793768Y-61775815D01*
X181773126Y-61759181D01*
X181334559Y-61320613D01*
X181355091Y-61315112D01*
X181491908Y-61236120D01*
X181603619Y-61124409D01*
X181682611Y-60987592D01*
X181688112Y-60967059D01*
X182346158Y-61625106D01*
X182346158Y-61625105D01*
X182406414Y-61542170D01*
X182406418Y-61542164D01*
X182513602Y-61331803D01*
X182586565Y-61107248D01*
X182623500Y-60874053D01*
X182623500Y-60637948D01*
X182586565Y-60404753D01*
X182513602Y-60180198D01*
X182406414Y-59969829D01*
X182346158Y-59886895D01*
X182346158Y-59886894D01*
X181688112Y-60544941D01*
X181682611Y-60524410D01*
X181603619Y-60387593D01*
X181491908Y-60275882D01*
X181355091Y-60196890D01*
X181334559Y-60191388D01*
X181992605Y-59533341D01*
X181992604Y-59533339D01*
X181909674Y-59473088D01*
X181699302Y-59365898D01*
X181474747Y-59292935D01*
X181474748Y-59292935D01*
X181241552Y-59256001D01*
X181005448Y-59256001D01*
X180772252Y-59292935D01*
X180547697Y-59365898D01*
X180337330Y-59473085D01*
X180254394Y-59533341D01*
X180912441Y-60191388D01*
X180891909Y-60196890D01*
X180755092Y-60275882D01*
X180643381Y-60387593D01*
X180564389Y-60524410D01*
X180558887Y-60544942D01*
X179900840Y-59886895D01*
X179840584Y-59969831D01*
X179733397Y-60180198D01*
X179660434Y-60404753D01*
X179623500Y-60637948D01*
X179623500Y-60874053D01*
X179660434Y-61107248D01*
X179733397Y-61331803D01*
X179840587Y-61542175D01*
X179900838Y-61625105D01*
X179900840Y-61625106D01*
X180558887Y-60967059D01*
X180564389Y-60987592D01*
X180643381Y-61124409D01*
X180755092Y-61236120D01*
X180891909Y-61315112D01*
X180912440Y-61320613D01*
X180473872Y-61759181D01*
X180412549Y-61792666D01*
X180386193Y-61795500D01*
X180323499Y-61795500D01*
X180323480Y-61795501D01*
X180220703Y-61806000D01*
X180220700Y-61806001D01*
X180054168Y-61861185D01*
X180054163Y-61861187D01*
X179904842Y-61953289D01*
X179780789Y-62077342D01*
X179688687Y-62226663D01*
X179688686Y-62226666D01*
X179633501Y-62393203D01*
X179633501Y-62393204D01*
X179633500Y-62393204D01*
X179623000Y-62495983D01*
X117950500Y-62495983D01*
X117950500Y-60187707D01*
X117950618Y-60182299D01*
X117951766Y-60156001D01*
X117956940Y-60037487D01*
X120199500Y-60037487D01*
X120199500Y-60332514D01*
X120209011Y-60404753D01*
X120238007Y-60624994D01*
X120295045Y-60837863D01*
X120314361Y-60909952D01*
X120314364Y-60909962D01*
X120427254Y-61182501D01*
X120427258Y-61182511D01*
X120574761Y-61437994D01*
X120754352Y-61672041D01*
X120754358Y-61672048D01*
X120962952Y-61880642D01*
X120962959Y-61880648D01*
X121197006Y-62060239D01*
X121452489Y-62207742D01*
X121452490Y-62207742D01*
X121452493Y-62207744D01*
X121725048Y-62320640D01*
X122010007Y-62396994D01*
X122302494Y-62435501D01*
X122302501Y-62435501D01*
X122597499Y-62435501D01*
X122597506Y-62435501D01*
X122889993Y-62396994D01*
X123174952Y-62320640D01*
X123447507Y-62207744D01*
X123702994Y-62060239D01*
X123937042Y-61880647D01*
X124145646Y-61672043D01*
X124325238Y-61437995D01*
X124472743Y-61182508D01*
X124585639Y-60909953D01*
X124661993Y-60624994D01*
X124700500Y-60332507D01*
X124700500Y-60037495D01*
X124661993Y-59745008D01*
X124585639Y-59460049D01*
X124472743Y-59187494D01*
X124325238Y-58932007D01*
X124145646Y-58697959D01*
X124145641Y-58697953D01*
X123937047Y-58489359D01*
X123937040Y-58489353D01*
X123702993Y-58309762D01*
X123447510Y-58162259D01*
X123447500Y-58162255D01*
X123174961Y-58049365D01*
X123174954Y-58049363D01*
X123174952Y-58049362D01*
X122889993Y-57973008D01*
X122841113Y-57966572D01*
X122597513Y-57934501D01*
X122597506Y-57934501D01*
X122302494Y-57934501D01*
X122302486Y-57934501D01*
X122024085Y-57971154D01*
X122010007Y-57973008D01*
X121894507Y-58003956D01*
X121725048Y-58049362D01*
X121725038Y-58049365D01*
X121452499Y-58162255D01*
X121452489Y-58162259D01*
X121197006Y-58309762D01*
X120962959Y-58489353D01*
X120962952Y-58489359D01*
X120754358Y-58697953D01*
X120754352Y-58697960D01*
X120574761Y-58932007D01*
X120427258Y-59187490D01*
X120427254Y-59187500D01*
X120314364Y-59460039D01*
X120314361Y-59460049D01*
X120238008Y-59745005D01*
X120238006Y-59745016D01*
X120199500Y-60037487D01*
X117956940Y-60037487D01*
X117967387Y-59798225D01*
X117968325Y-59787497D01*
X118018151Y-59409033D01*
X118020024Y-59398403D01*
X118102648Y-59025715D01*
X118105446Y-59015277D01*
X118126117Y-58949717D01*
X118220230Y-58651228D01*
X118223917Y-58641096D01*
X118370003Y-58288413D01*
X118374561Y-58278639D01*
X118550832Y-57940025D01*
X118556214Y-57930704D01*
X118761319Y-57608754D01*
X118767510Y-57599911D01*
X118999895Y-57297061D01*
X119006833Y-57288792D01*
X119264725Y-57007353D01*
X119272351Y-56999727D01*
X119553790Y-56741835D01*
X119562059Y-56734897D01*
X119864909Y-56502511D01*
X119873752Y-56496320D01*
X120195708Y-56291212D01*
X120205023Y-56285833D01*
X120543637Y-56109561D01*
X120553411Y-56105003D01*
X120906095Y-55958917D01*
X120916227Y-55955229D01*
X121280294Y-55840440D01*
X121290708Y-55837649D01*
X121663404Y-55755025D01*
X121674024Y-55753152D01*
X122052494Y-55703326D01*
X122063225Y-55702386D01*
X122447273Y-55685618D01*
X122452682Y-55685501D01*
X122515891Y-55685501D01*
X149970659Y-55685501D01*
X150037698Y-55705186D01*
G37*
%TD.AperFunction*%
%TD*%
M02*
