%TF.GenerationSoftware,KiCad,Pcbnew,9.0.6*%
%TF.CreationDate,2026-02-01T14:10:18+01:00*%
%TF.ProjectId,hw,68772e6b-6963-4616-945f-706362585858,rev?*%
%TF.SameCoordinates,Original*%
%TF.FileFunction,Soldermask,Top*%
%TF.FilePolarity,Negative*%
%FSLAX46Y46*%
G04 Gerber Fmt 4.6, Leading zero omitted, Abs format (unit mm)*
G04 Created by KiCad (PCBNEW 9.0.6) date 2026-02-01 14:10:18*
%MOMM*%
%LPD*%
G01*
G04 APERTURE LIST*
G04 Aperture macros list*
%AMRoundRect*
0 Rectangle with rounded corners*
0 $1 Rounding radius*
0 $2 $3 $4 $5 $6 $7 $8 $9 X,Y pos of 4 corners*
0 Add a 4 corners polygon primitive as box body*
4,1,4,$2,$3,$4,$5,$6,$7,$8,$9,$2,$3,0*
0 Add four circle primitives for the rounded corners*
1,1,$1+$1,$2,$3*
1,1,$1+$1,$4,$5*
1,1,$1+$1,$6,$7*
1,1,$1+$1,$8,$9*
0 Add four rect primitives between the rounded corners*
20,1,$1+$1,$2,$3,$4,$5,0*
20,1,$1+$1,$4,$5,$6,$7,0*
20,1,$1+$1,$6,$7,$8,$9,0*
20,1,$1+$1,$8,$9,$2,$3,0*%
G04 Aperture macros list end*
%ADD10RoundRect,0.152400X-0.609600X1.063600X-0.609600X-1.063600X0.609600X-1.063600X0.609600X1.063600X0*%
%ADD11RoundRect,0.152400X0.609600X-1.063600X0.609600X1.063600X-0.609600X1.063600X-0.609600X-1.063600X0*%
%ADD12RoundRect,0.250000X-0.450000X0.350000X-0.450000X-0.350000X0.450000X-0.350000X0.450000X0.350000X0*%
%ADD13RoundRect,0.102000X-1.600000X-0.800000X1.600000X-0.800000X1.600000X0.800000X-1.600000X0.800000X0*%
%ADD14R,1.200000X0.600000*%
%ADD15RoundRect,0.250000X-0.475000X0.337500X-0.475000X-0.337500X0.475000X-0.337500X0.475000X0.337500X0*%
%ADD16C,1.700000*%
%ADD17R,1.500000X4.000000*%
%ADD18RoundRect,0.250000X0.750000X-0.750000X0.750000X0.750000X-0.750000X0.750000X-0.750000X-0.750000X0*%
%ADD19C,2.000000*%
%ADD20RoundRect,0.250000X0.700000X-0.362500X0.700000X0.362500X-0.700000X0.362500X-0.700000X-0.362500X0*%
%ADD21C,1.473200*%
%ADD22R,2.000000X2.000000*%
%ADD23O,1.600000X2.000000*%
%ADD24R,1.200000X0.850000*%
%ADD25RoundRect,0.102000X1.600000X0.800000X-1.600000X0.800000X-1.600000X-0.800000X1.600000X-0.800000X0*%
%ADD26RoundRect,0.250000X0.475000X-0.337500X0.475000X0.337500X-0.475000X0.337500X-0.475000X-0.337500X0*%
%ADD27RoundRect,0.250000X0.450000X-0.350000X0.450000X0.350000X-0.450000X0.350000X-0.450000X-0.350000X0*%
%ADD28C,2.300000*%
%ADD29R,1.700000X0.750000*%
%ADD30RoundRect,0.270000X-0.630000X-1.180000X0.630000X-1.180000X0.630000X1.180000X-0.630000X1.180000X0*%
%ADD31RoundRect,0.375000X-0.875000X-1.125000X0.875000X-1.125000X0.875000X1.125000X-0.875000X1.125000X0*%
%ADD32R,1.820000X1.160000*%
%ADD33RoundRect,0.250000X-0.337500X-0.475000X0.337500X-0.475000X0.337500X0.475000X-0.337500X0.475000X0*%
%ADD34R,2.200000X2.150000*%
G04 APERTURE END LIST*
D10*
%TO.C,U1*%
X120700000Y-112259000D03*
X123240000Y-112259000D03*
X125780000Y-112259000D03*
X128320000Y-112259000D03*
X130860000Y-112259000D03*
X133400000Y-112259000D03*
X135940000Y-112259000D03*
D11*
X135940000Y-95349000D03*
X133400000Y-95349000D03*
X130860000Y-95349000D03*
X128320000Y-95349000D03*
X125780000Y-95349000D03*
X123240000Y-95349000D03*
X120700000Y-95349000D03*
%TD*%
D12*
%TO.C,R3*%
X128270000Y-82058000D03*
X128270000Y-84058000D03*
%TD*%
%TO.C,Rfbt1*%
X151384000Y-98695000D03*
X151384000Y-100695000D03*
%TD*%
D13*
%TO.C,C5*%
X160441000Y-74676000D03*
X165441000Y-74676000D03*
%TD*%
D14*
%TO.C,PS1*%
X143657000Y-92268000D03*
X143657000Y-93218000D03*
X143657000Y-94168000D03*
X146157000Y-94168000D03*
X146157000Y-93218000D03*
X146157000Y-92268000D03*
%TD*%
D15*
%TO.C,Cinx1*%
X148209000Y-93323500D03*
X148209000Y-95398500D03*
%TD*%
D16*
%TO.C,SW3*%
X170230000Y-64688000D03*
X170230000Y-58188000D03*
X174730000Y-64688000D03*
X174730000Y-58188000D03*
%TD*%
D17*
%TO.C,L1*%
X156222000Y-94234000D03*
X152622000Y-94234000D03*
%TD*%
D18*
%TO.C,J1*%
X181123500Y-63296000D03*
D19*
X181123500Y-60756001D03*
%TD*%
D12*
%TO.C,R5*%
X121539000Y-81931000D03*
X121539000Y-83931000D03*
%TD*%
D20*
%TO.C,L2*%
X144526000Y-87260500D03*
X144526000Y-83935500D03*
%TD*%
D12*
%TO.C,R4*%
X125222000Y-81931000D03*
X125222000Y-83931000D03*
%TD*%
D21*
%TO.C,U3*%
X124789400Y-121457000D03*
X124789400Y-118917000D03*
X124789400Y-116377000D03*
%TD*%
D22*
%TO.C,TP1*%
X153543000Y-87757000D03*
%TD*%
D23*
%TO.C,OLED1*%
X150926000Y-57068000D03*
X153466000Y-57068000D03*
X156006000Y-57068000D03*
X158546000Y-57068000D03*
%TD*%
D24*
%TO.C,D1*%
X180594000Y-76708000D03*
X180594000Y-73658000D03*
%TD*%
D15*
%TO.C,C2*%
X125222000Y-85957500D03*
X125222000Y-88032500D03*
%TD*%
D25*
%TO.C,C4*%
X152360000Y-73914000D03*
X147360000Y-73914000D03*
%TD*%
D16*
%TO.C,SW4*%
X170266000Y-74034000D03*
X170266000Y-67534000D03*
X174766000Y-74034000D03*
X174766000Y-67534000D03*
%TD*%
D12*
%TO.C,Rfbb1*%
X148082000Y-98695000D03*
X148082000Y-100695000D03*
%TD*%
D26*
%TO.C,C3*%
X132461000Y-119147500D03*
X132461000Y-117072500D03*
%TD*%
D22*
%TO.C,TP2*%
X156337000Y-74168000D03*
%TD*%
D27*
%TO.C,R2*%
X132207000Y-84058000D03*
X132207000Y-82058000D03*
%TD*%
D15*
%TO.C,C1*%
X128270000Y-85957500D03*
X128270000Y-88032500D03*
%TD*%
D28*
%TO.C,LED1*%
X142494000Y-80137000D03*
D29*
X144994000Y-80137000D03*
X139994000Y-80137000D03*
%TD*%
D30*
%TO.C,ROT1*%
X134072000Y-58928000D03*
X129072000Y-58928000D03*
X131572000Y-58928000D03*
X129072000Y-75528000D03*
X134072000Y-75528000D03*
D31*
X124972000Y-67133400D03*
X138272000Y-67133400D03*
%TD*%
D27*
%TO.C,COut1*%
X158496000Y-90535000D03*
X158496000Y-88535000D03*
%TD*%
D12*
%TO.C,R6*%
X135763000Y-117110000D03*
X135763000Y-119110000D03*
%TD*%
D32*
%TO.C,F1*%
X181229000Y-71198000D03*
X181229000Y-68248000D03*
%TD*%
D27*
%TO.C,COut2*%
X156464000Y-90535000D03*
X156464000Y-88535000D03*
%TD*%
D33*
%TO.C,Cin1*%
X146409500Y-89535000D03*
X148484500Y-89535000D03*
%TD*%
D27*
%TO.C,R1*%
X136906000Y-82788000D03*
X136906000Y-80788000D03*
%TD*%
D26*
%TO.C,CBoot1*%
X141732000Y-92350500D03*
X141732000Y-90275500D03*
%TD*%
D34*
%TO.C,D2*%
X176444000Y-78232000D03*
X172044000Y-78232000D03*
%TD*%
M02*
