%TF.GenerationSoftware,KiCad,Pcbnew,9.0.6*%
%TF.CreationDate,2026-02-01T14:10:18+01:00*%
%TF.ProjectId,hw,68772e6b-6963-4616-945f-706362585858,rev?*%
%TF.SameCoordinates,Original*%
%TF.FileFunction,Legend,Top*%
%TF.FilePolarity,Positive*%
%FSLAX46Y46*%
G04 Gerber Fmt 4.6, Leading zero omitted, Abs format (unit mm)*
G04 Created by KiCad (PCBNEW 9.0.6) date 2026-02-01 14:10:18*
%MOMM*%
%LPD*%
G01*
G04 APERTURE LIST*
%ADD10C,0.100000*%
%ADD11C,0.150000*%
%ADD12C,0.250000*%
%ADD13C,0.254000*%
%ADD14C,0.127000*%
%ADD15C,0.504000*%
%ADD16C,0.120000*%
%ADD17C,0.200000*%
%ADD18C,0.152400*%
G04 APERTURE END LIST*
D10*
X178214979Y-78045561D02*
X178310217Y-78140800D01*
X178310217Y-78140800D02*
X178214979Y-78236038D01*
X178214979Y-78236038D02*
X178119741Y-78140800D01*
X178119741Y-78140800D02*
X178214979Y-78045561D01*
X178214979Y-78045561D02*
X178214979Y-78236038D01*
D11*
X185502779Y-60702866D02*
X186264684Y-60702866D01*
D10*
X128920609Y-56490782D02*
X128968228Y-56347925D01*
X128968228Y-56347925D02*
X129015847Y-56300306D01*
X129015847Y-56300306D02*
X129111085Y-56252687D01*
X129111085Y-56252687D02*
X129253942Y-56252687D01*
X129253942Y-56252687D02*
X129349180Y-56300306D01*
X129349180Y-56300306D02*
X129396800Y-56347925D01*
X129396800Y-56347925D02*
X129444419Y-56443163D01*
X129444419Y-56443163D02*
X129444419Y-56824115D01*
X129444419Y-56824115D02*
X128444419Y-56824115D01*
X128444419Y-56824115D02*
X128444419Y-56490782D01*
X128444419Y-56490782D02*
X128492038Y-56395544D01*
X128492038Y-56395544D02*
X128539657Y-56347925D01*
X128539657Y-56347925D02*
X128634895Y-56300306D01*
X128634895Y-56300306D02*
X128730133Y-56300306D01*
X128730133Y-56300306D02*
X128825371Y-56347925D01*
X128825371Y-56347925D02*
X128872990Y-56395544D01*
X128872990Y-56395544D02*
X128920609Y-56490782D01*
X128920609Y-56490782D02*
X128920609Y-56824115D01*
D11*
X185883779Y-64004866D02*
X186645684Y-64004866D01*
X186264731Y-64385819D02*
X186264731Y-63623914D01*
X127200819Y-83351666D02*
X126724628Y-83684999D01*
X127200819Y-83923094D02*
X126200819Y-83923094D01*
X126200819Y-83923094D02*
X126200819Y-83542142D01*
X126200819Y-83542142D02*
X126248438Y-83446904D01*
X126248438Y-83446904D02*
X126296057Y-83399285D01*
X126296057Y-83399285D02*
X126391295Y-83351666D01*
X126391295Y-83351666D02*
X126534152Y-83351666D01*
X126534152Y-83351666D02*
X126629390Y-83399285D01*
X126629390Y-83399285D02*
X126677009Y-83446904D01*
X126677009Y-83446904D02*
X126724628Y-83542142D01*
X126724628Y-83542142D02*
X126724628Y-83923094D01*
X126200819Y-83018332D02*
X126200819Y-82399285D01*
X126200819Y-82399285D02*
X126581771Y-82732618D01*
X126581771Y-82732618D02*
X126581771Y-82589761D01*
X126581771Y-82589761D02*
X126629390Y-82494523D01*
X126629390Y-82494523D02*
X126677009Y-82446904D01*
X126677009Y-82446904D02*
X126772247Y-82399285D01*
X126772247Y-82399285D02*
X127010342Y-82399285D01*
X127010342Y-82399285D02*
X127105580Y-82446904D01*
X127105580Y-82446904D02*
X127153200Y-82494523D01*
X127153200Y-82494523D02*
X127200819Y-82589761D01*
X127200819Y-82589761D02*
X127200819Y-82875475D01*
X127200819Y-82875475D02*
X127153200Y-82970713D01*
X127153200Y-82970713D02*
X127105580Y-83018332D01*
X150314819Y-100885476D02*
X149838628Y-101218809D01*
X150314819Y-101456904D02*
X149314819Y-101456904D01*
X149314819Y-101456904D02*
X149314819Y-101075952D01*
X149314819Y-101075952D02*
X149362438Y-100980714D01*
X149362438Y-100980714D02*
X149410057Y-100933095D01*
X149410057Y-100933095D02*
X149505295Y-100885476D01*
X149505295Y-100885476D02*
X149648152Y-100885476D01*
X149648152Y-100885476D02*
X149743390Y-100933095D01*
X149743390Y-100933095D02*
X149791009Y-100980714D01*
X149791009Y-100980714D02*
X149838628Y-101075952D01*
X149838628Y-101075952D02*
X149838628Y-101456904D01*
X149648152Y-100599761D02*
X149648152Y-100218809D01*
X150314819Y-100456904D02*
X149457676Y-100456904D01*
X149457676Y-100456904D02*
X149362438Y-100409285D01*
X149362438Y-100409285D02*
X149314819Y-100314047D01*
X149314819Y-100314047D02*
X149314819Y-100218809D01*
X150314819Y-99885475D02*
X149314819Y-99885475D01*
X149695771Y-99885475D02*
X149648152Y-99790237D01*
X149648152Y-99790237D02*
X149648152Y-99599761D01*
X149648152Y-99599761D02*
X149695771Y-99504523D01*
X149695771Y-99504523D02*
X149743390Y-99456904D01*
X149743390Y-99456904D02*
X149838628Y-99409285D01*
X149838628Y-99409285D02*
X150124342Y-99409285D01*
X150124342Y-99409285D02*
X150219580Y-99456904D01*
X150219580Y-99456904D02*
X150267200Y-99504523D01*
X150267200Y-99504523D02*
X150314819Y-99599761D01*
X150314819Y-99599761D02*
X150314819Y-99790237D01*
X150314819Y-99790237D02*
X150267200Y-99885475D01*
X149648152Y-99123570D02*
X149648152Y-98742618D01*
X149314819Y-98980713D02*
X150171961Y-98980713D01*
X150171961Y-98980713D02*
X150267200Y-98933094D01*
X150267200Y-98933094D02*
X150314819Y-98837856D01*
X150314819Y-98837856D02*
X150314819Y-98742618D01*
X150314819Y-97885475D02*
X150314819Y-98456903D01*
X150314819Y-98171189D02*
X149314819Y-98171189D01*
X149314819Y-98171189D02*
X149457676Y-98266427D01*
X149457676Y-98266427D02*
X149552914Y-98361665D01*
X149552914Y-98361665D02*
X149600533Y-98456903D01*
X165568333Y-79480580D02*
X165520714Y-79528200D01*
X165520714Y-79528200D02*
X165377857Y-79575819D01*
X165377857Y-79575819D02*
X165282619Y-79575819D01*
X165282619Y-79575819D02*
X165139762Y-79528200D01*
X165139762Y-79528200D02*
X165044524Y-79432961D01*
X165044524Y-79432961D02*
X164996905Y-79337723D01*
X164996905Y-79337723D02*
X164949286Y-79147247D01*
X164949286Y-79147247D02*
X164949286Y-79004390D01*
X164949286Y-79004390D02*
X164996905Y-78813914D01*
X164996905Y-78813914D02*
X165044524Y-78718676D01*
X165044524Y-78718676D02*
X165139762Y-78623438D01*
X165139762Y-78623438D02*
X165282619Y-78575819D01*
X165282619Y-78575819D02*
X165377857Y-78575819D01*
X165377857Y-78575819D02*
X165520714Y-78623438D01*
X165520714Y-78623438D02*
X165568333Y-78671057D01*
X166473095Y-78575819D02*
X165996905Y-78575819D01*
X165996905Y-78575819D02*
X165949286Y-79052009D01*
X165949286Y-79052009D02*
X165996905Y-79004390D01*
X165996905Y-79004390D02*
X166092143Y-78956771D01*
X166092143Y-78956771D02*
X166330238Y-78956771D01*
X166330238Y-78956771D02*
X166425476Y-79004390D01*
X166425476Y-79004390D02*
X166473095Y-79052009D01*
X166473095Y-79052009D02*
X166520714Y-79147247D01*
X166520714Y-79147247D02*
X166520714Y-79385342D01*
X166520714Y-79385342D02*
X166473095Y-79480580D01*
X166473095Y-79480580D02*
X166425476Y-79528200D01*
X166425476Y-79528200D02*
X166330238Y-79575819D01*
X166330238Y-79575819D02*
X166092143Y-79575819D01*
X166092143Y-79575819D02*
X165996905Y-79528200D01*
X165996905Y-79528200D02*
X165949286Y-79480580D01*
D12*
X143184714Y-91254619D02*
X143184714Y-90254619D01*
X143184714Y-90254619D02*
X143565666Y-90254619D01*
X143565666Y-90254619D02*
X143660904Y-90302238D01*
X143660904Y-90302238D02*
X143708523Y-90349857D01*
X143708523Y-90349857D02*
X143756142Y-90445095D01*
X143756142Y-90445095D02*
X143756142Y-90587952D01*
X143756142Y-90587952D02*
X143708523Y-90683190D01*
X143708523Y-90683190D02*
X143660904Y-90730809D01*
X143660904Y-90730809D02*
X143565666Y-90778428D01*
X143565666Y-90778428D02*
X143184714Y-90778428D01*
X144137095Y-91207000D02*
X144279952Y-91254619D01*
X144279952Y-91254619D02*
X144518047Y-91254619D01*
X144518047Y-91254619D02*
X144613285Y-91207000D01*
X144613285Y-91207000D02*
X144660904Y-91159380D01*
X144660904Y-91159380D02*
X144708523Y-91064142D01*
X144708523Y-91064142D02*
X144708523Y-90968904D01*
X144708523Y-90968904D02*
X144660904Y-90873666D01*
X144660904Y-90873666D02*
X144613285Y-90826047D01*
X144613285Y-90826047D02*
X144518047Y-90778428D01*
X144518047Y-90778428D02*
X144327571Y-90730809D01*
X144327571Y-90730809D02*
X144232333Y-90683190D01*
X144232333Y-90683190D02*
X144184714Y-90635571D01*
X144184714Y-90635571D02*
X144137095Y-90540333D01*
X144137095Y-90540333D02*
X144137095Y-90445095D01*
X144137095Y-90445095D02*
X144184714Y-90349857D01*
X144184714Y-90349857D02*
X144232333Y-90302238D01*
X144232333Y-90302238D02*
X144327571Y-90254619D01*
X144327571Y-90254619D02*
X144565666Y-90254619D01*
X144565666Y-90254619D02*
X144708523Y-90302238D01*
X145660904Y-91254619D02*
X145089476Y-91254619D01*
X145375190Y-91254619D02*
X145375190Y-90254619D01*
X145375190Y-90254619D02*
X145279952Y-90397476D01*
X145279952Y-90397476D02*
X145184714Y-90492714D01*
X145184714Y-90492714D02*
X145089476Y-90540333D01*
D11*
X150248580Y-95622904D02*
X150296200Y-95670523D01*
X150296200Y-95670523D02*
X150343819Y-95813380D01*
X150343819Y-95813380D02*
X150343819Y-95908618D01*
X150343819Y-95908618D02*
X150296200Y-96051475D01*
X150296200Y-96051475D02*
X150200961Y-96146713D01*
X150200961Y-96146713D02*
X150105723Y-96194332D01*
X150105723Y-96194332D02*
X149915247Y-96241951D01*
X149915247Y-96241951D02*
X149772390Y-96241951D01*
X149772390Y-96241951D02*
X149581914Y-96194332D01*
X149581914Y-96194332D02*
X149486676Y-96146713D01*
X149486676Y-96146713D02*
X149391438Y-96051475D01*
X149391438Y-96051475D02*
X149343819Y-95908618D01*
X149343819Y-95908618D02*
X149343819Y-95813380D01*
X149343819Y-95813380D02*
X149391438Y-95670523D01*
X149391438Y-95670523D02*
X149439057Y-95622904D01*
X150343819Y-95194332D02*
X149677152Y-95194332D01*
X149343819Y-95194332D02*
X149391438Y-95241951D01*
X149391438Y-95241951D02*
X149439057Y-95194332D01*
X149439057Y-95194332D02*
X149391438Y-95146713D01*
X149391438Y-95146713D02*
X149343819Y-95194332D01*
X149343819Y-95194332D02*
X149439057Y-95194332D01*
X149677152Y-94718142D02*
X150343819Y-94718142D01*
X149772390Y-94718142D02*
X149724771Y-94670523D01*
X149724771Y-94670523D02*
X149677152Y-94575285D01*
X149677152Y-94575285D02*
X149677152Y-94432428D01*
X149677152Y-94432428D02*
X149724771Y-94337190D01*
X149724771Y-94337190D02*
X149820009Y-94289571D01*
X149820009Y-94289571D02*
X150343819Y-94289571D01*
X150343819Y-93908618D02*
X149677152Y-93384809D01*
X149677152Y-93908618D02*
X150343819Y-93384809D01*
X150343819Y-92480047D02*
X150343819Y-93051475D01*
X150343819Y-92765761D02*
X149343819Y-92765761D01*
X149343819Y-92765761D02*
X149486676Y-92860999D01*
X149486676Y-92860999D02*
X149581914Y-92956237D01*
X149581914Y-92956237D02*
X149629533Y-93051475D01*
X176987200Y-62719332D02*
X177034819Y-62576475D01*
X177034819Y-62576475D02*
X177034819Y-62338380D01*
X177034819Y-62338380D02*
X176987200Y-62243142D01*
X176987200Y-62243142D02*
X176939580Y-62195523D01*
X176939580Y-62195523D02*
X176844342Y-62147904D01*
X176844342Y-62147904D02*
X176749104Y-62147904D01*
X176749104Y-62147904D02*
X176653866Y-62195523D01*
X176653866Y-62195523D02*
X176606247Y-62243142D01*
X176606247Y-62243142D02*
X176558628Y-62338380D01*
X176558628Y-62338380D02*
X176511009Y-62528856D01*
X176511009Y-62528856D02*
X176463390Y-62624094D01*
X176463390Y-62624094D02*
X176415771Y-62671713D01*
X176415771Y-62671713D02*
X176320533Y-62719332D01*
X176320533Y-62719332D02*
X176225295Y-62719332D01*
X176225295Y-62719332D02*
X176130057Y-62671713D01*
X176130057Y-62671713D02*
X176082438Y-62624094D01*
X176082438Y-62624094D02*
X176034819Y-62528856D01*
X176034819Y-62528856D02*
X176034819Y-62290761D01*
X176034819Y-62290761D02*
X176082438Y-62147904D01*
X176034819Y-61814570D02*
X177034819Y-61576475D01*
X177034819Y-61576475D02*
X176320533Y-61385999D01*
X176320533Y-61385999D02*
X177034819Y-61195523D01*
X177034819Y-61195523D02*
X176034819Y-60957428D01*
X176034819Y-60671713D02*
X176034819Y-60052666D01*
X176034819Y-60052666D02*
X176415771Y-60385999D01*
X176415771Y-60385999D02*
X176415771Y-60243142D01*
X176415771Y-60243142D02*
X176463390Y-60147904D01*
X176463390Y-60147904D02*
X176511009Y-60100285D01*
X176511009Y-60100285D02*
X176606247Y-60052666D01*
X176606247Y-60052666D02*
X176844342Y-60052666D01*
X176844342Y-60052666D02*
X176939580Y-60100285D01*
X176939580Y-60100285D02*
X176987200Y-60147904D01*
X176987200Y-60147904D02*
X177034819Y-60243142D01*
X177034819Y-60243142D02*
X177034819Y-60528856D01*
X177034819Y-60528856D02*
X176987200Y-60624094D01*
X176987200Y-60624094D02*
X176939580Y-60671713D01*
D13*
X157903333Y-96586318D02*
X157298571Y-96586318D01*
X157298571Y-96586318D02*
X157298571Y-95316318D01*
X158991905Y-96586318D02*
X158266190Y-96586318D01*
X158629047Y-96586318D02*
X158629047Y-95316318D01*
X158629047Y-95316318D02*
X158508095Y-95497746D01*
X158508095Y-95497746D02*
X158387143Y-95618699D01*
X158387143Y-95618699D02*
X158266190Y-95679175D01*
D11*
X180818666Y-57411819D02*
X180818666Y-58126104D01*
X180818666Y-58126104D02*
X180771047Y-58268961D01*
X180771047Y-58268961D02*
X180675809Y-58364200D01*
X180675809Y-58364200D02*
X180532952Y-58411819D01*
X180532952Y-58411819D02*
X180437714Y-58411819D01*
X181818666Y-58411819D02*
X181247238Y-58411819D01*
X181532952Y-58411819D02*
X181532952Y-57411819D01*
X181532952Y-57411819D02*
X181437714Y-57554676D01*
X181437714Y-57554676D02*
X181342476Y-57649914D01*
X181342476Y-57649914D02*
X181247238Y-57697533D01*
X120596819Y-83097666D02*
X120120628Y-83430999D01*
X120596819Y-83669094D02*
X119596819Y-83669094D01*
X119596819Y-83669094D02*
X119596819Y-83288142D01*
X119596819Y-83288142D02*
X119644438Y-83192904D01*
X119644438Y-83192904D02*
X119692057Y-83145285D01*
X119692057Y-83145285D02*
X119787295Y-83097666D01*
X119787295Y-83097666D02*
X119930152Y-83097666D01*
X119930152Y-83097666D02*
X120025390Y-83145285D01*
X120025390Y-83145285D02*
X120073009Y-83192904D01*
X120073009Y-83192904D02*
X120120628Y-83288142D01*
X120120628Y-83288142D02*
X120120628Y-83669094D01*
X119596819Y-82192904D02*
X119596819Y-82669094D01*
X119596819Y-82669094D02*
X120073009Y-82716713D01*
X120073009Y-82716713D02*
X120025390Y-82669094D01*
X120025390Y-82669094D02*
X119977771Y-82573856D01*
X119977771Y-82573856D02*
X119977771Y-82335761D01*
X119977771Y-82335761D02*
X120025390Y-82240523D01*
X120025390Y-82240523D02*
X120073009Y-82192904D01*
X120073009Y-82192904D02*
X120168247Y-82145285D01*
X120168247Y-82145285D02*
X120406342Y-82145285D01*
X120406342Y-82145285D02*
X120501580Y-82192904D01*
X120501580Y-82192904D02*
X120549200Y-82240523D01*
X120549200Y-82240523D02*
X120596819Y-82335761D01*
X120596819Y-82335761D02*
X120596819Y-82573856D01*
X120596819Y-82573856D02*
X120549200Y-82669094D01*
X120549200Y-82669094D02*
X120501580Y-82716713D01*
X143080819Y-85764666D02*
X143080819Y-86240856D01*
X143080819Y-86240856D02*
X142080819Y-86240856D01*
X142176057Y-85478951D02*
X142128438Y-85431332D01*
X142128438Y-85431332D02*
X142080819Y-85336094D01*
X142080819Y-85336094D02*
X142080819Y-85097999D01*
X142080819Y-85097999D02*
X142128438Y-85002761D01*
X142128438Y-85002761D02*
X142176057Y-84955142D01*
X142176057Y-84955142D02*
X142271295Y-84907523D01*
X142271295Y-84907523D02*
X142366533Y-84907523D01*
X142366533Y-84907523D02*
X142509390Y-84955142D01*
X142509390Y-84955142D02*
X143080819Y-85526570D01*
X143080819Y-85526570D02*
X143080819Y-84907523D01*
X124152819Y-83097666D02*
X123676628Y-83430999D01*
X124152819Y-83669094D02*
X123152819Y-83669094D01*
X123152819Y-83669094D02*
X123152819Y-83288142D01*
X123152819Y-83288142D02*
X123200438Y-83192904D01*
X123200438Y-83192904D02*
X123248057Y-83145285D01*
X123248057Y-83145285D02*
X123343295Y-83097666D01*
X123343295Y-83097666D02*
X123486152Y-83097666D01*
X123486152Y-83097666D02*
X123581390Y-83145285D01*
X123581390Y-83145285D02*
X123629009Y-83192904D01*
X123629009Y-83192904D02*
X123676628Y-83288142D01*
X123676628Y-83288142D02*
X123676628Y-83669094D01*
X123486152Y-82240523D02*
X124152819Y-82240523D01*
X123105200Y-82478618D02*
X123819485Y-82716713D01*
X123819485Y-82716713D02*
X123819485Y-82097666D01*
X129629819Y-122300904D02*
X130439342Y-122300904D01*
X130439342Y-122300904D02*
X130534580Y-122253285D01*
X130534580Y-122253285D02*
X130582200Y-122205666D01*
X130582200Y-122205666D02*
X130629819Y-122110428D01*
X130629819Y-122110428D02*
X130629819Y-121919952D01*
X130629819Y-121919952D02*
X130582200Y-121824714D01*
X130582200Y-121824714D02*
X130534580Y-121777095D01*
X130534580Y-121777095D02*
X130439342Y-121729476D01*
X130439342Y-121729476D02*
X129629819Y-121729476D01*
X129629819Y-121348523D02*
X129629819Y-120729476D01*
X129629819Y-120729476D02*
X130010771Y-121062809D01*
X130010771Y-121062809D02*
X130010771Y-120919952D01*
X130010771Y-120919952D02*
X130058390Y-120824714D01*
X130058390Y-120824714D02*
X130106009Y-120777095D01*
X130106009Y-120777095D02*
X130201247Y-120729476D01*
X130201247Y-120729476D02*
X130439342Y-120729476D01*
X130439342Y-120729476D02*
X130534580Y-120777095D01*
X130534580Y-120777095D02*
X130582200Y-120824714D01*
X130582200Y-120824714D02*
X130629819Y-120919952D01*
X130629819Y-120919952D02*
X130629819Y-121205666D01*
X130629819Y-121205666D02*
X130582200Y-121300904D01*
X130582200Y-121300904D02*
X130534580Y-121348523D01*
X152281095Y-85213819D02*
X152852523Y-85213819D01*
X152566809Y-86213819D02*
X152566809Y-85213819D01*
X153185857Y-86213819D02*
X153185857Y-85213819D01*
X153185857Y-85213819D02*
X153566809Y-85213819D01*
X153566809Y-85213819D02*
X153662047Y-85261438D01*
X153662047Y-85261438D02*
X153709666Y-85309057D01*
X153709666Y-85309057D02*
X153757285Y-85404295D01*
X153757285Y-85404295D02*
X153757285Y-85547152D01*
X153757285Y-85547152D02*
X153709666Y-85642390D01*
X153709666Y-85642390D02*
X153662047Y-85690009D01*
X153662047Y-85690009D02*
X153566809Y-85737628D01*
X153566809Y-85737628D02*
X153185857Y-85737628D01*
X154709666Y-86213819D02*
X154138238Y-86213819D01*
X154423952Y-86213819D02*
X154423952Y-85213819D01*
X154423952Y-85213819D02*
X154328714Y-85356676D01*
X154328714Y-85356676D02*
X154233476Y-85451914D01*
X154233476Y-85451914D02*
X154138238Y-85499533D01*
X152617428Y-67376819D02*
X152807904Y-67376819D01*
X152807904Y-67376819D02*
X152903142Y-67424438D01*
X152903142Y-67424438D02*
X152998380Y-67519676D01*
X152998380Y-67519676D02*
X153045999Y-67710152D01*
X153045999Y-67710152D02*
X153045999Y-68043485D01*
X153045999Y-68043485D02*
X152998380Y-68233961D01*
X152998380Y-68233961D02*
X152903142Y-68329200D01*
X152903142Y-68329200D02*
X152807904Y-68376819D01*
X152807904Y-68376819D02*
X152617428Y-68376819D01*
X152617428Y-68376819D02*
X152522190Y-68329200D01*
X152522190Y-68329200D02*
X152426952Y-68233961D01*
X152426952Y-68233961D02*
X152379333Y-68043485D01*
X152379333Y-68043485D02*
X152379333Y-67710152D01*
X152379333Y-67710152D02*
X152426952Y-67519676D01*
X152426952Y-67519676D02*
X152522190Y-67424438D01*
X152522190Y-67424438D02*
X152617428Y-67376819D01*
X153950761Y-68376819D02*
X153474571Y-68376819D01*
X153474571Y-68376819D02*
X153474571Y-67376819D01*
X154284095Y-67853009D02*
X154617428Y-67853009D01*
X154760285Y-68376819D02*
X154284095Y-68376819D01*
X154284095Y-68376819D02*
X154284095Y-67376819D01*
X154284095Y-67376819D02*
X154760285Y-67376819D01*
X155188857Y-68376819D02*
X155188857Y-67376819D01*
X155188857Y-67376819D02*
X155426952Y-67376819D01*
X155426952Y-67376819D02*
X155569809Y-67424438D01*
X155569809Y-67424438D02*
X155665047Y-67519676D01*
X155665047Y-67519676D02*
X155712666Y-67614914D01*
X155712666Y-67614914D02*
X155760285Y-67805390D01*
X155760285Y-67805390D02*
X155760285Y-67948247D01*
X155760285Y-67948247D02*
X155712666Y-68138723D01*
X155712666Y-68138723D02*
X155665047Y-68233961D01*
X155665047Y-68233961D02*
X155569809Y-68329200D01*
X155569809Y-68329200D02*
X155426952Y-68376819D01*
X155426952Y-68376819D02*
X155188857Y-68376819D01*
X156712666Y-68376819D02*
X156141238Y-68376819D01*
X156426952Y-68376819D02*
X156426952Y-67376819D01*
X156426952Y-67376819D02*
X156331714Y-67519676D01*
X156331714Y-67519676D02*
X156236476Y-67614914D01*
X156236476Y-67614914D02*
X156141238Y-67662533D01*
D13*
X183454318Y-75739381D02*
X182184318Y-75739381D01*
X182184318Y-75739381D02*
X182184318Y-75437000D01*
X182184318Y-75437000D02*
X182244794Y-75255571D01*
X182244794Y-75255571D02*
X182365746Y-75134619D01*
X182365746Y-75134619D02*
X182486699Y-75074142D01*
X182486699Y-75074142D02*
X182728603Y-75013666D01*
X182728603Y-75013666D02*
X182910032Y-75013666D01*
X182910032Y-75013666D02*
X183151937Y-75074142D01*
X183151937Y-75074142D02*
X183272889Y-75134619D01*
X183272889Y-75134619D02*
X183393842Y-75255571D01*
X183393842Y-75255571D02*
X183454318Y-75437000D01*
X183454318Y-75437000D02*
X183454318Y-75739381D01*
X183454318Y-73804142D02*
X183454318Y-74529857D01*
X183454318Y-74167000D02*
X182184318Y-74167000D01*
X182184318Y-74167000D02*
X182365746Y-74287952D01*
X182365746Y-74287952D02*
X182486699Y-74408904D01*
X182486699Y-74408904D02*
X182547175Y-74529857D01*
D11*
X149566333Y-78718580D02*
X149518714Y-78766200D01*
X149518714Y-78766200D02*
X149375857Y-78813819D01*
X149375857Y-78813819D02*
X149280619Y-78813819D01*
X149280619Y-78813819D02*
X149137762Y-78766200D01*
X149137762Y-78766200D02*
X149042524Y-78670961D01*
X149042524Y-78670961D02*
X148994905Y-78575723D01*
X148994905Y-78575723D02*
X148947286Y-78385247D01*
X148947286Y-78385247D02*
X148947286Y-78242390D01*
X148947286Y-78242390D02*
X148994905Y-78051914D01*
X148994905Y-78051914D02*
X149042524Y-77956676D01*
X149042524Y-77956676D02*
X149137762Y-77861438D01*
X149137762Y-77861438D02*
X149280619Y-77813819D01*
X149280619Y-77813819D02*
X149375857Y-77813819D01*
X149375857Y-77813819D02*
X149518714Y-77861438D01*
X149518714Y-77861438D02*
X149566333Y-77909057D01*
X150423476Y-78147152D02*
X150423476Y-78813819D01*
X150185381Y-77766200D02*
X149947286Y-78480485D01*
X149947286Y-78480485D02*
X150566333Y-78480485D01*
X176987200Y-72371332D02*
X177034819Y-72228475D01*
X177034819Y-72228475D02*
X177034819Y-71990380D01*
X177034819Y-71990380D02*
X176987200Y-71895142D01*
X176987200Y-71895142D02*
X176939580Y-71847523D01*
X176939580Y-71847523D02*
X176844342Y-71799904D01*
X176844342Y-71799904D02*
X176749104Y-71799904D01*
X176749104Y-71799904D02*
X176653866Y-71847523D01*
X176653866Y-71847523D02*
X176606247Y-71895142D01*
X176606247Y-71895142D02*
X176558628Y-71990380D01*
X176558628Y-71990380D02*
X176511009Y-72180856D01*
X176511009Y-72180856D02*
X176463390Y-72276094D01*
X176463390Y-72276094D02*
X176415771Y-72323713D01*
X176415771Y-72323713D02*
X176320533Y-72371332D01*
X176320533Y-72371332D02*
X176225295Y-72371332D01*
X176225295Y-72371332D02*
X176130057Y-72323713D01*
X176130057Y-72323713D02*
X176082438Y-72276094D01*
X176082438Y-72276094D02*
X176034819Y-72180856D01*
X176034819Y-72180856D02*
X176034819Y-71942761D01*
X176034819Y-71942761D02*
X176082438Y-71799904D01*
X176034819Y-71466570D02*
X177034819Y-71228475D01*
X177034819Y-71228475D02*
X176320533Y-71037999D01*
X176320533Y-71037999D02*
X177034819Y-70847523D01*
X177034819Y-70847523D02*
X176034819Y-70609428D01*
X176368152Y-69799904D02*
X177034819Y-69799904D01*
X175987200Y-70037999D02*
X176701485Y-70276094D01*
X176701485Y-70276094D02*
X176701485Y-69657047D01*
X146885819Y-101560143D02*
X146409628Y-101893476D01*
X146885819Y-102131571D02*
X145885819Y-102131571D01*
X145885819Y-102131571D02*
X145885819Y-101750619D01*
X145885819Y-101750619D02*
X145933438Y-101655381D01*
X145933438Y-101655381D02*
X145981057Y-101607762D01*
X145981057Y-101607762D02*
X146076295Y-101560143D01*
X146076295Y-101560143D02*
X146219152Y-101560143D01*
X146219152Y-101560143D02*
X146314390Y-101607762D01*
X146314390Y-101607762D02*
X146362009Y-101655381D01*
X146362009Y-101655381D02*
X146409628Y-101750619D01*
X146409628Y-101750619D02*
X146409628Y-102131571D01*
X146219152Y-101274428D02*
X146219152Y-100893476D01*
X146885819Y-101131571D02*
X146028676Y-101131571D01*
X146028676Y-101131571D02*
X145933438Y-101083952D01*
X145933438Y-101083952D02*
X145885819Y-100988714D01*
X145885819Y-100988714D02*
X145885819Y-100893476D01*
X146885819Y-100560142D02*
X145885819Y-100560142D01*
X146266771Y-100560142D02*
X146219152Y-100464904D01*
X146219152Y-100464904D02*
X146219152Y-100274428D01*
X146219152Y-100274428D02*
X146266771Y-100179190D01*
X146266771Y-100179190D02*
X146314390Y-100131571D01*
X146314390Y-100131571D02*
X146409628Y-100083952D01*
X146409628Y-100083952D02*
X146695342Y-100083952D01*
X146695342Y-100083952D02*
X146790580Y-100131571D01*
X146790580Y-100131571D02*
X146838200Y-100179190D01*
X146838200Y-100179190D02*
X146885819Y-100274428D01*
X146885819Y-100274428D02*
X146885819Y-100464904D01*
X146885819Y-100464904D02*
X146838200Y-100560142D01*
X146885819Y-99655380D02*
X145885819Y-99655380D01*
X146266771Y-99655380D02*
X146219152Y-99560142D01*
X146219152Y-99560142D02*
X146219152Y-99369666D01*
X146219152Y-99369666D02*
X146266771Y-99274428D01*
X146266771Y-99274428D02*
X146314390Y-99226809D01*
X146314390Y-99226809D02*
X146409628Y-99179190D01*
X146409628Y-99179190D02*
X146695342Y-99179190D01*
X146695342Y-99179190D02*
X146790580Y-99226809D01*
X146790580Y-99226809D02*
X146838200Y-99274428D01*
X146838200Y-99274428D02*
X146885819Y-99369666D01*
X146885819Y-99369666D02*
X146885819Y-99560142D01*
X146885819Y-99560142D02*
X146838200Y-99655380D01*
X146885819Y-98226809D02*
X146885819Y-98798237D01*
X146885819Y-98512523D02*
X145885819Y-98512523D01*
X145885819Y-98512523D02*
X146028676Y-98607761D01*
X146028676Y-98607761D02*
X146123914Y-98702999D01*
X146123914Y-98702999D02*
X146171533Y-98798237D01*
X131296580Y-118276666D02*
X131344200Y-118324285D01*
X131344200Y-118324285D02*
X131391819Y-118467142D01*
X131391819Y-118467142D02*
X131391819Y-118562380D01*
X131391819Y-118562380D02*
X131344200Y-118705237D01*
X131344200Y-118705237D02*
X131248961Y-118800475D01*
X131248961Y-118800475D02*
X131153723Y-118848094D01*
X131153723Y-118848094D02*
X130963247Y-118895713D01*
X130963247Y-118895713D02*
X130820390Y-118895713D01*
X130820390Y-118895713D02*
X130629914Y-118848094D01*
X130629914Y-118848094D02*
X130534676Y-118800475D01*
X130534676Y-118800475D02*
X130439438Y-118705237D01*
X130439438Y-118705237D02*
X130391819Y-118562380D01*
X130391819Y-118562380D02*
X130391819Y-118467142D01*
X130391819Y-118467142D02*
X130439438Y-118324285D01*
X130439438Y-118324285D02*
X130487057Y-118276666D01*
X130391819Y-117943332D02*
X130391819Y-117324285D01*
X130391819Y-117324285D02*
X130772771Y-117657618D01*
X130772771Y-117657618D02*
X130772771Y-117514761D01*
X130772771Y-117514761D02*
X130820390Y-117419523D01*
X130820390Y-117419523D02*
X130868009Y-117371904D01*
X130868009Y-117371904D02*
X130963247Y-117324285D01*
X130963247Y-117324285D02*
X131201342Y-117324285D01*
X131201342Y-117324285D02*
X131296580Y-117371904D01*
X131296580Y-117371904D02*
X131344200Y-117419523D01*
X131344200Y-117419523D02*
X131391819Y-117514761D01*
X131391819Y-117514761D02*
X131391819Y-117800475D01*
X131391819Y-117800475D02*
X131344200Y-117895713D01*
X131344200Y-117895713D02*
X131296580Y-117943332D01*
X155075095Y-71624819D02*
X155646523Y-71624819D01*
X155360809Y-72624819D02*
X155360809Y-71624819D01*
X155979857Y-72624819D02*
X155979857Y-71624819D01*
X155979857Y-71624819D02*
X156360809Y-71624819D01*
X156360809Y-71624819D02*
X156456047Y-71672438D01*
X156456047Y-71672438D02*
X156503666Y-71720057D01*
X156503666Y-71720057D02*
X156551285Y-71815295D01*
X156551285Y-71815295D02*
X156551285Y-71958152D01*
X156551285Y-71958152D02*
X156503666Y-72053390D01*
X156503666Y-72053390D02*
X156456047Y-72101009D01*
X156456047Y-72101009D02*
X156360809Y-72148628D01*
X156360809Y-72148628D02*
X155979857Y-72148628D01*
X156932238Y-71720057D02*
X156979857Y-71672438D01*
X156979857Y-71672438D02*
X157075095Y-71624819D01*
X157075095Y-71624819D02*
X157313190Y-71624819D01*
X157313190Y-71624819D02*
X157408428Y-71672438D01*
X157408428Y-71672438D02*
X157456047Y-71720057D01*
X157456047Y-71720057D02*
X157503666Y-71815295D01*
X157503666Y-71815295D02*
X157503666Y-71910533D01*
X157503666Y-71910533D02*
X157456047Y-72053390D01*
X157456047Y-72053390D02*
X156884619Y-72624819D01*
X156884619Y-72624819D02*
X157503666Y-72624819D01*
X131137819Y-83224666D02*
X130661628Y-83557999D01*
X131137819Y-83796094D02*
X130137819Y-83796094D01*
X130137819Y-83796094D02*
X130137819Y-83415142D01*
X130137819Y-83415142D02*
X130185438Y-83319904D01*
X130185438Y-83319904D02*
X130233057Y-83272285D01*
X130233057Y-83272285D02*
X130328295Y-83224666D01*
X130328295Y-83224666D02*
X130471152Y-83224666D01*
X130471152Y-83224666D02*
X130566390Y-83272285D01*
X130566390Y-83272285D02*
X130614009Y-83319904D01*
X130614009Y-83319904D02*
X130661628Y-83415142D01*
X130661628Y-83415142D02*
X130661628Y-83796094D01*
X130233057Y-82843713D02*
X130185438Y-82796094D01*
X130185438Y-82796094D02*
X130137819Y-82700856D01*
X130137819Y-82700856D02*
X130137819Y-82462761D01*
X130137819Y-82462761D02*
X130185438Y-82367523D01*
X130185438Y-82367523D02*
X130233057Y-82319904D01*
X130233057Y-82319904D02*
X130328295Y-82272285D01*
X130328295Y-82272285D02*
X130423533Y-82272285D01*
X130423533Y-82272285D02*
X130566390Y-82319904D01*
X130566390Y-82319904D02*
X131137819Y-82891332D01*
X131137819Y-82891332D02*
X131137819Y-82272285D01*
X127105580Y-87161666D02*
X127153200Y-87209285D01*
X127153200Y-87209285D02*
X127200819Y-87352142D01*
X127200819Y-87352142D02*
X127200819Y-87447380D01*
X127200819Y-87447380D02*
X127153200Y-87590237D01*
X127153200Y-87590237D02*
X127057961Y-87685475D01*
X127057961Y-87685475D02*
X126962723Y-87733094D01*
X126962723Y-87733094D02*
X126772247Y-87780713D01*
X126772247Y-87780713D02*
X126629390Y-87780713D01*
X126629390Y-87780713D02*
X126438914Y-87733094D01*
X126438914Y-87733094D02*
X126343676Y-87685475D01*
X126343676Y-87685475D02*
X126248438Y-87590237D01*
X126248438Y-87590237D02*
X126200819Y-87447380D01*
X126200819Y-87447380D02*
X126200819Y-87352142D01*
X126200819Y-87352142D02*
X126248438Y-87209285D01*
X126248438Y-87209285D02*
X126296057Y-87161666D01*
X127200819Y-86209285D02*
X127200819Y-86780713D01*
X127200819Y-86494999D02*
X126200819Y-86494999D01*
X126200819Y-86494999D02*
X126343676Y-86590237D01*
X126343676Y-86590237D02*
X126438914Y-86685475D01*
X126438914Y-86685475D02*
X126486533Y-86780713D01*
D13*
X142215809Y-77536318D02*
X141611047Y-77536318D01*
X141611047Y-77536318D02*
X141611047Y-76266318D01*
X142639142Y-76871080D02*
X143062476Y-76871080D01*
X143243904Y-77536318D02*
X142639142Y-77536318D01*
X142639142Y-77536318D02*
X142639142Y-76266318D01*
X142639142Y-76266318D02*
X143243904Y-76266318D01*
X143788190Y-77536318D02*
X143788190Y-76266318D01*
X143788190Y-76266318D02*
X144090571Y-76266318D01*
X144090571Y-76266318D02*
X144272000Y-76326794D01*
X144272000Y-76326794D02*
X144392952Y-76447746D01*
X144392952Y-76447746D02*
X144453429Y-76568699D01*
X144453429Y-76568699D02*
X144513905Y-76810603D01*
X144513905Y-76810603D02*
X144513905Y-76992032D01*
X144513905Y-76992032D02*
X144453429Y-77233937D01*
X144453429Y-77233937D02*
X144392952Y-77354889D01*
X144392952Y-77354889D02*
X144272000Y-77475842D01*
X144272000Y-77475842D02*
X144090571Y-77536318D01*
X144090571Y-77536318D02*
X143788190Y-77536318D01*
X145723429Y-77536318D02*
X144997714Y-77536318D01*
X145360571Y-77536318D02*
X145360571Y-76266318D01*
X145360571Y-76266318D02*
X145239619Y-76447746D01*
X145239619Y-76447746D02*
X145118667Y-76568699D01*
X145118667Y-76568699D02*
X144997714Y-76629175D01*
D10*
X130627571Y-64465419D02*
X130294238Y-63989228D01*
X130056143Y-64465419D02*
X130056143Y-63465419D01*
X130056143Y-63465419D02*
X130437095Y-63465419D01*
X130437095Y-63465419D02*
X130532333Y-63513038D01*
X130532333Y-63513038D02*
X130579952Y-63560657D01*
X130579952Y-63560657D02*
X130627571Y-63655895D01*
X130627571Y-63655895D02*
X130627571Y-63798752D01*
X130627571Y-63798752D02*
X130579952Y-63893990D01*
X130579952Y-63893990D02*
X130532333Y-63941609D01*
X130532333Y-63941609D02*
X130437095Y-63989228D01*
X130437095Y-63989228D02*
X130056143Y-63989228D01*
X131246619Y-63465419D02*
X131437095Y-63465419D01*
X131437095Y-63465419D02*
X131532333Y-63513038D01*
X131532333Y-63513038D02*
X131627571Y-63608276D01*
X131627571Y-63608276D02*
X131675190Y-63798752D01*
X131675190Y-63798752D02*
X131675190Y-64132085D01*
X131675190Y-64132085D02*
X131627571Y-64322561D01*
X131627571Y-64322561D02*
X131532333Y-64417800D01*
X131532333Y-64417800D02*
X131437095Y-64465419D01*
X131437095Y-64465419D02*
X131246619Y-64465419D01*
X131246619Y-64465419D02*
X131151381Y-64417800D01*
X131151381Y-64417800D02*
X131056143Y-64322561D01*
X131056143Y-64322561D02*
X131008524Y-64132085D01*
X131008524Y-64132085D02*
X131008524Y-63798752D01*
X131008524Y-63798752D02*
X131056143Y-63608276D01*
X131056143Y-63608276D02*
X131151381Y-63513038D01*
X131151381Y-63513038D02*
X131246619Y-63465419D01*
X131960905Y-63465419D02*
X132532333Y-63465419D01*
X132246619Y-64465419D02*
X132246619Y-63465419D01*
X133389476Y-64465419D02*
X132818048Y-64465419D01*
X133103762Y-64465419D02*
X133103762Y-63465419D01*
X133103762Y-63465419D02*
X133008524Y-63608276D01*
X133008524Y-63608276D02*
X132913286Y-63703514D01*
X132913286Y-63703514D02*
X132818048Y-63751133D01*
X134158704Y-56871734D02*
X134158704Y-56395544D01*
X134444419Y-56966972D02*
X133444419Y-56633639D01*
X133444419Y-56633639D02*
X134444419Y-56300306D01*
X131949180Y-56352687D02*
X131996800Y-56400306D01*
X131996800Y-56400306D02*
X132044419Y-56543163D01*
X132044419Y-56543163D02*
X132044419Y-56638401D01*
X132044419Y-56638401D02*
X131996800Y-56781258D01*
X131996800Y-56781258D02*
X131901561Y-56876496D01*
X131901561Y-56876496D02*
X131806323Y-56924115D01*
X131806323Y-56924115D02*
X131615847Y-56971734D01*
X131615847Y-56971734D02*
X131472990Y-56971734D01*
X131472990Y-56971734D02*
X131282514Y-56924115D01*
X131282514Y-56924115D02*
X131187276Y-56876496D01*
X131187276Y-56876496D02*
X131092038Y-56781258D01*
X131092038Y-56781258D02*
X131044419Y-56638401D01*
X131044419Y-56638401D02*
X131044419Y-56543163D01*
X131044419Y-56543163D02*
X131092038Y-56400306D01*
X131092038Y-56400306D02*
X131139657Y-56352687D01*
X130828265Y-75952800D02*
X130971122Y-76000419D01*
X130971122Y-76000419D02*
X131209217Y-76000419D01*
X131209217Y-76000419D02*
X131304455Y-75952800D01*
X131304455Y-75952800D02*
X131352074Y-75905180D01*
X131352074Y-75905180D02*
X131399693Y-75809942D01*
X131399693Y-75809942D02*
X131399693Y-75714704D01*
X131399693Y-75714704D02*
X131352074Y-75619466D01*
X131352074Y-75619466D02*
X131304455Y-75571847D01*
X131304455Y-75571847D02*
X131209217Y-75524228D01*
X131209217Y-75524228D02*
X131018741Y-75476609D01*
X131018741Y-75476609D02*
X130923503Y-75428990D01*
X130923503Y-75428990D02*
X130875884Y-75381371D01*
X130875884Y-75381371D02*
X130828265Y-75286133D01*
X130828265Y-75286133D02*
X130828265Y-75190895D01*
X130828265Y-75190895D02*
X130875884Y-75095657D01*
X130875884Y-75095657D02*
X130923503Y-75048038D01*
X130923503Y-75048038D02*
X131018741Y-75000419D01*
X131018741Y-75000419D02*
X131256836Y-75000419D01*
X131256836Y-75000419D02*
X131399693Y-75048038D01*
X131733027Y-75000419D02*
X131971122Y-76000419D01*
X131971122Y-76000419D02*
X132161598Y-75286133D01*
X132161598Y-75286133D02*
X132352074Y-76000419D01*
X132352074Y-76000419D02*
X132590170Y-75000419D01*
D11*
X158855580Y-86772571D02*
X158903200Y-86820190D01*
X158903200Y-86820190D02*
X158950819Y-86963047D01*
X158950819Y-86963047D02*
X158950819Y-87058285D01*
X158950819Y-87058285D02*
X158903200Y-87201142D01*
X158903200Y-87201142D02*
X158807961Y-87296380D01*
X158807961Y-87296380D02*
X158712723Y-87343999D01*
X158712723Y-87343999D02*
X158522247Y-87391618D01*
X158522247Y-87391618D02*
X158379390Y-87391618D01*
X158379390Y-87391618D02*
X158188914Y-87343999D01*
X158188914Y-87343999D02*
X158093676Y-87296380D01*
X158093676Y-87296380D02*
X157998438Y-87201142D01*
X157998438Y-87201142D02*
X157950819Y-87058285D01*
X157950819Y-87058285D02*
X157950819Y-86963047D01*
X157950819Y-86963047D02*
X157998438Y-86820190D01*
X157998438Y-86820190D02*
X158046057Y-86772571D01*
X157950819Y-86153523D02*
X157950819Y-85963047D01*
X157950819Y-85963047D02*
X157998438Y-85867809D01*
X157998438Y-85867809D02*
X158093676Y-85772571D01*
X158093676Y-85772571D02*
X158284152Y-85724952D01*
X158284152Y-85724952D02*
X158617485Y-85724952D01*
X158617485Y-85724952D02*
X158807961Y-85772571D01*
X158807961Y-85772571D02*
X158903200Y-85867809D01*
X158903200Y-85867809D02*
X158950819Y-85963047D01*
X158950819Y-85963047D02*
X158950819Y-86153523D01*
X158950819Y-86153523D02*
X158903200Y-86248761D01*
X158903200Y-86248761D02*
X158807961Y-86343999D01*
X158807961Y-86343999D02*
X158617485Y-86391618D01*
X158617485Y-86391618D02*
X158284152Y-86391618D01*
X158284152Y-86391618D02*
X158093676Y-86343999D01*
X158093676Y-86343999D02*
X157998438Y-86248761D01*
X157998438Y-86248761D02*
X157950819Y-86153523D01*
X158284152Y-84867809D02*
X158950819Y-84867809D01*
X158284152Y-85296380D02*
X158807961Y-85296380D01*
X158807961Y-85296380D02*
X158903200Y-85248761D01*
X158903200Y-85248761D02*
X158950819Y-85153523D01*
X158950819Y-85153523D02*
X158950819Y-85010666D01*
X158950819Y-85010666D02*
X158903200Y-84915428D01*
X158903200Y-84915428D02*
X158855580Y-84867809D01*
X158284152Y-84534475D02*
X158284152Y-84153523D01*
X157950819Y-84391618D02*
X158807961Y-84391618D01*
X158807961Y-84391618D02*
X158903200Y-84343999D01*
X158903200Y-84343999D02*
X158950819Y-84248761D01*
X158950819Y-84248761D02*
X158950819Y-84153523D01*
X158950819Y-83296380D02*
X158950819Y-83867808D01*
X158950819Y-83582094D02*
X157950819Y-83582094D01*
X157950819Y-83582094D02*
X158093676Y-83677332D01*
X158093676Y-83677332D02*
X158188914Y-83772570D01*
X158188914Y-83772570D02*
X158236533Y-83867808D01*
X134693819Y-118276666D02*
X134217628Y-118609999D01*
X134693819Y-118848094D02*
X133693819Y-118848094D01*
X133693819Y-118848094D02*
X133693819Y-118467142D01*
X133693819Y-118467142D02*
X133741438Y-118371904D01*
X133741438Y-118371904D02*
X133789057Y-118324285D01*
X133789057Y-118324285D02*
X133884295Y-118276666D01*
X133884295Y-118276666D02*
X134027152Y-118276666D01*
X134027152Y-118276666D02*
X134122390Y-118324285D01*
X134122390Y-118324285D02*
X134170009Y-118371904D01*
X134170009Y-118371904D02*
X134217628Y-118467142D01*
X134217628Y-118467142D02*
X134217628Y-118848094D01*
X133693819Y-117419523D02*
X133693819Y-117609999D01*
X133693819Y-117609999D02*
X133741438Y-117705237D01*
X133741438Y-117705237D02*
X133789057Y-117752856D01*
X133789057Y-117752856D02*
X133931914Y-117848094D01*
X133931914Y-117848094D02*
X134122390Y-117895713D01*
X134122390Y-117895713D02*
X134503342Y-117895713D01*
X134503342Y-117895713D02*
X134598580Y-117848094D01*
X134598580Y-117848094D02*
X134646200Y-117800475D01*
X134646200Y-117800475D02*
X134693819Y-117705237D01*
X134693819Y-117705237D02*
X134693819Y-117514761D01*
X134693819Y-117514761D02*
X134646200Y-117419523D01*
X134646200Y-117419523D02*
X134598580Y-117371904D01*
X134598580Y-117371904D02*
X134503342Y-117324285D01*
X134503342Y-117324285D02*
X134265247Y-117324285D01*
X134265247Y-117324285D02*
X134170009Y-117371904D01*
X134170009Y-117371904D02*
X134122390Y-117419523D01*
X134122390Y-117419523D02*
X134074771Y-117514761D01*
X134074771Y-117514761D02*
X134074771Y-117705237D01*
X134074771Y-117705237D02*
X134122390Y-117800475D01*
X134122390Y-117800475D02*
X134170009Y-117848094D01*
X134170009Y-117848094D02*
X134265247Y-117895713D01*
D13*
X183297080Y-70019332D02*
X183297080Y-70442666D01*
X183962318Y-70442666D02*
X182692318Y-70442666D01*
X182692318Y-70442666D02*
X182692318Y-69837904D01*
X183962318Y-68688856D02*
X183962318Y-69414571D01*
X183962318Y-69051714D02*
X182692318Y-69051714D01*
X182692318Y-69051714D02*
X182873746Y-69172666D01*
X182873746Y-69172666D02*
X182994699Y-69293618D01*
X182994699Y-69293618D02*
X183055175Y-69414571D01*
D11*
X156950580Y-86772571D02*
X156998200Y-86820190D01*
X156998200Y-86820190D02*
X157045819Y-86963047D01*
X157045819Y-86963047D02*
X157045819Y-87058285D01*
X157045819Y-87058285D02*
X156998200Y-87201142D01*
X156998200Y-87201142D02*
X156902961Y-87296380D01*
X156902961Y-87296380D02*
X156807723Y-87343999D01*
X156807723Y-87343999D02*
X156617247Y-87391618D01*
X156617247Y-87391618D02*
X156474390Y-87391618D01*
X156474390Y-87391618D02*
X156283914Y-87343999D01*
X156283914Y-87343999D02*
X156188676Y-87296380D01*
X156188676Y-87296380D02*
X156093438Y-87201142D01*
X156093438Y-87201142D02*
X156045819Y-87058285D01*
X156045819Y-87058285D02*
X156045819Y-86963047D01*
X156045819Y-86963047D02*
X156093438Y-86820190D01*
X156093438Y-86820190D02*
X156141057Y-86772571D01*
X156045819Y-86153523D02*
X156045819Y-85963047D01*
X156045819Y-85963047D02*
X156093438Y-85867809D01*
X156093438Y-85867809D02*
X156188676Y-85772571D01*
X156188676Y-85772571D02*
X156379152Y-85724952D01*
X156379152Y-85724952D02*
X156712485Y-85724952D01*
X156712485Y-85724952D02*
X156902961Y-85772571D01*
X156902961Y-85772571D02*
X156998200Y-85867809D01*
X156998200Y-85867809D02*
X157045819Y-85963047D01*
X157045819Y-85963047D02*
X157045819Y-86153523D01*
X157045819Y-86153523D02*
X156998200Y-86248761D01*
X156998200Y-86248761D02*
X156902961Y-86343999D01*
X156902961Y-86343999D02*
X156712485Y-86391618D01*
X156712485Y-86391618D02*
X156379152Y-86391618D01*
X156379152Y-86391618D02*
X156188676Y-86343999D01*
X156188676Y-86343999D02*
X156093438Y-86248761D01*
X156093438Y-86248761D02*
X156045819Y-86153523D01*
X156379152Y-84867809D02*
X157045819Y-84867809D01*
X156379152Y-85296380D02*
X156902961Y-85296380D01*
X156902961Y-85296380D02*
X156998200Y-85248761D01*
X156998200Y-85248761D02*
X157045819Y-85153523D01*
X157045819Y-85153523D02*
X157045819Y-85010666D01*
X157045819Y-85010666D02*
X156998200Y-84915428D01*
X156998200Y-84915428D02*
X156950580Y-84867809D01*
X156379152Y-84534475D02*
X156379152Y-84153523D01*
X156045819Y-84391618D02*
X156902961Y-84391618D01*
X156902961Y-84391618D02*
X156998200Y-84343999D01*
X156998200Y-84343999D02*
X157045819Y-84248761D01*
X157045819Y-84248761D02*
X157045819Y-84153523D01*
X156141057Y-83867808D02*
X156093438Y-83820189D01*
X156093438Y-83820189D02*
X156045819Y-83724951D01*
X156045819Y-83724951D02*
X156045819Y-83486856D01*
X156045819Y-83486856D02*
X156093438Y-83391618D01*
X156093438Y-83391618D02*
X156141057Y-83343999D01*
X156141057Y-83343999D02*
X156236295Y-83296380D01*
X156236295Y-83296380D02*
X156331533Y-83296380D01*
X156331533Y-83296380D02*
X156474390Y-83343999D01*
X156474390Y-83343999D02*
X157045819Y-83915427D01*
X157045819Y-83915427D02*
X157045819Y-83296380D01*
X146589857Y-88214580D02*
X146542238Y-88262200D01*
X146542238Y-88262200D02*
X146399381Y-88309819D01*
X146399381Y-88309819D02*
X146304143Y-88309819D01*
X146304143Y-88309819D02*
X146161286Y-88262200D01*
X146161286Y-88262200D02*
X146066048Y-88166961D01*
X146066048Y-88166961D02*
X146018429Y-88071723D01*
X146018429Y-88071723D02*
X145970810Y-87881247D01*
X145970810Y-87881247D02*
X145970810Y-87738390D01*
X145970810Y-87738390D02*
X146018429Y-87547914D01*
X146018429Y-87547914D02*
X146066048Y-87452676D01*
X146066048Y-87452676D02*
X146161286Y-87357438D01*
X146161286Y-87357438D02*
X146304143Y-87309819D01*
X146304143Y-87309819D02*
X146399381Y-87309819D01*
X146399381Y-87309819D02*
X146542238Y-87357438D01*
X146542238Y-87357438D02*
X146589857Y-87405057D01*
X147018429Y-88309819D02*
X147018429Y-87643152D01*
X147018429Y-87309819D02*
X146970810Y-87357438D01*
X146970810Y-87357438D02*
X147018429Y-87405057D01*
X147018429Y-87405057D02*
X147066048Y-87357438D01*
X147066048Y-87357438D02*
X147018429Y-87309819D01*
X147018429Y-87309819D02*
X147018429Y-87405057D01*
X147494619Y-87643152D02*
X147494619Y-88309819D01*
X147494619Y-87738390D02*
X147542238Y-87690771D01*
X147542238Y-87690771D02*
X147637476Y-87643152D01*
X147637476Y-87643152D02*
X147780333Y-87643152D01*
X147780333Y-87643152D02*
X147875571Y-87690771D01*
X147875571Y-87690771D02*
X147923190Y-87786009D01*
X147923190Y-87786009D02*
X147923190Y-88309819D01*
X148923190Y-88309819D02*
X148351762Y-88309819D01*
X148637476Y-88309819D02*
X148637476Y-87309819D01*
X148637476Y-87309819D02*
X148542238Y-87452676D01*
X148542238Y-87452676D02*
X148447000Y-87547914D01*
X148447000Y-87547914D02*
X148351762Y-87595533D01*
X135710819Y-81954666D02*
X135234628Y-82287999D01*
X135710819Y-82526094D02*
X134710819Y-82526094D01*
X134710819Y-82526094D02*
X134710819Y-82145142D01*
X134710819Y-82145142D02*
X134758438Y-82049904D01*
X134758438Y-82049904D02*
X134806057Y-82002285D01*
X134806057Y-82002285D02*
X134901295Y-81954666D01*
X134901295Y-81954666D02*
X135044152Y-81954666D01*
X135044152Y-81954666D02*
X135139390Y-82002285D01*
X135139390Y-82002285D02*
X135187009Y-82049904D01*
X135187009Y-82049904D02*
X135234628Y-82145142D01*
X135234628Y-82145142D02*
X135234628Y-82526094D01*
X135710819Y-81002285D02*
X135710819Y-81573713D01*
X135710819Y-81287999D02*
X134710819Y-81287999D01*
X134710819Y-81287999D02*
X134853676Y-81383237D01*
X134853676Y-81383237D02*
X134948914Y-81478475D01*
X134948914Y-81478475D02*
X134996533Y-81573713D01*
X140411580Y-93170143D02*
X140459200Y-93217762D01*
X140459200Y-93217762D02*
X140506819Y-93360619D01*
X140506819Y-93360619D02*
X140506819Y-93455857D01*
X140506819Y-93455857D02*
X140459200Y-93598714D01*
X140459200Y-93598714D02*
X140363961Y-93693952D01*
X140363961Y-93693952D02*
X140268723Y-93741571D01*
X140268723Y-93741571D02*
X140078247Y-93789190D01*
X140078247Y-93789190D02*
X139935390Y-93789190D01*
X139935390Y-93789190D02*
X139744914Y-93741571D01*
X139744914Y-93741571D02*
X139649676Y-93693952D01*
X139649676Y-93693952D02*
X139554438Y-93598714D01*
X139554438Y-93598714D02*
X139506819Y-93455857D01*
X139506819Y-93455857D02*
X139506819Y-93360619D01*
X139506819Y-93360619D02*
X139554438Y-93217762D01*
X139554438Y-93217762D02*
X139602057Y-93170143D01*
X139983009Y-92408238D02*
X140030628Y-92265381D01*
X140030628Y-92265381D02*
X140078247Y-92217762D01*
X140078247Y-92217762D02*
X140173485Y-92170143D01*
X140173485Y-92170143D02*
X140316342Y-92170143D01*
X140316342Y-92170143D02*
X140411580Y-92217762D01*
X140411580Y-92217762D02*
X140459200Y-92265381D01*
X140459200Y-92265381D02*
X140506819Y-92360619D01*
X140506819Y-92360619D02*
X140506819Y-92741571D01*
X140506819Y-92741571D02*
X139506819Y-92741571D01*
X139506819Y-92741571D02*
X139506819Y-92408238D01*
X139506819Y-92408238D02*
X139554438Y-92313000D01*
X139554438Y-92313000D02*
X139602057Y-92265381D01*
X139602057Y-92265381D02*
X139697295Y-92217762D01*
X139697295Y-92217762D02*
X139792533Y-92217762D01*
X139792533Y-92217762D02*
X139887771Y-92265381D01*
X139887771Y-92265381D02*
X139935390Y-92313000D01*
X139935390Y-92313000D02*
X139983009Y-92408238D01*
X139983009Y-92408238D02*
X139983009Y-92741571D01*
X140506819Y-91598714D02*
X140459200Y-91693952D01*
X140459200Y-91693952D02*
X140411580Y-91741571D01*
X140411580Y-91741571D02*
X140316342Y-91789190D01*
X140316342Y-91789190D02*
X140030628Y-91789190D01*
X140030628Y-91789190D02*
X139935390Y-91741571D01*
X139935390Y-91741571D02*
X139887771Y-91693952D01*
X139887771Y-91693952D02*
X139840152Y-91598714D01*
X139840152Y-91598714D02*
X139840152Y-91455857D01*
X139840152Y-91455857D02*
X139887771Y-91360619D01*
X139887771Y-91360619D02*
X139935390Y-91313000D01*
X139935390Y-91313000D02*
X140030628Y-91265381D01*
X140030628Y-91265381D02*
X140316342Y-91265381D01*
X140316342Y-91265381D02*
X140411580Y-91313000D01*
X140411580Y-91313000D02*
X140459200Y-91360619D01*
X140459200Y-91360619D02*
X140506819Y-91455857D01*
X140506819Y-91455857D02*
X140506819Y-91598714D01*
X140506819Y-90693952D02*
X140459200Y-90789190D01*
X140459200Y-90789190D02*
X140411580Y-90836809D01*
X140411580Y-90836809D02*
X140316342Y-90884428D01*
X140316342Y-90884428D02*
X140030628Y-90884428D01*
X140030628Y-90884428D02*
X139935390Y-90836809D01*
X139935390Y-90836809D02*
X139887771Y-90789190D01*
X139887771Y-90789190D02*
X139840152Y-90693952D01*
X139840152Y-90693952D02*
X139840152Y-90551095D01*
X139840152Y-90551095D02*
X139887771Y-90455857D01*
X139887771Y-90455857D02*
X139935390Y-90408238D01*
X139935390Y-90408238D02*
X140030628Y-90360619D01*
X140030628Y-90360619D02*
X140316342Y-90360619D01*
X140316342Y-90360619D02*
X140411580Y-90408238D01*
X140411580Y-90408238D02*
X140459200Y-90455857D01*
X140459200Y-90455857D02*
X140506819Y-90551095D01*
X140506819Y-90551095D02*
X140506819Y-90693952D01*
X139840152Y-90074904D02*
X139840152Y-89693952D01*
X139506819Y-89932047D02*
X140363961Y-89932047D01*
X140363961Y-89932047D02*
X140459200Y-89884428D01*
X140459200Y-89884428D02*
X140506819Y-89789190D01*
X140506819Y-89789190D02*
X140506819Y-89693952D01*
X140506819Y-88836809D02*
X140506819Y-89408237D01*
X140506819Y-89122523D02*
X139506819Y-89122523D01*
X139506819Y-89122523D02*
X139649676Y-89217761D01*
X139649676Y-89217761D02*
X139744914Y-89312999D01*
X139744914Y-89312999D02*
X139792533Y-89408237D01*
D13*
X173052618Y-82108318D02*
X173052618Y-80838318D01*
X173052618Y-80838318D02*
X173354999Y-80838318D01*
X173354999Y-80838318D02*
X173536428Y-80898794D01*
X173536428Y-80898794D02*
X173657380Y-81019746D01*
X173657380Y-81019746D02*
X173717857Y-81140699D01*
X173717857Y-81140699D02*
X173778333Y-81382603D01*
X173778333Y-81382603D02*
X173778333Y-81564032D01*
X173778333Y-81564032D02*
X173717857Y-81805937D01*
X173717857Y-81805937D02*
X173657380Y-81926889D01*
X173657380Y-81926889D02*
X173536428Y-82047842D01*
X173536428Y-82047842D02*
X173354999Y-82108318D01*
X173354999Y-82108318D02*
X173052618Y-82108318D01*
X174262142Y-80959270D02*
X174322618Y-80898794D01*
X174322618Y-80898794D02*
X174443571Y-80838318D01*
X174443571Y-80838318D02*
X174745952Y-80838318D01*
X174745952Y-80838318D02*
X174866904Y-80898794D01*
X174866904Y-80898794D02*
X174927380Y-80959270D01*
X174927380Y-80959270D02*
X174987857Y-81080222D01*
X174987857Y-81080222D02*
X174987857Y-81201175D01*
X174987857Y-81201175D02*
X174927380Y-81382603D01*
X174927380Y-81382603D02*
X174201666Y-82108318D01*
X174201666Y-82108318D02*
X174987857Y-82108318D01*
D10*
%TO.C,U1*%
X117779000Y-96819000D02*
X117779000Y-110789000D01*
D14*
X117779000Y-96819000D02*
X117779000Y-110789000D01*
X138734000Y-110789000D02*
X138734000Y-96819000D01*
X117779000Y-96819000D02*
G75*
G02*
X119684000Y-94914000I1905000J0D01*
G01*
X119684000Y-112693999D02*
G75*
G02*
X117779001Y-110789000I2J1905001D01*
G01*
X136829000Y-94914000D02*
G75*
G02*
X138734000Y-96819000I0J-1905000D01*
G01*
X138734000Y-110789000D02*
G75*
G02*
X136829000Y-112694000I-1905001J1D01*
G01*
D15*
X119052000Y-111565000D02*
G75*
G02*
X118548000Y-111565000I-252000J0D01*
G01*
X118548000Y-111565000D02*
G75*
G02*
X119052000Y-111565000I252000J0D01*
G01*
X119272000Y-113804000D02*
G75*
G02*
X118768000Y-113804000I-252000J0D01*
G01*
X118768000Y-113804000D02*
G75*
G02*
X119272000Y-113804000I252000J0D01*
G01*
D16*
%TO.C,R3*%
X127535000Y-82830936D02*
X127535000Y-83285064D01*
X129005000Y-82830936D02*
X129005000Y-83285064D01*
%TO.C,Rfbt1*%
X150649000Y-99467936D02*
X150649000Y-99922064D01*
X152119000Y-99467936D02*
X152119000Y-99922064D01*
D14*
%TO.C,C5*%
X159641000Y-72376000D02*
X159641000Y-73556000D01*
X159641000Y-75796000D02*
X159641000Y-76976000D01*
X159641000Y-76976000D02*
X160641000Y-77976000D01*
X160641000Y-71376000D02*
X159641000Y-72376000D01*
X160641000Y-77976000D02*
X166241000Y-77976000D01*
X166241000Y-71376000D02*
X160641000Y-71376000D01*
X166241000Y-73556000D02*
X166241000Y-71376000D01*
X166241000Y-77976000D02*
X166241000Y-75796000D01*
D17*
X158891000Y-73326000D02*
G75*
G02*
X158691000Y-73326000I-100000J0D01*
G01*
X158691000Y-73326000D02*
G75*
G02*
X158891000Y-73326000I100000J0D01*
G01*
%TO.C,PS1*%
X143057000Y-91618000D02*
X144257000Y-91618000D01*
X144607000Y-91768000D02*
X145207000Y-91768000D01*
X144607000Y-94668000D02*
X144607000Y-91768000D01*
X145207000Y-91768000D02*
X145207000Y-94668000D01*
X145207000Y-94668000D02*
X144607000Y-94668000D01*
D16*
%TO.C,Cinx1*%
X147474000Y-94099748D02*
X147474000Y-94622252D01*
X148944000Y-94099748D02*
X148944000Y-94622252D01*
%TO.C,SW3*%
X169360000Y-63938000D02*
X169360000Y-58938000D01*
X171380000Y-58318000D02*
X173580000Y-58318000D01*
X173580000Y-64558000D02*
X171380000Y-64558000D01*
X175600000Y-63938000D02*
X175600000Y-58938000D01*
X174230000Y-61438000D02*
G75*
G02*
X170730000Y-61438000I-1750000J0D01*
G01*
X170730000Y-61438000D02*
G75*
G02*
X174230000Y-61438000I1750000J0D01*
G01*
D17*
%TO.C,L1*%
X151922000Y-91734000D02*
X156922000Y-91734000D01*
X156922000Y-96734000D02*
X151922000Y-96734000D01*
X157450000Y-94349000D02*
G75*
G02*
X157252000Y-94349000I-99000J0D01*
G01*
X157252000Y-94349000D02*
G75*
G02*
X157450000Y-94349000I99000J0D01*
G01*
D16*
%TO.C,J1*%
X177903499Y-64936000D02*
X177903500Y-59116000D01*
X177903500Y-59116000D02*
X184643499Y-59116000D01*
X179623500Y-64936001D02*
X179623500Y-59116001D01*
X182723500Y-64936000D02*
X182723499Y-59116001D01*
X183723500Y-64936000D02*
X183723499Y-59116000D01*
X184643499Y-59116000D02*
X184643500Y-62996000D01*
X184643500Y-63596000D02*
X184643500Y-64936000D01*
X184643500Y-64936000D02*
X177903499Y-64936000D01*
X185253500Y-63736000D02*
X184643500Y-63296001D01*
X185253500Y-62856000D01*
X185253500Y-63736000D01*
G36*
X185253500Y-63736000D02*
G01*
X184643500Y-63296001D01*
X185253500Y-62856000D01*
X185253500Y-63736000D01*
G37*
%TO.C,R5*%
X120804000Y-82703936D02*
X120804000Y-83158064D01*
X122274000Y-82703936D02*
X122274000Y-83158064D01*
%TO.C,L2*%
X143616000Y-86433242D02*
X143616000Y-84762758D01*
X145436000Y-86433242D02*
X145436000Y-84762758D01*
%TO.C,R4*%
X124487000Y-82703936D02*
X124487000Y-83158064D01*
X125957000Y-82703936D02*
X125957000Y-83158064D01*
D18*
%TO.C,U3*%
X123367000Y-115792800D02*
X123367000Y-122041200D01*
X123367000Y-121914200D02*
X123367000Y-115919800D01*
X123367000Y-122041200D02*
X123679980Y-122041200D01*
X123679980Y-115792800D02*
X123367000Y-115792800D01*
X125779980Y-122041200D02*
X129209000Y-122041200D01*
X129209000Y-115792800D02*
X125779980Y-115792800D01*
X129209000Y-122041200D02*
X129209000Y-115792800D01*
D16*
%TO.C,TP1*%
X152343000Y-86557000D02*
X154743000Y-86557000D01*
X152343000Y-88957000D02*
X152343000Y-86557000D01*
X154743000Y-86557000D02*
X154743000Y-88957000D01*
X154743000Y-88957000D02*
X152343000Y-88957000D01*
%TO.C,OLED1*%
X141146000Y-55368000D02*
X168546000Y-55368000D01*
X141146000Y-82668000D02*
X141146000Y-55368000D01*
X141568000Y-58663000D02*
X164668000Y-58663000D01*
X141568000Y-74668000D02*
X141568000Y-58663000D01*
X149847000Y-55857000D02*
X149847000Y-58270000D01*
X149847000Y-55857000D02*
X159626000Y-55857000D01*
X159626000Y-55857000D02*
X159626000Y-58270000D01*
X159626000Y-58270000D02*
X149847000Y-58270000D01*
X164668000Y-58663000D02*
X167754000Y-58663000D01*
X168008000Y-58651000D02*
X167754000Y-58663000D01*
X168008000Y-74668000D02*
X168008000Y-58651000D01*
X168546000Y-55368000D02*
X168546000Y-82668000D01*
X168546000Y-82668000D02*
X141146000Y-82668000D01*
D17*
%TO.C,D1*%
X179794000Y-75983000D02*
X179794000Y-74383000D01*
D10*
X180594000Y-77483000D02*
X180594000Y-77483000D01*
X180594000Y-77583000D02*
X180594000Y-77583000D01*
D17*
X181394000Y-75983000D02*
X181394000Y-74383000D01*
D10*
X180594000Y-77483000D02*
G75*
G02*
X180594000Y-77583000I0J-50000D01*
G01*
X180594000Y-77583000D02*
G75*
G02*
X180594000Y-77483000I0J50000D01*
G01*
D16*
%TO.C,C2*%
X124487000Y-86733748D02*
X124487000Y-87256252D01*
X125957000Y-86733748D02*
X125957000Y-87256252D01*
D14*
%TO.C,C4*%
X146560000Y-70614000D02*
X146560000Y-72794000D01*
X146560000Y-75034000D02*
X146560000Y-77214000D01*
X146560000Y-77214000D02*
X152160000Y-77214000D01*
X152160000Y-70614000D02*
X146560000Y-70614000D01*
X152160000Y-77214000D02*
X153160000Y-76214000D01*
X153160000Y-71614000D02*
X152160000Y-70614000D01*
X153160000Y-72794000D02*
X153160000Y-71614000D01*
X153160000Y-76214000D02*
X153160000Y-75034000D01*
D17*
X154110000Y-75264000D02*
G75*
G02*
X153910000Y-75264000I-100000J0D01*
G01*
X153910000Y-75264000D02*
G75*
G02*
X154110000Y-75264000I100000J0D01*
G01*
D16*
%TO.C,SW4*%
X169396000Y-73284000D02*
X169396000Y-68284000D01*
X171416000Y-67664000D02*
X173616000Y-67664000D01*
X173616000Y-73904000D02*
X171416000Y-73904000D01*
X175636000Y-73284000D02*
X175636000Y-68284000D01*
X174266000Y-70784000D02*
G75*
G02*
X170766000Y-70784000I-1750000J0D01*
G01*
X170766000Y-70784000D02*
G75*
G02*
X174266000Y-70784000I1750000J0D01*
G01*
%TO.C,Rfbb1*%
X147347000Y-99467936D02*
X147347000Y-99922064D01*
X148817000Y-99467936D02*
X148817000Y-99922064D01*
%TO.C,C3*%
X131726000Y-118371252D02*
X131726000Y-117848748D01*
X133196000Y-118371252D02*
X133196000Y-117848748D01*
%TO.C,TP2*%
X155137000Y-72968000D02*
X157537000Y-72968000D01*
X155137000Y-75368000D02*
X155137000Y-72968000D01*
X157537000Y-72968000D02*
X157537000Y-75368000D01*
X157537000Y-75368000D02*
X155137000Y-75368000D01*
%TO.C,R2*%
X131472000Y-83285064D02*
X131472000Y-82830936D01*
X132942000Y-83285064D02*
X132942000Y-82830936D01*
%TO.C,C1*%
X127535000Y-86733748D02*
X127535000Y-87256252D01*
X129005000Y-86733748D02*
X129005000Y-87256252D01*
D10*
%TO.C,LED1*%
X140994000Y-79037000D02*
X140994000Y-78437000D01*
X141594000Y-78437000D01*
X140994000Y-79037000D01*
G36*
X140994000Y-79037000D02*
G01*
X140994000Y-78437000D01*
X141594000Y-78437000D01*
X140994000Y-79037000D01*
G37*
D16*
%TO.C,COut1*%
X157761000Y-89762064D02*
X157761000Y-89307936D01*
X159231000Y-89762064D02*
X159231000Y-89307936D01*
%TO.C,R6*%
X135028000Y-117882936D02*
X135028000Y-118337064D01*
X136498000Y-117882936D02*
X136498000Y-118337064D01*
D17*
%TO.C,F1*%
X180504000Y-69723000D02*
X181954000Y-69723000D01*
D16*
%TO.C,COut2*%
X155729000Y-89762064D02*
X155729000Y-89307936D01*
X157199000Y-89762064D02*
X157199000Y-89307936D01*
%TO.C,Cin1*%
X147185748Y-88800000D02*
X147708252Y-88800000D01*
X147185748Y-90270000D02*
X147708252Y-90270000D01*
%TO.C,R1*%
X136171000Y-82015064D02*
X136171000Y-81560936D01*
X137641000Y-82015064D02*
X137641000Y-81560936D01*
%TO.C,CBoot1*%
X140997000Y-91574252D02*
X140997000Y-91051748D01*
X142467000Y-91574252D02*
X142467000Y-91051748D01*
D17*
%TO.C,D2*%
X171544000Y-80042000D02*
X176944000Y-80042000D01*
X176944000Y-76422000D02*
X171544000Y-76422000D01*
%TD*%
M02*
