%TF.GenerationSoftware,KiCad,Pcbnew,9.0.6*%
%TF.CreationDate,2026-02-01T14:10:18+01:00*%
%TF.ProjectId,hw,68772e6b-6963-4616-945f-706362585858,rev?*%
%TF.SameCoordinates,Original*%
%TF.FileFunction,Copper,L1,Top*%
%TF.FilePolarity,Positive*%
%FSLAX46Y46*%
G04 Gerber Fmt 4.6, Leading zero omitted, Abs format (unit mm)*
G04 Created by KiCad (PCBNEW 9.0.6) date 2026-02-01 14:10:18*
%MOMM*%
%LPD*%
G01*
G04 APERTURE LIST*
G04 Aperture macros list*
%AMRoundRect*
0 Rectangle with rounded corners*
0 $1 Rounding radius*
0 $2 $3 $4 $5 $6 $7 $8 $9 X,Y pos of 4 corners*
0 Add a 4 corners polygon primitive as box body*
4,1,4,$2,$3,$4,$5,$6,$7,$8,$9,$2,$3,0*
0 Add four circle primitives for the rounded corners*
1,1,$1+$1,$2,$3*
1,1,$1+$1,$4,$5*
1,1,$1+$1,$6,$7*
1,1,$1+$1,$8,$9*
0 Add four rect primitives between the rounded corners*
20,1,$1+$1,$2,$3,$4,$5,0*
20,1,$1+$1,$4,$5,$6,$7,0*
20,1,$1+$1,$6,$7,$8,$9,0*
20,1,$1+$1,$8,$9,$2,$3,0*%
G04 Aperture macros list end*
%TA.AperFunction,SMDPad,CuDef*%
%ADD10RoundRect,0.152400X-0.609600X1.063600X-0.609600X-1.063600X0.609600X-1.063600X0.609600X1.063600X0*%
%TD*%
%TA.AperFunction,SMDPad,CuDef*%
%ADD11RoundRect,0.152400X0.609600X-1.063600X0.609600X1.063600X-0.609600X1.063600X-0.609600X-1.063600X0*%
%TD*%
%TA.AperFunction,SMDPad,CuDef*%
%ADD12RoundRect,0.250000X-0.450000X0.350000X-0.450000X-0.350000X0.450000X-0.350000X0.450000X0.350000X0*%
%TD*%
%TA.AperFunction,SMDPad,CuDef*%
%ADD13R,3.200000X1.600000*%
%TD*%
%TA.AperFunction,SMDPad,CuDef*%
%ADD14R,1.200000X0.600000*%
%TD*%
%TA.AperFunction,SMDPad,CuDef*%
%ADD15RoundRect,0.250000X-0.475000X0.337500X-0.475000X-0.337500X0.475000X-0.337500X0.475000X0.337500X0*%
%TD*%
%TA.AperFunction,ComponentPad*%
%ADD16C,1.700000*%
%TD*%
%TA.AperFunction,SMDPad,CuDef*%
%ADD17R,1.500000X4.000000*%
%TD*%
%TA.AperFunction,ComponentPad*%
%ADD18RoundRect,0.250000X0.750000X-0.750000X0.750000X0.750000X-0.750000X0.750000X-0.750000X-0.750000X0*%
%TD*%
%TA.AperFunction,ComponentPad*%
%ADD19C,2.000000*%
%TD*%
%TA.AperFunction,SMDPad,CuDef*%
%ADD20RoundRect,0.250000X0.700000X-0.362500X0.700000X0.362500X-0.700000X0.362500X-0.700000X-0.362500X0*%
%TD*%
%TA.AperFunction,ComponentPad*%
%ADD21C,1.473200*%
%TD*%
%TA.AperFunction,SMDPad,CuDef*%
%ADD22R,2.000000X2.000000*%
%TD*%
%TA.AperFunction,ComponentPad*%
%ADD23O,1.600000X2.000000*%
%TD*%
%TA.AperFunction,SMDPad,CuDef*%
%ADD24R,1.200000X0.850000*%
%TD*%
%TA.AperFunction,SMDPad,CuDef*%
%ADD25RoundRect,0.250000X0.475000X-0.337500X0.475000X0.337500X-0.475000X0.337500X-0.475000X-0.337500X0*%
%TD*%
%TA.AperFunction,SMDPad,CuDef*%
%ADD26RoundRect,0.250000X0.450000X-0.350000X0.450000X0.350000X-0.450000X0.350000X-0.450000X-0.350000X0*%
%TD*%
%TA.AperFunction,SMDPad,CuDef*%
%ADD27R,1.700000X0.750000*%
%TD*%
%TA.AperFunction,SMDPad,CuDef*%
%ADD28RoundRect,0.270000X-0.630000X-1.180000X0.630000X-1.180000X0.630000X1.180000X-0.630000X1.180000X0*%
%TD*%
%TA.AperFunction,SMDPad,CuDef*%
%ADD29RoundRect,0.375000X-0.875000X-1.125000X0.875000X-1.125000X0.875000X1.125000X-0.875000X1.125000X0*%
%TD*%
%TA.AperFunction,SMDPad,CuDef*%
%ADD30R,1.820000X1.160000*%
%TD*%
%TA.AperFunction,SMDPad,CuDef*%
%ADD31RoundRect,0.250000X-0.337500X-0.475000X0.337500X-0.475000X0.337500X0.475000X-0.337500X0.475000X0*%
%TD*%
%TA.AperFunction,SMDPad,CuDef*%
%ADD32R,2.200000X2.150000*%
%TD*%
%TA.AperFunction,ViaPad*%
%ADD33C,0.600000*%
%TD*%
%TA.AperFunction,Conductor*%
%ADD34C,0.200000*%
%TD*%
G04 APERTURE END LIST*
D10*
%TO.P,U1,1,D0*%
%TO.N,Net-(U1-D0)*%
X120700000Y-112259000D03*
%TO.P,U1,2,D1*%
%TO.N,Net-(U1-D1)*%
X123240000Y-112259000D03*
%TO.P,U1,3,D2*%
%TO.N,Net-(U1-D2)*%
X125780000Y-112259000D03*
%TO.P,U1,4,D3*%
%TO.N,Net-(U1-D3)*%
X128320000Y-112259000D03*
%TO.P,U1,5,D4*%
%TO.N,Net-(OLED1-SDA)*%
X130860000Y-112259000D03*
%TO.P,U1,6,D5*%
%TO.N,Net-(OLED1-SCL)*%
X133400000Y-112259000D03*
%TO.P,U1,7,D6*%
%TO.N,unconnected-(U1-D6-Pad7)*%
X135940000Y-112259000D03*
D11*
%TO.P,U1,8,D7*%
%TO.N,unconnected-(U1-D7-Pad8)*%
X135940000Y-95349000D03*
%TO.P,U1,9,D8*%
%TO.N,Net-(U1-D8)*%
X133400000Y-95349000D03*
%TO.P,U1,10,D9*%
%TO.N,Net-(U1-D9)*%
X130860000Y-95349000D03*
%TO.P,U1,11,D10*%
%TO.N,Net-(U1-D10)*%
X128320000Y-95349000D03*
%TO.P,U1,12,3V3*%
%TO.N,/3V3*%
X125780000Y-95349000D03*
%TO.P,U1,13,GND*%
%TO.N,GND*%
X123240000Y-95349000D03*
%TO.P,U1,14,5V*%
%TO.N,+5V*%
X120700000Y-95349000D03*
%TD*%
D12*
%TO.P,R3,1*%
%TO.N,Net-(R2-Pad2)*%
X128270000Y-82058000D03*
%TO.P,R3,2*%
%TO.N,Net-(U1-D2)*%
X128270000Y-84058000D03*
%TD*%
%TO.P,Rfbt1,1*%
%TO.N,+5V*%
X151384000Y-98695000D03*
%TO.P,Rfbt1,2*%
%TO.N,Net-(PS1-FB)*%
X151384000Y-100695000D03*
%TD*%
D13*
%TO.P,C5,1*%
%TO.N,Net-(D1-K)*%
X160441000Y-74676000D03*
%TO.P,C5,2*%
%TO.N,GND*%
X165441000Y-74676000D03*
%TD*%
D14*
%TO.P,PS1,1,CB*%
%TO.N,Net-(PS1-CB)*%
X143657000Y-92268000D03*
%TO.P,PS1,2,GND*%
%TO.N,GND*%
X143657000Y-93218000D03*
%TO.P,PS1,3,FB*%
%TO.N,Net-(PS1-FB)*%
X143657000Y-94168000D03*
%TO.P,PS1,4,EN*%
%TO.N,Net-(PS1-EN)*%
X146157000Y-94168000D03*
%TO.P,PS1,5,VIN*%
X146157000Y-93218000D03*
%TO.P,PS1,6,SW*%
%TO.N,Net-(PS1-SW)*%
X146157000Y-92268000D03*
%TD*%
D15*
%TO.P,Cinx1,1*%
%TO.N,Net-(PS1-EN)*%
X148209000Y-93323500D03*
%TO.P,Cinx1,2*%
%TO.N,GND*%
X148209000Y-95398500D03*
%TD*%
D16*
%TO.P,SW3,1,1*%
%TO.N,Net-(U1-D10)*%
X170230000Y-64688000D03*
X170230000Y-58188000D03*
%TO.P,SW3,2,2*%
%TO.N,GND*%
X174730000Y-64688000D03*
X174730000Y-58188000D03*
%TD*%
D17*
%TO.P,L1,1,1*%
%TO.N,Net-(PS1-SW)*%
X156222000Y-94234000D03*
%TO.P,L1,2,2*%
%TO.N,+5V*%
X152622000Y-94234000D03*
%TD*%
D18*
%TO.P,J1,1,Pin_1*%
%TO.N,+12V*%
X181123500Y-63296000D03*
D19*
%TO.P,J1,2,Pin_2*%
%TO.N,GND*%
X181123500Y-60756001D03*
%TD*%
D12*
%TO.P,R5,1*%
%TO.N,Net-(R4-Pad1)*%
X121539000Y-81931000D03*
%TO.P,R5,2*%
%TO.N,/3V3*%
X121539000Y-83931000D03*
%TD*%
D20*
%TO.P,L2,1,1*%
%TO.N,Net-(PS1-EN)*%
X144526000Y-87260500D03*
%TO.P,L2,2,2*%
%TO.N,Net-(D1-K)*%
X144526000Y-83935500D03*
%TD*%
D12*
%TO.P,R4,1*%
%TO.N,Net-(R4-Pad1)*%
X125222000Y-81931000D03*
%TO.P,R4,2*%
%TO.N,Net-(U1-D3)*%
X125222000Y-83931000D03*
%TD*%
D21*
%TO.P,U3,1,OUT*%
%TO.N,Net-(U1-D1)*%
X124789400Y-121457000D03*
%TO.P,U3,2,GND*%
%TO.N,GND*%
X124789400Y-118917000D03*
%TO.P,U3,3,VS*%
%TO.N,Net-(U3-VS)*%
X124789400Y-116377000D03*
%TD*%
D22*
%TO.P,TP1,1,1*%
%TO.N,+5V*%
X153543000Y-87757000D03*
%TD*%
D23*
%TO.P,OLED1,1,GND*%
%TO.N,GND*%
X150926000Y-57068000D03*
%TO.P,OLED1,2,VCC*%
%TO.N,/3V3*%
X153466000Y-57068000D03*
%TO.P,OLED1,3,SCL*%
%TO.N,Net-(OLED1-SCL)*%
X156006000Y-57068000D03*
%TO.P,OLED1,4,SDA*%
%TO.N,Net-(OLED1-SDA)*%
X158546000Y-57068000D03*
%TD*%
D24*
%TO.P,D1,1,K*%
%TO.N,Net-(D1-K)*%
X180594000Y-76708000D03*
%TO.P,D1,2,A*%
%TO.N,Net-(D1-A)*%
X180594000Y-73658000D03*
%TD*%
D15*
%TO.P,C2,1*%
%TO.N,Net-(U1-D3)*%
X125222000Y-85957500D03*
%TO.P,C2,2*%
%TO.N,GND*%
X125222000Y-88032500D03*
%TD*%
D13*
%TO.P,C4,1*%
%TO.N,Net-(D1-K)*%
X152360000Y-73914000D03*
%TO.P,C4,2*%
%TO.N,GND*%
X147360000Y-73914000D03*
%TD*%
D16*
%TO.P,SW4,1,1*%
%TO.N,Net-(U1-D9)*%
X170266000Y-74034000D03*
X170266000Y-67534000D03*
%TO.P,SW4,2,2*%
%TO.N,GND*%
X174766000Y-74034000D03*
X174766000Y-67534000D03*
%TD*%
D12*
%TO.P,Rfbb1,1*%
%TO.N,Net-(PS1-FB)*%
X148082000Y-98695000D03*
%TO.P,Rfbb1,2*%
%TO.N,GND*%
X148082000Y-100695000D03*
%TD*%
D25*
%TO.P,C3,1*%
%TO.N,Net-(U3-VS)*%
X132461000Y-119147500D03*
%TO.P,C3,2*%
%TO.N,GND*%
X132461000Y-117072500D03*
%TD*%
D22*
%TO.P,TP2,1,1*%
%TO.N,Net-(D1-K)*%
X156337000Y-74168000D03*
%TD*%
D26*
%TO.P,R2,1*%
%TO.N,/3V3*%
X132207000Y-84058000D03*
%TO.P,R2,2*%
%TO.N,Net-(R2-Pad2)*%
X132207000Y-82058000D03*
%TD*%
D15*
%TO.P,C1,1*%
%TO.N,Net-(U1-D2)*%
X128270000Y-85957500D03*
%TO.P,C1,2*%
%TO.N,GND*%
X128270000Y-88032500D03*
%TD*%
D27*
%TO.P,LED1,1,K*%
%TO.N,GND*%
X144994000Y-80137000D03*
%TO.P,LED1,2,A*%
%TO.N,Net-(LED1-A)*%
X139994000Y-80137000D03*
%TD*%
D28*
%TO.P,ROT1,A,A*%
%TO.N,Net-(R2-Pad2)*%
X134072000Y-58928000D03*
%TO.P,ROT1,B,B*%
%TO.N,Net-(R4-Pad1)*%
X129072000Y-58928000D03*
%TO.P,ROT1,C,C*%
%TO.N,GND*%
X131572000Y-58928000D03*
%TO.P,ROT1,S1,S1*%
%TO.N,Net-(U1-D8)*%
X129072000Y-75528000D03*
%TO.P,ROT1,S2,S2*%
%TO.N,GND*%
X134072000Y-75528000D03*
D29*
%TO.P,ROT1,X*%
%TO.N,N/C*%
X124972000Y-67133400D03*
%TO.P,ROT1,Y*%
X138272000Y-67133400D03*
%TD*%
D26*
%TO.P,COut1,1*%
%TO.N,+5V*%
X158496000Y-90535000D03*
%TO.P,COut1,2*%
%TO.N,GND*%
X158496000Y-88535000D03*
%TD*%
D12*
%TO.P,R6,1*%
%TO.N,/3V3*%
X135763000Y-117110000D03*
%TO.P,R6,2*%
%TO.N,Net-(U3-VS)*%
X135763000Y-119110000D03*
%TD*%
D30*
%TO.P,F1,1,1*%
%TO.N,Net-(D1-A)*%
X181229000Y-71198000D03*
%TO.P,F1,2,2*%
%TO.N,+12V*%
X181229000Y-68248000D03*
%TD*%
D26*
%TO.P,COut2,1*%
%TO.N,+5V*%
X156464000Y-90535000D03*
%TO.P,COut2,2*%
%TO.N,GND*%
X156464000Y-88535000D03*
%TD*%
D31*
%TO.P,Cin1,1*%
%TO.N,Net-(PS1-EN)*%
X146409500Y-89535000D03*
%TO.P,Cin1,2*%
%TO.N,GND*%
X148484500Y-89535000D03*
%TD*%
D26*
%TO.P,R1,1*%
%TO.N,Net-(U1-D0)*%
X136906000Y-82788000D03*
%TO.P,R1,2*%
%TO.N,Net-(LED1-A)*%
X136906000Y-80788000D03*
%TD*%
D25*
%TO.P,CBoot1,1*%
%TO.N,Net-(PS1-CB)*%
X141732000Y-92350500D03*
%TO.P,CBoot1,2*%
%TO.N,Net-(PS1-SW)*%
X141732000Y-90275500D03*
%TD*%
D32*
%TO.P,D2,1,K*%
%TO.N,Net-(D1-K)*%
X176444000Y-78232000D03*
%TO.P,D2,2,A*%
%TO.N,GND*%
X172044000Y-78232000D03*
%TD*%
D33*
%TO.N,Net-(OLED1-SCL)*%
X155956000Y-60706000D03*
%TO.N,Net-(U1-D2)*%
X124117000Y-100076000D03*
X125317000Y-101473000D03*
%TO.N,Net-(U1-D3)*%
X122555000Y-86487000D03*
X124206000Y-114427000D03*
%TO.N,Net-(OLED1-SDA)*%
X137414000Y-89535000D03*
X154813000Y-72136000D03*
%TO.N,Net-(D1-K)*%
X148234000Y-87884000D03*
X146136160Y-87884000D03*
%TO.N,/3V3*%
X133985000Y-107442000D03*
X126492000Y-93345000D03*
X136144000Y-109601000D03*
X123952000Y-90805000D03*
X131064000Y-91059000D03*
X132207000Y-89755000D03*
%TO.N,GND*%
X142494000Y-93472000D03*
X165481000Y-73279000D03*
X157480000Y-88519000D03*
X131064000Y-117094000D03*
X128270000Y-89154000D03*
X146812000Y-95631000D03*
X134112000Y-73533000D03*
X148082000Y-101854000D03*
X125222000Y-89027000D03*
X149479000Y-89535000D03*
X145034000Y-79375000D03*
X122047000Y-95377000D03*
X147320000Y-72390000D03*
X131572000Y-56896000D03*
%TO.N,Net-(PS1-FB)*%
X141605000Y-96716000D03*
X141986000Y-98679000D03*
X146561500Y-99695000D03*
X143637000Y-94869000D03*
%TO.N,Net-(PS1-SW)*%
X145669000Y-91440000D03*
X144124000Y-91059000D03*
X148234000Y-91440000D03*
%TO.N,Net-(LED1-A)*%
X139446000Y-79248000D03*
X137922000Y-79248000D03*
%TO.N,Net-(U1-D8)*%
X131445000Y-88646000D03*
X130429000Y-81407000D03*
X133350000Y-91821000D03*
X130556000Y-82677000D03*
%TO.N,Net-(U1-D10)*%
X134747000Y-106299000D03*
X141351000Y-106934000D03*
X168021000Y-72009000D03*
X168021000Y-73279000D03*
%TO.N,Net-(U1-D9)*%
X136017000Y-105664000D03*
X138303000Y-107696000D03*
X169037000Y-73279000D03*
%TO.N,+5V*%
X121285000Y-97282000D03*
X153924000Y-92964000D03*
X154862265Y-92025735D03*
X150368000Y-94488000D03*
%TO.N,Net-(PS1-EN)*%
X144525000Y-96901000D03*
X145553315Y-97801315D03*
%TD*%
D34*
%TO.N,Net-(OLED1-SCL)*%
X150459000Y-73696000D02*
X147447000Y-76708000D01*
X149191000Y-92041000D02*
X149606000Y-92456000D01*
X143484160Y-103632000D02*
X141192000Y-103632000D01*
X155956000Y-60706000D02*
X150459000Y-66203000D01*
X149606000Y-95631000D02*
X148667840Y-96569160D01*
X144998000Y-102118160D02*
X143484160Y-103632000D01*
X147447000Y-76708000D02*
X147447000Y-91502943D01*
X150459000Y-66203000D02*
X150459000Y-73696000D01*
X147447000Y-91502943D02*
X147985057Y-92041000D01*
X148667840Y-96569160D02*
X147634000Y-96569160D01*
X147985057Y-92041000D02*
X149191000Y-92041000D01*
X141192000Y-103632000D02*
X133400000Y-111424000D01*
X144998000Y-99205160D02*
X144998000Y-102118160D01*
X149606000Y-92456000D02*
X149606000Y-95631000D01*
X147634000Y-96569160D02*
X144998000Y-99205160D01*
%TO.N,Net-(U1-D2)*%
X126746000Y-89154000D02*
X126746000Y-86995000D01*
X124117000Y-100076000D02*
X124316000Y-99877000D01*
X125317000Y-111796000D02*
X125317000Y-101473000D01*
X127783500Y-85957500D02*
X128270000Y-85957500D01*
X124117000Y-100076000D02*
X124303000Y-99890000D01*
X126746000Y-86995000D02*
X127783500Y-85957500D01*
X124303000Y-91597000D02*
X126746000Y-89154000D01*
X125780000Y-112259000D02*
X125317000Y-111796000D01*
X124303000Y-99890000D02*
X124303000Y-91597000D01*
X128270000Y-84058000D02*
X128270000Y-85957500D01*
%TO.N,Net-(U1-D3)*%
X125222000Y-83931000D02*
X125222000Y-85957500D01*
X122555000Y-86487000D02*
X123084500Y-85957500D01*
X126152000Y-114427000D02*
X124206000Y-114427000D01*
X123084500Y-85957500D02*
X125222000Y-85957500D01*
X128320000Y-112259000D02*
X126152000Y-114427000D01*
%TO.N,Net-(D1-A)*%
X180594000Y-73659000D02*
X180594000Y-71833000D01*
X180594000Y-71833000D02*
X181229000Y-71198000D01*
%TO.N,Net-(OLED1-SDA)*%
X158546000Y-57068000D02*
X159099000Y-56515000D01*
X130860000Y-112259000D02*
X137414000Y-105705000D01*
X158546000Y-68403000D02*
X158546000Y-57068000D01*
X137414000Y-105705000D02*
X137414000Y-89535000D01*
X154813000Y-72136000D02*
X158546000Y-68403000D01*
%TO.N,Net-(D1-K)*%
X160441000Y-74676000D02*
X157988000Y-74676000D01*
X156654500Y-73342500D02*
X156591000Y-73279000D01*
X156083000Y-73914000D02*
X156654500Y-73342500D01*
X180594000Y-76709000D02*
X176563000Y-72678000D01*
X152360000Y-73914000D02*
X156083000Y-73914000D01*
X148234000Y-87884000D02*
X156337000Y-79781000D01*
X153122000Y-74676000D02*
X152360000Y-73914000D01*
X157988000Y-74676000D02*
X156654500Y-73342500D01*
X180594000Y-76709000D02*
X177967000Y-76709000D01*
X177967000Y-76709000D02*
X176444000Y-78232000D01*
X148488000Y-87630000D02*
X148234000Y-87884000D01*
X157192000Y-72678000D02*
X156591000Y-73279000D01*
X144526000Y-83935500D02*
X146136160Y-85545660D01*
X176563000Y-72678000D02*
X157192000Y-72678000D01*
X156337000Y-79781000D02*
X156337000Y-74168000D01*
X146136160Y-85545660D02*
X146136160Y-87884000D01*
%TO.N,+12V*%
X181229000Y-63401500D02*
X181123500Y-63296000D01*
X181229000Y-68248000D02*
X181229000Y-63401500D01*
%TO.N,Net-(PS1-CB)*%
X141732000Y-92263000D02*
X143652000Y-92263000D01*
X143652000Y-92263000D02*
X143657000Y-92268000D01*
%TO.N,/3V3*%
X128778000Y-91059000D02*
X131064000Y-91059000D01*
X125780000Y-94057000D02*
X126492000Y-93345000D01*
X126492000Y-93345000D02*
X128778000Y-91059000D01*
X138843000Y-71723000D02*
X137922000Y-72644000D01*
X125780000Y-95349000D02*
X125780000Y-99237000D01*
X137017000Y-117110000D02*
X135763000Y-117110000D01*
X139065000Y-115189000D02*
X138938000Y-115189000D01*
X137922000Y-72644000D02*
X137922000Y-77343000D01*
X136144000Y-109601000D02*
X139065000Y-112522000D01*
X134874000Y-81391000D02*
X132207000Y-84058000D01*
X121539000Y-88392000D02*
X121539000Y-83931000D01*
X138938000Y-115189000D02*
X137017000Y-117110000D01*
X125780000Y-95349000D02*
X125780000Y-94057000D01*
X125780000Y-99237000D02*
X133985000Y-107442000D01*
X137922000Y-77343000D02*
X134874000Y-80391000D01*
X123952000Y-90805000D02*
X121539000Y-88392000D01*
X132207000Y-89755000D02*
X132207000Y-84058000D01*
X134874000Y-80391000D02*
X134874000Y-81391000D01*
X138843000Y-71691000D02*
X138843000Y-71723000D01*
X153466000Y-57068000D02*
X138843000Y-71691000D01*
X139065000Y-112522000D02*
X139065000Y-115189000D01*
%TO.N,GND*%
X172044000Y-76756000D02*
X174766000Y-74034000D01*
X144994000Y-79415000D02*
X145034000Y-79375000D01*
X158496000Y-88535000D02*
X157496000Y-88535000D01*
X157877000Y-89011000D02*
X158369000Y-89011000D01*
X147360000Y-72430000D02*
X147320000Y-72390000D01*
X134072000Y-73573000D02*
X134112000Y-73533000D01*
X147132000Y-95311000D02*
X146812000Y-95631000D01*
X147360000Y-73914000D02*
X147360000Y-72430000D01*
X178555499Y-58188000D02*
X174730000Y-58188000D01*
X157496000Y-88535000D02*
X157480000Y-88519000D01*
X156464000Y-88535000D02*
X157464000Y-88535000D01*
X148209000Y-95311000D02*
X147132000Y-95311000D01*
X148082000Y-100695000D02*
X148082000Y-101854000D01*
X148484500Y-89535000D02*
X149479000Y-89535000D01*
X174730000Y-64688000D02*
X178661999Y-60756001D01*
X143657000Y-93218000D02*
X142748000Y-93218000D01*
X181123500Y-60756001D02*
X178555499Y-58188000D01*
X131572000Y-58928000D02*
X131572000Y-56896000D01*
X157464000Y-88535000D02*
X157480000Y-88519000D01*
X142748000Y-93218000D02*
X142494000Y-93472000D01*
X178661999Y-60756001D02*
X181123500Y-60756001D01*
X125222000Y-88032500D02*
X125222000Y-89027000D01*
X131085500Y-117072500D02*
X131064000Y-117094000D01*
X134072000Y-75528000D02*
X134072000Y-73573000D01*
X122075000Y-95349000D02*
X122047000Y-95377000D01*
X165441000Y-73319000D02*
X165481000Y-73279000D01*
X144994000Y-80137000D02*
X144994000Y-79415000D01*
X123240000Y-95349000D02*
X122075000Y-95349000D01*
X165441000Y-74676000D02*
X165441000Y-73319000D01*
X128270000Y-88032500D02*
X128270000Y-89154000D01*
X172044000Y-78232000D02*
X172044000Y-76756000D01*
X132461000Y-117072500D02*
X131085500Y-117072500D01*
%TO.N,Net-(PS1-FB)*%
X141986000Y-98679000D02*
X141598000Y-98291000D01*
X141605000Y-98298000D02*
X141986000Y-98679000D01*
X149384000Y-98695000D02*
X151384000Y-100695000D01*
X143657000Y-94168000D02*
X143657000Y-94849000D01*
X143657000Y-94849000D02*
X143637000Y-94869000D01*
X148082000Y-98695000D02*
X147561500Y-98695000D01*
X141605000Y-96716000D02*
X141605000Y-98298000D01*
X147561500Y-98695000D02*
X146561500Y-99695000D01*
X148082000Y-98695000D02*
X149384000Y-98695000D01*
%TO.N,Net-(PS1-SW)*%
X145649000Y-91460000D02*
X145669000Y-91440000D01*
X148234000Y-91440000D02*
X153428000Y-91440000D01*
X143428000Y-90363000D02*
X144124000Y-91059000D01*
X146157000Y-92268000D02*
X146157000Y-91928000D01*
X153428000Y-91440000D02*
X155963450Y-93975450D01*
X146157000Y-91928000D02*
X145669000Y-91440000D01*
X141732000Y-90363000D02*
X143428000Y-90363000D01*
%TO.N,Net-(LED1-A)*%
X139994000Y-80137000D02*
X139994000Y-80050000D01*
X137922000Y-79248000D02*
X137922000Y-79772000D01*
X139446000Y-79589000D02*
X139994000Y-80137000D01*
X139446000Y-79248000D02*
X139446000Y-79589000D01*
X137922000Y-79772000D02*
X136906000Y-80788000D01*
X136906000Y-80238000D02*
X136932000Y-80238000D01*
%TO.N,Net-(U1-D0)*%
X133224160Y-90355000D02*
X136906000Y-86673160D01*
X124717000Y-94093374D02*
X128455374Y-90355000D01*
X136906000Y-86673160D02*
X136906000Y-83338000D01*
X128455374Y-90355000D02*
X133224160Y-90355000D01*
X124717000Y-107407000D02*
X124717000Y-94093374D01*
X120700000Y-111424000D02*
X124717000Y-107407000D01*
%TO.N,Net-(U1-D8)*%
X133350000Y-91821000D02*
X133350000Y-92329000D01*
X130556000Y-82677000D02*
X130556000Y-87757000D01*
X133350000Y-92329000D02*
X133400000Y-92379000D01*
X130556000Y-87757000D02*
X131445000Y-88646000D01*
X133400000Y-92379000D02*
X133400000Y-95349000D01*
X129072000Y-75528000D02*
X129072000Y-80050000D01*
X129072000Y-80050000D02*
X130429000Y-81407000D01*
%TO.N,Net-(R2-Pad2)*%
X134072000Y-57478001D02*
X134072000Y-58928000D01*
X128270000Y-82058000D02*
X132207000Y-82058000D01*
X136144000Y-78121000D02*
X136144000Y-61000000D01*
X136144000Y-61000000D02*
X134072000Y-58928000D01*
X132207000Y-82058000D02*
X136144000Y-78121000D01*
%TO.N,Net-(U1-D10)*%
X128524000Y-95145000D02*
X128320000Y-95349000D01*
X146731160Y-106934000D02*
X168021000Y-85644160D01*
X130302000Y-101727000D02*
X134747000Y-106172000D01*
X141351000Y-106934000D02*
X146731160Y-106934000D01*
X134747000Y-106172000D02*
X134747000Y-106299000D01*
X168021000Y-85644160D02*
X168021000Y-73279000D01*
X170230000Y-64688000D02*
X170230000Y-58188000D01*
X168021000Y-72009000D02*
X168021000Y-66897000D01*
X168021000Y-66897000D02*
X170230000Y-64688000D01*
X128320000Y-99745000D02*
X130302000Y-101727000D01*
X128320000Y-95349000D02*
X128320000Y-99745000D01*
%TO.N,Net-(R4-Pad1)*%
X127254000Y-79899000D02*
X127254000Y-60833000D01*
X127254000Y-60833000D02*
X127381000Y-60706000D01*
X127381000Y-60706000D02*
X127381000Y-60619000D01*
X127381000Y-60619000D02*
X129072000Y-58928000D01*
X125222000Y-81931000D02*
X127254000Y-79899000D01*
X125222000Y-81931000D02*
X121539000Y-81931000D01*
%TO.N,Net-(U1-D9)*%
X138303000Y-107696000D02*
X147574000Y-107696000D01*
X170266000Y-74034000D02*
X169792000Y-74034000D01*
X170266000Y-74034000D02*
X170266000Y-85004000D01*
X169792000Y-74034000D02*
X169037000Y-73279000D01*
X130860000Y-95349000D02*
X130860000Y-100507000D01*
X170266000Y-85004000D02*
X147574000Y-107696000D01*
X130860000Y-100507000D02*
X136017000Y-105664000D01*
%TO.N,+5V*%
X154862265Y-92025735D02*
X156353000Y-90535000D01*
X154862265Y-92025735D02*
X155116265Y-92025735D01*
X151892000Y-97790000D02*
X152654000Y-97028000D01*
X121285000Y-97282000D02*
X120700000Y-96697000D01*
X151892000Y-98822000D02*
X151892000Y-97790000D01*
X152622000Y-96996000D02*
X152622000Y-94234000D01*
X153924000Y-92964000D02*
X153892000Y-92964000D01*
X156353000Y-90535000D02*
X158496000Y-90535000D01*
X153543000Y-87757000D02*
X153543000Y-90706470D01*
X150622000Y-94234000D02*
X152622000Y-94234000D01*
X153892000Y-92964000D02*
X152622000Y-94234000D01*
X152654000Y-97028000D02*
X152622000Y-96996000D01*
X120700000Y-95349000D02*
X120904000Y-95553000D01*
X150368000Y-94488000D02*
X150622000Y-94234000D01*
X120700000Y-96697000D02*
X120700000Y-95349000D01*
X153543000Y-90706470D02*
X154862265Y-92025735D01*
%TO.N,Net-(U1-D1)*%
X124789400Y-121457000D02*
X123240000Y-119907600D01*
X123240000Y-119907600D02*
X123240000Y-112259000D01*
%TO.N,Net-(U3-VS)*%
X127559900Y-119147500D02*
X132461000Y-119147500D01*
X124789400Y-116377000D02*
X127559900Y-119147500D01*
X132461000Y-119147500D02*
X135725500Y-119147500D01*
X135725500Y-119147500D02*
X135763000Y-119110000D01*
%TO.N,Net-(PS1-EN)*%
X144780000Y-89165500D02*
X145149500Y-89535000D01*
X145149500Y-89535000D02*
X146409500Y-89535000D01*
X144724000Y-89221500D02*
X144724000Y-96702000D01*
X146223000Y-93284000D02*
X146157000Y-93218000D01*
X146088500Y-96266000D02*
X146088500Y-94236500D01*
X145553315Y-96801185D02*
X146088500Y-96266000D01*
X144724000Y-96702000D02*
X144525000Y-96901000D01*
X146304000Y-93218000D02*
X146497000Y-93411000D01*
X146088500Y-94236500D02*
X146157000Y-94168000D01*
X145553315Y-97801315D02*
X145553315Y-96801185D01*
X144526000Y-88911500D02*
X144526000Y-87260500D01*
X144780000Y-89165500D02*
X144724000Y-89221500D01*
X144780000Y-89165500D02*
X144526000Y-88911500D01*
X146157000Y-93218000D02*
X146304000Y-93218000D01*
X146497000Y-93411000D02*
X148209000Y-93411000D01*
X146157000Y-93218000D02*
X146157000Y-94168000D01*
%TD*%
M02*
