M48
; DRILL file {KiCad 9.0.6} date 2026-02-01T14:10:28+0100
; FORMAT={-:-/ absolute / metric / decimal}
; #@! TF.CreationDate,2026-02-01T14:10:28+01:00
; #@! TF.GenerationSoftware,Kicad,Pcbnew,9.0.6
; #@! TF.FileFunction,Plated,1,2,PTH
FMAT,2
METRIC
; #@! TA.AperFunction,Plated,PTH,ViaDrill
T1C0.300
; #@! TA.AperFunction,Plated,PTH,ComponentDrill
T2C0.965
; #@! TA.AperFunction,Plated,PTH,ComponentDrill
T3C1.000
; #@! TA.AperFunction,Plated,PTH,ComponentDrill
T4C1.200
%
G90
G05
T1
X121.285Y-97.282
X122.047Y-95.377
X122.555Y-86.487
X123.952Y-90.805
X124.117Y-100.076
X124.206Y-114.427
X125.222Y-89.027
X125.317Y-101.473
X126.492Y-93.345
X128.27Y-89.154
X130.429Y-81.407
X130.556Y-82.677
X131.064Y-91.059
X131.064Y-117.094
X131.445Y-88.646
X131.572Y-56.896
X132.207Y-89.755
X133.35Y-91.821
X133.985Y-107.442
X134.112Y-73.533
X134.747Y-106.299
X136.017Y-105.664
X136.144Y-109.601
X137.414Y-89.535
X137.922Y-79.248
X138.303Y-107.696
X139.446Y-79.248
X141.351Y-106.934
X141.605Y-96.716
X141.986Y-98.679
X142.494Y-93.472
X143.637Y-94.869
X144.124Y-91.059
X144.525Y-96.901
X145.034Y-79.375
X145.553Y-97.801
X145.669Y-91.44
X146.136Y-87.884
X146.561Y-99.695
X146.812Y-95.631
X147.32Y-72.39
X148.082Y-101.854
X148.234Y-87.884
X148.234Y-91.44
X149.479Y-89.535
X150.368Y-94.488
X153.924Y-92.964
X154.813Y-72.136
X154.862Y-92.026
X155.956Y-60.706
X157.48Y-88.519
X165.481Y-73.279
X168.021Y-72.009
X168.021Y-73.279
X169.037Y-73.279
T2
X124.789Y-116.377
X124.789Y-118.917
X124.789Y-121.457
T3
X150.926Y-57.068
X153.466Y-57.068
X156.006Y-57.068
X158.546Y-57.068
X170.23Y-58.188
X170.23Y-64.688
X170.266Y-67.534
X170.266Y-74.034
X174.73Y-58.188
X174.73Y-64.688
X174.766Y-67.534
X174.766Y-74.034
T4
X181.123Y-60.756
X181.123Y-63.296
M30
