%TF.GenerationSoftware,KiCad,Pcbnew,9.0.6*%
%TF.CreationDate,2026-01-26T20:42:43+01:00*%
%TF.ProjectId,hw,68772e6b-6963-4616-945f-706362585858,rev?*%
%TF.SameCoordinates,Original*%
%TF.FileFunction,Copper,L2,Bot*%
%TF.FilePolarity,Positive*%
%FSLAX46Y46*%
G04 Gerber Fmt 4.6, Leading zero omitted, Abs format (unit mm)*
G04 Created by KiCad (PCBNEW 9.0.6) date 2026-01-26 20:42:43*
%MOMM*%
%LPD*%
G01*
G04 APERTURE LIST*
G04 Aperture macros list*
%AMRoundRect*
0 Rectangle with rounded corners*
0 $1 Rounding radius*
0 $2 $3 $4 $5 $6 $7 $8 $9 X,Y pos of 4 corners*
0 Add a 4 corners polygon primitive as box body*
4,1,4,$2,$3,$4,$5,$6,$7,$8,$9,$2,$3,0*
0 Add four circle primitives for the rounded corners*
1,1,$1+$1,$2,$3*
1,1,$1+$1,$4,$5*
1,1,$1+$1,$6,$7*
1,1,$1+$1,$8,$9*
0 Add four rect primitives between the rounded corners*
20,1,$1+$1,$2,$3,$4,$5,0*
20,1,$1+$1,$4,$5,$6,$7,0*
20,1,$1+$1,$6,$7,$8,$9,0*
20,1,$1+$1,$8,$9,$2,$3,0*%
G04 Aperture macros list end*
%TA.AperFunction,ComponentPad*%
%ADD10C,1.700000*%
%TD*%
%TA.AperFunction,ComponentPad*%
%ADD11RoundRect,0.250000X0.750000X-0.750000X0.750000X0.750000X-0.750000X0.750000X-0.750000X-0.750000X0*%
%TD*%
%TA.AperFunction,ComponentPad*%
%ADD12C,2.000000*%
%TD*%
%TA.AperFunction,ComponentPad*%
%ADD13C,1.473200*%
%TD*%
%TA.AperFunction,ComponentPad*%
%ADD14O,1.600000X2.000000*%
%TD*%
%TA.AperFunction,ViaPad*%
%ADD15C,0.600000*%
%TD*%
%TA.AperFunction,Conductor*%
%ADD16C,0.200000*%
%TD*%
G04 APERTURE END LIST*
D10*
%TO.P,SW3,1,1*%
%TO.N,Net-(U1-D10)*%
X170230000Y-64688000D03*
X170230000Y-58188000D03*
%TO.P,SW3,2,2*%
%TO.N,GND*%
X174730000Y-64688000D03*
X174730000Y-58188000D03*
%TD*%
D11*
%TO.P,J1,1,Pin_1*%
%TO.N,+12V*%
X181123500Y-63296000D03*
D12*
%TO.P,J1,2,Pin_2*%
%TO.N,GND*%
X181123500Y-60756001D03*
%TD*%
D13*
%TO.P,U3,1,OUT*%
%TO.N,Net-(U1-D1)*%
X124789400Y-121457000D03*
%TO.P,U3,2,GND*%
%TO.N,GND*%
X124789400Y-118917000D03*
%TO.P,U3,3,VS*%
%TO.N,Net-(U3-VS)*%
X124789400Y-116377000D03*
%TD*%
D14*
%TO.P,OLED1,1,GND*%
%TO.N,GND*%
X150926000Y-57068000D03*
%TO.P,OLED1,2,VCC*%
%TO.N,/3V3*%
X153466000Y-57068000D03*
%TO.P,OLED1,3,SCL*%
%TO.N,Net-(OLED1-SCL)*%
X156006000Y-57068000D03*
%TO.P,OLED1,4,SDA*%
%TO.N,Net-(OLED1-SDA)*%
X158546000Y-57068000D03*
%TD*%
D10*
%TO.P,SW4,1,1*%
%TO.N,Net-(U1-D9)*%
X170266000Y-74034000D03*
X170266000Y-67534000D03*
%TO.P,SW4,2,2*%
%TO.N,GND*%
X174766000Y-74034000D03*
X174766000Y-67534000D03*
%TD*%
D15*
%TO.N,Net-(OLED1-SCL)*%
X155956000Y-60706000D03*
%TO.N,Net-(U1-D2)*%
X124117000Y-100076000D03*
X125317000Y-101473000D03*
%TO.N,Net-(U1-D3)*%
X129585765Y-99141235D03*
X129413000Y-90955000D03*
X130683000Y-89755000D03*
X128651000Y-100076000D03*
%TO.N,Net-(OLED1-SDA)*%
X146050000Y-108585000D03*
X133858000Y-108585000D03*
%TO.N,Net-(D1-K)*%
X148234000Y-87884000D03*
X146136160Y-87884000D03*
%TO.N,/3V3*%
X126238000Y-93726000D03*
X130185765Y-92583000D03*
X123190000Y-92964000D03*
X128651000Y-92710000D03*
%TO.N,GND*%
X133096000Y-115443000D03*
X165481000Y-73279000D03*
X123063000Y-76200000D03*
X141605000Y-100330000D03*
X134112000Y-73533000D03*
X144018000Y-102108000D03*
X140208000Y-98298000D03*
X155829000Y-85852000D03*
X145034000Y-79375000D03*
X122047000Y-95377000D03*
X147320000Y-72390000D03*
X131572000Y-56896000D03*
X126365000Y-87503000D03*
X162814000Y-81153000D03*
X162560000Y-86741000D03*
%TO.N,Net-(PS1-FB)*%
X141605000Y-96716000D03*
X141986000Y-98679000D03*
X146561500Y-99695000D03*
X143637000Y-94869000D03*
%TO.N,Net-(PS1-SW)*%
X145669000Y-91440000D03*
X148234000Y-91440000D03*
X144124000Y-91059000D03*
%TO.N,Net-(LED1-A)*%
X139446000Y-79248000D03*
X137922000Y-79248000D03*
%TO.N,Net-(U1-D8)*%
X133350000Y-91694000D03*
X131445000Y-87376000D03*
%TO.N,Net-(U1-D10)*%
X152960000Y-81661000D03*
X128524000Y-93599000D03*
X168021000Y-72009000D03*
X168021000Y-73279000D03*
X148234000Y-86741000D03*
X151638000Y-82931000D03*
%TO.N,Net-(R4-Pad1)*%
X135749315Y-86981315D03*
X137071895Y-87922895D03*
%TO.N,Net-(U1-D9)*%
X169037000Y-73279000D03*
%TO.N,+5V*%
X153924000Y-92964000D03*
X154862265Y-92025735D03*
X120904000Y-97917000D03*
X150368000Y-94488000D03*
%TO.N,Net-(PS1-EN)*%
X144525000Y-96901000D03*
X145553315Y-97801315D03*
X146338345Y-98713345D03*
%TD*%
D16*
%TO.N,Net-(OLED1-SCL)*%
X156006000Y-60656000D02*
X156006000Y-57068000D01*
X155956000Y-60706000D02*
X156006000Y-60656000D01*
%TO.N,Net-(U1-D2)*%
X125317000Y-101276000D02*
X124117000Y-100076000D01*
X125317000Y-101473000D02*
X125317000Y-101276000D01*
%TO.N,Net-(U1-D3)*%
X128651000Y-100076000D02*
X129585765Y-99141235D01*
X129483000Y-90955000D02*
X130683000Y-89755000D01*
X129413000Y-90955000D02*
X129483000Y-90955000D01*
%TO.N,Net-(OLED1-SDA)*%
X133858000Y-108585000D02*
X146050000Y-108585000D01*
%TO.N,Net-(D1-K)*%
X148234000Y-87884000D02*
X146136160Y-87884000D01*
%TO.N,/3V3*%
X130058765Y-92710000D02*
X130185765Y-92583000D01*
X125476000Y-92964000D02*
X123190000Y-92964000D01*
X126238000Y-93726000D02*
X125476000Y-92964000D01*
X128651000Y-92710000D02*
X130058765Y-92710000D01*
%TO.N,Net-(PS1-FB)*%
X143002000Y-99695000D02*
X141986000Y-98679000D01*
X143637000Y-94869000D02*
X141790000Y-96716000D01*
X146561500Y-99695000D02*
X143002000Y-99695000D01*
X141790000Y-96716000D02*
X141605000Y-96716000D01*
%TO.N,Net-(PS1-SW)*%
X144124000Y-91059000D02*
X145288000Y-91059000D01*
X145669000Y-91440000D02*
X148234000Y-91440000D01*
X145288000Y-91059000D02*
X145669000Y-91440000D01*
%TO.N,Net-(LED1-A)*%
X137922000Y-79248000D02*
X139446000Y-79248000D01*
%TO.N,Net-(U1-D8)*%
X131445000Y-89789000D02*
X131445000Y-87376000D01*
X133350000Y-91694000D02*
X131445000Y-89789000D01*
%TO.N,Net-(U1-D10)*%
X152960000Y-81661000D02*
X152908000Y-81661000D01*
X152908000Y-81661000D02*
X151638000Y-82931000D01*
X148234000Y-86741000D02*
X146429217Y-86741000D01*
X146429217Y-86741000D02*
X139571217Y-93599000D01*
X168021000Y-72009000D02*
X168021000Y-73279000D01*
X139571217Y-93599000D02*
X128524000Y-93599000D01*
%TO.N,Net-(R4-Pad1)*%
X137071895Y-87922895D02*
X136690895Y-87922895D01*
X136690895Y-87922895D02*
X135749315Y-86981315D01*
%TO.N,Net-(U1-D9)*%
X169037000Y-73279000D02*
X169037000Y-68763000D01*
X169037000Y-68763000D02*
X170266000Y-67534000D01*
%TO.N,+5V*%
X142118057Y-97316000D02*
X144946057Y-94488000D01*
X120904000Y-97917000D02*
X121505000Y-97316000D01*
X121505000Y-97316000D02*
X142118057Y-97316000D01*
X154862265Y-92025735D02*
X153924000Y-92964000D01*
X144946057Y-94488000D02*
X150368000Y-94488000D01*
%TO.N,Net-(PS1-EN)*%
X146338345Y-98713345D02*
X146338345Y-98586345D01*
X146338345Y-98586345D02*
X145553315Y-97801315D01*
X144653000Y-96901000D02*
X145553315Y-97801315D01*
X144525000Y-96901000D02*
X144653000Y-96901000D01*
%TD*%
%TA.AperFunction,Conductor*%
%TO.N,GND*%
G36*
X150037698Y-55705186D02*
G01*
X150083453Y-55757990D01*
X150093397Y-55827148D01*
X150064372Y-55890704D01*
X150058340Y-55897182D01*
X149934417Y-56021104D01*
X149934417Y-56021105D01*
X149814140Y-56186650D01*
X149721244Y-56368968D01*
X149658009Y-56563582D01*
X149626000Y-56765682D01*
X149626000Y-56818000D01*
X150492988Y-56818000D01*
X150460075Y-56875007D01*
X150426000Y-57002174D01*
X150426000Y-57133826D01*
X150460075Y-57260993D01*
X150492988Y-57318000D01*
X149626000Y-57318000D01*
X149626000Y-57370317D01*
X149658009Y-57572417D01*
X149721244Y-57767031D01*
X149814140Y-57949349D01*
X149934417Y-58114894D01*
X149934417Y-58114895D01*
X150079104Y-58259582D01*
X150244650Y-58379859D01*
X150426968Y-58472754D01*
X150621578Y-58535988D01*
X150676000Y-58544607D01*
X150676000Y-57501012D01*
X150733007Y-57533925D01*
X150860174Y-57568000D01*
X150991826Y-57568000D01*
X151118993Y-57533925D01*
X151176000Y-57501012D01*
X151176000Y-58544606D01*
X151230421Y-58535988D01*
X151425031Y-58472754D01*
X151607349Y-58379859D01*
X151772894Y-58259582D01*
X151772895Y-58259582D01*
X151917582Y-58114895D01*
X151917582Y-58114894D01*
X152037861Y-57949347D01*
X152085234Y-57856371D01*
X152133208Y-57805575D01*
X152201028Y-57788779D01*
X152267164Y-57811316D01*
X152306203Y-57856369D01*
X152353713Y-57949611D01*
X152474028Y-58115213D01*
X152618786Y-58259971D01*
X152773749Y-58372556D01*
X152784390Y-58380287D01*
X152865499Y-58421614D01*
X152966776Y-58473218D01*
X152966778Y-58473218D01*
X152966781Y-58473220D01*
X153041818Y-58497601D01*
X153161465Y-58536477D01*
X153262557Y-58552488D01*
X153363648Y-58568500D01*
X153363649Y-58568500D01*
X153568351Y-58568500D01*
X153568352Y-58568500D01*
X153770534Y-58536477D01*
X153965219Y-58473220D01*
X154147610Y-58380287D01*
X154265981Y-58294286D01*
X154313213Y-58259971D01*
X154313215Y-58259968D01*
X154313219Y-58259966D01*
X154457966Y-58115219D01*
X154457968Y-58115215D01*
X154457971Y-58115213D01*
X154578284Y-57949614D01*
X154578286Y-57949611D01*
X154578287Y-57949610D01*
X154625516Y-57856917D01*
X154673489Y-57806123D01*
X154741310Y-57789328D01*
X154807445Y-57811865D01*
X154846483Y-57856917D01*
X154858751Y-57880993D01*
X154893715Y-57949614D01*
X155014028Y-58115213D01*
X155014034Y-58115219D01*
X155158781Y-58259966D01*
X155324390Y-58380287D01*
X155337793Y-58387116D01*
X155388589Y-58435088D01*
X155405500Y-58497601D01*
X155405500Y-60073059D01*
X155385815Y-60140098D01*
X155369181Y-60160740D01*
X155334213Y-60195707D01*
X155334210Y-60195711D01*
X155246609Y-60326814D01*
X155246602Y-60326827D01*
X155186264Y-60472498D01*
X155186261Y-60472510D01*
X155155500Y-60627153D01*
X155155500Y-60784846D01*
X155186261Y-60939489D01*
X155186264Y-60939501D01*
X155246602Y-61085172D01*
X155246609Y-61085185D01*
X155334210Y-61216288D01*
X155334213Y-61216292D01*
X155445707Y-61327786D01*
X155445711Y-61327789D01*
X155576814Y-61415390D01*
X155576827Y-61415397D01*
X155722498Y-61475735D01*
X155722503Y-61475737D01*
X155877153Y-61506499D01*
X155877156Y-61506500D01*
X155877158Y-61506500D01*
X156034844Y-61506500D01*
X156034845Y-61506499D01*
X156189497Y-61475737D01*
X156335179Y-61415394D01*
X156466289Y-61327789D01*
X156577789Y-61216289D01*
X156665394Y-61085179D01*
X156725737Y-60939497D01*
X156756500Y-60784842D01*
X156756500Y-60627158D01*
X156756500Y-60627155D01*
X156756499Y-60627153D01*
X156725738Y-60472510D01*
X156725737Y-60472503D01*
X156665394Y-60326821D01*
X156627396Y-60269953D01*
X156606520Y-60203276D01*
X156606500Y-60201064D01*
X156606500Y-58497601D01*
X156626185Y-58430562D01*
X156674206Y-58387116D01*
X156687610Y-58380287D01*
X156853219Y-58259966D01*
X156997966Y-58115219D01*
X156997968Y-58115215D01*
X156997971Y-58115213D01*
X157118284Y-57949614D01*
X157118286Y-57949611D01*
X157118287Y-57949610D01*
X157165516Y-57856917D01*
X157213489Y-57806123D01*
X157281310Y-57789328D01*
X157347445Y-57811865D01*
X157386483Y-57856917D01*
X157398751Y-57880993D01*
X157433715Y-57949614D01*
X157554028Y-58115213D01*
X157698786Y-58259971D01*
X157853749Y-58372556D01*
X157864390Y-58380287D01*
X157945499Y-58421614D01*
X158046776Y-58473218D01*
X158046778Y-58473218D01*
X158046781Y-58473220D01*
X158121818Y-58497601D01*
X158241465Y-58536477D01*
X158342557Y-58552488D01*
X158443648Y-58568500D01*
X158443649Y-58568500D01*
X158648351Y-58568500D01*
X158648352Y-58568500D01*
X158850534Y-58536477D01*
X159045219Y-58473220D01*
X159227610Y-58380287D01*
X159345981Y-58294286D01*
X159393213Y-58259971D01*
X159393215Y-58259968D01*
X159393219Y-58259966D01*
X159537966Y-58115219D01*
X159562309Y-58081713D01*
X168879500Y-58081713D01*
X168879500Y-58294286D01*
X168912735Y-58504127D01*
X168912754Y-58504243D01*
X168975696Y-58697959D01*
X168978444Y-58706414D01*
X169074951Y-58895820D01*
X169199890Y-59067786D01*
X169350213Y-59218109D01*
X169522179Y-59343048D01*
X169522181Y-59343049D01*
X169522184Y-59343051D01*
X169711588Y-59439557D01*
X169913757Y-59505246D01*
X170123713Y-59538500D01*
X170123714Y-59538500D01*
X170336286Y-59538500D01*
X170336287Y-59538500D01*
X170546243Y-59505246D01*
X170748412Y-59439557D01*
X170937816Y-59343051D01*
X170992572Y-59303269D01*
X171109786Y-59218109D01*
X171109788Y-59218106D01*
X171109792Y-59218104D01*
X171260104Y-59067792D01*
X171260106Y-59067788D01*
X171260109Y-59067786D01*
X171385048Y-58895820D01*
X171385047Y-58895820D01*
X171385051Y-58895816D01*
X171481557Y-58706412D01*
X171547246Y-58504243D01*
X171580500Y-58294287D01*
X171580500Y-58081753D01*
X173380000Y-58081753D01*
X173380000Y-58294246D01*
X173413242Y-58504127D01*
X173413242Y-58504130D01*
X173478904Y-58706217D01*
X173575375Y-58895550D01*
X173614728Y-58949716D01*
X174247037Y-58317408D01*
X174264075Y-58380993D01*
X174329901Y-58495007D01*
X174422993Y-58588099D01*
X174537007Y-58653925D01*
X174600590Y-58670962D01*
X173968282Y-59303269D01*
X173968282Y-59303270D01*
X174022449Y-59342624D01*
X174211782Y-59439095D01*
X174413870Y-59504757D01*
X174623754Y-59538000D01*
X174836246Y-59538000D01*
X175046127Y-59504757D01*
X175046130Y-59504757D01*
X175175665Y-59462669D01*
X175248217Y-59439095D01*
X175437554Y-59342622D01*
X175491716Y-59303270D01*
X175491717Y-59303270D01*
X174859408Y-58670962D01*
X174922993Y-58653925D01*
X175037007Y-58588099D01*
X175130099Y-58495007D01*
X175195925Y-58380993D01*
X175212962Y-58317408D01*
X175845270Y-58949717D01*
X175845270Y-58949716D01*
X175884622Y-58895554D01*
X175981095Y-58706217D01*
X176046757Y-58504130D01*
X176046757Y-58504127D01*
X176080000Y-58294246D01*
X176080000Y-58081753D01*
X176046757Y-57871872D01*
X176046757Y-57871869D01*
X175981095Y-57669782D01*
X175884624Y-57480449D01*
X175845270Y-57426282D01*
X175845269Y-57426282D01*
X175212962Y-58058590D01*
X175195925Y-57995007D01*
X175130099Y-57880993D01*
X175037007Y-57787901D01*
X174922993Y-57722075D01*
X174859409Y-57705037D01*
X175491716Y-57072728D01*
X175437550Y-57033375D01*
X175248217Y-56936904D01*
X175046129Y-56871242D01*
X174836246Y-56838000D01*
X174623754Y-56838000D01*
X174413872Y-56871242D01*
X174413869Y-56871242D01*
X174211782Y-56936904D01*
X174022439Y-57033380D01*
X173968282Y-57072727D01*
X173968282Y-57072728D01*
X174600591Y-57705037D01*
X174537007Y-57722075D01*
X174422993Y-57787901D01*
X174329901Y-57880993D01*
X174264075Y-57995007D01*
X174247037Y-58058591D01*
X173614728Y-57426282D01*
X173614727Y-57426282D01*
X173575380Y-57480439D01*
X173478904Y-57669782D01*
X173413242Y-57871869D01*
X173413242Y-57871872D01*
X173380000Y-58081753D01*
X171580500Y-58081753D01*
X171580500Y-58081713D01*
X171547246Y-57871757D01*
X171481557Y-57669588D01*
X171385051Y-57480184D01*
X171385049Y-57480181D01*
X171385048Y-57480179D01*
X171260109Y-57308213D01*
X171109786Y-57157890D01*
X170937820Y-57032951D01*
X170748414Y-56936444D01*
X170748413Y-56936443D01*
X170748412Y-56936443D01*
X170546243Y-56870754D01*
X170546241Y-56870753D01*
X170546240Y-56870753D01*
X170383918Y-56845044D01*
X170336287Y-56837500D01*
X170123713Y-56837500D01*
X170076082Y-56845044D01*
X169913760Y-56870753D01*
X169711585Y-56936444D01*
X169522179Y-57032951D01*
X169350213Y-57157890D01*
X169199890Y-57308213D01*
X169074951Y-57480179D01*
X168978444Y-57669585D01*
X168912753Y-57871760D01*
X168879500Y-58081713D01*
X159562309Y-58081713D01*
X159658287Y-57949610D01*
X159751220Y-57767219D01*
X159814477Y-57572534D01*
X159846500Y-57370352D01*
X159846500Y-56765648D01*
X159815195Y-56568000D01*
X159814477Y-56563465D01*
X159785127Y-56473137D01*
X159751220Y-56368781D01*
X159751218Y-56368778D01*
X159751218Y-56368776D01*
X159700533Y-56269302D01*
X159658287Y-56186390D01*
X159640564Y-56161996D01*
X159537971Y-56020786D01*
X159414367Y-55897182D01*
X159380882Y-55835859D01*
X159385866Y-55766167D01*
X159427738Y-55710234D01*
X159493202Y-55685817D01*
X159502048Y-55685501D01*
X177127602Y-55685501D01*
X177150294Y-55687594D01*
X177177076Y-55692581D01*
X177185936Y-55694572D01*
X177688898Y-55827148D01*
X177746627Y-55842365D01*
X177755363Y-55845015D01*
X178303643Y-56033650D01*
X178312138Y-56036926D01*
X178845095Y-56265406D01*
X178853331Y-56269302D01*
X179368004Y-56536356D01*
X179375932Y-56540848D01*
X179557308Y-56652619D01*
X179869564Y-56845044D01*
X179877154Y-56850116D01*
X180348909Y-57191134D01*
X180352559Y-57193876D01*
X181833740Y-58349919D01*
X181838572Y-58353891D01*
X182139116Y-58613883D01*
X182148140Y-58622522D01*
X182418844Y-58909212D01*
X182426938Y-58918699D01*
X182571961Y-59107180D01*
X182667385Y-59231198D01*
X182674501Y-59241482D01*
X182882226Y-59576573D01*
X182888271Y-59587520D01*
X183061199Y-59941852D01*
X183066110Y-59953353D01*
X183202465Y-60323291D01*
X183206193Y-60335229D01*
X183304592Y-60717017D01*
X183307099Y-60729269D01*
X183366544Y-61119042D01*
X183367803Y-61131484D01*
X183387842Y-61528370D01*
X183388000Y-61534623D01*
X183388000Y-61780624D01*
X183387618Y-61790353D01*
X183367657Y-62043977D01*
X183364613Y-62063195D01*
X183306363Y-62305824D01*
X183300350Y-62324327D01*
X183229250Y-62495981D01*
X183204866Y-62554850D01*
X183196032Y-62572187D01*
X183065657Y-62784939D01*
X183054220Y-62800680D01*
X182892167Y-62990420D01*
X182878420Y-63004167D01*
X182828528Y-63046778D01*
X182764769Y-63075349D01*
X182695684Y-63064912D01*
X182643208Y-63018781D01*
X182623999Y-62952488D01*
X182623999Y-62495998D01*
X182623998Y-62495981D01*
X182613499Y-62393203D01*
X182613498Y-62393200D01*
X182558314Y-62226666D01*
X182466212Y-62077344D01*
X182342156Y-61953288D01*
X182249388Y-61896069D01*
X182192836Y-61861187D01*
X182192831Y-61861185D01*
X182191362Y-61860698D01*
X182026297Y-61806001D01*
X182026295Y-61806000D01*
X181923516Y-61795500D01*
X181860807Y-61795500D01*
X181793768Y-61775815D01*
X181773126Y-61759181D01*
X181334559Y-61320613D01*
X181355091Y-61315112D01*
X181491908Y-61236120D01*
X181603619Y-61124409D01*
X181682611Y-60987592D01*
X181688112Y-60967059D01*
X182346158Y-61625106D01*
X182346158Y-61625105D01*
X182406414Y-61542170D01*
X182406418Y-61542164D01*
X182513602Y-61331803D01*
X182586565Y-61107248D01*
X182623500Y-60874053D01*
X182623500Y-60637948D01*
X182586565Y-60404753D01*
X182513602Y-60180198D01*
X182406414Y-59969829D01*
X182346158Y-59886895D01*
X182346158Y-59886894D01*
X181688112Y-60544941D01*
X181682611Y-60524410D01*
X181603619Y-60387593D01*
X181491908Y-60275882D01*
X181355091Y-60196890D01*
X181334559Y-60191388D01*
X181992605Y-59533341D01*
X181992604Y-59533339D01*
X181909674Y-59473088D01*
X181699302Y-59365898D01*
X181474747Y-59292935D01*
X181474748Y-59292935D01*
X181241552Y-59256001D01*
X181005448Y-59256001D01*
X180772252Y-59292935D01*
X180547697Y-59365898D01*
X180337330Y-59473085D01*
X180254394Y-59533341D01*
X180912441Y-60191388D01*
X180891909Y-60196890D01*
X180755092Y-60275882D01*
X180643381Y-60387593D01*
X180564389Y-60524410D01*
X180558887Y-60544942D01*
X179900840Y-59886895D01*
X179840584Y-59969831D01*
X179733397Y-60180198D01*
X179660434Y-60404753D01*
X179623500Y-60637948D01*
X179623500Y-60874053D01*
X179660434Y-61107248D01*
X179733397Y-61331803D01*
X179840587Y-61542175D01*
X179900838Y-61625105D01*
X179900840Y-61625106D01*
X180558887Y-60967059D01*
X180564389Y-60987592D01*
X180643381Y-61124409D01*
X180755092Y-61236120D01*
X180891909Y-61315112D01*
X180912440Y-61320613D01*
X180473872Y-61759181D01*
X180412549Y-61792666D01*
X180386193Y-61795500D01*
X180323499Y-61795500D01*
X180323480Y-61795501D01*
X180220703Y-61806000D01*
X180220700Y-61806001D01*
X180054168Y-61861185D01*
X180054163Y-61861187D01*
X179904842Y-61953289D01*
X179780789Y-62077342D01*
X179688687Y-62226663D01*
X179688686Y-62226666D01*
X179633501Y-62393203D01*
X179633501Y-62393204D01*
X179633500Y-62393204D01*
X179623000Y-62495983D01*
X179623000Y-64096001D01*
X179623001Y-64096018D01*
X179633500Y-64198796D01*
X179633501Y-64198799D01*
X179688685Y-64365331D01*
X179688689Y-64365340D01*
X179749033Y-64463174D01*
X179767473Y-64530567D01*
X179765442Y-64550734D01*
X179647373Y-65191686D01*
X179647372Y-65191691D01*
X178561779Y-71084906D01*
X178560874Y-71089361D01*
X178435024Y-71655251D01*
X178432726Y-71664048D01*
X178266413Y-72216997D01*
X178263477Y-72225600D01*
X178057101Y-72764875D01*
X178053543Y-72773241D01*
X177808206Y-73295960D01*
X177804044Y-73304043D01*
X177521076Y-73807367D01*
X177516334Y-73815123D01*
X177197231Y-74296390D01*
X177191932Y-74303777D01*
X176837063Y-74762133D01*
X176834215Y-74765676D01*
X158041967Y-97282000D01*
X140945126Y-117766935D01*
X138896926Y-120221027D01*
X138893996Y-120224411D01*
X138512758Y-120649058D01*
X138506543Y-120655498D01*
X138097257Y-121050011D01*
X138090593Y-121055985D01*
X137653944Y-121419926D01*
X137646867Y-121425405D01*
X137185075Y-121756924D01*
X137177621Y-121761877D01*
X136693139Y-122059212D01*
X136685348Y-122063615D01*
X136272624Y-122277569D01*
X136180684Y-122325230D01*
X136172594Y-122329060D01*
X135650361Y-122553598D01*
X135642017Y-122556834D01*
X135104957Y-122743116D01*
X135096401Y-122745742D01*
X134547301Y-122892803D01*
X134538578Y-122894805D01*
X133980294Y-123001877D01*
X133971449Y-123003244D01*
X133406909Y-123069768D01*
X133397989Y-123070494D01*
X132827888Y-123096226D01*
X132823414Y-123096347D01*
X129478691Y-123126480D01*
X129474308Y-123126442D01*
X128937958Y-123112311D01*
X128929211Y-123111771D01*
X128397374Y-123060002D01*
X128388686Y-123058845D01*
X127861838Y-122969638D01*
X127853253Y-122967870D01*
X127334033Y-122841673D01*
X127325595Y-122839304D01*
X126816563Y-122676740D01*
X126808314Y-122673780D01*
X126312057Y-122475672D01*
X126304037Y-122472137D01*
X125901780Y-122277569D01*
X125850001Y-122230657D01*
X125831803Y-122163199D01*
X125845289Y-122109646D01*
X125870987Y-122059212D01*
X125935861Y-121931889D01*
X125935862Y-121931888D01*
X125935862Y-121931884D01*
X125935865Y-121931881D01*
X125996038Y-121746688D01*
X126026500Y-121554362D01*
X126026500Y-121359638D01*
X125996038Y-121167312D01*
X125935865Y-120982119D01*
X125847462Y-120808618D01*
X125733007Y-120651084D01*
X125595316Y-120513393D01*
X125437782Y-120398938D01*
X125264285Y-120310536D01*
X125256702Y-120308072D01*
X125246221Y-120304667D01*
X125188548Y-120265230D01*
X125161350Y-120200871D01*
X125173265Y-120132024D01*
X125220510Y-120080549D01*
X125246227Y-120068805D01*
X125264093Y-120063000D01*
X125437512Y-119974638D01*
X125437525Y-119974630D01*
X125469931Y-119951086D01*
X125469932Y-119951085D01*
X124904602Y-119385755D01*
X124975677Y-119366711D01*
X125085723Y-119303176D01*
X125175576Y-119213323D01*
X125239111Y-119103277D01*
X125258155Y-119032202D01*
X125823485Y-119597532D01*
X125823486Y-119597531D01*
X125847030Y-119565125D01*
X125847038Y-119565112D01*
X125935400Y-119391694D01*
X125995551Y-119206571D01*
X126026000Y-119014328D01*
X126026000Y-118819671D01*
X125995551Y-118627428D01*
X125935400Y-118442305D01*
X125847036Y-118268883D01*
X125823485Y-118236467D01*
X125258155Y-118801797D01*
X125239111Y-118730723D01*
X125175576Y-118620677D01*
X125085723Y-118530824D01*
X124975677Y-118467289D01*
X124904602Y-118448244D01*
X125469931Y-117882913D01*
X125469931Y-117882912D01*
X125437522Y-117859366D01*
X125264095Y-117771000D01*
X125246222Y-117765193D01*
X125188547Y-117725754D01*
X125161350Y-117661395D01*
X125173265Y-117592549D01*
X125220510Y-117541074D01*
X125246218Y-117529333D01*
X125264281Y-117523465D01*
X125437782Y-117435062D01*
X125595316Y-117320607D01*
X125733007Y-117182916D01*
X125847462Y-117025382D01*
X125935865Y-116851881D01*
X125996038Y-116666688D01*
X126026500Y-116474362D01*
X126026500Y-116279638D01*
X125996038Y-116087312D01*
X125935865Y-115902119D01*
X125847462Y-115728618D01*
X125733007Y-115571084D01*
X125595316Y-115433393D01*
X125437782Y-115318938D01*
X125264281Y-115230535D01*
X125079088Y-115170362D01*
X125079086Y-115170361D01*
X125079084Y-115170361D01*
X124944800Y-115149092D01*
X124886762Y-115139900D01*
X124692038Y-115139900D01*
X124647453Y-115146961D01*
X124499715Y-115170361D01*
X124314516Y-115230536D01*
X124141017Y-115318938D01*
X123983481Y-115433395D01*
X123845795Y-115571081D01*
X123731338Y-115728617D01*
X123642936Y-115902116D01*
X123582761Y-116087315D01*
X123569509Y-116170986D01*
X123552300Y-116279638D01*
X123552300Y-116474362D01*
X123582762Y-116666688D01*
X123642935Y-116851881D01*
X123731338Y-117025382D01*
X123845793Y-117182916D01*
X123983484Y-117320607D01*
X124141018Y-117435062D01*
X124314519Y-117523465D01*
X124332576Y-117529332D01*
X124390249Y-117568767D01*
X124417448Y-117633125D01*
X124405535Y-117701972D01*
X124358292Y-117753448D01*
X124332578Y-117765192D01*
X124314708Y-117770998D01*
X124141277Y-117859366D01*
X124108867Y-117882913D01*
X124108866Y-117882913D01*
X124674198Y-118448244D01*
X124603123Y-118467289D01*
X124493077Y-118530824D01*
X124403224Y-118620677D01*
X124339689Y-118730723D01*
X124320644Y-118801797D01*
X123755313Y-118236466D01*
X123755313Y-118236467D01*
X123731766Y-118268877D01*
X123643399Y-118442305D01*
X123583248Y-118627428D01*
X123552800Y-118819671D01*
X123552800Y-119014328D01*
X123583248Y-119206571D01*
X123643399Y-119391694D01*
X123731766Y-119565122D01*
X123755312Y-119597531D01*
X123755313Y-119597531D01*
X124320644Y-119032201D01*
X124339689Y-119103277D01*
X124403224Y-119213323D01*
X124493077Y-119303176D01*
X124603123Y-119366711D01*
X124674197Y-119385755D01*
X124108867Y-119951085D01*
X124141283Y-119974636D01*
X124314705Y-120062999D01*
X124332573Y-120068805D01*
X124390249Y-120108242D01*
X124417449Y-120172600D01*
X124405535Y-120241447D01*
X124358292Y-120292923D01*
X124332578Y-120304667D01*
X124314517Y-120310535D01*
X124141017Y-120398938D01*
X123983485Y-120513392D01*
X123892326Y-120604551D01*
X123883366Y-120609443D01*
X123877097Y-120617501D01*
X123853217Y-120625904D01*
X123831002Y-120638035D01*
X123820819Y-120637306D01*
X123811189Y-120640696D01*
X123786561Y-120634856D01*
X123761311Y-120633051D01*
X123751326Y-120626502D01*
X123743205Y-120624577D01*
X123715350Y-120602906D01*
X123691832Y-120578497D01*
X123685987Y-120571984D01*
X123429647Y-120265230D01*
X123343341Y-120161950D01*
X123337964Y-120155033D01*
X123275698Y-120068805D01*
X123025137Y-119721819D01*
X123020264Y-119714541D01*
X122738825Y-119260320D01*
X122734475Y-119252711D01*
X122710218Y-119206571D01*
X122485814Y-118779728D01*
X122482024Y-118771852D01*
X122267404Y-118282505D01*
X122264169Y-118274359D01*
X122084648Y-117771065D01*
X122081997Y-117762711D01*
X122053746Y-117661395D01*
X121938476Y-117247997D01*
X121936422Y-117239477D01*
X121892748Y-117025382D01*
X121829614Y-116715892D01*
X121828174Y-116707290D01*
X121758330Y-116175280D01*
X121757842Y-116170986D01*
X121026024Y-108506153D01*
X133057500Y-108506153D01*
X133057500Y-108663846D01*
X133088261Y-108818489D01*
X133088264Y-108818501D01*
X133148602Y-108964172D01*
X133148609Y-108964185D01*
X133236210Y-109095288D01*
X133236213Y-109095292D01*
X133347707Y-109206786D01*
X133347711Y-109206789D01*
X133478814Y-109294390D01*
X133478827Y-109294397D01*
X133624498Y-109354735D01*
X133624503Y-109354737D01*
X133779153Y-109385499D01*
X133779156Y-109385500D01*
X133779158Y-109385500D01*
X133936844Y-109385500D01*
X133936845Y-109385499D01*
X134091497Y-109354737D01*
X134237179Y-109294394D01*
X134237185Y-109294390D01*
X134368875Y-109206398D01*
X134435553Y-109185520D01*
X134437766Y-109185500D01*
X145470234Y-109185500D01*
X145537273Y-109205185D01*
X145539125Y-109206398D01*
X145670814Y-109294390D01*
X145670827Y-109294397D01*
X145816498Y-109354735D01*
X145816503Y-109354737D01*
X145971153Y-109385499D01*
X145971156Y-109385500D01*
X145971158Y-109385500D01*
X146128844Y-109385500D01*
X146128845Y-109385499D01*
X146283497Y-109354737D01*
X146429179Y-109294394D01*
X146560289Y-109206789D01*
X146671789Y-109095289D01*
X146759394Y-108964179D01*
X146819737Y-108818497D01*
X146850500Y-108663842D01*
X146850500Y-108506158D01*
X146850500Y-108506155D01*
X146850499Y-108506153D01*
X146819738Y-108351510D01*
X146819737Y-108351503D01*
X146819735Y-108351498D01*
X146759397Y-108205827D01*
X146759390Y-108205814D01*
X146671789Y-108074711D01*
X146671786Y-108074707D01*
X146560292Y-107963213D01*
X146560288Y-107963210D01*
X146429185Y-107875609D01*
X146429172Y-107875602D01*
X146283501Y-107815264D01*
X146283489Y-107815261D01*
X146128845Y-107784500D01*
X146128842Y-107784500D01*
X145971158Y-107784500D01*
X145971155Y-107784500D01*
X145816510Y-107815261D01*
X145816498Y-107815264D01*
X145670827Y-107875602D01*
X145670814Y-107875609D01*
X145539125Y-107963602D01*
X145472447Y-107984480D01*
X145470234Y-107984500D01*
X134437766Y-107984500D01*
X134370727Y-107964815D01*
X134368875Y-107963602D01*
X134237185Y-107875609D01*
X134237172Y-107875602D01*
X134091501Y-107815264D01*
X134091489Y-107815261D01*
X133936845Y-107784500D01*
X133936842Y-107784500D01*
X133779158Y-107784500D01*
X133779155Y-107784500D01*
X133624510Y-107815261D01*
X133624498Y-107815264D01*
X133478827Y-107875602D01*
X133478814Y-107875609D01*
X133347711Y-107963210D01*
X133347707Y-107963213D01*
X133236213Y-108074707D01*
X133236210Y-108074711D01*
X133148609Y-108205814D01*
X133148602Y-108205827D01*
X133088264Y-108351498D01*
X133088261Y-108351510D01*
X133057500Y-108506153D01*
X121026024Y-108506153D01*
X120213607Y-99997153D01*
X123316500Y-99997153D01*
X123316500Y-100154846D01*
X123347261Y-100309489D01*
X123347264Y-100309501D01*
X123407602Y-100455172D01*
X123407609Y-100455185D01*
X123495210Y-100586288D01*
X123495213Y-100586292D01*
X123606707Y-100697786D01*
X123606711Y-100697789D01*
X123737814Y-100785390D01*
X123737827Y-100785397D01*
X123883498Y-100845735D01*
X123883503Y-100845737D01*
X123948147Y-100858595D01*
X124038849Y-100876638D01*
X124100760Y-100909023D01*
X124102339Y-100910574D01*
X124481254Y-101289489D01*
X124514739Y-101350812D01*
X124516976Y-101389322D01*
X124516500Y-101394155D01*
X124516500Y-101551846D01*
X124547261Y-101706489D01*
X124547264Y-101706501D01*
X124607602Y-101852172D01*
X124607609Y-101852185D01*
X124695210Y-101983288D01*
X124695213Y-101983292D01*
X124806707Y-102094786D01*
X124806711Y-102094789D01*
X124937814Y-102182390D01*
X124937827Y-102182397D01*
X125083498Y-102242735D01*
X125083503Y-102242737D01*
X125238153Y-102273499D01*
X125238156Y-102273500D01*
X125238158Y-102273500D01*
X125395844Y-102273500D01*
X125395845Y-102273499D01*
X125550497Y-102242737D01*
X125696179Y-102182394D01*
X125827289Y-102094789D01*
X125938789Y-101983289D01*
X126026394Y-101852179D01*
X126086737Y-101706497D01*
X126117500Y-101551842D01*
X126117500Y-101394158D01*
X126117500Y-101394155D01*
X126117499Y-101394153D01*
X126086738Y-101239510D01*
X126086737Y-101239503D01*
X126086735Y-101239498D01*
X126026397Y-101093827D01*
X126026390Y-101093814D01*
X125938789Y-100962711D01*
X125938786Y-100962707D01*
X125827292Y-100851213D01*
X125827288Y-100851210D01*
X125696185Y-100763609D01*
X125696175Y-100763604D01*
X125646689Y-100743106D01*
X125606461Y-100716226D01*
X124951574Y-100061339D01*
X124918089Y-100000016D01*
X124917638Y-99997849D01*
X124917500Y-99997153D01*
X127850500Y-99997153D01*
X127850500Y-100154846D01*
X127881261Y-100309489D01*
X127881264Y-100309501D01*
X127941602Y-100455172D01*
X127941609Y-100455185D01*
X128029210Y-100586288D01*
X128029213Y-100586292D01*
X128140707Y-100697786D01*
X128140711Y-100697789D01*
X128271814Y-100785390D01*
X128271827Y-100785397D01*
X128417498Y-100845735D01*
X128417503Y-100845737D01*
X128572153Y-100876499D01*
X128572156Y-100876500D01*
X128572158Y-100876500D01*
X128729844Y-100876500D01*
X128729845Y-100876499D01*
X128884497Y-100845737D01*
X129030179Y-100785394D01*
X129161289Y-100697789D01*
X129272789Y-100586289D01*
X129360394Y-100455179D01*
X129420737Y-100309497D01*
X129447387Y-100175520D01*
X129451638Y-100154150D01*
X129460402Y-100137393D01*
X129464423Y-100118914D01*
X129483167Y-100093875D01*
X129484023Y-100092239D01*
X129485518Y-100090716D01*
X129600427Y-99975807D01*
X129661748Y-99942324D01*
X129663915Y-99941873D01*
X129731158Y-99928497D01*
X129819262Y-99910972D01*
X129964944Y-99850629D01*
X130096054Y-99763024D01*
X130207554Y-99651524D01*
X130295159Y-99520414D01*
X130355502Y-99374732D01*
X130386265Y-99220077D01*
X130386265Y-99062393D01*
X130386265Y-99062390D01*
X130386264Y-99062388D01*
X130371752Y-98989432D01*
X130355502Y-98907738D01*
X130347796Y-98889134D01*
X130295162Y-98762062D01*
X130295155Y-98762049D01*
X130207554Y-98630946D01*
X130207551Y-98630942D01*
X130096057Y-98519448D01*
X130096053Y-98519445D01*
X129964950Y-98431844D01*
X129964937Y-98431837D01*
X129819266Y-98371499D01*
X129819254Y-98371496D01*
X129664610Y-98340735D01*
X129664607Y-98340735D01*
X129506923Y-98340735D01*
X129506920Y-98340735D01*
X129352275Y-98371496D01*
X129352263Y-98371499D01*
X129206592Y-98431837D01*
X129206579Y-98431844D01*
X129075476Y-98519445D01*
X129075472Y-98519448D01*
X128963978Y-98630942D01*
X128963975Y-98630946D01*
X128876374Y-98762049D01*
X128876367Y-98762062D01*
X128816029Y-98907733D01*
X128816026Y-98907743D01*
X128785126Y-99063085D01*
X128776360Y-99079841D01*
X128772341Y-99098320D01*
X128753598Y-99123356D01*
X128752741Y-99124996D01*
X128751190Y-99126574D01*
X128636339Y-99241425D01*
X128575016Y-99274910D01*
X128572850Y-99275361D01*
X128417508Y-99306261D01*
X128417498Y-99306264D01*
X128271827Y-99366602D01*
X128271814Y-99366609D01*
X128140711Y-99454210D01*
X128140707Y-99454213D01*
X128029213Y-99565707D01*
X128029210Y-99565711D01*
X127941609Y-99696814D01*
X127941602Y-99696827D01*
X127881264Y-99842498D01*
X127881261Y-99842510D01*
X127850500Y-99997153D01*
X124917500Y-99997153D01*
X124888353Y-99850629D01*
X124886737Y-99842503D01*
X124853815Y-99763021D01*
X124826397Y-99696827D01*
X124826390Y-99696814D01*
X124738789Y-99565711D01*
X124738786Y-99565707D01*
X124627292Y-99454213D01*
X124627288Y-99454210D01*
X124496185Y-99366609D01*
X124496172Y-99366602D01*
X124350501Y-99306264D01*
X124350489Y-99306261D01*
X124195845Y-99275500D01*
X124195842Y-99275500D01*
X124038158Y-99275500D01*
X124038155Y-99275500D01*
X123883510Y-99306261D01*
X123883498Y-99306264D01*
X123737827Y-99366602D01*
X123737814Y-99366609D01*
X123606711Y-99454210D01*
X123606707Y-99454213D01*
X123495213Y-99565707D01*
X123495210Y-99565711D01*
X123407609Y-99696814D01*
X123407602Y-99696827D01*
X123347264Y-99842498D01*
X123347261Y-99842510D01*
X123316500Y-99997153D01*
X120213607Y-99997153D01*
X120073442Y-98529105D01*
X120086666Y-98460501D01*
X120134882Y-98409934D01*
X120202783Y-98393463D01*
X120268809Y-98416315D01*
X120284562Y-98429641D01*
X120393707Y-98538786D01*
X120393711Y-98538789D01*
X120524814Y-98626390D01*
X120524827Y-98626397D01*
X120645827Y-98676516D01*
X120670503Y-98686737D01*
X120818542Y-98716184D01*
X120825153Y-98717499D01*
X120825156Y-98717500D01*
X120825158Y-98717500D01*
X120982844Y-98717500D01*
X120982845Y-98717499D01*
X121137497Y-98686737D01*
X121263614Y-98634498D01*
X121283172Y-98626397D01*
X121283172Y-98626396D01*
X121283179Y-98626394D01*
X121414289Y-98538789D01*
X121525789Y-98427289D01*
X121613394Y-98296179D01*
X121673737Y-98150497D01*
X121700429Y-98016309D01*
X121732814Y-97954398D01*
X121793529Y-97919824D01*
X121822046Y-97916500D01*
X141317059Y-97916500D01*
X141384098Y-97936185D01*
X141429853Y-97988989D01*
X141439797Y-98058147D01*
X141410772Y-98121703D01*
X141404740Y-98128181D01*
X141364213Y-98168707D01*
X141364210Y-98168711D01*
X141276609Y-98299814D01*
X141276602Y-98299827D01*
X141216264Y-98445498D01*
X141216261Y-98445510D01*
X141185500Y-98600153D01*
X141185500Y-98757846D01*
X141216261Y-98912489D01*
X141216264Y-98912501D01*
X141276602Y-99058172D01*
X141276607Y-99058181D01*
X141364210Y-99189288D01*
X141364213Y-99189292D01*
X141475707Y-99300786D01*
X141475711Y-99300789D01*
X141606814Y-99388390D01*
X141606827Y-99388397D01*
X141752498Y-99448735D01*
X141752503Y-99448737D01*
X141816656Y-99461498D01*
X141907849Y-99479638D01*
X141969760Y-99512023D01*
X141971339Y-99513574D01*
X142517139Y-100059374D01*
X142517149Y-100059385D01*
X142521479Y-100063715D01*
X142521480Y-100063716D01*
X142633284Y-100175520D01*
X142684845Y-100205288D01*
X142720095Y-100225639D01*
X142720097Y-100225641D01*
X142758151Y-100247611D01*
X142770215Y-100254577D01*
X142922943Y-100295501D01*
X142922946Y-100295501D01*
X143088653Y-100295501D01*
X143088669Y-100295500D01*
X145981734Y-100295500D01*
X146048773Y-100315185D01*
X146050625Y-100316398D01*
X146182314Y-100404390D01*
X146182327Y-100404397D01*
X146304942Y-100455185D01*
X146328003Y-100464737D01*
X146482653Y-100495499D01*
X146482656Y-100495500D01*
X146482658Y-100495500D01*
X146640344Y-100495500D01*
X146640345Y-100495499D01*
X146794997Y-100464737D01*
X146940679Y-100404394D01*
X147071789Y-100316789D01*
X147183289Y-100205289D01*
X147270894Y-100074179D01*
X147276213Y-100061339D01*
X147311640Y-99975809D01*
X147331237Y-99928497D01*
X147362000Y-99773842D01*
X147362000Y-99616158D01*
X147362000Y-99616155D01*
X147361999Y-99616153D01*
X147351965Y-99565711D01*
X147331237Y-99461503D01*
X147300956Y-99388397D01*
X147270897Y-99315827D01*
X147270890Y-99315814D01*
X147183289Y-99184711D01*
X147183286Y-99184707D01*
X147119026Y-99120447D01*
X147085541Y-99059124D01*
X147090525Y-98989432D01*
X147092127Y-98985359D01*
X147108082Y-98946842D01*
X147138845Y-98792187D01*
X147138845Y-98634503D01*
X147138845Y-98634500D01*
X147138844Y-98634498D01*
X147119806Y-98538789D01*
X147108082Y-98479848D01*
X147088197Y-98431841D01*
X147047742Y-98334172D01*
X147047735Y-98334159D01*
X146960134Y-98203056D01*
X146960131Y-98203052D01*
X146848637Y-98091558D01*
X146848633Y-98091555D01*
X146717530Y-98003954D01*
X146717517Y-98003947D01*
X146571846Y-97943609D01*
X146566010Y-97941839D01*
X146566614Y-97939845D01*
X146558258Y-97935472D01*
X146539794Y-97931456D01*
X146514723Y-97912688D01*
X146513099Y-97911838D01*
X146511540Y-97910305D01*
X146387889Y-97786654D01*
X146354404Y-97725331D01*
X146353953Y-97723164D01*
X146332999Y-97617824D01*
X146323052Y-97567818D01*
X146323050Y-97567813D01*
X146262712Y-97422142D01*
X146262705Y-97422129D01*
X146175104Y-97291026D01*
X146175101Y-97291022D01*
X146063607Y-97179528D01*
X146063603Y-97179525D01*
X145932500Y-97091924D01*
X145932487Y-97091917D01*
X145786816Y-97031579D01*
X145786804Y-97031576D01*
X145631466Y-97000677D01*
X145569555Y-96968292D01*
X145568026Y-96966790D01*
X145327789Y-96726554D01*
X145298408Y-96672747D01*
X145296503Y-96673325D01*
X145294737Y-96667503D01*
X145234395Y-96521823D01*
X145234390Y-96521814D01*
X145146789Y-96390711D01*
X145146786Y-96390707D01*
X145035292Y-96279213D01*
X145035288Y-96279210D01*
X144904185Y-96191609D01*
X144904172Y-96191602D01*
X144758501Y-96131264D01*
X144758489Y-96131261D01*
X144603845Y-96100500D01*
X144603842Y-96100500D01*
X144482154Y-96100500D01*
X144415115Y-96080815D01*
X144369360Y-96028011D01*
X144359416Y-95958853D01*
X144388441Y-95895297D01*
X144394473Y-95888819D01*
X145158473Y-95124819D01*
X145219796Y-95091334D01*
X145246154Y-95088500D01*
X149788234Y-95088500D01*
X149855273Y-95108185D01*
X149857125Y-95109398D01*
X149988814Y-95197390D01*
X149988827Y-95197397D01*
X150129807Y-95255792D01*
X150134503Y-95257737D01*
X150289153Y-95288499D01*
X150289156Y-95288500D01*
X150289158Y-95288500D01*
X150446844Y-95288500D01*
X150446845Y-95288499D01*
X150601497Y-95257737D01*
X150747179Y-95197394D01*
X150878289Y-95109789D01*
X150989789Y-94998289D01*
X151077394Y-94867179D01*
X151082713Y-94854339D01*
X151137735Y-94721501D01*
X151137737Y-94721497D01*
X151168500Y-94566842D01*
X151168500Y-94409158D01*
X151168500Y-94409155D01*
X151168499Y-94409153D01*
X151158465Y-94358711D01*
X151137737Y-94254503D01*
X151123771Y-94220786D01*
X151077397Y-94108827D01*
X151077390Y-94108814D01*
X150989789Y-93977711D01*
X150989786Y-93977707D01*
X150878292Y-93866213D01*
X150878288Y-93866210D01*
X150747185Y-93778609D01*
X150747172Y-93778602D01*
X150601501Y-93718264D01*
X150601489Y-93718261D01*
X150446845Y-93687500D01*
X150446842Y-93687500D01*
X150289158Y-93687500D01*
X150289155Y-93687500D01*
X150134510Y-93718261D01*
X150134498Y-93718264D01*
X149988827Y-93778602D01*
X149988814Y-93778609D01*
X149857125Y-93866602D01*
X149790447Y-93887480D01*
X149788234Y-93887500D01*
X145032726Y-93887500D01*
X145032710Y-93887499D01*
X145025114Y-93887499D01*
X144867000Y-93887499D01*
X144760959Y-93915913D01*
X144714267Y-93928424D01*
X144714266Y-93928425D01*
X144664153Y-93957359D01*
X144664152Y-93957360D01*
X144660451Y-93959497D01*
X144577342Y-94007479D01*
X144577339Y-94007481D01*
X144330131Y-94254690D01*
X144268808Y-94288175D01*
X144199116Y-94283191D01*
X144154769Y-94254690D01*
X144147292Y-94247213D01*
X144147288Y-94247210D01*
X144016185Y-94159609D01*
X144016172Y-94159602D01*
X143870501Y-94099264D01*
X143870489Y-94099261D01*
X143715845Y-94068500D01*
X143715842Y-94068500D01*
X143558158Y-94068500D01*
X143558155Y-94068500D01*
X143403510Y-94099261D01*
X143403498Y-94099264D01*
X143257827Y-94159602D01*
X143257814Y-94159609D01*
X143126711Y-94247210D01*
X143126707Y-94247213D01*
X143015213Y-94358707D01*
X143015210Y-94358711D01*
X142927609Y-94489814D01*
X142927602Y-94489827D01*
X142867264Y-94635498D01*
X142867261Y-94635508D01*
X142836361Y-94790850D01*
X142803976Y-94852761D01*
X142802425Y-94854339D01*
X141777583Y-95879181D01*
X141716260Y-95912666D01*
X141689902Y-95915500D01*
X141526155Y-95915500D01*
X141371510Y-95946261D01*
X141371498Y-95946264D01*
X141225827Y-96006602D01*
X141225814Y-96006609D01*
X141094711Y-96094210D01*
X141094707Y-96094213D01*
X140983213Y-96205707D01*
X140983210Y-96205711D01*
X140895609Y-96336814D01*
X140895602Y-96336827D01*
X140835264Y-96482498D01*
X140835261Y-96482508D01*
X140808769Y-96615692D01*
X140776384Y-96677603D01*
X140715668Y-96712177D01*
X140687152Y-96715500D01*
X121425940Y-96715500D01*
X121385019Y-96726464D01*
X121385019Y-96726465D01*
X121347751Y-96736451D01*
X121273214Y-96756423D01*
X121273209Y-96756426D01*
X121136290Y-96835475D01*
X121136282Y-96835481D01*
X121024480Y-96947283D01*
X121024480Y-96947284D01*
X121024478Y-96947286D01*
X120949343Y-97022421D01*
X120889338Y-97082426D01*
X120828015Y-97115910D01*
X120825849Y-97116361D01*
X120670508Y-97147261D01*
X120670498Y-97147264D01*
X120524827Y-97207602D01*
X120524814Y-97207609D01*
X120393711Y-97295210D01*
X120393707Y-97295213D01*
X120282213Y-97406707D01*
X120282210Y-97406711D01*
X120194609Y-97537814D01*
X120194602Y-97537827D01*
X120134264Y-97683498D01*
X120134261Y-97683508D01*
X120108559Y-97812719D01*
X120076174Y-97874630D01*
X120015458Y-97909204D01*
X119971562Y-97911569D01*
X119514404Y-97854425D01*
X119499767Y-97851695D01*
X119347750Y-97813768D01*
X119319982Y-97803168D01*
X119195912Y-97737819D01*
X119188005Y-97733654D01*
X119163555Y-97716749D01*
X119051915Y-97617824D01*
X119032191Y-97595586D01*
X118947303Y-97472937D01*
X118933438Y-97446644D01*
X118919924Y-97411292D01*
X118877494Y-97300295D01*
X118873031Y-97286123D01*
X118872749Y-97284996D01*
X118871405Y-97278999D01*
X118834332Y-97091917D01*
X118786256Y-96849307D01*
X118771776Y-96776234D01*
X118769993Y-96764132D01*
X118767838Y-96741971D01*
X118720387Y-96253984D01*
X118719948Y-96247929D01*
X118627085Y-94297786D01*
X118627027Y-94296381D01*
X118626556Y-94283191D01*
X118620315Y-94108383D01*
X118620246Y-94105463D01*
X118620172Y-94099264D01*
X118618009Y-93917388D01*
X118618000Y-93915913D01*
X118618000Y-92885153D01*
X122389500Y-92885153D01*
X122389500Y-93042846D01*
X122420261Y-93197489D01*
X122420264Y-93197501D01*
X122480602Y-93343172D01*
X122480609Y-93343185D01*
X122568210Y-93474288D01*
X122568213Y-93474292D01*
X122679707Y-93585786D01*
X122679711Y-93585789D01*
X122810814Y-93673390D01*
X122810827Y-93673397D01*
X122956498Y-93733735D01*
X122956503Y-93733737D01*
X123111153Y-93764499D01*
X123111156Y-93764500D01*
X123111158Y-93764500D01*
X123268844Y-93764500D01*
X123268845Y-93764499D01*
X123423497Y-93733737D01*
X123558431Y-93677846D01*
X123569172Y-93673397D01*
X123569172Y-93673396D01*
X123569179Y-93673394D01*
X123608444Y-93647158D01*
X123700875Y-93585398D01*
X123767553Y-93564520D01*
X123769766Y-93564500D01*
X125175903Y-93564500D01*
X125205343Y-93573144D01*
X125235330Y-93579668D01*
X125240345Y-93583422D01*
X125242942Y-93584185D01*
X125263584Y-93600819D01*
X125403425Y-93740660D01*
X125436910Y-93801983D01*
X125437361Y-93804149D01*
X125468261Y-93959491D01*
X125468264Y-93959501D01*
X125528602Y-94105172D01*
X125528609Y-94105185D01*
X125616210Y-94236288D01*
X125616213Y-94236292D01*
X125727707Y-94347786D01*
X125727711Y-94347789D01*
X125858814Y-94435390D01*
X125858827Y-94435397D01*
X125990220Y-94489821D01*
X126004503Y-94495737D01*
X126159153Y-94526499D01*
X126159156Y-94526500D01*
X126159158Y-94526500D01*
X126316844Y-94526500D01*
X126316845Y-94526499D01*
X126471497Y-94495737D01*
X126617179Y-94435394D01*
X126748289Y-94347789D01*
X126859789Y-94236289D01*
X126947394Y-94105179D01*
X126949845Y-94099263D01*
X126962587Y-94068500D01*
X127007737Y-93959497D01*
X127038500Y-93804842D01*
X127038500Y-93647158D01*
X127038500Y-93647155D01*
X127038499Y-93647153D01*
X127016839Y-93538257D01*
X127013238Y-93520153D01*
X127723500Y-93520153D01*
X127723500Y-93677846D01*
X127754261Y-93832489D01*
X127754264Y-93832501D01*
X127814602Y-93978172D01*
X127814609Y-93978185D01*
X127902210Y-94109288D01*
X127902213Y-94109292D01*
X128013707Y-94220786D01*
X128013711Y-94220789D01*
X128144814Y-94308390D01*
X128144827Y-94308397D01*
X128266288Y-94358707D01*
X128290503Y-94368737D01*
X128445153Y-94399499D01*
X128445156Y-94399500D01*
X128445158Y-94399500D01*
X128602844Y-94399500D01*
X128602845Y-94399499D01*
X128757497Y-94368737D01*
X128903179Y-94308394D01*
X128983553Y-94254690D01*
X129034875Y-94220398D01*
X129101553Y-94199520D01*
X129103766Y-94199500D01*
X139484548Y-94199500D01*
X139484564Y-94199501D01*
X139492160Y-94199501D01*
X139650271Y-94199501D01*
X139650274Y-94199501D01*
X139803002Y-94158577D01*
X139871059Y-94119284D01*
X139939933Y-94079520D01*
X140051737Y-93967716D01*
X140051737Y-93967714D01*
X140061941Y-93957511D01*
X140061944Y-93957506D01*
X141134297Y-92885153D01*
X153123500Y-92885153D01*
X153123500Y-93042846D01*
X153154261Y-93197489D01*
X153154264Y-93197501D01*
X153214602Y-93343172D01*
X153214609Y-93343185D01*
X153302210Y-93474288D01*
X153302213Y-93474292D01*
X153413707Y-93585786D01*
X153413711Y-93585789D01*
X153544814Y-93673390D01*
X153544827Y-93673397D01*
X153690498Y-93733735D01*
X153690503Y-93733737D01*
X153845153Y-93764499D01*
X153845156Y-93764500D01*
X153845158Y-93764500D01*
X154002844Y-93764500D01*
X154002845Y-93764499D01*
X154157497Y-93733737D01*
X154292431Y-93677846D01*
X154303172Y-93673397D01*
X154303172Y-93673396D01*
X154303179Y-93673394D01*
X154434289Y-93585789D01*
X154545789Y-93474289D01*
X154633394Y-93343179D01*
X154693737Y-93197497D01*
X154720942Y-93060729D01*
X154724638Y-93042150D01*
X154733402Y-93025393D01*
X154737423Y-93006914D01*
X154756167Y-92981875D01*
X154757023Y-92980239D01*
X154758518Y-92978716D01*
X154876927Y-92860307D01*
X154938248Y-92826824D01*
X154940415Y-92826373D01*
X154998350Y-92814848D01*
X155095762Y-92795472D01*
X155241444Y-92735129D01*
X155372554Y-92647524D01*
X155484054Y-92536024D01*
X155571659Y-92404914D01*
X155632002Y-92259232D01*
X155662765Y-92104577D01*
X155662765Y-91946893D01*
X155662765Y-91946890D01*
X155662764Y-91946888D01*
X155645381Y-91859499D01*
X155632002Y-91792238D01*
X155629833Y-91787001D01*
X155571662Y-91646562D01*
X155571655Y-91646549D01*
X155484054Y-91515446D01*
X155484051Y-91515442D01*
X155372557Y-91403948D01*
X155372553Y-91403945D01*
X155241450Y-91316344D01*
X155241437Y-91316337D01*
X155095766Y-91255999D01*
X155095754Y-91255996D01*
X154941110Y-91225235D01*
X154941107Y-91225235D01*
X154783423Y-91225235D01*
X154783420Y-91225235D01*
X154628775Y-91255996D01*
X154628763Y-91255999D01*
X154483092Y-91316337D01*
X154483079Y-91316344D01*
X154351976Y-91403945D01*
X154351972Y-91403948D01*
X154240478Y-91515442D01*
X154240475Y-91515446D01*
X154152874Y-91646549D01*
X154152867Y-91646562D01*
X154092529Y-91792233D01*
X154092526Y-91792243D01*
X154061626Y-91947585D01*
X154052860Y-91964341D01*
X154048841Y-91982820D01*
X154030098Y-92007856D01*
X154029241Y-92009496D01*
X154027690Y-92011074D01*
X153909339Y-92129425D01*
X153848016Y-92162910D01*
X153845850Y-92163361D01*
X153690508Y-92194261D01*
X153690498Y-92194264D01*
X153544827Y-92254602D01*
X153544814Y-92254609D01*
X153413711Y-92342210D01*
X153413707Y-92342213D01*
X153302213Y-92453707D01*
X153302210Y-92453711D01*
X153214609Y-92584814D01*
X153214602Y-92584827D01*
X153154264Y-92730498D01*
X153154261Y-92730510D01*
X153123500Y-92885153D01*
X141134297Y-92885153D01*
X143111820Y-90907631D01*
X143173142Y-90874147D01*
X143242834Y-90879131D01*
X143298767Y-90921003D01*
X143323184Y-90986467D01*
X143323500Y-90995313D01*
X143323500Y-91137846D01*
X143354261Y-91292489D01*
X143354264Y-91292501D01*
X143414602Y-91438172D01*
X143414609Y-91438185D01*
X143502210Y-91569288D01*
X143502213Y-91569292D01*
X143613707Y-91680786D01*
X143613711Y-91680789D01*
X143744814Y-91768390D01*
X143744827Y-91768397D01*
X143867442Y-91819185D01*
X143890503Y-91828737D01*
X144011928Y-91852890D01*
X144045153Y-91859499D01*
X144045156Y-91859500D01*
X144045158Y-91859500D01*
X144202844Y-91859500D01*
X144202845Y-91859499D01*
X144357497Y-91828737D01*
X144492436Y-91772844D01*
X144503172Y-91768397D01*
X144503172Y-91768396D01*
X144503179Y-91768394D01*
X144522478Y-91755499D01*
X144634875Y-91680398D01*
X144652921Y-91674747D01*
X144668831Y-91664523D01*
X144699792Y-91660071D01*
X144701553Y-91659520D01*
X144703766Y-91659500D01*
X144810611Y-91659500D01*
X144877650Y-91679185D01*
X144923405Y-91731989D01*
X144925172Y-91736048D01*
X144959602Y-91819172D01*
X144959609Y-91819185D01*
X145047210Y-91950288D01*
X145047213Y-91950292D01*
X145158707Y-92061786D01*
X145158711Y-92061789D01*
X145289814Y-92149390D01*
X145289827Y-92149397D01*
X145435498Y-92209735D01*
X145435503Y-92209737D01*
X145590153Y-92240499D01*
X145590156Y-92240500D01*
X145590158Y-92240500D01*
X145747844Y-92240500D01*
X145747845Y-92240499D01*
X145902497Y-92209737D01*
X146048179Y-92149394D01*
X146107885Y-92109500D01*
X146179875Y-92061398D01*
X146246553Y-92040520D01*
X146248766Y-92040500D01*
X147654234Y-92040500D01*
X147721273Y-92060185D01*
X147723125Y-92061398D01*
X147854814Y-92149390D01*
X147854827Y-92149397D01*
X148000498Y-92209735D01*
X148000503Y-92209737D01*
X148155153Y-92240499D01*
X148155156Y-92240500D01*
X148155158Y-92240500D01*
X148312844Y-92240500D01*
X148312845Y-92240499D01*
X148467497Y-92209737D01*
X148613179Y-92149394D01*
X148744289Y-92061789D01*
X148855789Y-91950289D01*
X148943394Y-91819179D01*
X148945845Y-91813263D01*
X148964431Y-91768390D01*
X149003737Y-91673497D01*
X149034500Y-91518842D01*
X149034500Y-91361158D01*
X149034500Y-91361155D01*
X149034499Y-91361153D01*
X149029135Y-91334185D01*
X149003737Y-91206503D01*
X149003735Y-91206498D01*
X148943397Y-91060827D01*
X148943390Y-91060814D01*
X148855789Y-90929711D01*
X148855786Y-90929707D01*
X148744292Y-90818213D01*
X148744288Y-90818210D01*
X148613185Y-90730609D01*
X148613172Y-90730602D01*
X148467501Y-90670264D01*
X148467489Y-90670261D01*
X148312845Y-90639500D01*
X148312842Y-90639500D01*
X148155158Y-90639500D01*
X148155155Y-90639500D01*
X148000510Y-90670261D01*
X148000498Y-90670264D01*
X147854827Y-90730602D01*
X147854814Y-90730609D01*
X147723125Y-90818602D01*
X147656447Y-90839480D01*
X147654234Y-90839500D01*
X146248766Y-90839500D01*
X146181727Y-90819815D01*
X146179875Y-90818602D01*
X146048185Y-90730609D01*
X146048172Y-90730602D01*
X145902501Y-90670264D01*
X145902491Y-90670261D01*
X145747151Y-90639362D01*
X145700990Y-90619855D01*
X145691668Y-90613432D01*
X145656716Y-90578480D01*
X145563630Y-90524737D01*
X145519785Y-90499423D01*
X145367057Y-90458499D01*
X145208943Y-90458499D01*
X145201347Y-90458499D01*
X145201331Y-90458500D01*
X144703766Y-90458500D01*
X144636727Y-90438815D01*
X144634875Y-90437602D01*
X144503185Y-90349609D01*
X144503172Y-90349602D01*
X144357501Y-90289264D01*
X144357489Y-90289261D01*
X144202845Y-90258500D01*
X144202842Y-90258500D01*
X144060314Y-90258500D01*
X143993275Y-90238815D01*
X143947520Y-90186011D01*
X143937576Y-90116853D01*
X143966601Y-90053297D01*
X143972633Y-90046819D01*
X144643638Y-89375814D01*
X145486650Y-88532801D01*
X145547971Y-88499318D01*
X145617663Y-88504302D01*
X145643220Y-88517382D01*
X145756974Y-88593390D01*
X145756987Y-88593397D01*
X145902658Y-88653735D01*
X145902663Y-88653737D01*
X146057313Y-88684499D01*
X146057316Y-88684500D01*
X146057318Y-88684500D01*
X146215004Y-88684500D01*
X146215005Y-88684499D01*
X146369657Y-88653737D01*
X146515339Y-88593394D01*
X146588239Y-88544684D01*
X146647035Y-88505398D01*
X146713713Y-88484520D01*
X146715926Y-88484500D01*
X147654234Y-88484500D01*
X147721273Y-88504185D01*
X147723125Y-88505398D01*
X147854814Y-88593390D01*
X147854827Y-88593397D01*
X148000498Y-88653735D01*
X148000503Y-88653737D01*
X148155153Y-88684499D01*
X148155156Y-88684500D01*
X148155158Y-88684500D01*
X148312844Y-88684500D01*
X148312845Y-88684499D01*
X148467497Y-88653737D01*
X148613179Y-88593394D01*
X148744289Y-88505789D01*
X148855789Y-88394289D01*
X148943394Y-88263179D01*
X149003737Y-88117497D01*
X149034500Y-87962842D01*
X149034500Y-87805158D01*
X149034500Y-87805155D01*
X149034499Y-87805153D01*
X149023738Y-87751053D01*
X149003737Y-87650503D01*
X148984103Y-87603101D01*
X148943397Y-87504827D01*
X148943395Y-87504823D01*
X148943394Y-87504821D01*
X148860919Y-87381389D01*
X148840042Y-87314714D01*
X148858526Y-87247334D01*
X148860904Y-87243633D01*
X148943394Y-87120179D01*
X148944474Y-87117573D01*
X148968256Y-87060157D01*
X149003737Y-86974497D01*
X149034500Y-86819842D01*
X149034500Y-86662158D01*
X149034500Y-86662155D01*
X149034499Y-86662153D01*
X149022559Y-86602129D01*
X149003737Y-86507503D01*
X148988626Y-86471022D01*
X148943397Y-86361827D01*
X148943390Y-86361814D01*
X148855789Y-86230711D01*
X148855786Y-86230707D01*
X148744292Y-86119213D01*
X148744288Y-86119210D01*
X148613185Y-86031609D01*
X148613172Y-86031602D01*
X148467501Y-85971264D01*
X148467489Y-85971261D01*
X148312845Y-85940500D01*
X148312842Y-85940500D01*
X148155158Y-85940500D01*
X148155155Y-85940500D01*
X148000510Y-85971261D01*
X148000498Y-85971264D01*
X147854827Y-86031602D01*
X147854814Y-86031609D01*
X147723125Y-86119602D01*
X147656447Y-86140480D01*
X147654234Y-86140500D01*
X146515887Y-86140500D01*
X146515871Y-86140499D01*
X146508275Y-86140499D01*
X146350160Y-86140499D01*
X146273796Y-86160961D01*
X146197431Y-86181423D01*
X146197426Y-86181426D01*
X146060507Y-86260475D01*
X146060499Y-86260481D01*
X139358801Y-92962181D01*
X139297478Y-92995666D01*
X139271120Y-92998500D01*
X131065693Y-92998500D01*
X130998654Y-92978815D01*
X130952899Y-92926011D01*
X130942955Y-92856853D01*
X130951132Y-92827048D01*
X130955500Y-92816501D01*
X130955502Y-92816497D01*
X130986265Y-92661842D01*
X130986265Y-92504158D01*
X130986265Y-92504155D01*
X130986264Y-92504153D01*
X130976230Y-92453711D01*
X130955502Y-92349503D01*
X130941536Y-92315786D01*
X130895162Y-92203827D01*
X130895155Y-92203814D01*
X130807554Y-92072711D01*
X130807551Y-92072707D01*
X130696057Y-91961213D01*
X130696053Y-91961210D01*
X130564950Y-91873609D01*
X130564937Y-91873602D01*
X130419266Y-91813264D01*
X130419254Y-91813261D01*
X130264610Y-91782500D01*
X130264607Y-91782500D01*
X130106923Y-91782500D01*
X130018494Y-91800089D01*
X129948903Y-91793860D01*
X129893726Y-91750997D01*
X129870482Y-91685107D01*
X129886550Y-91617110D01*
X129919480Y-91581749D01*
X129918581Y-91580653D01*
X129923285Y-91576791D01*
X129923289Y-91576789D01*
X130034789Y-91465289D01*
X130122394Y-91334179D01*
X130182737Y-91188497D01*
X130196256Y-91120529D01*
X130228638Y-91058623D01*
X130230132Y-91057101D01*
X130697662Y-90589572D01*
X130758983Y-90556089D01*
X130761150Y-90555638D01*
X130819085Y-90544113D01*
X130916497Y-90524737D01*
X131062179Y-90464394D01*
X131102839Y-90437225D01*
X131169514Y-90416347D01*
X131236894Y-90434830D01*
X131259411Y-90452646D01*
X132515425Y-91708660D01*
X132548910Y-91769983D01*
X132549361Y-91772149D01*
X132580261Y-91927491D01*
X132580264Y-91927501D01*
X132640602Y-92073172D01*
X132640607Y-92073181D01*
X132728210Y-92204288D01*
X132728213Y-92204292D01*
X132839707Y-92315786D01*
X132839711Y-92315789D01*
X132970814Y-92403390D01*
X132970827Y-92403397D01*
X133092288Y-92453707D01*
X133116503Y-92463737D01*
X133271153Y-92494499D01*
X133271156Y-92494500D01*
X133271158Y-92494500D01*
X133428844Y-92494500D01*
X133428845Y-92494499D01*
X133583497Y-92463737D01*
X133725495Y-92404920D01*
X133729172Y-92403397D01*
X133729172Y-92403396D01*
X133729179Y-92403394D01*
X133860289Y-92315789D01*
X133971789Y-92204289D01*
X134059394Y-92073179D01*
X134119737Y-91927497D01*
X134150500Y-91772842D01*
X134150500Y-91615158D01*
X134150500Y-91615155D01*
X134150499Y-91615153D01*
X134130665Y-91515442D01*
X134119737Y-91460503D01*
X134110487Y-91438172D01*
X134059397Y-91314827D01*
X134059390Y-91314814D01*
X133971789Y-91183711D01*
X133971786Y-91183707D01*
X133860292Y-91072213D01*
X133860288Y-91072210D01*
X133729185Y-90984609D01*
X133729172Y-90984602D01*
X133583501Y-90924264D01*
X133583491Y-90924261D01*
X133428149Y-90893361D01*
X133366238Y-90860976D01*
X133364660Y-90859425D01*
X132081819Y-89576584D01*
X132048334Y-89515261D01*
X132045500Y-89488903D01*
X132045500Y-87955765D01*
X132065185Y-87888726D01*
X132066398Y-87886874D01*
X132095014Y-87844048D01*
X132154394Y-87755179D01*
X132156104Y-87751052D01*
X132214735Y-87609501D01*
X132214737Y-87609497D01*
X132245500Y-87454842D01*
X132245500Y-87297158D01*
X132245500Y-87297155D01*
X132245499Y-87297153D01*
X132229120Y-87214812D01*
X132214737Y-87142503D01*
X132214735Y-87142498D01*
X132154397Y-86996827D01*
X132154395Y-86996823D01*
X132154394Y-86996821D01*
X132154389Y-86996814D01*
X132133314Y-86965272D01*
X132091349Y-86902468D01*
X134948815Y-86902468D01*
X134948815Y-87060161D01*
X134979576Y-87214804D01*
X134979579Y-87214816D01*
X135039917Y-87360487D01*
X135039924Y-87360500D01*
X135127525Y-87491603D01*
X135127528Y-87491607D01*
X135239022Y-87603101D01*
X135239026Y-87603104D01*
X135370129Y-87690705D01*
X135370142Y-87690712D01*
X135515813Y-87751050D01*
X135515818Y-87751052D01*
X135580462Y-87763910D01*
X135671164Y-87781953D01*
X135733075Y-87814338D01*
X135734654Y-87815889D01*
X136206034Y-88287269D01*
X136206044Y-88287280D01*
X136210374Y-88291610D01*
X136210375Y-88291611D01*
X136322179Y-88403415D01*
X136408990Y-88453534D01*
X136459110Y-88482472D01*
X136492261Y-88491354D01*
X136501869Y-88495784D01*
X136516351Y-88508424D01*
X136537632Y-88520711D01*
X136561602Y-88544681D01*
X136561606Y-88544684D01*
X136692709Y-88632285D01*
X136692722Y-88632292D01*
X136818763Y-88684499D01*
X136838398Y-88692632D01*
X136993048Y-88723394D01*
X136993051Y-88723395D01*
X136993053Y-88723395D01*
X137150739Y-88723395D01*
X137150740Y-88723394D01*
X137305392Y-88692632D01*
X137451074Y-88632289D01*
X137582184Y-88544684D01*
X137693684Y-88433184D01*
X137781289Y-88302074D01*
X137841632Y-88156392D01*
X137872395Y-88001737D01*
X137872395Y-87844053D01*
X137872395Y-87844050D01*
X137872394Y-87844048D01*
X137841893Y-87690712D01*
X137841632Y-87689398D01*
X137805887Y-87603101D01*
X137781292Y-87543722D01*
X137781285Y-87543709D01*
X137693684Y-87412606D01*
X137693681Y-87412602D01*
X137582187Y-87301108D01*
X137582183Y-87301105D01*
X137451080Y-87213504D01*
X137451067Y-87213497D01*
X137305396Y-87153159D01*
X137305384Y-87153156D01*
X137150740Y-87122395D01*
X137150737Y-87122395D01*
X136993053Y-87122395D01*
X136993048Y-87122395D01*
X136846680Y-87151509D01*
X136838773Y-87150801D01*
X136831335Y-87153576D01*
X136804472Y-87147732D01*
X136777088Y-87145282D01*
X136769078Y-87140032D01*
X136763062Y-87138724D01*
X136734808Y-87117573D01*
X136583889Y-86966654D01*
X136550404Y-86905331D01*
X136549953Y-86903164D01*
X136520324Y-86754213D01*
X136519052Y-86747818D01*
X136519050Y-86747813D01*
X136458712Y-86602142D01*
X136458705Y-86602129D01*
X136371104Y-86471026D01*
X136371101Y-86471022D01*
X136259607Y-86359528D01*
X136259603Y-86359525D01*
X136128500Y-86271924D01*
X136128487Y-86271917D01*
X135982816Y-86211579D01*
X135982804Y-86211576D01*
X135828160Y-86180815D01*
X135828157Y-86180815D01*
X135670473Y-86180815D01*
X135670470Y-86180815D01*
X135515825Y-86211576D01*
X135515813Y-86211579D01*
X135370142Y-86271917D01*
X135370129Y-86271924D01*
X135239026Y-86359525D01*
X135239022Y-86359528D01*
X135127528Y-86471022D01*
X135127525Y-86471026D01*
X135039924Y-86602129D01*
X135039917Y-86602142D01*
X134979579Y-86747813D01*
X134979576Y-86747825D01*
X134948815Y-86902468D01*
X132091349Y-86902468D01*
X132066789Y-86865711D01*
X132066786Y-86865707D01*
X131955292Y-86754213D01*
X131955288Y-86754210D01*
X131824185Y-86666609D01*
X131824172Y-86666602D01*
X131678501Y-86606264D01*
X131678489Y-86606261D01*
X131523845Y-86575500D01*
X131523842Y-86575500D01*
X131366158Y-86575500D01*
X131366155Y-86575500D01*
X131211510Y-86606261D01*
X131211498Y-86606264D01*
X131065827Y-86666602D01*
X131065814Y-86666609D01*
X130934711Y-86754210D01*
X130934707Y-86754213D01*
X130823213Y-86865707D01*
X130823210Y-86865711D01*
X130735609Y-86996814D01*
X130735602Y-86996827D01*
X130675264Y-87142498D01*
X130675261Y-87142510D01*
X130644500Y-87297153D01*
X130644500Y-87454846D01*
X130675261Y-87609489D01*
X130675264Y-87609501D01*
X130735602Y-87755172D01*
X130735609Y-87755185D01*
X130823602Y-87886874D01*
X130844480Y-87953551D01*
X130844500Y-87955765D01*
X130844500Y-88830500D01*
X130824815Y-88897539D01*
X130772011Y-88943294D01*
X130720500Y-88954500D01*
X130604155Y-88954500D01*
X130449510Y-88985261D01*
X130449498Y-88985264D01*
X130303827Y-89045602D01*
X130303814Y-89045609D01*
X130172711Y-89133210D01*
X130172707Y-89133213D01*
X130061213Y-89244707D01*
X130061210Y-89244711D01*
X129973609Y-89375814D01*
X129973602Y-89375827D01*
X129913264Y-89521498D01*
X129913261Y-89521508D01*
X129882361Y-89676850D01*
X129849976Y-89738761D01*
X129848425Y-89740339D01*
X129470584Y-90118181D01*
X129409261Y-90151666D01*
X129382903Y-90154500D01*
X129334155Y-90154500D01*
X129179510Y-90185261D01*
X129179498Y-90185264D01*
X129033827Y-90245602D01*
X129033814Y-90245609D01*
X128902711Y-90333210D01*
X128902707Y-90333213D01*
X128791213Y-90444707D01*
X128791210Y-90444711D01*
X128703609Y-90575814D01*
X128703602Y-90575827D01*
X128643264Y-90721498D01*
X128643261Y-90721510D01*
X128612500Y-90876153D01*
X128612500Y-91033846D01*
X128643261Y-91188489D01*
X128643264Y-91188501D01*
X128703602Y-91334172D01*
X128703609Y-91334185D01*
X128791210Y-91465288D01*
X128791213Y-91465292D01*
X128902707Y-91576786D01*
X128902711Y-91576789D01*
X129033814Y-91664390D01*
X129033827Y-91664397D01*
X129140689Y-91708660D01*
X129179503Y-91724737D01*
X129311520Y-91750997D01*
X129334153Y-91755499D01*
X129334156Y-91755500D01*
X129334158Y-91755500D01*
X129491844Y-91755500D01*
X129580268Y-91737911D01*
X129649860Y-91744138D01*
X129705037Y-91787001D01*
X129728282Y-91852890D01*
X129712214Y-91920887D01*
X129691219Y-91948122D01*
X129682958Y-91956211D01*
X129675476Y-91961211D01*
X129563976Y-92072711D01*
X129563939Y-92072765D01*
X129562583Y-92074094D01*
X129532280Y-92090231D01*
X129502182Y-92106666D01*
X129501224Y-92106768D01*
X129500913Y-92106935D01*
X129500213Y-92106877D01*
X129475824Y-92109500D01*
X129230766Y-92109500D01*
X129163727Y-92089815D01*
X129161875Y-92088602D01*
X129030185Y-92000609D01*
X129030172Y-92000602D01*
X128884501Y-91940264D01*
X128884489Y-91940261D01*
X128729845Y-91909500D01*
X128729842Y-91909500D01*
X128572158Y-91909500D01*
X128572155Y-91909500D01*
X128417510Y-91940261D01*
X128417498Y-91940264D01*
X128271827Y-92000602D01*
X128271814Y-92000609D01*
X128140711Y-92088210D01*
X128140707Y-92088213D01*
X128029213Y-92199707D01*
X128029210Y-92199711D01*
X127941609Y-92330814D01*
X127941602Y-92330827D01*
X127881264Y-92476498D01*
X127881261Y-92476510D01*
X127850500Y-92631153D01*
X127850500Y-92788846D01*
X127881260Y-92943488D01*
X127881262Y-92943493D01*
X127881263Y-92943497D01*
X127901047Y-92991260D01*
X127908514Y-93060729D01*
X127889588Y-93107601D01*
X127814608Y-93219816D01*
X127814602Y-93219827D01*
X127754264Y-93365498D01*
X127754261Y-93365510D01*
X127723500Y-93520153D01*
X127013238Y-93520153D01*
X127007738Y-93492508D01*
X127007737Y-93492507D01*
X127007737Y-93492503D01*
X127000192Y-93474288D01*
X126947397Y-93346827D01*
X126947390Y-93346814D01*
X126859789Y-93215711D01*
X126859786Y-93215707D01*
X126748292Y-93104213D01*
X126748288Y-93104210D01*
X126617185Y-93016609D01*
X126617172Y-93016602D01*
X126471501Y-92956264D01*
X126471489Y-92956261D01*
X126316151Y-92925362D01*
X126254240Y-92892977D01*
X126252711Y-92891475D01*
X125963589Y-92602354D01*
X125963588Y-92602352D01*
X125844717Y-92483481D01*
X125844716Y-92483480D01*
X125757904Y-92433360D01*
X125757904Y-92433359D01*
X125757900Y-92433358D01*
X125707785Y-92404423D01*
X125555057Y-92363499D01*
X125396943Y-92363499D01*
X125389347Y-92363499D01*
X125389331Y-92363500D01*
X123769766Y-92363500D01*
X123702727Y-92343815D01*
X123700875Y-92342602D01*
X123569185Y-92254609D01*
X123569172Y-92254602D01*
X123423501Y-92194264D01*
X123423489Y-92194261D01*
X123268845Y-92163500D01*
X123268842Y-92163500D01*
X123111158Y-92163500D01*
X123111155Y-92163500D01*
X122956510Y-92194261D01*
X122956498Y-92194264D01*
X122810827Y-92254602D01*
X122810814Y-92254609D01*
X122679711Y-92342210D01*
X122679707Y-92342213D01*
X122568213Y-92453707D01*
X122568210Y-92453711D01*
X122480609Y-92584814D01*
X122480602Y-92584827D01*
X122420264Y-92730498D01*
X122420261Y-92730510D01*
X122389500Y-92885153D01*
X118618000Y-92885153D01*
X118618000Y-82852153D01*
X150837500Y-82852153D01*
X150837500Y-83009846D01*
X150868261Y-83164489D01*
X150868264Y-83164501D01*
X150928602Y-83310172D01*
X150928609Y-83310185D01*
X151016210Y-83441288D01*
X151016213Y-83441292D01*
X151127707Y-83552786D01*
X151127711Y-83552789D01*
X151258814Y-83640390D01*
X151258827Y-83640397D01*
X151404498Y-83700735D01*
X151404503Y-83700737D01*
X151559153Y-83731499D01*
X151559156Y-83731500D01*
X151559158Y-83731500D01*
X151716844Y-83731500D01*
X151716845Y-83731499D01*
X151871497Y-83700737D01*
X152017179Y-83640394D01*
X152148289Y-83552789D01*
X152259789Y-83441289D01*
X152347394Y-83310179D01*
X152407737Y-83164497D01*
X152427113Y-83067085D01*
X152438638Y-83009150D01*
X152471023Y-82947239D01*
X152472518Y-82945716D01*
X152920416Y-82497819D01*
X152981739Y-82464334D01*
X153008097Y-82461500D01*
X153038844Y-82461500D01*
X153038845Y-82461499D01*
X153193497Y-82430737D01*
X153339179Y-82370394D01*
X153470289Y-82282789D01*
X153581789Y-82171289D01*
X153669394Y-82040179D01*
X153729737Y-81894497D01*
X153760500Y-81739842D01*
X153760500Y-81582158D01*
X153760500Y-81582155D01*
X153760499Y-81582153D01*
X153729738Y-81427510D01*
X153729738Y-81427508D01*
X153729737Y-81427503D01*
X153726085Y-81418686D01*
X153669397Y-81281827D01*
X153669390Y-81281814D01*
X153581789Y-81150711D01*
X153581786Y-81150707D01*
X153470292Y-81039213D01*
X153470288Y-81039210D01*
X153339185Y-80951609D01*
X153339172Y-80951602D01*
X153193501Y-80891264D01*
X153193489Y-80891261D01*
X153038845Y-80860500D01*
X153038842Y-80860500D01*
X152881158Y-80860500D01*
X152881155Y-80860500D01*
X152726510Y-80891261D01*
X152726498Y-80891264D01*
X152580827Y-80951602D01*
X152580814Y-80951609D01*
X152449711Y-81039210D01*
X152449707Y-81039213D01*
X152338213Y-81150707D01*
X152338210Y-81150711D01*
X152250609Y-81281814D01*
X152250602Y-81281827D01*
X152190264Y-81427498D01*
X152190261Y-81427508D01*
X152172274Y-81517936D01*
X152139889Y-81579847D01*
X152138338Y-81581425D01*
X151623339Y-82096425D01*
X151562016Y-82129910D01*
X151559850Y-82130361D01*
X151404508Y-82161261D01*
X151404498Y-82161264D01*
X151258827Y-82221602D01*
X151258814Y-82221609D01*
X151127711Y-82309210D01*
X151127707Y-82309213D01*
X151016213Y-82420707D01*
X151016210Y-82420711D01*
X150928609Y-82551814D01*
X150928602Y-82551827D01*
X150868264Y-82697498D01*
X150868261Y-82697510D01*
X150837500Y-82852153D01*
X118618000Y-82852153D01*
X118618000Y-80137000D01*
X140793999Y-80137000D01*
X140794493Y-80195016D01*
X140794495Y-80195054D01*
X140802419Y-80310898D01*
X140802420Y-80310908D01*
X140818227Y-80425919D01*
X140841854Y-80539617D01*
X140873178Y-80651417D01*
X140912064Y-80760833D01*
X140912069Y-80760845D01*
X140958321Y-80867327D01*
X140958325Y-80867337D01*
X141011746Y-80970431D01*
X141011747Y-80970434D01*
X141072073Y-81069636D01*
X141072075Y-81069639D01*
X141139027Y-81164490D01*
X141139044Y-81164513D01*
X141212306Y-81254564D01*
X141212314Y-81254572D01*
X141291568Y-81339432D01*
X141376427Y-81418685D01*
X141376435Y-81418693D01*
X141466486Y-81491955D01*
X141466509Y-81491972D01*
X141561360Y-81558924D01*
X141561363Y-81558926D01*
X141660565Y-81619252D01*
X141660570Y-81619255D01*
X141726008Y-81653162D01*
X141763662Y-81672674D01*
X141763670Y-81672677D01*
X141870166Y-81718935D01*
X141979575Y-81757819D01*
X142091383Y-81789146D01*
X142205068Y-81812770D01*
X142205075Y-81812770D01*
X142205080Y-81812772D01*
X142241291Y-81817748D01*
X142320100Y-81828581D01*
X142435943Y-81836505D01*
X142435950Y-81836505D01*
X142552050Y-81836505D01*
X142552057Y-81836505D01*
X142667900Y-81828581D01*
X142760902Y-81815797D01*
X142782919Y-81812772D01*
X142782922Y-81812771D01*
X142782932Y-81812770D01*
X142896617Y-81789146D01*
X143008425Y-81757819D01*
X143117834Y-81718935D01*
X143224335Y-81672675D01*
X143327430Y-81619255D01*
X143426640Y-81558924D01*
X143521502Y-81491964D01*
X143600726Y-81427510D01*
X143611564Y-81418693D01*
X143611566Y-81418690D01*
X143611572Y-81418686D01*
X143696432Y-81339432D01*
X143775686Y-81254572D01*
X143848964Y-81164502D01*
X143915924Y-81069640D01*
X143976255Y-80970430D01*
X144029675Y-80867335D01*
X144075935Y-80760834D01*
X144114819Y-80651425D01*
X144146146Y-80539617D01*
X144169770Y-80425932D01*
X144185581Y-80310900D01*
X144193505Y-80195057D01*
X144193505Y-80078943D01*
X144185581Y-79963100D01*
X144169832Y-79848520D01*
X144169772Y-79848080D01*
X144151114Y-79758292D01*
X144146146Y-79734383D01*
X144114819Y-79622575D01*
X144075935Y-79513166D01*
X144029675Y-79406665D01*
X144029674Y-79406662D01*
X144010162Y-79369008D01*
X143976255Y-79303570D01*
X143915924Y-79204360D01*
X143848964Y-79109498D01*
X143848962Y-79109496D01*
X143848955Y-79109486D01*
X143775693Y-79019435D01*
X143775685Y-79019427D01*
X143771082Y-79014498D01*
X143696432Y-78934568D01*
X143611572Y-78855314D01*
X143611564Y-78855306D01*
X143521513Y-78782044D01*
X143521490Y-78782027D01*
X143426639Y-78715075D01*
X143426636Y-78715073D01*
X143327434Y-78654747D01*
X143327432Y-78654746D01*
X143327430Y-78654745D01*
X143275458Y-78627815D01*
X143224337Y-78601325D01*
X143224327Y-78601321D01*
X143117845Y-78555069D01*
X143117833Y-78555064D01*
X143008417Y-78516178D01*
X142896617Y-78484854D01*
X142782919Y-78461227D01*
X142667908Y-78445420D01*
X142667905Y-78445419D01*
X142667900Y-78445419D01*
X142552057Y-78437495D01*
X142435943Y-78437495D01*
X142320100Y-78445419D01*
X142320097Y-78445419D01*
X142320091Y-78445420D01*
X142205080Y-78461227D01*
X142091382Y-78484854D01*
X141979582Y-78516178D01*
X141870166Y-78555064D01*
X141870154Y-78555069D01*
X141763672Y-78601321D01*
X141763662Y-78601325D01*
X141660568Y-78654746D01*
X141660565Y-78654747D01*
X141561363Y-78715073D01*
X141561360Y-78715075D01*
X141466509Y-78782027D01*
X141466486Y-78782044D01*
X141376435Y-78855306D01*
X141376427Y-78855314D01*
X141291568Y-78934568D01*
X141212314Y-79019427D01*
X141212306Y-79019435D01*
X141139044Y-79109486D01*
X141139027Y-79109509D01*
X141072075Y-79204360D01*
X141072073Y-79204363D01*
X141011747Y-79303565D01*
X141011746Y-79303568D01*
X140958325Y-79406662D01*
X140958321Y-79406672D01*
X140912069Y-79513154D01*
X140912064Y-79513166D01*
X140873178Y-79622582D01*
X140841854Y-79734382D01*
X140818227Y-79848080D01*
X140803204Y-79957390D01*
X140802419Y-79963100D01*
X140796578Y-80048500D01*
X140794495Y-80078945D01*
X140794493Y-80078983D01*
X140793999Y-80137000D01*
X118618000Y-80137000D01*
X118618000Y-79169153D01*
X137121500Y-79169153D01*
X137121500Y-79326846D01*
X137152261Y-79481489D01*
X137152264Y-79481501D01*
X137212602Y-79627172D01*
X137212609Y-79627185D01*
X137300210Y-79758288D01*
X137300213Y-79758292D01*
X137411707Y-79869786D01*
X137411711Y-79869789D01*
X137542814Y-79957390D01*
X137542827Y-79957397D01*
X137688498Y-80017735D01*
X137688503Y-80017737D01*
X137843153Y-80048499D01*
X137843156Y-80048500D01*
X137843158Y-80048500D01*
X138000844Y-80048500D01*
X138000845Y-80048499D01*
X138155497Y-80017737D01*
X138287401Y-79963101D01*
X138301172Y-79957397D01*
X138301172Y-79957396D01*
X138301179Y-79957394D01*
X138301185Y-79957390D01*
X138432875Y-79869398D01*
X138499553Y-79848520D01*
X138501766Y-79848500D01*
X138866234Y-79848500D01*
X138933273Y-79868185D01*
X138935125Y-79869398D01*
X139066814Y-79957390D01*
X139066827Y-79957397D01*
X139212498Y-80017735D01*
X139212503Y-80017737D01*
X139367153Y-80048499D01*
X139367156Y-80048500D01*
X139367158Y-80048500D01*
X139524844Y-80048500D01*
X139524845Y-80048499D01*
X139576856Y-80038153D01*
X139679494Y-80017738D01*
X139679497Y-80017737D01*
X139825172Y-79957397D01*
X139825172Y-79957396D01*
X139825179Y-79957394D01*
X139956289Y-79869789D01*
X140067789Y-79758289D01*
X140155394Y-79627179D01*
X140215737Y-79481497D01*
X140246500Y-79326842D01*
X140246500Y-79169158D01*
X140246500Y-79169155D01*
X140246499Y-79169153D01*
X140216718Y-79019435D01*
X140215737Y-79014503D01*
X140182627Y-78934568D01*
X140155397Y-78868827D01*
X140155390Y-78868814D01*
X140067789Y-78737711D01*
X140067786Y-78737707D01*
X139956292Y-78626213D01*
X139956288Y-78626210D01*
X139825185Y-78538609D01*
X139825172Y-78538602D01*
X139679501Y-78478264D01*
X139679489Y-78478261D01*
X139524845Y-78447500D01*
X139524842Y-78447500D01*
X139367158Y-78447500D01*
X139367155Y-78447500D01*
X139212510Y-78478261D01*
X139212498Y-78478264D01*
X139066827Y-78538602D01*
X139066814Y-78538609D01*
X138935125Y-78626602D01*
X138868447Y-78647480D01*
X138866234Y-78647500D01*
X138501766Y-78647500D01*
X138434727Y-78627815D01*
X138432875Y-78626602D01*
X138301185Y-78538609D01*
X138301172Y-78538602D01*
X138155501Y-78478264D01*
X138155489Y-78478261D01*
X138000845Y-78447500D01*
X138000842Y-78447500D01*
X137843158Y-78447500D01*
X137843155Y-78447500D01*
X137688510Y-78478261D01*
X137688498Y-78478264D01*
X137542827Y-78538602D01*
X137542814Y-78538609D01*
X137411711Y-78626210D01*
X137411707Y-78626213D01*
X137300213Y-78737707D01*
X137300210Y-78737711D01*
X137212609Y-78868814D01*
X137212602Y-78868827D01*
X137152264Y-79014498D01*
X137152261Y-79014510D01*
X137121500Y-79169153D01*
X118618000Y-79169153D01*
X118618000Y-71930153D01*
X167220500Y-71930153D01*
X167220500Y-72087846D01*
X167251261Y-72242489D01*
X167251264Y-72242501D01*
X167311602Y-72388172D01*
X167311609Y-72388185D01*
X167399602Y-72519874D01*
X167405252Y-72537920D01*
X167415477Y-72553830D01*
X167419928Y-72584789D01*
X167420480Y-72586551D01*
X167420500Y-72588765D01*
X167420500Y-72699234D01*
X167400815Y-72766273D01*
X167399602Y-72768125D01*
X167311609Y-72899814D01*
X167311602Y-72899827D01*
X167251264Y-73045498D01*
X167251261Y-73045510D01*
X167220500Y-73200153D01*
X167220500Y-73357846D01*
X167251261Y-73512489D01*
X167251264Y-73512501D01*
X167311602Y-73658172D01*
X167311609Y-73658185D01*
X167399210Y-73789288D01*
X167399213Y-73789292D01*
X167510707Y-73900786D01*
X167510711Y-73900789D01*
X167641814Y-73988390D01*
X167641827Y-73988397D01*
X167751922Y-74033999D01*
X167787503Y-74048737D01*
X167942153Y-74079499D01*
X167942156Y-74079500D01*
X167942158Y-74079500D01*
X168099844Y-74079500D01*
X168099845Y-74079499D01*
X168254497Y-74048737D01*
X168400179Y-73988394D01*
X168460109Y-73948349D01*
X168526786Y-73927472D01*
X168594166Y-73945956D01*
X168597874Y-73948338D01*
X168657821Y-73988394D01*
X168657823Y-73988395D01*
X168657827Y-73988397D01*
X168745230Y-74024599D01*
X168803503Y-74048737D01*
X168819409Y-74051900D01*
X168881319Y-74084285D01*
X168915894Y-74145000D01*
X168917691Y-74154120D01*
X168948735Y-74350127D01*
X168948754Y-74350243D01*
X168984175Y-74459258D01*
X169014444Y-74552414D01*
X169110951Y-74741820D01*
X169235890Y-74913786D01*
X169386213Y-75064109D01*
X169558179Y-75189048D01*
X169558181Y-75189049D01*
X169558184Y-75189051D01*
X169747588Y-75285557D01*
X169949757Y-75351246D01*
X170159713Y-75384500D01*
X170159714Y-75384500D01*
X170372286Y-75384500D01*
X170372287Y-75384500D01*
X170582243Y-75351246D01*
X170784412Y-75285557D01*
X170973816Y-75189051D01*
X171028572Y-75149269D01*
X171145786Y-75064109D01*
X171145788Y-75064106D01*
X171145792Y-75064104D01*
X171296104Y-74913792D01*
X171296106Y-74913788D01*
X171296109Y-74913786D01*
X171421048Y-74741820D01*
X171421047Y-74741820D01*
X171421051Y-74741816D01*
X171517557Y-74552412D01*
X171583246Y-74350243D01*
X171616500Y-74140287D01*
X171616500Y-73927753D01*
X173416000Y-73927753D01*
X173416000Y-74140246D01*
X173449242Y-74350127D01*
X173449242Y-74350130D01*
X173514904Y-74552217D01*
X173611375Y-74741550D01*
X173650728Y-74795716D01*
X174283037Y-74163408D01*
X174300075Y-74226993D01*
X174365901Y-74341007D01*
X174458993Y-74434099D01*
X174573007Y-74499925D01*
X174636590Y-74516962D01*
X174004282Y-75149269D01*
X174004282Y-75149270D01*
X174058449Y-75188624D01*
X174247782Y-75285095D01*
X174449870Y-75350757D01*
X174659754Y-75384000D01*
X174872246Y-75384000D01*
X175082127Y-75350757D01*
X175082130Y-75350757D01*
X175284217Y-75285095D01*
X175473554Y-75188622D01*
X175527716Y-75149270D01*
X175527717Y-75149270D01*
X174895408Y-74516962D01*
X174958993Y-74499925D01*
X175073007Y-74434099D01*
X175166099Y-74341007D01*
X175231925Y-74226993D01*
X175248962Y-74163408D01*
X175881270Y-74795717D01*
X175881270Y-74795716D01*
X175920622Y-74741554D01*
X176017095Y-74552217D01*
X176082757Y-74350130D01*
X176082757Y-74350127D01*
X176116000Y-74140246D01*
X176116000Y-73927753D01*
X176082757Y-73717872D01*
X176082757Y-73717869D01*
X176017095Y-73515782D01*
X175920624Y-73326449D01*
X175881270Y-73272282D01*
X175881269Y-73272282D01*
X175248962Y-73904590D01*
X175231925Y-73841007D01*
X175166099Y-73726993D01*
X175073007Y-73633901D01*
X174958993Y-73568075D01*
X174895409Y-73551037D01*
X175527716Y-72918728D01*
X175473550Y-72879375D01*
X175284217Y-72782904D01*
X175082129Y-72717242D01*
X174872246Y-72684000D01*
X174659754Y-72684000D01*
X174449872Y-72717242D01*
X174449869Y-72717242D01*
X174247782Y-72782904D01*
X174058439Y-72879380D01*
X174004282Y-72918727D01*
X174004282Y-72918728D01*
X174636591Y-73551037D01*
X174573007Y-73568075D01*
X174458993Y-73633901D01*
X174365901Y-73726993D01*
X174300075Y-73841007D01*
X174283037Y-73904591D01*
X173650728Y-73272282D01*
X173650727Y-73272282D01*
X173611380Y-73326439D01*
X173514904Y-73515782D01*
X173449242Y-73717869D01*
X173449242Y-73717872D01*
X173416000Y-73927753D01*
X171616500Y-73927753D01*
X171616500Y-73927713D01*
X171583246Y-73717757D01*
X171517557Y-73515588D01*
X171421051Y-73326184D01*
X171421049Y-73326181D01*
X171421048Y-73326179D01*
X171296109Y-73154213D01*
X171145786Y-73003890D01*
X170973820Y-72878951D01*
X170784414Y-72782444D01*
X170784413Y-72782443D01*
X170784412Y-72782443D01*
X170582243Y-72716754D01*
X170582241Y-72716753D01*
X170582240Y-72716753D01*
X170420957Y-72691208D01*
X170372287Y-72683500D01*
X170159713Y-72683500D01*
X170120202Y-72689757D01*
X169949759Y-72716753D01*
X169799818Y-72765472D01*
X169729977Y-72767467D01*
X169670144Y-72731386D01*
X169639316Y-72668685D01*
X169637500Y-72647541D01*
X169637500Y-69063096D01*
X169646145Y-69033652D01*
X169652668Y-69003670D01*
X169656422Y-68998654D01*
X169657185Y-68996057D01*
X169673810Y-68975424D01*
X169781480Y-68867754D01*
X169842798Y-68834272D01*
X169907473Y-68837506D01*
X169949757Y-68851246D01*
X170159713Y-68884500D01*
X170159714Y-68884500D01*
X170372286Y-68884500D01*
X170372287Y-68884500D01*
X170582243Y-68851246D01*
X170784412Y-68785557D01*
X170973816Y-68689051D01*
X171012058Y-68661267D01*
X171145786Y-68564109D01*
X171145788Y-68564106D01*
X171145792Y-68564104D01*
X171296104Y-68413792D01*
X171296106Y-68413788D01*
X171296109Y-68413786D01*
X171421048Y-68241820D01*
X171421047Y-68241820D01*
X171421051Y-68241816D01*
X171517557Y-68052412D01*
X171583246Y-67850243D01*
X171616500Y-67640287D01*
X171616500Y-67427713D01*
X171583246Y-67217757D01*
X171517557Y-67015588D01*
X171421051Y-66826184D01*
X171421049Y-66826181D01*
X171421048Y-66826179D01*
X171296109Y-66654213D01*
X171145786Y-66503890D01*
X170973820Y-66378951D01*
X170784414Y-66282444D01*
X170784413Y-66282443D01*
X170784412Y-66282443D01*
X170601717Y-66223081D01*
X170544042Y-66183644D01*
X170516844Y-66119286D01*
X170528759Y-66050439D01*
X170576003Y-65998964D01*
X170601710Y-65987223D01*
X170748412Y-65939557D01*
X170937816Y-65843051D01*
X171045186Y-65765043D01*
X171109786Y-65718109D01*
X171109788Y-65718106D01*
X171109792Y-65718104D01*
X171260104Y-65567792D01*
X171260106Y-65567788D01*
X171260109Y-65567786D01*
X171385048Y-65395820D01*
X171385047Y-65395820D01*
X171385051Y-65395816D01*
X171481557Y-65206412D01*
X171547246Y-65004243D01*
X171580500Y-64794287D01*
X171580500Y-64581753D01*
X173380000Y-64581753D01*
X173380000Y-64794246D01*
X173413242Y-65004127D01*
X173413242Y-65004130D01*
X173478904Y-65206217D01*
X173575375Y-65395550D01*
X173614728Y-65449716D01*
X174247037Y-64817408D01*
X174264075Y-64880993D01*
X174329901Y-64995007D01*
X174422993Y-65088099D01*
X174537007Y-65153925D01*
X174600590Y-65170962D01*
X173968282Y-65803269D01*
X173968282Y-65803270D01*
X174022449Y-65842624D01*
X174211782Y-65939095D01*
X174395896Y-65998917D01*
X174453571Y-66038354D01*
X174480770Y-66102713D01*
X174468856Y-66171559D01*
X174421612Y-66223035D01*
X174395896Y-66234779D01*
X174247783Y-66282904D01*
X174058439Y-66379380D01*
X174004282Y-66418727D01*
X174004282Y-66418728D01*
X174636591Y-67051037D01*
X174573007Y-67068075D01*
X174458993Y-67133901D01*
X174365901Y-67226993D01*
X174300075Y-67341007D01*
X174283037Y-67404591D01*
X173650728Y-66772282D01*
X173650727Y-66772282D01*
X173611380Y-66826439D01*
X173514904Y-67015782D01*
X173449242Y-67217869D01*
X173449242Y-67217872D01*
X173416000Y-67427753D01*
X173416000Y-67640246D01*
X173449242Y-67850127D01*
X173449242Y-67850130D01*
X173514904Y-68052217D01*
X173611375Y-68241550D01*
X173650728Y-68295716D01*
X174283037Y-67663408D01*
X174300075Y-67726993D01*
X174365901Y-67841007D01*
X174458993Y-67934099D01*
X174573007Y-67999925D01*
X174636590Y-68016962D01*
X174004282Y-68649269D01*
X174004282Y-68649270D01*
X174058449Y-68688624D01*
X174247782Y-68785095D01*
X174449870Y-68850757D01*
X174659754Y-68884000D01*
X174872246Y-68884000D01*
X175082127Y-68850757D01*
X175082130Y-68850757D01*
X175284217Y-68785095D01*
X175473554Y-68688622D01*
X175527716Y-68649270D01*
X175527717Y-68649270D01*
X174895408Y-68016962D01*
X174958993Y-67999925D01*
X175073007Y-67934099D01*
X175166099Y-67841007D01*
X175231925Y-67726993D01*
X175248962Y-67663408D01*
X175881270Y-68295717D01*
X175881270Y-68295716D01*
X175920622Y-68241554D01*
X176017095Y-68052217D01*
X176082757Y-67850130D01*
X176082757Y-67850127D01*
X176116000Y-67640246D01*
X176116000Y-67427753D01*
X176082757Y-67217872D01*
X176082757Y-67217869D01*
X176017095Y-67015782D01*
X175920624Y-66826449D01*
X175881270Y-66772282D01*
X175881269Y-66772282D01*
X175248962Y-67404590D01*
X175231925Y-67341007D01*
X175166099Y-67226993D01*
X175073007Y-67133901D01*
X174958993Y-67068075D01*
X174895409Y-67051037D01*
X175527716Y-66418728D01*
X175473550Y-66379375D01*
X175284217Y-66282904D01*
X175100103Y-66223082D01*
X175042427Y-66183645D01*
X175015229Y-66119286D01*
X175027144Y-66050440D01*
X175074388Y-65998964D01*
X175100103Y-65987220D01*
X175248217Y-65939095D01*
X175437554Y-65842622D01*
X175491716Y-65803270D01*
X175491717Y-65803270D01*
X174859408Y-65170962D01*
X174922993Y-65153925D01*
X175037007Y-65088099D01*
X175130099Y-64995007D01*
X175195925Y-64880993D01*
X175212962Y-64817408D01*
X175845270Y-65449717D01*
X175845270Y-65449716D01*
X175884622Y-65395554D01*
X175981095Y-65206217D01*
X176046757Y-65004130D01*
X176046757Y-65004127D01*
X176080000Y-64794246D01*
X176080000Y-64581753D01*
X176046757Y-64371872D01*
X176046757Y-64371869D01*
X175981095Y-64169782D01*
X175884624Y-63980449D01*
X175845270Y-63926282D01*
X175845269Y-63926282D01*
X175212962Y-64558590D01*
X175195925Y-64495007D01*
X175130099Y-64380993D01*
X175037007Y-64287901D01*
X174922993Y-64222075D01*
X174859409Y-64205037D01*
X175491716Y-63572728D01*
X175437550Y-63533375D01*
X175248217Y-63436904D01*
X175046129Y-63371242D01*
X174836246Y-63338000D01*
X174623754Y-63338000D01*
X174413872Y-63371242D01*
X174413869Y-63371242D01*
X174211782Y-63436904D01*
X174022439Y-63533380D01*
X173968282Y-63572727D01*
X173968282Y-63572728D01*
X174600591Y-64205037D01*
X174537007Y-64222075D01*
X174422993Y-64287901D01*
X174329901Y-64380993D01*
X174264075Y-64495007D01*
X174247037Y-64558591D01*
X173614728Y-63926282D01*
X173614727Y-63926282D01*
X173575380Y-63980439D01*
X173478904Y-64169782D01*
X173413242Y-64371869D01*
X173413242Y-64371872D01*
X173380000Y-64581753D01*
X171580500Y-64581753D01*
X171580500Y-64581713D01*
X171547246Y-64371757D01*
X171481557Y-64169588D01*
X171385051Y-63980184D01*
X171385049Y-63980181D01*
X171385048Y-63980179D01*
X171260109Y-63808213D01*
X171109786Y-63657890D01*
X170937820Y-63532951D01*
X170748414Y-63436444D01*
X170748413Y-63436443D01*
X170748412Y-63436443D01*
X170546243Y-63370754D01*
X170546241Y-63370753D01*
X170546240Y-63370753D01*
X170384957Y-63345208D01*
X170336287Y-63337500D01*
X170123713Y-63337500D01*
X170075042Y-63345208D01*
X169913760Y-63370753D01*
X169711585Y-63436444D01*
X169522179Y-63532951D01*
X169350213Y-63657890D01*
X169199890Y-63808213D01*
X169074951Y-63980179D01*
X168978444Y-64169585D01*
X168912753Y-64371760D01*
X168893233Y-64495007D01*
X168879500Y-64581713D01*
X168879500Y-64794287D01*
X168889534Y-64857644D01*
X168912735Y-65004127D01*
X168912754Y-65004243D01*
X168973658Y-65191686D01*
X168978444Y-65206414D01*
X169074951Y-65395820D01*
X169199890Y-65567786D01*
X169350213Y-65718109D01*
X169522179Y-65843048D01*
X169522181Y-65843049D01*
X169522184Y-65843051D01*
X169711588Y-65939557D01*
X169894283Y-65998918D01*
X169951956Y-66038354D01*
X169979155Y-66102713D01*
X169967240Y-66171559D01*
X169919996Y-66223035D01*
X169894282Y-66234779D01*
X169747583Y-66282444D01*
X169558179Y-66378951D01*
X169386213Y-66503890D01*
X169235890Y-66654213D01*
X169110951Y-66826179D01*
X169014444Y-67015585D01*
X168948753Y-67217760D01*
X168915500Y-67427713D01*
X168915500Y-67640286D01*
X168948754Y-67850244D01*
X168948754Y-67850247D01*
X168962491Y-67892523D01*
X168964486Y-67962364D01*
X168932241Y-68018522D01*
X168668286Y-68282478D01*
X168556481Y-68394282D01*
X168556479Y-68394285D01*
X168506361Y-68481094D01*
X168506359Y-68481096D01*
X168477425Y-68531209D01*
X168477424Y-68531210D01*
X168477423Y-68531215D01*
X168436499Y-68683943D01*
X168436499Y-68683945D01*
X168436499Y-68852046D01*
X168436500Y-68852059D01*
X168436500Y-71129072D01*
X168416815Y-71196111D01*
X168364011Y-71241866D01*
X168294853Y-71251810D01*
X168265048Y-71243633D01*
X168254501Y-71239264D01*
X168254489Y-71239261D01*
X168099845Y-71208500D01*
X168099842Y-71208500D01*
X167942158Y-71208500D01*
X167942155Y-71208500D01*
X167787510Y-71239261D01*
X167787498Y-71239264D01*
X167641827Y-71299602D01*
X167641814Y-71299609D01*
X167510711Y-71387210D01*
X167510707Y-71387213D01*
X167399213Y-71498707D01*
X167399210Y-71498711D01*
X167311609Y-71629814D01*
X167311602Y-71629827D01*
X167251264Y-71775498D01*
X167251261Y-71775510D01*
X167220500Y-71930153D01*
X118618000Y-71930153D01*
X118618000Y-67694480D01*
X118618195Y-67687528D01*
X118626817Y-67533999D01*
X118638372Y-67328234D01*
X118639926Y-67314439D01*
X118692080Y-67007485D01*
X127972700Y-67007485D01*
X127972700Y-67259314D01*
X128005395Y-67465746D01*
X128012095Y-67508044D01*
X128089915Y-67747548D01*
X128204243Y-67971930D01*
X128352265Y-68175665D01*
X128530335Y-68353735D01*
X128734070Y-68501757D01*
X128958452Y-68616085D01*
X129197956Y-68693905D01*
X129446685Y-68733300D01*
X129446686Y-68733300D01*
X129698514Y-68733300D01*
X129698515Y-68733300D01*
X129947244Y-68693905D01*
X130186748Y-68616085D01*
X130411130Y-68501757D01*
X130614865Y-68353735D01*
X130792935Y-68175665D01*
X130940957Y-67971930D01*
X131055285Y-67747548D01*
X131133105Y-67508044D01*
X131172500Y-67259315D01*
X131172500Y-67021989D01*
X132372700Y-67021989D01*
X132372700Y-67244810D01*
X132372701Y-67244826D01*
X132401785Y-67465742D01*
X132459461Y-67680991D01*
X132544732Y-67886853D01*
X132544736Y-67886862D01*
X132572008Y-67934099D01*
X132656152Y-68079840D01*
X132656157Y-68079846D01*
X132656158Y-68079848D01*
X132791804Y-68256625D01*
X132791810Y-68256632D01*
X132949367Y-68414189D01*
X132949373Y-68414194D01*
X133126160Y-68549848D01*
X133319140Y-68661265D01*
X133525013Y-68746540D01*
X133740254Y-68804214D01*
X133961183Y-68833300D01*
X133961190Y-68833300D01*
X134184010Y-68833300D01*
X134184017Y-68833300D01*
X134404946Y-68804214D01*
X134620187Y-68746540D01*
X134826060Y-68661265D01*
X135019040Y-68549848D01*
X135195827Y-68414194D01*
X135353394Y-68256627D01*
X135489048Y-68079840D01*
X135600465Y-67886860D01*
X135685740Y-67680987D01*
X135743414Y-67465746D01*
X135772500Y-67244817D01*
X135772500Y-67021983D01*
X135743414Y-66801054D01*
X135685740Y-66585813D01*
X135600465Y-66379940D01*
X135489048Y-66186960D01*
X135353394Y-66010173D01*
X135353389Y-66010167D01*
X135195832Y-65852610D01*
X135195825Y-65852604D01*
X135019048Y-65716958D01*
X135019046Y-65716957D01*
X135019040Y-65716952D01*
X134826060Y-65605535D01*
X134747260Y-65572895D01*
X134620191Y-65520261D01*
X134404942Y-65462585D01*
X134184026Y-65433501D01*
X134184023Y-65433500D01*
X134184017Y-65433500D01*
X133961183Y-65433500D01*
X133961177Y-65433500D01*
X133961173Y-65433501D01*
X133740257Y-65462585D01*
X133525008Y-65520261D01*
X133319146Y-65605532D01*
X133319137Y-65605536D01*
X133126166Y-65716948D01*
X133126151Y-65716958D01*
X132949374Y-65852604D01*
X132949367Y-65852610D01*
X132791810Y-66010167D01*
X132791804Y-66010174D01*
X132656158Y-66186951D01*
X132656148Y-66186966D01*
X132544736Y-66379937D01*
X132544732Y-66379946D01*
X132459461Y-66585808D01*
X132401785Y-66801057D01*
X132372701Y-67021973D01*
X132372700Y-67021989D01*
X131172500Y-67021989D01*
X131172500Y-67007485D01*
X131133105Y-66758756D01*
X131055285Y-66519252D01*
X130940957Y-66294870D01*
X130792935Y-66091135D01*
X130614865Y-65913065D01*
X130411130Y-65765043D01*
X130316738Y-65716948D01*
X130186750Y-65650716D01*
X130186749Y-65650715D01*
X130186748Y-65650715D01*
X129947244Y-65572895D01*
X129947242Y-65572894D01*
X129947241Y-65572894D01*
X129756173Y-65542632D01*
X129698515Y-65533500D01*
X129446685Y-65533500D01*
X129389026Y-65542632D01*
X129197959Y-65572894D01*
X128958449Y-65650716D01*
X128734069Y-65765043D01*
X128530332Y-65913067D01*
X128352267Y-66091132D01*
X128204243Y-66294869D01*
X128089916Y-66519249D01*
X128012094Y-66758759D01*
X127972700Y-67007485D01*
X118692080Y-67007485D01*
X118699622Y-66963094D01*
X118702715Y-66949546D01*
X118738257Y-66826179D01*
X118801371Y-66607103D01*
X118805963Y-66593982D01*
X118809349Y-66585808D01*
X118942341Y-66264735D01*
X118948360Y-66252236D01*
X119120751Y-65940319D01*
X119128146Y-65928551D01*
X119334368Y-65637907D01*
X119343024Y-65627053D01*
X119580502Y-65361314D01*
X119590314Y-65351502D01*
X119856053Y-65114024D01*
X119866907Y-65105368D01*
X120157556Y-64899142D01*
X120169319Y-64891751D01*
X120481236Y-64719360D01*
X120493735Y-64713341D01*
X120822986Y-64576961D01*
X120836103Y-64572371D01*
X121178551Y-64473713D01*
X121192098Y-64470621D01*
X121543439Y-64410926D01*
X121557234Y-64409372D01*
X121875684Y-64391488D01*
X121916529Y-64389195D01*
X121923481Y-64389000D01*
X125222000Y-64389000D01*
X125222000Y-59946871D01*
X125222132Y-59941144D01*
X125238741Y-59581900D01*
X125240697Y-59539581D01*
X125241754Y-59528186D01*
X125244954Y-59505246D01*
X125296895Y-59132896D01*
X125298995Y-59121659D01*
X125390376Y-58733132D01*
X125393499Y-58722153D01*
X125520347Y-58343691D01*
X125524470Y-58333051D01*
X125685691Y-57967918D01*
X125690774Y-57957709D01*
X125884996Y-57609015D01*
X125891022Y-57599283D01*
X126116586Y-57269998D01*
X126123468Y-57260886D01*
X126378452Y-56953820D01*
X126386147Y-56945380D01*
X126668380Y-56663147D01*
X126676820Y-56655452D01*
X126983886Y-56400468D01*
X126992998Y-56393586D01*
X127322288Y-56168018D01*
X127332015Y-56161996D01*
X127680709Y-55967774D01*
X127690918Y-55962691D01*
X128056051Y-55801470D01*
X128066691Y-55797347D01*
X128381217Y-55691928D01*
X128420623Y-55685501D01*
X149970659Y-55685501D01*
X150037698Y-55705186D01*
G37*
%TD.AperFunction*%
%TD*%
M02*
