M48
; DRILL file {KiCad 9.0.6} date 2026-02-01T13:52:18+0100
; FORMAT={-:-/ absolute / inch / decimal}
; #@! TF.CreationDate,2026-02-01T13:52:18+01:00
; #@! TF.GenerationSoftware,Kicad,Pcbnew,9.0.6
; #@! TF.FileFunction,Plated,1,2,PTH
FMAT,2
INCH
; #@! TA.AperFunction,Plated,PTH,ViaDrill
T1C0.0118
; #@! TA.AperFunction,Plated,PTH,ComponentDrill
T2C0.0380
; #@! TA.AperFunction,Plated,PTH,ComponentDrill
T3C0.0394
; #@! TA.AperFunction,Plated,PTH,ComponentDrill
T4C0.0472
%
G90
G05
T1
X4.775Y-3.83
X4.805Y-3.755
X4.825Y-3.405
X4.88Y-3.575
X4.8865Y-3.94
X4.89Y-4.505
X4.93Y-3.505
X4.9337Y-3.995
X4.98Y-3.675
X5.05Y-3.51
X5.135Y-3.205
X5.14Y-3.255
X5.16Y-3.585
X5.16Y-4.61
X5.175Y-3.49
X5.18Y-2.24
X5.205Y-3.5337
X5.25Y-3.615
X5.275Y-4.23
X5.28Y-2.895
X5.305Y-4.185
X5.355Y-4.16
X5.36Y-4.315
X5.41Y-3.525
X5.43Y-3.12
X5.445Y-4.24
X5.49Y-3.12
X5.565Y-4.21
X5.575Y-3.8077
X5.59Y-3.885
X5.61Y-3.68
X5.655Y-3.735
X5.6742Y-3.585
X5.69Y-3.815
X5.71Y-3.125
X5.7304Y-3.8504
X5.735Y-3.6
X5.7534Y-3.46
X5.7701Y-3.925
X5.78Y-3.765
X5.8Y-2.85
X5.83Y-4.01
X5.836Y-3.46
X5.836Y-3.6
X5.885Y-3.525
X5.92Y-3.72
X6.06Y-3.66
X6.095Y-2.84
X6.0969Y-3.6231
X6.14Y-2.39
X6.2Y-3.485
X6.515Y-2.885
X6.615Y-2.835
X6.615Y-2.885
X6.655Y-2.885
T2
X4.913Y-4.5818
X4.913Y-4.6818
X4.913Y-4.7818
T3
X5.942Y-2.2468
X6.042Y-2.2468
X6.142Y-2.2468
X6.242Y-2.2468
X6.702Y-2.2909
X6.702Y-2.5468
X6.7034Y-2.6588
X6.7034Y-2.9147
X6.8791Y-2.2909
X6.8791Y-2.5468
X6.8806Y-2.6588
X6.8806Y-2.9147
T4
X7.1308Y-2.392
X7.1308Y-2.492
M30
