%TF.GenerationSoftware,KiCad,Pcbnew,9.0.6*%
%TF.CreationDate,2026-01-26T20:42:43+01:00*%
%TF.ProjectId,hw,68772e6b-6963-4616-945f-706362585858,rev?*%
%TF.SameCoordinates,Original*%
%TF.FileFunction,Legend,Top*%
%TF.FilePolarity,Positive*%
%FSLAX46Y46*%
G04 Gerber Fmt 4.6, Leading zero omitted, Abs format (unit mm)*
G04 Created by KiCad (PCBNEW 9.0.6) date 2026-01-26 20:42:43*
%MOMM*%
%LPD*%
G01*
G04 APERTURE LIST*
G04 Aperture macros list*
%AMRoundRect*
0 Rectangle with rounded corners*
0 $1 Rounding radius*
0 $2 $3 $4 $5 $6 $7 $8 $9 X,Y pos of 4 corners*
0 Add a 4 corners polygon primitive as box body*
4,1,4,$2,$3,$4,$5,$6,$7,$8,$9,$2,$3,0*
0 Add four circle primitives for the rounded corners*
1,1,$1+$1,$2,$3*
1,1,$1+$1,$4,$5*
1,1,$1+$1,$6,$7*
1,1,$1+$1,$8,$9*
0 Add four rect primitives between the rounded corners*
20,1,$1+$1,$2,$3,$4,$5,0*
20,1,$1+$1,$4,$5,$6,$7,0*
20,1,$1+$1,$6,$7,$8,$9,0*
20,1,$1+$1,$8,$9,$2,$3,0*%
G04 Aperture macros list end*
%ADD10C,0.150000*%
%ADD11C,0.250000*%
%ADD12C,0.254000*%
%ADD13C,0.100000*%
%ADD14C,0.127000*%
%ADD15C,0.200000*%
%ADD16C,0.120000*%
%ADD17C,0.504000*%
%ADD18C,0.152400*%
%ADD19RoundRect,0.102000X-1.600000X-0.800000X1.600000X-0.800000X1.600000X0.800000X-1.600000X0.800000X0*%
%ADD20R,1.200000X0.600000*%
%ADD21RoundRect,0.250000X-0.625000X0.400000X-0.625000X-0.400000X0.625000X-0.400000X0.625000X0.400000X0*%
%ADD22RoundRect,0.250000X0.650000X-0.412500X0.650000X0.412500X-0.650000X0.412500X-0.650000X-0.412500X0*%
%ADD23RoundRect,0.250000X0.412500X0.650000X-0.412500X0.650000X-0.412500X-0.650000X0.412500X-0.650000X0*%
%ADD24RoundRect,0.250000X0.412500X1.100000X-0.412500X1.100000X-0.412500X-1.100000X0.412500X-1.100000X0*%
%ADD25RoundRect,0.250000X0.625000X-0.400000X0.625000X0.400000X-0.625000X0.400000X-0.625000X-0.400000X0*%
%ADD26RoundRect,0.152400X-0.609600X1.063600X-0.609600X-1.063600X0.609600X-1.063600X0.609600X1.063600X0*%
%ADD27RoundRect,0.152400X0.609600X-1.063600X0.609600X1.063600X-0.609600X1.063600X-0.609600X-1.063600X0*%
%ADD28C,1.700000*%
%ADD29R,1.500000X4.000000*%
%ADD30RoundRect,0.250000X0.750000X-0.750000X0.750000X0.750000X-0.750000X0.750000X-0.750000X-0.750000X0*%
%ADD31C,2.000000*%
%ADD32RoundRect,0.250000X0.700000X-0.362500X0.700000X0.362500X-0.700000X0.362500X-0.700000X-0.362500X0*%
%ADD33C,1.473200*%
%ADD34RoundRect,0.250000X-0.325000X-1.100000X0.325000X-1.100000X0.325000X1.100000X-0.325000X1.100000X0*%
%ADD35O,1.600000X2.000000*%
%ADD36R,1.200000X0.850000*%
%ADD37RoundRect,0.102000X1.600000X0.800000X-1.600000X0.800000X-1.600000X-0.800000X1.600000X-0.800000X0*%
%ADD38R,2.000000X2.000000*%
%ADD39C,2.300000*%
%ADD40R,1.700000X0.750000*%
%ADD41RoundRect,0.270000X-0.630000X-1.180000X0.630000X-1.180000X0.630000X1.180000X-0.630000X1.180000X0*%
%ADD42RoundRect,0.375000X-0.875000X-1.125000X0.875000X-1.125000X0.875000X1.125000X-0.875000X1.125000X0*%
%ADD43R,2.200000X2.150000*%
%ADD44R,1.820000X1.160000*%
G04 APERTURE END LIST*
D10*
X185502779Y-60702866D02*
X186264684Y-60702866D01*
X185883779Y-64004866D02*
X186645684Y-64004866D01*
X186264731Y-64385819D02*
X186264731Y-63623914D01*
X165568333Y-79480580D02*
X165520714Y-79528200D01*
X165520714Y-79528200D02*
X165377857Y-79575819D01*
X165377857Y-79575819D02*
X165282619Y-79575819D01*
X165282619Y-79575819D02*
X165139762Y-79528200D01*
X165139762Y-79528200D02*
X165044524Y-79432961D01*
X165044524Y-79432961D02*
X164996905Y-79337723D01*
X164996905Y-79337723D02*
X164949286Y-79147247D01*
X164949286Y-79147247D02*
X164949286Y-79004390D01*
X164949286Y-79004390D02*
X164996905Y-78813914D01*
X164996905Y-78813914D02*
X165044524Y-78718676D01*
X165044524Y-78718676D02*
X165139762Y-78623438D01*
X165139762Y-78623438D02*
X165282619Y-78575819D01*
X165282619Y-78575819D02*
X165377857Y-78575819D01*
X165377857Y-78575819D02*
X165520714Y-78623438D01*
X165520714Y-78623438D02*
X165568333Y-78671057D01*
X166473095Y-78575819D02*
X165996905Y-78575819D01*
X165996905Y-78575819D02*
X165949286Y-79052009D01*
X165949286Y-79052009D02*
X165996905Y-79004390D01*
X165996905Y-79004390D02*
X166092143Y-78956771D01*
X166092143Y-78956771D02*
X166330238Y-78956771D01*
X166330238Y-78956771D02*
X166425476Y-79004390D01*
X166425476Y-79004390D02*
X166473095Y-79052009D01*
X166473095Y-79052009D02*
X166520714Y-79147247D01*
X166520714Y-79147247D02*
X166520714Y-79385342D01*
X166520714Y-79385342D02*
X166473095Y-79480580D01*
X166473095Y-79480580D02*
X166425476Y-79528200D01*
X166425476Y-79528200D02*
X166330238Y-79575819D01*
X166330238Y-79575819D02*
X166092143Y-79575819D01*
X166092143Y-79575819D02*
X165996905Y-79528200D01*
X165996905Y-79528200D02*
X165949286Y-79480580D01*
D11*
X143692714Y-91508619D02*
X143692714Y-90508619D01*
X143692714Y-90508619D02*
X144073666Y-90508619D01*
X144073666Y-90508619D02*
X144168904Y-90556238D01*
X144168904Y-90556238D02*
X144216523Y-90603857D01*
X144216523Y-90603857D02*
X144264142Y-90699095D01*
X144264142Y-90699095D02*
X144264142Y-90841952D01*
X144264142Y-90841952D02*
X144216523Y-90937190D01*
X144216523Y-90937190D02*
X144168904Y-90984809D01*
X144168904Y-90984809D02*
X144073666Y-91032428D01*
X144073666Y-91032428D02*
X143692714Y-91032428D01*
X144645095Y-91461000D02*
X144787952Y-91508619D01*
X144787952Y-91508619D02*
X145026047Y-91508619D01*
X145026047Y-91508619D02*
X145121285Y-91461000D01*
X145121285Y-91461000D02*
X145168904Y-91413380D01*
X145168904Y-91413380D02*
X145216523Y-91318142D01*
X145216523Y-91318142D02*
X145216523Y-91222904D01*
X145216523Y-91222904D02*
X145168904Y-91127666D01*
X145168904Y-91127666D02*
X145121285Y-91080047D01*
X145121285Y-91080047D02*
X145026047Y-91032428D01*
X145026047Y-91032428D02*
X144835571Y-90984809D01*
X144835571Y-90984809D02*
X144740333Y-90937190D01*
X144740333Y-90937190D02*
X144692714Y-90889571D01*
X144692714Y-90889571D02*
X144645095Y-90794333D01*
X144645095Y-90794333D02*
X144645095Y-90699095D01*
X144645095Y-90699095D02*
X144692714Y-90603857D01*
X144692714Y-90603857D02*
X144740333Y-90556238D01*
X144740333Y-90556238D02*
X144835571Y-90508619D01*
X144835571Y-90508619D02*
X145073666Y-90508619D01*
X145073666Y-90508619D02*
X145216523Y-90556238D01*
X146168904Y-91508619D02*
X145597476Y-91508619D01*
X145883190Y-91508619D02*
X145883190Y-90508619D01*
X145883190Y-90508619D02*
X145787952Y-90651476D01*
X145787952Y-90651476D02*
X145692714Y-90746714D01*
X145692714Y-90746714D02*
X145597476Y-90794333D01*
D10*
X135888819Y-86780666D02*
X135412628Y-87113999D01*
X135888819Y-87352094D02*
X134888819Y-87352094D01*
X134888819Y-87352094D02*
X134888819Y-86971142D01*
X134888819Y-86971142D02*
X134936438Y-86875904D01*
X134936438Y-86875904D02*
X134984057Y-86828285D01*
X134984057Y-86828285D02*
X135079295Y-86780666D01*
X135079295Y-86780666D02*
X135222152Y-86780666D01*
X135222152Y-86780666D02*
X135317390Y-86828285D01*
X135317390Y-86828285D02*
X135365009Y-86875904D01*
X135365009Y-86875904D02*
X135412628Y-86971142D01*
X135412628Y-86971142D02*
X135412628Y-87352094D01*
X135222152Y-85923523D02*
X135888819Y-85923523D01*
X134841200Y-86161618D02*
X135555485Y-86399713D01*
X135555485Y-86399713D02*
X135555485Y-85780666D01*
X133455580Y-121578666D02*
X133503200Y-121626285D01*
X133503200Y-121626285D02*
X133550819Y-121769142D01*
X133550819Y-121769142D02*
X133550819Y-121864380D01*
X133550819Y-121864380D02*
X133503200Y-122007237D01*
X133503200Y-122007237D02*
X133407961Y-122102475D01*
X133407961Y-122102475D02*
X133312723Y-122150094D01*
X133312723Y-122150094D02*
X133122247Y-122197713D01*
X133122247Y-122197713D02*
X132979390Y-122197713D01*
X132979390Y-122197713D02*
X132788914Y-122150094D01*
X132788914Y-122150094D02*
X132693676Y-122102475D01*
X132693676Y-122102475D02*
X132598438Y-122007237D01*
X132598438Y-122007237D02*
X132550819Y-121864380D01*
X132550819Y-121864380D02*
X132550819Y-121769142D01*
X132550819Y-121769142D02*
X132598438Y-121626285D01*
X132598438Y-121626285D02*
X132646057Y-121578666D01*
X132550819Y-121245332D02*
X132550819Y-120626285D01*
X132550819Y-120626285D02*
X132931771Y-120959618D01*
X132931771Y-120959618D02*
X132931771Y-120816761D01*
X132931771Y-120816761D02*
X132979390Y-120721523D01*
X132979390Y-120721523D02*
X133027009Y-120673904D01*
X133027009Y-120673904D02*
X133122247Y-120626285D01*
X133122247Y-120626285D02*
X133360342Y-120626285D01*
X133360342Y-120626285D02*
X133455580Y-120673904D01*
X133455580Y-120673904D02*
X133503200Y-120721523D01*
X133503200Y-120721523D02*
X133550819Y-120816761D01*
X133550819Y-120816761D02*
X133550819Y-121102475D01*
X133550819Y-121102475D02*
X133503200Y-121197713D01*
X133503200Y-121197713D02*
X133455580Y-121245332D01*
X127722333Y-91363580D02*
X127674714Y-91411200D01*
X127674714Y-91411200D02*
X127531857Y-91458819D01*
X127531857Y-91458819D02*
X127436619Y-91458819D01*
X127436619Y-91458819D02*
X127293762Y-91411200D01*
X127293762Y-91411200D02*
X127198524Y-91315961D01*
X127198524Y-91315961D02*
X127150905Y-91220723D01*
X127150905Y-91220723D02*
X127103286Y-91030247D01*
X127103286Y-91030247D02*
X127103286Y-90887390D01*
X127103286Y-90887390D02*
X127150905Y-90696914D01*
X127150905Y-90696914D02*
X127198524Y-90601676D01*
X127198524Y-90601676D02*
X127293762Y-90506438D01*
X127293762Y-90506438D02*
X127436619Y-90458819D01*
X127436619Y-90458819D02*
X127531857Y-90458819D01*
X127531857Y-90458819D02*
X127674714Y-90506438D01*
X127674714Y-90506438D02*
X127722333Y-90554057D01*
X128103286Y-90554057D02*
X128150905Y-90506438D01*
X128150905Y-90506438D02*
X128246143Y-90458819D01*
X128246143Y-90458819D02*
X128484238Y-90458819D01*
X128484238Y-90458819D02*
X128579476Y-90506438D01*
X128579476Y-90506438D02*
X128627095Y-90554057D01*
X128627095Y-90554057D02*
X128674714Y-90649295D01*
X128674714Y-90649295D02*
X128674714Y-90744533D01*
X128674714Y-90744533D02*
X128627095Y-90887390D01*
X128627095Y-90887390D02*
X128055667Y-91458819D01*
X128055667Y-91458819D02*
X128674714Y-91458819D01*
X143541857Y-104640580D02*
X143494238Y-104688200D01*
X143494238Y-104688200D02*
X143351381Y-104735819D01*
X143351381Y-104735819D02*
X143256143Y-104735819D01*
X143256143Y-104735819D02*
X143113286Y-104688200D01*
X143113286Y-104688200D02*
X143018048Y-104592961D01*
X143018048Y-104592961D02*
X142970429Y-104497723D01*
X142970429Y-104497723D02*
X142922810Y-104307247D01*
X142922810Y-104307247D02*
X142922810Y-104164390D01*
X142922810Y-104164390D02*
X142970429Y-103973914D01*
X142970429Y-103973914D02*
X143018048Y-103878676D01*
X143018048Y-103878676D02*
X143113286Y-103783438D01*
X143113286Y-103783438D02*
X143256143Y-103735819D01*
X143256143Y-103735819D02*
X143351381Y-103735819D01*
X143351381Y-103735819D02*
X143494238Y-103783438D01*
X143494238Y-103783438D02*
X143541857Y-103831057D01*
X143970429Y-104735819D02*
X143970429Y-104069152D01*
X143970429Y-103735819D02*
X143922810Y-103783438D01*
X143922810Y-103783438D02*
X143970429Y-103831057D01*
X143970429Y-103831057D02*
X144018048Y-103783438D01*
X144018048Y-103783438D02*
X143970429Y-103735819D01*
X143970429Y-103735819D02*
X143970429Y-103831057D01*
X144446619Y-104069152D02*
X144446619Y-104735819D01*
X144446619Y-104164390D02*
X144494238Y-104116771D01*
X144494238Y-104116771D02*
X144589476Y-104069152D01*
X144589476Y-104069152D02*
X144732333Y-104069152D01*
X144732333Y-104069152D02*
X144827571Y-104116771D01*
X144827571Y-104116771D02*
X144875190Y-104212009D01*
X144875190Y-104212009D02*
X144875190Y-104735819D01*
X145875190Y-104735819D02*
X145303762Y-104735819D01*
X145589476Y-104735819D02*
X145589476Y-103735819D01*
X145589476Y-103735819D02*
X145494238Y-103878676D01*
X145494238Y-103878676D02*
X145399000Y-103973914D01*
X145399000Y-103973914D02*
X145303762Y-104021533D01*
X121687819Y-84875666D02*
X121211628Y-85208999D01*
X121687819Y-85447094D02*
X120687819Y-85447094D01*
X120687819Y-85447094D02*
X120687819Y-85066142D01*
X120687819Y-85066142D02*
X120735438Y-84970904D01*
X120735438Y-84970904D02*
X120783057Y-84923285D01*
X120783057Y-84923285D02*
X120878295Y-84875666D01*
X120878295Y-84875666D02*
X121021152Y-84875666D01*
X121021152Y-84875666D02*
X121116390Y-84923285D01*
X121116390Y-84923285D02*
X121164009Y-84970904D01*
X121164009Y-84970904D02*
X121211628Y-85066142D01*
X121211628Y-85066142D02*
X121211628Y-85447094D01*
X120687819Y-84542332D02*
X120687819Y-83923285D01*
X120687819Y-83923285D02*
X121068771Y-84256618D01*
X121068771Y-84256618D02*
X121068771Y-84113761D01*
X121068771Y-84113761D02*
X121116390Y-84018523D01*
X121116390Y-84018523D02*
X121164009Y-83970904D01*
X121164009Y-83970904D02*
X121259247Y-83923285D01*
X121259247Y-83923285D02*
X121497342Y-83923285D01*
X121497342Y-83923285D02*
X121592580Y-83970904D01*
X121592580Y-83970904D02*
X121640200Y-84018523D01*
X121640200Y-84018523D02*
X121687819Y-84113761D01*
X121687819Y-84113761D02*
X121687819Y-84399475D01*
X121687819Y-84399475D02*
X121640200Y-84494713D01*
X121640200Y-84494713D02*
X121592580Y-84542332D01*
X121572580Y-79160666D02*
X121620200Y-79208285D01*
X121620200Y-79208285D02*
X121667819Y-79351142D01*
X121667819Y-79351142D02*
X121667819Y-79446380D01*
X121667819Y-79446380D02*
X121620200Y-79589237D01*
X121620200Y-79589237D02*
X121524961Y-79684475D01*
X121524961Y-79684475D02*
X121429723Y-79732094D01*
X121429723Y-79732094D02*
X121239247Y-79779713D01*
X121239247Y-79779713D02*
X121096390Y-79779713D01*
X121096390Y-79779713D02*
X120905914Y-79732094D01*
X120905914Y-79732094D02*
X120810676Y-79684475D01*
X120810676Y-79684475D02*
X120715438Y-79589237D01*
X120715438Y-79589237D02*
X120667819Y-79446380D01*
X120667819Y-79446380D02*
X120667819Y-79351142D01*
X120667819Y-79351142D02*
X120715438Y-79208285D01*
X120715438Y-79208285D02*
X120763057Y-79160666D01*
X121667819Y-78208285D02*
X121667819Y-78779713D01*
X121667819Y-78493999D02*
X120667819Y-78493999D01*
X120667819Y-78493999D02*
X120810676Y-78589237D01*
X120810676Y-78589237D02*
X120905914Y-78684475D01*
X120905914Y-78684475D02*
X120953533Y-78779713D01*
X138628819Y-87714666D02*
X138152628Y-88047999D01*
X138628819Y-88286094D02*
X137628819Y-88286094D01*
X137628819Y-88286094D02*
X137628819Y-87905142D01*
X137628819Y-87905142D02*
X137676438Y-87809904D01*
X137676438Y-87809904D02*
X137724057Y-87762285D01*
X137724057Y-87762285D02*
X137819295Y-87714666D01*
X137819295Y-87714666D02*
X137962152Y-87714666D01*
X137962152Y-87714666D02*
X138057390Y-87762285D01*
X138057390Y-87762285D02*
X138105009Y-87809904D01*
X138105009Y-87809904D02*
X138152628Y-87905142D01*
X138152628Y-87905142D02*
X138152628Y-88286094D01*
X137628819Y-86809904D02*
X137628819Y-87286094D01*
X137628819Y-87286094D02*
X138105009Y-87333713D01*
X138105009Y-87333713D02*
X138057390Y-87286094D01*
X138057390Y-87286094D02*
X138009771Y-87190856D01*
X138009771Y-87190856D02*
X138009771Y-86952761D01*
X138009771Y-86952761D02*
X138057390Y-86857523D01*
X138057390Y-86857523D02*
X138105009Y-86809904D01*
X138105009Y-86809904D02*
X138200247Y-86762285D01*
X138200247Y-86762285D02*
X138438342Y-86762285D01*
X138438342Y-86762285D02*
X138533580Y-86809904D01*
X138533580Y-86809904D02*
X138581200Y-86857523D01*
X138581200Y-86857523D02*
X138628819Y-86952761D01*
X138628819Y-86952761D02*
X138628819Y-87190856D01*
X138628819Y-87190856D02*
X138581200Y-87286094D01*
X138581200Y-87286094D02*
X138533580Y-87333713D01*
X176987200Y-62719332D02*
X177034819Y-62576475D01*
X177034819Y-62576475D02*
X177034819Y-62338380D01*
X177034819Y-62338380D02*
X176987200Y-62243142D01*
X176987200Y-62243142D02*
X176939580Y-62195523D01*
X176939580Y-62195523D02*
X176844342Y-62147904D01*
X176844342Y-62147904D02*
X176749104Y-62147904D01*
X176749104Y-62147904D02*
X176653866Y-62195523D01*
X176653866Y-62195523D02*
X176606247Y-62243142D01*
X176606247Y-62243142D02*
X176558628Y-62338380D01*
X176558628Y-62338380D02*
X176511009Y-62528856D01*
X176511009Y-62528856D02*
X176463390Y-62624094D01*
X176463390Y-62624094D02*
X176415771Y-62671713D01*
X176415771Y-62671713D02*
X176320533Y-62719332D01*
X176320533Y-62719332D02*
X176225295Y-62719332D01*
X176225295Y-62719332D02*
X176130057Y-62671713D01*
X176130057Y-62671713D02*
X176082438Y-62624094D01*
X176082438Y-62624094D02*
X176034819Y-62528856D01*
X176034819Y-62528856D02*
X176034819Y-62290761D01*
X176034819Y-62290761D02*
X176082438Y-62147904D01*
X176034819Y-61814570D02*
X177034819Y-61576475D01*
X177034819Y-61576475D02*
X176320533Y-61385999D01*
X176320533Y-61385999D02*
X177034819Y-61195523D01*
X177034819Y-61195523D02*
X176034819Y-60957428D01*
X176034819Y-60671713D02*
X176034819Y-60052666D01*
X176034819Y-60052666D02*
X176415771Y-60385999D01*
X176415771Y-60385999D02*
X176415771Y-60243142D01*
X176415771Y-60243142D02*
X176463390Y-60147904D01*
X176463390Y-60147904D02*
X176511009Y-60100285D01*
X176511009Y-60100285D02*
X176606247Y-60052666D01*
X176606247Y-60052666D02*
X176844342Y-60052666D01*
X176844342Y-60052666D02*
X176939580Y-60100285D01*
X176939580Y-60100285D02*
X176987200Y-60147904D01*
X176987200Y-60147904D02*
X177034819Y-60243142D01*
X177034819Y-60243142D02*
X177034819Y-60528856D01*
X177034819Y-60528856D02*
X176987200Y-60624094D01*
X176987200Y-60624094D02*
X176939580Y-60671713D01*
D12*
X157903333Y-96586318D02*
X157298571Y-96586318D01*
X157298571Y-96586318D02*
X157298571Y-95316318D01*
X158991905Y-96586318D02*
X158266190Y-96586318D01*
X158629047Y-96586318D02*
X158629047Y-95316318D01*
X158629047Y-95316318D02*
X158508095Y-95497746D01*
X158508095Y-95497746D02*
X158387143Y-95618699D01*
X158387143Y-95618699D02*
X158266190Y-95679175D01*
D10*
X180818666Y-57411819D02*
X180818666Y-58126104D01*
X180818666Y-58126104D02*
X180771047Y-58268961D01*
X180771047Y-58268961D02*
X180675809Y-58364200D01*
X180675809Y-58364200D02*
X180532952Y-58411819D01*
X180532952Y-58411819D02*
X180437714Y-58411819D01*
X181818666Y-58411819D02*
X181247238Y-58411819D01*
X181532952Y-58411819D02*
X181532952Y-57411819D01*
X181532952Y-57411819D02*
X181437714Y-57554676D01*
X181437714Y-57554676D02*
X181342476Y-57649914D01*
X181342476Y-57649914D02*
X181247238Y-57697533D01*
X143334819Y-87669666D02*
X143334819Y-88145856D01*
X143334819Y-88145856D02*
X142334819Y-88145856D01*
X142430057Y-87383951D02*
X142382438Y-87336332D01*
X142382438Y-87336332D02*
X142334819Y-87241094D01*
X142334819Y-87241094D02*
X142334819Y-87002999D01*
X142334819Y-87002999D02*
X142382438Y-86907761D01*
X142382438Y-86907761D02*
X142430057Y-86860142D01*
X142430057Y-86860142D02*
X142525295Y-86812523D01*
X142525295Y-86812523D02*
X142620533Y-86812523D01*
X142620533Y-86812523D02*
X142763390Y-86860142D01*
X142763390Y-86860142D02*
X143334819Y-87431570D01*
X143334819Y-87431570D02*
X143334819Y-86812523D01*
X151382819Y-101901476D02*
X150906628Y-102234809D01*
X151382819Y-102472904D02*
X150382819Y-102472904D01*
X150382819Y-102472904D02*
X150382819Y-102091952D01*
X150382819Y-102091952D02*
X150430438Y-101996714D01*
X150430438Y-101996714D02*
X150478057Y-101949095D01*
X150478057Y-101949095D02*
X150573295Y-101901476D01*
X150573295Y-101901476D02*
X150716152Y-101901476D01*
X150716152Y-101901476D02*
X150811390Y-101949095D01*
X150811390Y-101949095D02*
X150859009Y-101996714D01*
X150859009Y-101996714D02*
X150906628Y-102091952D01*
X150906628Y-102091952D02*
X150906628Y-102472904D01*
X150716152Y-101615761D02*
X150716152Y-101234809D01*
X151382819Y-101472904D02*
X150525676Y-101472904D01*
X150525676Y-101472904D02*
X150430438Y-101425285D01*
X150430438Y-101425285D02*
X150382819Y-101330047D01*
X150382819Y-101330047D02*
X150382819Y-101234809D01*
X151382819Y-100901475D02*
X150382819Y-100901475D01*
X150763771Y-100901475D02*
X150716152Y-100806237D01*
X150716152Y-100806237D02*
X150716152Y-100615761D01*
X150716152Y-100615761D02*
X150763771Y-100520523D01*
X150763771Y-100520523D02*
X150811390Y-100472904D01*
X150811390Y-100472904D02*
X150906628Y-100425285D01*
X150906628Y-100425285D02*
X151192342Y-100425285D01*
X151192342Y-100425285D02*
X151287580Y-100472904D01*
X151287580Y-100472904D02*
X151335200Y-100520523D01*
X151335200Y-100520523D02*
X151382819Y-100615761D01*
X151382819Y-100615761D02*
X151382819Y-100806237D01*
X151382819Y-100806237D02*
X151335200Y-100901475D01*
X150716152Y-100139570D02*
X150716152Y-99758618D01*
X150382819Y-99996713D02*
X151239961Y-99996713D01*
X151239961Y-99996713D02*
X151335200Y-99949094D01*
X151335200Y-99949094D02*
X151382819Y-99853856D01*
X151382819Y-99853856D02*
X151382819Y-99758618D01*
X151382819Y-98901475D02*
X151382819Y-99472903D01*
X151382819Y-99187189D02*
X150382819Y-99187189D01*
X150382819Y-99187189D02*
X150525676Y-99282427D01*
X150525676Y-99282427D02*
X150620914Y-99377665D01*
X150620914Y-99377665D02*
X150668533Y-99472903D01*
X136598819Y-121578666D02*
X136122628Y-121911999D01*
X136598819Y-122150094D02*
X135598819Y-122150094D01*
X135598819Y-122150094D02*
X135598819Y-121769142D01*
X135598819Y-121769142D02*
X135646438Y-121673904D01*
X135646438Y-121673904D02*
X135694057Y-121626285D01*
X135694057Y-121626285D02*
X135789295Y-121578666D01*
X135789295Y-121578666D02*
X135932152Y-121578666D01*
X135932152Y-121578666D02*
X136027390Y-121626285D01*
X136027390Y-121626285D02*
X136075009Y-121673904D01*
X136075009Y-121673904D02*
X136122628Y-121769142D01*
X136122628Y-121769142D02*
X136122628Y-122150094D01*
X135598819Y-120721523D02*
X135598819Y-120911999D01*
X135598819Y-120911999D02*
X135646438Y-121007237D01*
X135646438Y-121007237D02*
X135694057Y-121054856D01*
X135694057Y-121054856D02*
X135836914Y-121150094D01*
X135836914Y-121150094D02*
X136027390Y-121197713D01*
X136027390Y-121197713D02*
X136408342Y-121197713D01*
X136408342Y-121197713D02*
X136503580Y-121150094D01*
X136503580Y-121150094D02*
X136551200Y-121102475D01*
X136551200Y-121102475D02*
X136598819Y-121007237D01*
X136598819Y-121007237D02*
X136598819Y-120816761D01*
X136598819Y-120816761D02*
X136551200Y-120721523D01*
X136551200Y-120721523D02*
X136503580Y-120673904D01*
X136503580Y-120673904D02*
X136408342Y-120626285D01*
X136408342Y-120626285D02*
X136170247Y-120626285D01*
X136170247Y-120626285D02*
X136075009Y-120673904D01*
X136075009Y-120673904D02*
X136027390Y-120721523D01*
X136027390Y-120721523D02*
X135979771Y-120816761D01*
X135979771Y-120816761D02*
X135979771Y-121007237D01*
X135979771Y-121007237D02*
X136027390Y-121102475D01*
X136027390Y-121102475D02*
X136075009Y-121150094D01*
X136075009Y-121150094D02*
X136170247Y-121197713D01*
X129629819Y-122300904D02*
X130439342Y-122300904D01*
X130439342Y-122300904D02*
X130534580Y-122253285D01*
X130534580Y-122253285D02*
X130582200Y-122205666D01*
X130582200Y-122205666D02*
X130629819Y-122110428D01*
X130629819Y-122110428D02*
X130629819Y-121919952D01*
X130629819Y-121919952D02*
X130582200Y-121824714D01*
X130582200Y-121824714D02*
X130534580Y-121777095D01*
X130534580Y-121777095D02*
X130439342Y-121729476D01*
X130439342Y-121729476D02*
X129629819Y-121729476D01*
X129629819Y-121348523D02*
X129629819Y-120729476D01*
X129629819Y-120729476D02*
X130010771Y-121062809D01*
X130010771Y-121062809D02*
X130010771Y-120919952D01*
X130010771Y-120919952D02*
X130058390Y-120824714D01*
X130058390Y-120824714D02*
X130106009Y-120777095D01*
X130106009Y-120777095D02*
X130201247Y-120729476D01*
X130201247Y-120729476D02*
X130439342Y-120729476D01*
X130439342Y-120729476D02*
X130534580Y-120777095D01*
X130534580Y-120777095D02*
X130582200Y-120824714D01*
X130582200Y-120824714D02*
X130629819Y-120919952D01*
X130629819Y-120919952D02*
X130629819Y-121205666D01*
X130629819Y-121205666D02*
X130582200Y-121300904D01*
X130582200Y-121300904D02*
X130534580Y-121348523D01*
X158464428Y-84800580D02*
X158416809Y-84848200D01*
X158416809Y-84848200D02*
X158273952Y-84895819D01*
X158273952Y-84895819D02*
X158178714Y-84895819D01*
X158178714Y-84895819D02*
X158035857Y-84848200D01*
X158035857Y-84848200D02*
X157940619Y-84752961D01*
X157940619Y-84752961D02*
X157893000Y-84657723D01*
X157893000Y-84657723D02*
X157845381Y-84467247D01*
X157845381Y-84467247D02*
X157845381Y-84324390D01*
X157845381Y-84324390D02*
X157893000Y-84133914D01*
X157893000Y-84133914D02*
X157940619Y-84038676D01*
X157940619Y-84038676D02*
X158035857Y-83943438D01*
X158035857Y-83943438D02*
X158178714Y-83895819D01*
X158178714Y-83895819D02*
X158273952Y-83895819D01*
X158273952Y-83895819D02*
X158416809Y-83943438D01*
X158416809Y-83943438D02*
X158464428Y-83991057D01*
X159083476Y-83895819D02*
X159273952Y-83895819D01*
X159273952Y-83895819D02*
X159369190Y-83943438D01*
X159369190Y-83943438D02*
X159464428Y-84038676D01*
X159464428Y-84038676D02*
X159512047Y-84229152D01*
X159512047Y-84229152D02*
X159512047Y-84562485D01*
X159512047Y-84562485D02*
X159464428Y-84752961D01*
X159464428Y-84752961D02*
X159369190Y-84848200D01*
X159369190Y-84848200D02*
X159273952Y-84895819D01*
X159273952Y-84895819D02*
X159083476Y-84895819D01*
X159083476Y-84895819D02*
X158988238Y-84848200D01*
X158988238Y-84848200D02*
X158893000Y-84752961D01*
X158893000Y-84752961D02*
X158845381Y-84562485D01*
X158845381Y-84562485D02*
X158845381Y-84229152D01*
X158845381Y-84229152D02*
X158893000Y-84038676D01*
X158893000Y-84038676D02*
X158988238Y-83943438D01*
X158988238Y-83943438D02*
X159083476Y-83895819D01*
X160369190Y-84229152D02*
X160369190Y-84895819D01*
X159940619Y-84229152D02*
X159940619Y-84752961D01*
X159940619Y-84752961D02*
X159988238Y-84848200D01*
X159988238Y-84848200D02*
X160083476Y-84895819D01*
X160083476Y-84895819D02*
X160226333Y-84895819D01*
X160226333Y-84895819D02*
X160321571Y-84848200D01*
X160321571Y-84848200D02*
X160369190Y-84800580D01*
X160702524Y-84229152D02*
X161083476Y-84229152D01*
X160845381Y-83895819D02*
X160845381Y-84752961D01*
X160845381Y-84752961D02*
X160893000Y-84848200D01*
X160893000Y-84848200D02*
X160988238Y-84895819D01*
X160988238Y-84895819D02*
X161083476Y-84895819D01*
X161940619Y-84895819D02*
X161369191Y-84895819D01*
X161654905Y-84895819D02*
X161654905Y-83895819D01*
X161654905Y-83895819D02*
X161559667Y-84038676D01*
X161559667Y-84038676D02*
X161464429Y-84133914D01*
X161464429Y-84133914D02*
X161369191Y-84181533D01*
X152617428Y-67376819D02*
X152807904Y-67376819D01*
X152807904Y-67376819D02*
X152903142Y-67424438D01*
X152903142Y-67424438D02*
X152998380Y-67519676D01*
X152998380Y-67519676D02*
X153045999Y-67710152D01*
X153045999Y-67710152D02*
X153045999Y-68043485D01*
X153045999Y-68043485D02*
X152998380Y-68233961D01*
X152998380Y-68233961D02*
X152903142Y-68329200D01*
X152903142Y-68329200D02*
X152807904Y-68376819D01*
X152807904Y-68376819D02*
X152617428Y-68376819D01*
X152617428Y-68376819D02*
X152522190Y-68329200D01*
X152522190Y-68329200D02*
X152426952Y-68233961D01*
X152426952Y-68233961D02*
X152379333Y-68043485D01*
X152379333Y-68043485D02*
X152379333Y-67710152D01*
X152379333Y-67710152D02*
X152426952Y-67519676D01*
X152426952Y-67519676D02*
X152522190Y-67424438D01*
X152522190Y-67424438D02*
X152617428Y-67376819D01*
X153950761Y-68376819D02*
X153474571Y-68376819D01*
X153474571Y-68376819D02*
X153474571Y-67376819D01*
X154284095Y-67853009D02*
X154617428Y-67853009D01*
X154760285Y-68376819D02*
X154284095Y-68376819D01*
X154284095Y-68376819D02*
X154284095Y-67376819D01*
X154284095Y-67376819D02*
X154760285Y-67376819D01*
X155188857Y-68376819D02*
X155188857Y-67376819D01*
X155188857Y-67376819D02*
X155426952Y-67376819D01*
X155426952Y-67376819D02*
X155569809Y-67424438D01*
X155569809Y-67424438D02*
X155665047Y-67519676D01*
X155665047Y-67519676D02*
X155712666Y-67614914D01*
X155712666Y-67614914D02*
X155760285Y-67805390D01*
X155760285Y-67805390D02*
X155760285Y-67948247D01*
X155760285Y-67948247D02*
X155712666Y-68138723D01*
X155712666Y-68138723D02*
X155665047Y-68233961D01*
X155665047Y-68233961D02*
X155569809Y-68329200D01*
X155569809Y-68329200D02*
X155426952Y-68376819D01*
X155426952Y-68376819D02*
X155188857Y-68376819D01*
X156712666Y-68376819D02*
X156141238Y-68376819D01*
X156426952Y-68376819D02*
X156426952Y-67376819D01*
X156426952Y-67376819D02*
X156331714Y-67519676D01*
X156331714Y-67519676D02*
X156236476Y-67614914D01*
X156236476Y-67614914D02*
X156141238Y-67662533D01*
D12*
X183454318Y-75740381D02*
X182184318Y-75740381D01*
X182184318Y-75740381D02*
X182184318Y-75438000D01*
X182184318Y-75438000D02*
X182244794Y-75256571D01*
X182244794Y-75256571D02*
X182365746Y-75135619D01*
X182365746Y-75135619D02*
X182486699Y-75075142D01*
X182486699Y-75075142D02*
X182728603Y-75014666D01*
X182728603Y-75014666D02*
X182910032Y-75014666D01*
X182910032Y-75014666D02*
X183151937Y-75075142D01*
X183151937Y-75075142D02*
X183272889Y-75135619D01*
X183272889Y-75135619D02*
X183393842Y-75256571D01*
X183393842Y-75256571D02*
X183454318Y-75438000D01*
X183454318Y-75438000D02*
X183454318Y-75740381D01*
X183454318Y-73805142D02*
X183454318Y-74530857D01*
X183454318Y-74168000D02*
X182184318Y-74168000D01*
X182184318Y-74168000D02*
X182365746Y-74288952D01*
X182365746Y-74288952D02*
X182486699Y-74409904D01*
X182486699Y-74409904D02*
X182547175Y-74530857D01*
D10*
X149566333Y-78718580D02*
X149518714Y-78766200D01*
X149518714Y-78766200D02*
X149375857Y-78813819D01*
X149375857Y-78813819D02*
X149280619Y-78813819D01*
X149280619Y-78813819D02*
X149137762Y-78766200D01*
X149137762Y-78766200D02*
X149042524Y-78670961D01*
X149042524Y-78670961D02*
X148994905Y-78575723D01*
X148994905Y-78575723D02*
X148947286Y-78385247D01*
X148947286Y-78385247D02*
X148947286Y-78242390D01*
X148947286Y-78242390D02*
X148994905Y-78051914D01*
X148994905Y-78051914D02*
X149042524Y-77956676D01*
X149042524Y-77956676D02*
X149137762Y-77861438D01*
X149137762Y-77861438D02*
X149280619Y-77813819D01*
X149280619Y-77813819D02*
X149375857Y-77813819D01*
X149375857Y-77813819D02*
X149518714Y-77861438D01*
X149518714Y-77861438D02*
X149566333Y-77909057D01*
X150423476Y-78147152D02*
X150423476Y-78813819D01*
X150185381Y-77766200D02*
X149947286Y-78480485D01*
X149947286Y-78480485D02*
X150566333Y-78480485D01*
X176987200Y-72371332D02*
X177034819Y-72228475D01*
X177034819Y-72228475D02*
X177034819Y-71990380D01*
X177034819Y-71990380D02*
X176987200Y-71895142D01*
X176987200Y-71895142D02*
X176939580Y-71847523D01*
X176939580Y-71847523D02*
X176844342Y-71799904D01*
X176844342Y-71799904D02*
X176749104Y-71799904D01*
X176749104Y-71799904D02*
X176653866Y-71847523D01*
X176653866Y-71847523D02*
X176606247Y-71895142D01*
X176606247Y-71895142D02*
X176558628Y-71990380D01*
X176558628Y-71990380D02*
X176511009Y-72180856D01*
X176511009Y-72180856D02*
X176463390Y-72276094D01*
X176463390Y-72276094D02*
X176415771Y-72323713D01*
X176415771Y-72323713D02*
X176320533Y-72371332D01*
X176320533Y-72371332D02*
X176225295Y-72371332D01*
X176225295Y-72371332D02*
X176130057Y-72323713D01*
X176130057Y-72323713D02*
X176082438Y-72276094D01*
X176082438Y-72276094D02*
X176034819Y-72180856D01*
X176034819Y-72180856D02*
X176034819Y-71942761D01*
X176034819Y-71942761D02*
X176082438Y-71799904D01*
X176034819Y-71466570D02*
X177034819Y-71228475D01*
X177034819Y-71228475D02*
X176320533Y-71037999D01*
X176320533Y-71037999D02*
X177034819Y-70847523D01*
X177034819Y-70847523D02*
X176034819Y-70609428D01*
X176368152Y-69799904D02*
X177034819Y-69799904D01*
X175987200Y-70037999D02*
X176701485Y-70276094D01*
X176701485Y-70276094D02*
X176701485Y-69657047D01*
X148598095Y-90420819D02*
X149169523Y-90420819D01*
X148883809Y-91420819D02*
X148883809Y-90420819D01*
X149502857Y-91420819D02*
X149502857Y-90420819D01*
X149502857Y-90420819D02*
X149883809Y-90420819D01*
X149883809Y-90420819D02*
X149979047Y-90468438D01*
X149979047Y-90468438D02*
X150026666Y-90516057D01*
X150026666Y-90516057D02*
X150074285Y-90611295D01*
X150074285Y-90611295D02*
X150074285Y-90754152D01*
X150074285Y-90754152D02*
X150026666Y-90849390D01*
X150026666Y-90849390D02*
X149979047Y-90897009D01*
X149979047Y-90897009D02*
X149883809Y-90944628D01*
X149883809Y-90944628D02*
X149502857Y-90944628D01*
X151026666Y-91420819D02*
X150455238Y-91420819D01*
X150740952Y-91420819D02*
X150740952Y-90420819D01*
X150740952Y-90420819D02*
X150645714Y-90563676D01*
X150645714Y-90563676D02*
X150550476Y-90658914D01*
X150550476Y-90658914D02*
X150455238Y-90706533D01*
D12*
X141286809Y-77536318D02*
X140682047Y-77536318D01*
X140682047Y-77536318D02*
X140682047Y-76266318D01*
X141710142Y-76871080D02*
X142133476Y-76871080D01*
X142314904Y-77536318D02*
X141710142Y-77536318D01*
X141710142Y-77536318D02*
X141710142Y-76266318D01*
X141710142Y-76266318D02*
X142314904Y-76266318D01*
X142859190Y-77536318D02*
X142859190Y-76266318D01*
X142859190Y-76266318D02*
X143161571Y-76266318D01*
X143161571Y-76266318D02*
X143343000Y-76326794D01*
X143343000Y-76326794D02*
X143463952Y-76447746D01*
X143463952Y-76447746D02*
X143524429Y-76568699D01*
X143524429Y-76568699D02*
X143584905Y-76810603D01*
X143584905Y-76810603D02*
X143584905Y-76992032D01*
X143584905Y-76992032D02*
X143524429Y-77233937D01*
X143524429Y-77233937D02*
X143463952Y-77354889D01*
X143463952Y-77354889D02*
X143343000Y-77475842D01*
X143343000Y-77475842D02*
X143161571Y-77536318D01*
X143161571Y-77536318D02*
X142859190Y-77536318D01*
X144794429Y-77536318D02*
X144068714Y-77536318D01*
X144431571Y-77536318D02*
X144431571Y-76266318D01*
X144431571Y-76266318D02*
X144310619Y-76447746D01*
X144310619Y-76447746D02*
X144189667Y-76568699D01*
X144189667Y-76568699D02*
X144068714Y-76629175D01*
D13*
X130627571Y-64465419D02*
X130294238Y-63989228D01*
X130056143Y-64465419D02*
X130056143Y-63465419D01*
X130056143Y-63465419D02*
X130437095Y-63465419D01*
X130437095Y-63465419D02*
X130532333Y-63513038D01*
X130532333Y-63513038D02*
X130579952Y-63560657D01*
X130579952Y-63560657D02*
X130627571Y-63655895D01*
X130627571Y-63655895D02*
X130627571Y-63798752D01*
X130627571Y-63798752D02*
X130579952Y-63893990D01*
X130579952Y-63893990D02*
X130532333Y-63941609D01*
X130532333Y-63941609D02*
X130437095Y-63989228D01*
X130437095Y-63989228D02*
X130056143Y-63989228D01*
X131246619Y-63465419D02*
X131437095Y-63465419D01*
X131437095Y-63465419D02*
X131532333Y-63513038D01*
X131532333Y-63513038D02*
X131627571Y-63608276D01*
X131627571Y-63608276D02*
X131675190Y-63798752D01*
X131675190Y-63798752D02*
X131675190Y-64132085D01*
X131675190Y-64132085D02*
X131627571Y-64322561D01*
X131627571Y-64322561D02*
X131532333Y-64417800D01*
X131532333Y-64417800D02*
X131437095Y-64465419D01*
X131437095Y-64465419D02*
X131246619Y-64465419D01*
X131246619Y-64465419D02*
X131151381Y-64417800D01*
X131151381Y-64417800D02*
X131056143Y-64322561D01*
X131056143Y-64322561D02*
X131008524Y-64132085D01*
X131008524Y-64132085D02*
X131008524Y-63798752D01*
X131008524Y-63798752D02*
X131056143Y-63608276D01*
X131056143Y-63608276D02*
X131151381Y-63513038D01*
X131151381Y-63513038D02*
X131246619Y-63465419D01*
X131960905Y-63465419D02*
X132532333Y-63465419D01*
X132246619Y-64465419D02*
X132246619Y-63465419D01*
X133389476Y-64465419D02*
X132818048Y-64465419D01*
X133103762Y-64465419D02*
X133103762Y-63465419D01*
X133103762Y-63465419D02*
X133008524Y-63608276D01*
X133008524Y-63608276D02*
X132913286Y-63703514D01*
X132913286Y-63703514D02*
X132818048Y-63751133D01*
X134158704Y-56871734D02*
X134158704Y-56395544D01*
X134444419Y-56966972D02*
X133444419Y-56633639D01*
X133444419Y-56633639D02*
X134444419Y-56300306D01*
X131949180Y-56352687D02*
X131996800Y-56400306D01*
X131996800Y-56400306D02*
X132044419Y-56543163D01*
X132044419Y-56543163D02*
X132044419Y-56638401D01*
X132044419Y-56638401D02*
X131996800Y-56781258D01*
X131996800Y-56781258D02*
X131901561Y-56876496D01*
X131901561Y-56876496D02*
X131806323Y-56924115D01*
X131806323Y-56924115D02*
X131615847Y-56971734D01*
X131615847Y-56971734D02*
X131472990Y-56971734D01*
X131472990Y-56971734D02*
X131282514Y-56924115D01*
X131282514Y-56924115D02*
X131187276Y-56876496D01*
X131187276Y-56876496D02*
X131092038Y-56781258D01*
X131092038Y-56781258D02*
X131044419Y-56638401D01*
X131044419Y-56638401D02*
X131044419Y-56543163D01*
X131044419Y-56543163D02*
X131092038Y-56400306D01*
X131092038Y-56400306D02*
X131139657Y-56352687D01*
X130828265Y-75952800D02*
X130971122Y-76000419D01*
X130971122Y-76000419D02*
X131209217Y-76000419D01*
X131209217Y-76000419D02*
X131304455Y-75952800D01*
X131304455Y-75952800D02*
X131352074Y-75905180D01*
X131352074Y-75905180D02*
X131399693Y-75809942D01*
X131399693Y-75809942D02*
X131399693Y-75714704D01*
X131399693Y-75714704D02*
X131352074Y-75619466D01*
X131352074Y-75619466D02*
X131304455Y-75571847D01*
X131304455Y-75571847D02*
X131209217Y-75524228D01*
X131209217Y-75524228D02*
X131018741Y-75476609D01*
X131018741Y-75476609D02*
X130923503Y-75428990D01*
X130923503Y-75428990D02*
X130875884Y-75381371D01*
X130875884Y-75381371D02*
X130828265Y-75286133D01*
X130828265Y-75286133D02*
X130828265Y-75190895D01*
X130828265Y-75190895D02*
X130875884Y-75095657D01*
X130875884Y-75095657D02*
X130923503Y-75048038D01*
X130923503Y-75048038D02*
X131018741Y-75000419D01*
X131018741Y-75000419D02*
X131256836Y-75000419D01*
X131256836Y-75000419D02*
X131399693Y-75048038D01*
X131733027Y-75000419D02*
X131971122Y-76000419D01*
X131971122Y-76000419D02*
X132161598Y-75286133D01*
X132161598Y-75286133D02*
X132352074Y-76000419D01*
X132352074Y-76000419D02*
X132590170Y-75000419D01*
X128920609Y-56490782D02*
X128968228Y-56347925D01*
X128968228Y-56347925D02*
X129015847Y-56300306D01*
X129015847Y-56300306D02*
X129111085Y-56252687D01*
X129111085Y-56252687D02*
X129253942Y-56252687D01*
X129253942Y-56252687D02*
X129349180Y-56300306D01*
X129349180Y-56300306D02*
X129396800Y-56347925D01*
X129396800Y-56347925D02*
X129444419Y-56443163D01*
X129444419Y-56443163D02*
X129444419Y-56824115D01*
X129444419Y-56824115D02*
X128444419Y-56824115D01*
X128444419Y-56824115D02*
X128444419Y-56490782D01*
X128444419Y-56490782D02*
X128492038Y-56395544D01*
X128492038Y-56395544D02*
X128539657Y-56347925D01*
X128539657Y-56347925D02*
X128634895Y-56300306D01*
X128634895Y-56300306D02*
X128730133Y-56300306D01*
X128730133Y-56300306D02*
X128825371Y-56347925D01*
X128825371Y-56347925D02*
X128872990Y-56395544D01*
X128872990Y-56395544D02*
X128920609Y-56490782D01*
X128920609Y-56490782D02*
X128920609Y-56824115D01*
D10*
X138590580Y-94440143D02*
X138638200Y-94487762D01*
X138638200Y-94487762D02*
X138685819Y-94630619D01*
X138685819Y-94630619D02*
X138685819Y-94725857D01*
X138685819Y-94725857D02*
X138638200Y-94868714D01*
X138638200Y-94868714D02*
X138542961Y-94963952D01*
X138542961Y-94963952D02*
X138447723Y-95011571D01*
X138447723Y-95011571D02*
X138257247Y-95059190D01*
X138257247Y-95059190D02*
X138114390Y-95059190D01*
X138114390Y-95059190D02*
X137923914Y-95011571D01*
X137923914Y-95011571D02*
X137828676Y-94963952D01*
X137828676Y-94963952D02*
X137733438Y-94868714D01*
X137733438Y-94868714D02*
X137685819Y-94725857D01*
X137685819Y-94725857D02*
X137685819Y-94630619D01*
X137685819Y-94630619D02*
X137733438Y-94487762D01*
X137733438Y-94487762D02*
X137781057Y-94440143D01*
X138162009Y-93678238D02*
X138209628Y-93535381D01*
X138209628Y-93535381D02*
X138257247Y-93487762D01*
X138257247Y-93487762D02*
X138352485Y-93440143D01*
X138352485Y-93440143D02*
X138495342Y-93440143D01*
X138495342Y-93440143D02*
X138590580Y-93487762D01*
X138590580Y-93487762D02*
X138638200Y-93535381D01*
X138638200Y-93535381D02*
X138685819Y-93630619D01*
X138685819Y-93630619D02*
X138685819Y-94011571D01*
X138685819Y-94011571D02*
X137685819Y-94011571D01*
X137685819Y-94011571D02*
X137685819Y-93678238D01*
X137685819Y-93678238D02*
X137733438Y-93583000D01*
X137733438Y-93583000D02*
X137781057Y-93535381D01*
X137781057Y-93535381D02*
X137876295Y-93487762D01*
X137876295Y-93487762D02*
X137971533Y-93487762D01*
X137971533Y-93487762D02*
X138066771Y-93535381D01*
X138066771Y-93535381D02*
X138114390Y-93583000D01*
X138114390Y-93583000D02*
X138162009Y-93678238D01*
X138162009Y-93678238D02*
X138162009Y-94011571D01*
X138685819Y-92868714D02*
X138638200Y-92963952D01*
X138638200Y-92963952D02*
X138590580Y-93011571D01*
X138590580Y-93011571D02*
X138495342Y-93059190D01*
X138495342Y-93059190D02*
X138209628Y-93059190D01*
X138209628Y-93059190D02*
X138114390Y-93011571D01*
X138114390Y-93011571D02*
X138066771Y-92963952D01*
X138066771Y-92963952D02*
X138019152Y-92868714D01*
X138019152Y-92868714D02*
X138019152Y-92725857D01*
X138019152Y-92725857D02*
X138066771Y-92630619D01*
X138066771Y-92630619D02*
X138114390Y-92583000D01*
X138114390Y-92583000D02*
X138209628Y-92535381D01*
X138209628Y-92535381D02*
X138495342Y-92535381D01*
X138495342Y-92535381D02*
X138590580Y-92583000D01*
X138590580Y-92583000D02*
X138638200Y-92630619D01*
X138638200Y-92630619D02*
X138685819Y-92725857D01*
X138685819Y-92725857D02*
X138685819Y-92868714D01*
X138685819Y-91963952D02*
X138638200Y-92059190D01*
X138638200Y-92059190D02*
X138590580Y-92106809D01*
X138590580Y-92106809D02*
X138495342Y-92154428D01*
X138495342Y-92154428D02*
X138209628Y-92154428D01*
X138209628Y-92154428D02*
X138114390Y-92106809D01*
X138114390Y-92106809D02*
X138066771Y-92059190D01*
X138066771Y-92059190D02*
X138019152Y-91963952D01*
X138019152Y-91963952D02*
X138019152Y-91821095D01*
X138019152Y-91821095D02*
X138066771Y-91725857D01*
X138066771Y-91725857D02*
X138114390Y-91678238D01*
X138114390Y-91678238D02*
X138209628Y-91630619D01*
X138209628Y-91630619D02*
X138495342Y-91630619D01*
X138495342Y-91630619D02*
X138590580Y-91678238D01*
X138590580Y-91678238D02*
X138638200Y-91725857D01*
X138638200Y-91725857D02*
X138685819Y-91821095D01*
X138685819Y-91821095D02*
X138685819Y-91963952D01*
X138019152Y-91344904D02*
X138019152Y-90963952D01*
X137685819Y-91202047D02*
X138542961Y-91202047D01*
X138542961Y-91202047D02*
X138638200Y-91154428D01*
X138638200Y-91154428D02*
X138685819Y-91059190D01*
X138685819Y-91059190D02*
X138685819Y-90963952D01*
X138685819Y-90106809D02*
X138685819Y-90678237D01*
X138685819Y-90392523D02*
X137685819Y-90392523D01*
X137685819Y-90392523D02*
X137828676Y-90487761D01*
X137828676Y-90487761D02*
X137923914Y-90582999D01*
X137923914Y-90582999D02*
X137971533Y-90678237D01*
D12*
X152732618Y-85410318D02*
X152732618Y-84140318D01*
X152732618Y-84140318D02*
X153034999Y-84140318D01*
X153034999Y-84140318D02*
X153216428Y-84200794D01*
X153216428Y-84200794D02*
X153337380Y-84321746D01*
X153337380Y-84321746D02*
X153397857Y-84442699D01*
X153397857Y-84442699D02*
X153458333Y-84684603D01*
X153458333Y-84684603D02*
X153458333Y-84866032D01*
X153458333Y-84866032D02*
X153397857Y-85107937D01*
X153397857Y-85107937D02*
X153337380Y-85228889D01*
X153337380Y-85228889D02*
X153216428Y-85349842D01*
X153216428Y-85349842D02*
X153034999Y-85410318D01*
X153034999Y-85410318D02*
X152732618Y-85410318D01*
X153942142Y-84261270D02*
X154002618Y-84200794D01*
X154002618Y-84200794D02*
X154123571Y-84140318D01*
X154123571Y-84140318D02*
X154425952Y-84140318D01*
X154425952Y-84140318D02*
X154546904Y-84200794D01*
X154546904Y-84200794D02*
X154607380Y-84261270D01*
X154607380Y-84261270D02*
X154667857Y-84382222D01*
X154667857Y-84382222D02*
X154667857Y-84503175D01*
X154667857Y-84503175D02*
X154607380Y-84684603D01*
X154607380Y-84684603D02*
X153881666Y-85410318D01*
X153881666Y-85410318D02*
X154667857Y-85410318D01*
X183297080Y-70019332D02*
X183297080Y-70442666D01*
X183962318Y-70442666D02*
X182692318Y-70442666D01*
X182692318Y-70442666D02*
X182692318Y-69837904D01*
X183962318Y-68688856D02*
X183962318Y-69414571D01*
X183962318Y-69051714D02*
X182692318Y-69051714D01*
X182692318Y-69051714D02*
X182873746Y-69172666D01*
X182873746Y-69172666D02*
X182994699Y-69293618D01*
X182994699Y-69293618D02*
X183055175Y-69414571D01*
D10*
X158591428Y-79212580D02*
X158543809Y-79260200D01*
X158543809Y-79260200D02*
X158400952Y-79307819D01*
X158400952Y-79307819D02*
X158305714Y-79307819D01*
X158305714Y-79307819D02*
X158162857Y-79260200D01*
X158162857Y-79260200D02*
X158067619Y-79164961D01*
X158067619Y-79164961D02*
X158020000Y-79069723D01*
X158020000Y-79069723D02*
X157972381Y-78879247D01*
X157972381Y-78879247D02*
X157972381Y-78736390D01*
X157972381Y-78736390D02*
X158020000Y-78545914D01*
X158020000Y-78545914D02*
X158067619Y-78450676D01*
X158067619Y-78450676D02*
X158162857Y-78355438D01*
X158162857Y-78355438D02*
X158305714Y-78307819D01*
X158305714Y-78307819D02*
X158400952Y-78307819D01*
X158400952Y-78307819D02*
X158543809Y-78355438D01*
X158543809Y-78355438D02*
X158591428Y-78403057D01*
X159210476Y-78307819D02*
X159400952Y-78307819D01*
X159400952Y-78307819D02*
X159496190Y-78355438D01*
X159496190Y-78355438D02*
X159591428Y-78450676D01*
X159591428Y-78450676D02*
X159639047Y-78641152D01*
X159639047Y-78641152D02*
X159639047Y-78974485D01*
X159639047Y-78974485D02*
X159591428Y-79164961D01*
X159591428Y-79164961D02*
X159496190Y-79260200D01*
X159496190Y-79260200D02*
X159400952Y-79307819D01*
X159400952Y-79307819D02*
X159210476Y-79307819D01*
X159210476Y-79307819D02*
X159115238Y-79260200D01*
X159115238Y-79260200D02*
X159020000Y-79164961D01*
X159020000Y-79164961D02*
X158972381Y-78974485D01*
X158972381Y-78974485D02*
X158972381Y-78641152D01*
X158972381Y-78641152D02*
X159020000Y-78450676D01*
X159020000Y-78450676D02*
X159115238Y-78355438D01*
X159115238Y-78355438D02*
X159210476Y-78307819D01*
X160496190Y-78641152D02*
X160496190Y-79307819D01*
X160067619Y-78641152D02*
X160067619Y-79164961D01*
X160067619Y-79164961D02*
X160115238Y-79260200D01*
X160115238Y-79260200D02*
X160210476Y-79307819D01*
X160210476Y-79307819D02*
X160353333Y-79307819D01*
X160353333Y-79307819D02*
X160448571Y-79260200D01*
X160448571Y-79260200D02*
X160496190Y-79212580D01*
X160829524Y-78641152D02*
X161210476Y-78641152D01*
X160972381Y-78307819D02*
X160972381Y-79164961D01*
X160972381Y-79164961D02*
X161020000Y-79260200D01*
X161020000Y-79260200D02*
X161115238Y-79307819D01*
X161115238Y-79307819D02*
X161210476Y-79307819D01*
X161496191Y-78403057D02*
X161543810Y-78355438D01*
X161543810Y-78355438D02*
X161639048Y-78307819D01*
X161639048Y-78307819D02*
X161877143Y-78307819D01*
X161877143Y-78307819D02*
X161972381Y-78355438D01*
X161972381Y-78355438D02*
X162020000Y-78403057D01*
X162020000Y-78403057D02*
X162067619Y-78498295D01*
X162067619Y-78498295D02*
X162067619Y-78593533D01*
X162067619Y-78593533D02*
X162020000Y-78736390D01*
X162020000Y-78736390D02*
X161448572Y-79307819D01*
X161448572Y-79307819D02*
X162067619Y-79307819D01*
X121687819Y-90209666D02*
X121211628Y-90542999D01*
X121687819Y-90781094D02*
X120687819Y-90781094D01*
X120687819Y-90781094D02*
X120687819Y-90400142D01*
X120687819Y-90400142D02*
X120735438Y-90304904D01*
X120735438Y-90304904D02*
X120783057Y-90257285D01*
X120783057Y-90257285D02*
X120878295Y-90209666D01*
X120878295Y-90209666D02*
X121021152Y-90209666D01*
X121021152Y-90209666D02*
X121116390Y-90257285D01*
X121116390Y-90257285D02*
X121164009Y-90304904D01*
X121164009Y-90304904D02*
X121211628Y-90400142D01*
X121211628Y-90400142D02*
X121211628Y-90781094D01*
X120783057Y-89828713D02*
X120735438Y-89781094D01*
X120735438Y-89781094D02*
X120687819Y-89685856D01*
X120687819Y-89685856D02*
X120687819Y-89447761D01*
X120687819Y-89447761D02*
X120735438Y-89352523D01*
X120735438Y-89352523D02*
X120783057Y-89304904D01*
X120783057Y-89304904D02*
X120878295Y-89257285D01*
X120878295Y-89257285D02*
X120973533Y-89257285D01*
X120973533Y-89257285D02*
X121116390Y-89304904D01*
X121116390Y-89304904D02*
X121687819Y-89876332D01*
X121687819Y-89876332D02*
X121687819Y-89257285D01*
X135530819Y-81954666D02*
X135054628Y-82287999D01*
X135530819Y-82526094D02*
X134530819Y-82526094D01*
X134530819Y-82526094D02*
X134530819Y-82145142D01*
X134530819Y-82145142D02*
X134578438Y-82049904D01*
X134578438Y-82049904D02*
X134626057Y-82002285D01*
X134626057Y-82002285D02*
X134721295Y-81954666D01*
X134721295Y-81954666D02*
X134864152Y-81954666D01*
X134864152Y-81954666D02*
X134959390Y-82002285D01*
X134959390Y-82002285D02*
X135007009Y-82049904D01*
X135007009Y-82049904D02*
X135054628Y-82145142D01*
X135054628Y-82145142D02*
X135054628Y-82526094D01*
X135530819Y-81002285D02*
X135530819Y-81573713D01*
X135530819Y-81287999D02*
X134530819Y-81287999D01*
X134530819Y-81287999D02*
X134673676Y-81383237D01*
X134673676Y-81383237D02*
X134768914Y-81478475D01*
X134768914Y-81478475D02*
X134816533Y-81573713D01*
X143264095Y-98475580D02*
X143216476Y-98523200D01*
X143216476Y-98523200D02*
X143073619Y-98570819D01*
X143073619Y-98570819D02*
X142978381Y-98570819D01*
X142978381Y-98570819D02*
X142835524Y-98523200D01*
X142835524Y-98523200D02*
X142740286Y-98427961D01*
X142740286Y-98427961D02*
X142692667Y-98332723D01*
X142692667Y-98332723D02*
X142645048Y-98142247D01*
X142645048Y-98142247D02*
X142645048Y-97999390D01*
X142645048Y-97999390D02*
X142692667Y-97808914D01*
X142692667Y-97808914D02*
X142740286Y-97713676D01*
X142740286Y-97713676D02*
X142835524Y-97618438D01*
X142835524Y-97618438D02*
X142978381Y-97570819D01*
X142978381Y-97570819D02*
X143073619Y-97570819D01*
X143073619Y-97570819D02*
X143216476Y-97618438D01*
X143216476Y-97618438D02*
X143264095Y-97666057D01*
X143692667Y-98570819D02*
X143692667Y-97904152D01*
X143692667Y-97570819D02*
X143645048Y-97618438D01*
X143645048Y-97618438D02*
X143692667Y-97666057D01*
X143692667Y-97666057D02*
X143740286Y-97618438D01*
X143740286Y-97618438D02*
X143692667Y-97570819D01*
X143692667Y-97570819D02*
X143692667Y-97666057D01*
X144168857Y-97904152D02*
X144168857Y-98570819D01*
X144168857Y-97999390D02*
X144216476Y-97951771D01*
X144216476Y-97951771D02*
X144311714Y-97904152D01*
X144311714Y-97904152D02*
X144454571Y-97904152D01*
X144454571Y-97904152D02*
X144549809Y-97951771D01*
X144549809Y-97951771D02*
X144597428Y-98047009D01*
X144597428Y-98047009D02*
X144597428Y-98570819D01*
X144978381Y-98570819D02*
X145502190Y-97904152D01*
X144978381Y-97904152D02*
X145502190Y-98570819D01*
X146406952Y-98570819D02*
X145835524Y-98570819D01*
X146121238Y-98570819D02*
X146121238Y-97570819D01*
X146121238Y-97570819D02*
X146026000Y-97713676D01*
X146026000Y-97713676D02*
X145930762Y-97808914D01*
X145930762Y-97808914D02*
X145835524Y-97856533D01*
X140662819Y-103846143D02*
X140186628Y-104179476D01*
X140662819Y-104417571D02*
X139662819Y-104417571D01*
X139662819Y-104417571D02*
X139662819Y-104036619D01*
X139662819Y-104036619D02*
X139710438Y-103941381D01*
X139710438Y-103941381D02*
X139758057Y-103893762D01*
X139758057Y-103893762D02*
X139853295Y-103846143D01*
X139853295Y-103846143D02*
X139996152Y-103846143D01*
X139996152Y-103846143D02*
X140091390Y-103893762D01*
X140091390Y-103893762D02*
X140139009Y-103941381D01*
X140139009Y-103941381D02*
X140186628Y-104036619D01*
X140186628Y-104036619D02*
X140186628Y-104417571D01*
X139996152Y-103560428D02*
X139996152Y-103179476D01*
X140662819Y-103417571D02*
X139805676Y-103417571D01*
X139805676Y-103417571D02*
X139710438Y-103369952D01*
X139710438Y-103369952D02*
X139662819Y-103274714D01*
X139662819Y-103274714D02*
X139662819Y-103179476D01*
X140662819Y-102846142D02*
X139662819Y-102846142D01*
X140043771Y-102846142D02*
X139996152Y-102750904D01*
X139996152Y-102750904D02*
X139996152Y-102560428D01*
X139996152Y-102560428D02*
X140043771Y-102465190D01*
X140043771Y-102465190D02*
X140091390Y-102417571D01*
X140091390Y-102417571D02*
X140186628Y-102369952D01*
X140186628Y-102369952D02*
X140472342Y-102369952D01*
X140472342Y-102369952D02*
X140567580Y-102417571D01*
X140567580Y-102417571D02*
X140615200Y-102465190D01*
X140615200Y-102465190D02*
X140662819Y-102560428D01*
X140662819Y-102560428D02*
X140662819Y-102750904D01*
X140662819Y-102750904D02*
X140615200Y-102846142D01*
X140662819Y-101941380D02*
X139662819Y-101941380D01*
X140043771Y-101941380D02*
X139996152Y-101846142D01*
X139996152Y-101846142D02*
X139996152Y-101655666D01*
X139996152Y-101655666D02*
X140043771Y-101560428D01*
X140043771Y-101560428D02*
X140091390Y-101512809D01*
X140091390Y-101512809D02*
X140186628Y-101465190D01*
X140186628Y-101465190D02*
X140472342Y-101465190D01*
X140472342Y-101465190D02*
X140567580Y-101512809D01*
X140567580Y-101512809D02*
X140615200Y-101560428D01*
X140615200Y-101560428D02*
X140662819Y-101655666D01*
X140662819Y-101655666D02*
X140662819Y-101846142D01*
X140662819Y-101846142D02*
X140615200Y-101941380D01*
X140662819Y-100512809D02*
X140662819Y-101084237D01*
X140662819Y-100798523D02*
X139662819Y-100798523D01*
X139662819Y-100798523D02*
X139805676Y-100893761D01*
X139805676Y-100893761D02*
X139900914Y-100988999D01*
X139900914Y-100988999D02*
X139948533Y-101084237D01*
D14*
%TO.C,C5*%
X159641000Y-72376000D02*
X159641000Y-73556000D01*
X159641000Y-75796000D02*
X159641000Y-76976000D01*
X159641000Y-76976000D02*
X160641000Y-77976000D01*
X160641000Y-71376000D02*
X159641000Y-72376000D01*
X160641000Y-77976000D02*
X166241000Y-77976000D01*
X166241000Y-71376000D02*
X160641000Y-71376000D01*
X166241000Y-73556000D02*
X166241000Y-71376000D01*
X166241000Y-77976000D02*
X166241000Y-75796000D01*
D15*
X158891000Y-73326000D02*
G75*
G02*
X158691000Y-73326000I-100000J0D01*
G01*
X158691000Y-73326000D02*
G75*
G02*
X158891000Y-73326000I100000J0D01*
G01*
%TO.C,PS1*%
X143057000Y-91618000D02*
X144257000Y-91618000D01*
X144607000Y-91768000D02*
X145207000Y-91768000D01*
X144607000Y-94668000D02*
X144607000Y-91768000D01*
X145207000Y-91768000D02*
X145207000Y-94668000D01*
X145207000Y-94668000D02*
X144607000Y-94668000D01*
D16*
%TO.C,R4*%
X132694000Y-85886936D02*
X132694000Y-87341064D01*
X134514000Y-85886936D02*
X134514000Y-87341064D01*
%TO.C,C3*%
X132186000Y-118821252D02*
X132186000Y-117398748D01*
X134006000Y-118821252D02*
X134006000Y-117398748D01*
%TO.C,C2*%
X128600252Y-88244000D02*
X127177748Y-88244000D01*
X128600252Y-90064000D02*
X127177748Y-90064000D01*
%TO.C,Cin1*%
X145110252Y-100621000D02*
X143687748Y-100621000D01*
X145110252Y-103341000D02*
X143687748Y-103341000D01*
%TO.C,R3*%
X122153000Y-85436064D02*
X122153000Y-83981936D01*
X123973000Y-85436064D02*
X123973000Y-83981936D01*
%TO.C,C1*%
X122153000Y-79705252D02*
X122153000Y-78282748D01*
X123973000Y-79705252D02*
X123973000Y-78282748D01*
%TO.C,R5*%
X139094000Y-88275064D02*
X139094000Y-86820936D01*
X140914000Y-88275064D02*
X140914000Y-86820936D01*
D13*
%TO.C,U1*%
X117779000Y-96819000D02*
X117779000Y-110789000D01*
D14*
X117779000Y-96819000D02*
X117779000Y-110789000D01*
X138734000Y-110789000D02*
X138734000Y-96819000D01*
X117779000Y-96819000D02*
G75*
G02*
X119684000Y-94914000I1905000J0D01*
G01*
X119684000Y-112693999D02*
G75*
G02*
X117779001Y-110789000I2J1905001D01*
G01*
X136829000Y-94914000D02*
G75*
G02*
X138734000Y-96819000I0J-1905000D01*
G01*
X138734000Y-110789000D02*
G75*
G02*
X136829000Y-112694000I-1905001J1D01*
G01*
D17*
X118172000Y-112708000D02*
G75*
G02*
X117668000Y-112708000I-252000J0D01*
G01*
X117668000Y-112708000D02*
G75*
G02*
X118172000Y-112708000I252000J0D01*
G01*
X119052000Y-111565000D02*
G75*
G02*
X118548000Y-111565000I-252000J0D01*
G01*
X118548000Y-111565000D02*
G75*
G02*
X119052000Y-111565000I252000J0D01*
G01*
D16*
%TO.C,SW3*%
X169360000Y-63938000D02*
X169360000Y-58938000D01*
X171380000Y-58318000D02*
X173580000Y-58318000D01*
X173580000Y-64558000D02*
X171380000Y-64558000D01*
X175600000Y-63938000D02*
X175600000Y-58938000D01*
X174230000Y-61438000D02*
G75*
G02*
X170730000Y-61438000I-1750000J0D01*
G01*
X170730000Y-61438000D02*
G75*
G02*
X174230000Y-61438000I1750000J0D01*
G01*
D15*
%TO.C,L1*%
X151922000Y-91734000D02*
X156922000Y-91734000D01*
X156922000Y-96734000D02*
X151922000Y-96734000D01*
X157450000Y-94349000D02*
G75*
G02*
X157252000Y-94349000I-99000J0D01*
G01*
X157252000Y-94349000D02*
G75*
G02*
X157450000Y-94349000I99000J0D01*
G01*
D16*
%TO.C,J1*%
X177903499Y-64936000D02*
X177903500Y-59116000D01*
X177903500Y-59116000D02*
X184643499Y-59116000D01*
X179623500Y-64936001D02*
X179623500Y-59116001D01*
X182723500Y-64936000D02*
X182723499Y-59116001D01*
X183723500Y-64936000D02*
X183723499Y-59116000D01*
X184643499Y-59116000D02*
X184643500Y-62996000D01*
X184643500Y-63596000D02*
X184643500Y-64936000D01*
X184643500Y-64936000D02*
X177903499Y-64936000D01*
X185253500Y-63736000D02*
X184643500Y-63296001D01*
X185253500Y-62856000D01*
X185253500Y-63736000D01*
G36*
X185253500Y-63736000D02*
G01*
X184643500Y-63296001D01*
X185253500Y-62856000D01*
X185253500Y-63736000D01*
G37*
%TO.C,L2*%
X143870000Y-88338242D02*
X143870000Y-86667758D01*
X145690000Y-88338242D02*
X145690000Y-86667758D01*
%TO.C,Rfbt1*%
X148188000Y-99983936D02*
X148188000Y-101438064D01*
X150008000Y-99983936D02*
X150008000Y-101438064D01*
%TO.C,R6*%
X135234000Y-118837064D02*
X135234000Y-117382936D01*
X137054000Y-118837064D02*
X137054000Y-117382936D01*
D18*
%TO.C,U3*%
X123367000Y-115792800D02*
X123367000Y-122041200D01*
X123367000Y-121914200D02*
X123367000Y-115919800D01*
X123367000Y-122041200D02*
X123679980Y-122041200D01*
X123679980Y-115792800D02*
X123367000Y-115792800D01*
X125779980Y-122041200D02*
X129209000Y-122041200D01*
X129209000Y-115792800D02*
X125779980Y-115792800D01*
X129209000Y-122041200D02*
X129209000Y-115792800D01*
D16*
%TO.C,COut1*%
X159181748Y-85381000D02*
X160604252Y-85381000D01*
X159181748Y-88101000D02*
X160604252Y-88101000D01*
%TO.C,OLED1*%
X141146000Y-55368000D02*
X168546000Y-55368000D01*
X141146000Y-82668000D02*
X141146000Y-55368000D01*
X141568000Y-58663000D02*
X164668000Y-58663000D01*
X141568000Y-74668000D02*
X141568000Y-58663000D01*
X149847000Y-55857000D02*
X149847000Y-58270000D01*
X149847000Y-55857000D02*
X159626000Y-55857000D01*
X159626000Y-55857000D02*
X159626000Y-58270000D01*
X159626000Y-58270000D02*
X149847000Y-58270000D01*
X164668000Y-58663000D02*
X167754000Y-58663000D01*
X168008000Y-58651000D02*
X167754000Y-58663000D01*
X168008000Y-74668000D02*
X168008000Y-58651000D01*
X168546000Y-55368000D02*
X168546000Y-82668000D01*
X168546000Y-82668000D02*
X141146000Y-82668000D01*
D15*
%TO.C,D1*%
X179794000Y-75984000D02*
X179794000Y-74384000D01*
D13*
X180594000Y-77484000D02*
X180594000Y-77484000D01*
X180594000Y-77584000D02*
X180594000Y-77584000D01*
D15*
X181394000Y-75984000D02*
X181394000Y-74384000D01*
D13*
X180594000Y-77484000D02*
G75*
G02*
X180594000Y-77584000I0J-50000D01*
G01*
X180594000Y-77584000D02*
G75*
G02*
X180594000Y-77484000I0J50000D01*
G01*
D14*
%TO.C,C4*%
X146560000Y-70614000D02*
X146560000Y-72794000D01*
X146560000Y-75034000D02*
X146560000Y-77214000D01*
X146560000Y-77214000D02*
X152160000Y-77214000D01*
X152160000Y-70614000D02*
X146560000Y-70614000D01*
X152160000Y-77214000D02*
X153160000Y-76214000D01*
X153160000Y-71614000D02*
X152160000Y-70614000D01*
X153160000Y-72794000D02*
X153160000Y-71614000D01*
X153160000Y-76214000D02*
X153160000Y-75034000D01*
D15*
X154110000Y-75264000D02*
G75*
G02*
X153910000Y-75264000I-100000J0D01*
G01*
X153910000Y-75264000D02*
G75*
G02*
X154110000Y-75264000I100000J0D01*
G01*
D16*
%TO.C,SW4*%
X169396000Y-73284000D02*
X169396000Y-68284000D01*
X171416000Y-67664000D02*
X173616000Y-67664000D01*
X173616000Y-73904000D02*
X171416000Y-73904000D01*
X175636000Y-73284000D02*
X175636000Y-68284000D01*
X174266000Y-70784000D02*
G75*
G02*
X170766000Y-70784000I-1750000J0D01*
G01*
X170766000Y-70784000D02*
G75*
G02*
X174266000Y-70784000I1750000J0D01*
G01*
%TO.C,TP1*%
X148660000Y-91764000D02*
X151060000Y-91764000D01*
X148660000Y-94164000D02*
X148660000Y-91764000D01*
X151060000Y-91764000D02*
X151060000Y-94164000D01*
X151060000Y-94164000D02*
X148660000Y-94164000D01*
D13*
%TO.C,LED1*%
X140994000Y-79037000D02*
X140994000Y-78437000D01*
X141594000Y-78437000D01*
X140994000Y-79037000D01*
G36*
X140994000Y-79037000D02*
G01*
X140994000Y-78437000D01*
X141594000Y-78437000D01*
X140994000Y-79037000D01*
G37*
D16*
%TO.C,CBoot1*%
X139171000Y-93294252D02*
X139171000Y-91871748D01*
X140991000Y-93294252D02*
X140991000Y-91871748D01*
D15*
%TO.C,D2*%
X150970000Y-89440000D02*
X156370000Y-89440000D01*
X156370000Y-85820000D02*
X150970000Y-85820000D01*
%TO.C,F1*%
X180504000Y-69723000D02*
X181954000Y-69723000D01*
D16*
%TO.C,COut2*%
X159308748Y-79793000D02*
X160731252Y-79793000D01*
X159308748Y-82513000D02*
X160731252Y-82513000D01*
%TO.C,R2*%
X122153000Y-90770064D02*
X122153000Y-89315936D01*
X123973000Y-90770064D02*
X123973000Y-89315936D01*
%TO.C,R1*%
X135996000Y-82515064D02*
X135996000Y-81060936D01*
X137816000Y-82515064D02*
X137816000Y-81060936D01*
%TO.C,Cinx1*%
X145237252Y-95356000D02*
X143814748Y-95356000D01*
X145237252Y-97176000D02*
X143814748Y-97176000D01*
%TO.C,Rfbb1*%
X139298000Y-98644064D02*
X139298000Y-97189936D01*
X141118000Y-98644064D02*
X141118000Y-97189936D01*
%TD*%
%LPC*%
D19*
%TO.C,C5*%
X160441000Y-74676000D03*
X165441000Y-74676000D03*
%TD*%
D20*
%TO.C,PS1*%
X143657000Y-92268000D03*
X143657000Y-93218000D03*
X143657000Y-94168000D03*
X146157000Y-94168000D03*
X146157000Y-93218000D03*
X146157000Y-92268000D03*
%TD*%
D21*
%TO.C,R4*%
X133604000Y-85064000D03*
X133604000Y-88164000D03*
%TD*%
D22*
%TO.C,C3*%
X133096000Y-119672500D03*
X133096000Y-116547500D03*
%TD*%
D23*
%TO.C,C2*%
X129451500Y-89154000D03*
X126326500Y-89154000D03*
%TD*%
D24*
%TO.C,Cin1*%
X145961500Y-101981000D03*
X142836500Y-101981000D03*
%TD*%
D25*
%TO.C,R3*%
X123063000Y-86259000D03*
X123063000Y-83159000D03*
%TD*%
D22*
%TO.C,C1*%
X123063000Y-80556500D03*
X123063000Y-77431500D03*
%TD*%
D25*
%TO.C,R5*%
X140004000Y-89098000D03*
X140004000Y-85998000D03*
%TD*%
D26*
%TO.C,U1*%
X120700000Y-112259000D03*
X123240000Y-112259000D03*
X125780000Y-112259000D03*
X128320000Y-112259000D03*
X130860000Y-112259000D03*
X133400000Y-112259000D03*
X135940000Y-112259000D03*
D27*
X135940000Y-95349000D03*
X133400000Y-95349000D03*
X130860000Y-95349000D03*
X128320000Y-95349000D03*
X125780000Y-95349000D03*
X123240000Y-95349000D03*
X120700000Y-95349000D03*
%TD*%
D28*
%TO.C,SW3*%
X170230000Y-64688000D03*
X170230000Y-58188000D03*
X174730000Y-64688000D03*
X174730000Y-58188000D03*
%TD*%
D29*
%TO.C,L1*%
X156222000Y-94234000D03*
X152622000Y-94234000D03*
%TD*%
D30*
%TO.C,J1*%
X181123500Y-63296000D03*
D31*
X181123500Y-60756001D03*
%TD*%
D32*
%TO.C,L2*%
X144780000Y-89165500D03*
X144780000Y-85840500D03*
%TD*%
D21*
%TO.C,Rfbt1*%
X149098000Y-99161000D03*
X149098000Y-102261000D03*
%TD*%
D25*
%TO.C,R6*%
X136144000Y-119660000D03*
X136144000Y-116560000D03*
%TD*%
D33*
%TO.C,U3*%
X124789400Y-121457000D03*
X124789400Y-118917000D03*
X124789400Y-116377000D03*
%TD*%
D34*
%TO.C,COut1*%
X158418000Y-86741000D03*
X161368000Y-86741000D03*
%TD*%
D35*
%TO.C,OLED1*%
X150926000Y-57068000D03*
X153466000Y-57068000D03*
X156006000Y-57068000D03*
X158546000Y-57068000D03*
%TD*%
D36*
%TO.C,D1*%
X180594000Y-76709000D03*
X180594000Y-73659000D03*
%TD*%
D37*
%TO.C,C4*%
X152360000Y-73914000D03*
X147360000Y-73914000D03*
%TD*%
D28*
%TO.C,SW4*%
X170266000Y-74034000D03*
X170266000Y-67534000D03*
X174766000Y-74034000D03*
X174766000Y-67534000D03*
%TD*%
D38*
%TO.C,TP1*%
X149860000Y-92964000D03*
%TD*%
D39*
%TO.C,LED1*%
X142494000Y-80137000D03*
D40*
X144994000Y-80137000D03*
X139994000Y-80137000D03*
%TD*%
D41*
%TO.C,ROT1*%
X134072000Y-58928000D03*
X129072000Y-58928000D03*
X131572000Y-58928000D03*
X129072000Y-75528000D03*
X134072000Y-75528000D03*
D42*
X124972000Y-67133400D03*
X138272000Y-67133400D03*
%TD*%
D22*
%TO.C,CBoot1*%
X140081000Y-94145500D03*
X140081000Y-91020500D03*
%TD*%
D43*
%TO.C,D2*%
X151470000Y-87630000D03*
X155870000Y-87630000D03*
%TD*%
D44*
%TO.C,F1*%
X181229000Y-71198000D03*
X181229000Y-68248000D03*
%TD*%
D34*
%TO.C,COut2*%
X158545000Y-81153000D03*
X161495000Y-81153000D03*
%TD*%
D25*
%TO.C,R2*%
X123063000Y-91593000D03*
X123063000Y-88493000D03*
%TD*%
%TO.C,R1*%
X136906000Y-83338000D03*
X136906000Y-80238000D03*
%TD*%
D23*
%TO.C,Cinx1*%
X146088500Y-96266000D03*
X142963500Y-96266000D03*
%TD*%
D25*
%TO.C,Rfbb1*%
X140208000Y-99467000D03*
X140208000Y-96367000D03*
%TD*%
%LPD*%
M02*
