%TF.GenerationSoftware,KiCad,Pcbnew,9.0.6*%
%TF.CreationDate,2026-01-26T19:42:09+01:00*%
%TF.ProjectId,hw,68772e6b-6963-4616-945f-706362585858,rev?*%
%TF.SameCoordinates,Original*%
%TF.FileFunction,Soldermask,Top*%
%TF.FilePolarity,Negative*%
%FSLAX46Y46*%
G04 Gerber Fmt 4.6, Leading zero omitted, Abs format (unit mm)*
G04 Created by KiCad (PCBNEW 9.0.6) date 2026-01-26 19:42:09*
%MOMM*%
%LPD*%
G01*
G04 APERTURE LIST*
G04 Aperture macros list*
%AMRoundRect*
0 Rectangle with rounded corners*
0 $1 Rounding radius*
0 $2 $3 $4 $5 $6 $7 $8 $9 X,Y pos of 4 corners*
0 Add a 4 corners polygon primitive as box body*
4,1,4,$2,$3,$4,$5,$6,$7,$8,$9,$2,$3,0*
0 Add four circle primitives for the rounded corners*
1,1,$1+$1,$2,$3*
1,1,$1+$1,$4,$5*
1,1,$1+$1,$6,$7*
1,1,$1+$1,$8,$9*
0 Add four rect primitives between the rounded corners*
20,1,$1+$1,$2,$3,$4,$5,0*
20,1,$1+$1,$4,$5,$6,$7,0*
20,1,$1+$1,$6,$7,$8,$9,0*
20,1,$1+$1,$8,$9,$2,$3,0*%
G04 Aperture macros list end*
%ADD10O,1.600000X2.000000*%
%ADD11RoundRect,0.152400X-0.609600X1.063600X-0.609600X-1.063600X0.609600X-1.063600X0.609600X1.063600X0*%
%ADD12C,1.524000*%
%ADD13RoundRect,0.152400X0.609600X-1.063600X0.609600X1.063600X-0.609600X1.063600X-0.609600X-1.063600X0*%
%ADD14RoundRect,0.102000X-1.600000X-0.800000X1.600000X-0.800000X1.600000X0.800000X-1.600000X0.800000X0*%
%ADD15R,1.200000X0.600000*%
%ADD16RoundRect,0.250000X-0.625000X0.400000X-0.625000X-0.400000X0.625000X-0.400000X0.625000X0.400000X0*%
%ADD17RoundRect,0.250000X0.650000X-0.412500X0.650000X0.412500X-0.650000X0.412500X-0.650000X-0.412500X0*%
%ADD18RoundRect,0.250000X0.412500X0.650000X-0.412500X0.650000X-0.412500X-0.650000X0.412500X-0.650000X0*%
%ADD19RoundRect,0.250000X0.412500X1.100000X-0.412500X1.100000X-0.412500X-1.100000X0.412500X-1.100000X0*%
%ADD20RoundRect,0.250000X0.625000X-0.400000X0.625000X0.400000X-0.625000X0.400000X-0.625000X-0.400000X0*%
%ADD21C,1.700000*%
%ADD22R,1.500000X4.000000*%
%ADD23RoundRect,0.250000X0.750000X-0.750000X0.750000X0.750000X-0.750000X0.750000X-0.750000X-0.750000X0*%
%ADD24C,2.000000*%
%ADD25RoundRect,0.250000X0.700000X-0.362500X0.700000X0.362500X-0.700000X0.362500X-0.700000X-0.362500X0*%
%ADD26C,1.473200*%
%ADD27RoundRect,0.250000X-0.325000X-1.100000X0.325000X-1.100000X0.325000X1.100000X-0.325000X1.100000X0*%
%ADD28R,1.200000X0.850000*%
%ADD29RoundRect,0.102000X1.600000X0.800000X-1.600000X0.800000X-1.600000X-0.800000X1.600000X-0.800000X0*%
%ADD30R,2.000000X2.000000*%
%ADD31C,2.300000*%
%ADD32R,1.700000X0.750000*%
%ADD33RoundRect,0.270000X-0.630000X-1.180000X0.630000X-1.180000X0.630000X1.180000X-0.630000X1.180000X0*%
%ADD34RoundRect,0.375000X-0.875000X-1.125000X0.875000X-1.125000X0.875000X1.125000X-0.875000X1.125000X0*%
%ADD35R,2.200000X2.150000*%
%ADD36R,1.820000X1.160000*%
G04 APERTURE END LIST*
D10*
%TO.C,OLED1*%
X150926000Y-57068000D03*
X153466000Y-57068000D03*
X156006000Y-57068000D03*
X158546000Y-57068000D03*
%TD*%
D11*
%TO.C,U1*%
X120700000Y-112259000D03*
D12*
X120700000Y-111424000D03*
D11*
X123240000Y-112259000D03*
D12*
X123240000Y-111424000D03*
D11*
X125780000Y-112259000D03*
D12*
X125780000Y-111424000D03*
D11*
X128320000Y-112259000D03*
D12*
X128320000Y-111424000D03*
D11*
X130860000Y-112259000D03*
D12*
X130860000Y-111424000D03*
D11*
X133400000Y-112259000D03*
D12*
X133400000Y-111424000D03*
D11*
X135940000Y-112259000D03*
D12*
X135940000Y-111424000D03*
X135940000Y-96184000D03*
D13*
X135940000Y-95349000D03*
D12*
X133400000Y-96184000D03*
D13*
X133400000Y-95349000D03*
D12*
X130860000Y-96184000D03*
D13*
X130860000Y-95349000D03*
D12*
X128320000Y-96184000D03*
D13*
X128320000Y-95349000D03*
D12*
X125780000Y-96184000D03*
D13*
X125780000Y-95349000D03*
D12*
X123240000Y-96184000D03*
D13*
X123240000Y-95349000D03*
D12*
X120700000Y-96184000D03*
D13*
X120700000Y-95349000D03*
%TD*%
D14*
%TO.C,C5*%
X160441000Y-74676000D03*
X165441000Y-74676000D03*
%TD*%
D15*
%TO.C,PS1*%
X146157000Y-92268000D03*
X146157000Y-93218000D03*
X146157000Y-94168000D03*
X143657000Y-94168000D03*
X143657000Y-93218000D03*
X143657000Y-92268000D03*
%TD*%
D16*
%TO.C,R4*%
X133604000Y-85064000D03*
X133604000Y-88164000D03*
%TD*%
D17*
%TO.C,C3*%
X133096000Y-119672500D03*
X133096000Y-116547500D03*
%TD*%
D18*
%TO.C,C2*%
X129451500Y-89154000D03*
X126326500Y-89154000D03*
%TD*%
D19*
%TO.C,Cin1*%
X145961500Y-101981000D03*
X142836500Y-101981000D03*
%TD*%
D20*
%TO.C,R3*%
X123063000Y-86259000D03*
X123063000Y-83159000D03*
%TD*%
D17*
%TO.C,C1*%
X123063000Y-80556500D03*
X123063000Y-77431500D03*
%TD*%
D20*
%TO.C,R5*%
X140004000Y-89098000D03*
X140004000Y-85998000D03*
%TD*%
D21*
%TO.C,SW3*%
X170230000Y-64688000D03*
X170230000Y-58188000D03*
X174730000Y-64688000D03*
X174730000Y-58188000D03*
%TD*%
D22*
%TO.C,L1*%
X156222000Y-94234000D03*
X152622000Y-94234000D03*
%TD*%
D23*
%TO.C,J1*%
X181123500Y-63296000D03*
D24*
X181123500Y-60756001D03*
%TD*%
D25*
%TO.C,L2*%
X144780000Y-89165500D03*
X144780000Y-85840500D03*
%TD*%
D16*
%TO.C,Rfbt1*%
X149098000Y-99161000D03*
X149098000Y-102261000D03*
%TD*%
D20*
%TO.C,R6*%
X136144000Y-119660000D03*
X136144000Y-116560000D03*
%TD*%
D26*
%TO.C,U3*%
X124789400Y-121457000D03*
X124789400Y-118917000D03*
X124789400Y-116377000D03*
%TD*%
D27*
%TO.C,COut1*%
X158418000Y-86741000D03*
X161368000Y-86741000D03*
%TD*%
D28*
%TO.C,D1*%
X180594000Y-76709000D03*
X180594000Y-73659000D03*
%TD*%
D29*
%TO.C,C4*%
X152360000Y-73914000D03*
X147360000Y-73914000D03*
%TD*%
D21*
%TO.C,SW4*%
X170266000Y-74034000D03*
X170266000Y-67534000D03*
X174766000Y-74034000D03*
X174766000Y-67534000D03*
%TD*%
D30*
%TO.C,TP1*%
X149860000Y-92964000D03*
%TD*%
D31*
%TO.C,LED1*%
X142494000Y-80137000D03*
D32*
X144994000Y-80137000D03*
X139994000Y-80137000D03*
%TD*%
D33*
%TO.C,ROT1*%
X134072000Y-58928000D03*
X129072000Y-58928000D03*
X131572000Y-58928000D03*
X129072000Y-75528000D03*
X134072000Y-75528000D03*
D34*
X124972000Y-67133400D03*
X138272000Y-67133400D03*
%TD*%
D17*
%TO.C,CBoot1*%
X140081000Y-94145500D03*
X140081000Y-91020500D03*
%TD*%
D35*
%TO.C,D2*%
X151470000Y-87630000D03*
X155870000Y-87630000D03*
%TD*%
D36*
%TO.C,F1*%
X181229000Y-71198000D03*
X181229000Y-68248000D03*
%TD*%
D27*
%TO.C,COut2*%
X158545000Y-81153000D03*
X161495000Y-81153000D03*
%TD*%
D20*
%TO.C,R2*%
X123063000Y-91593000D03*
X123063000Y-88493000D03*
%TD*%
%TO.C,R1*%
X136906000Y-83338000D03*
X136906000Y-80238000D03*
%TD*%
D18*
%TO.C,Cinx1*%
X146088500Y-96266000D03*
X142963500Y-96266000D03*
%TD*%
D20*
%TO.C,Rfbb1*%
X140208000Y-99467000D03*
X140208000Y-96367000D03*
%TD*%
M02*
