%TF.GenerationSoftware,KiCad,Pcbnew,9.0.6*%
%TF.CreationDate,2025-12-03T21:47:33+01:00*%
%TF.ProjectId,hw,68772e6b-6963-4616-945f-706362585858,rev?*%
%TF.SameCoordinates,Original*%
%TF.FileFunction,Copper,L1,Top*%
%TF.FilePolarity,Positive*%
%FSLAX46Y46*%
G04 Gerber Fmt 4.6, Leading zero omitted, Abs format (unit mm)*
G04 Created by KiCad (PCBNEW 9.0.6) date 2025-12-03 21:47:33*
%MOMM*%
%LPD*%
G01*
G04 APERTURE LIST*
G04 Aperture macros list*
%AMRoundRect*
0 Rectangle with rounded corners*
0 $1 Rounding radius*
0 $2 $3 $4 $5 $6 $7 $8 $9 X,Y pos of 4 corners*
0 Add a 4 corners polygon primitive as box body*
4,1,4,$2,$3,$4,$5,$6,$7,$8,$9,$2,$3,0*
0 Add four circle primitives for the rounded corners*
1,1,$1+$1,$2,$3*
1,1,$1+$1,$4,$5*
1,1,$1+$1,$6,$7*
1,1,$1+$1,$8,$9*
0 Add four rect primitives between the rounded corners*
20,1,$1+$1,$2,$3,$4,$5,0*
20,1,$1+$1,$4,$5,$6,$7,0*
20,1,$1+$1,$6,$7,$8,$9,0*
20,1,$1+$1,$8,$9,$2,$3,0*%
G04 Aperture macros list end*
%TA.AperFunction,SMDPad,CuDef*%
%ADD10RoundRect,0.250000X-0.625000X0.400000X-0.625000X-0.400000X0.625000X-0.400000X0.625000X0.400000X0*%
%TD*%
%TA.AperFunction,SMDPad,CuDef*%
%ADD11RoundRect,0.250000X0.412500X0.650000X-0.412500X0.650000X-0.412500X-0.650000X0.412500X-0.650000X0*%
%TD*%
%TA.AperFunction,SMDPad,CuDef*%
%ADD12RoundRect,0.250000X0.625000X-0.400000X0.625000X0.400000X-0.625000X0.400000X-0.625000X-0.400000X0*%
%TD*%
%TA.AperFunction,SMDPad,CuDef*%
%ADD13RoundRect,0.152400X-0.609600X1.063600X-0.609600X-1.063600X0.609600X-1.063600X0.609600X1.063600X0*%
%TD*%
%TA.AperFunction,ComponentPad*%
%ADD14C,1.524000*%
%TD*%
%TA.AperFunction,SMDPad,CuDef*%
%ADD15RoundRect,0.152400X0.609600X-1.063600X0.609600X1.063600X-0.609600X1.063600X-0.609600X-1.063600X0*%
%TD*%
%TA.AperFunction,ComponentPad*%
%ADD16C,1.700000*%
%TD*%
%TA.AperFunction,ComponentPad*%
%ADD17RoundRect,0.250000X0.750000X-0.750000X0.750000X0.750000X-0.750000X0.750000X-0.750000X-0.750000X0*%
%TD*%
%TA.AperFunction,ComponentPad*%
%ADD18C,2.000000*%
%TD*%
%TA.AperFunction,ComponentPad*%
%ADD19C,1.473200*%
%TD*%
%TA.AperFunction,ComponentPad*%
%ADD20O,1.600000X2.000000*%
%TD*%
%TA.AperFunction,SMDPad,CuDef*%
%ADD21RoundRect,0.270000X-0.630000X-1.180000X0.630000X-1.180000X0.630000X1.180000X-0.630000X1.180000X0*%
%TD*%
%TA.AperFunction,SMDPad,CuDef*%
%ADD22RoundRect,0.375000X-0.875000X-1.125000X0.875000X-1.125000X0.875000X1.125000X-0.875000X1.125000X0*%
%TD*%
%TA.AperFunction,SMDPad,CuDef*%
%ADD23RoundRect,0.250000X-0.400000X-0.625000X0.400000X-0.625000X0.400000X0.625000X-0.400000X0.625000X0*%
%TD*%
%TA.AperFunction,ViaPad*%
%ADD24C,0.600000*%
%TD*%
%TA.AperFunction,Conductor*%
%ADD25C,0.200000*%
%TD*%
%TA.AperFunction,Conductor*%
%ADD26C,0.600000*%
%TD*%
G04 APERTURE END LIST*
D10*
%TO.P,R4,1*%
%TO.N,Net-(R4-Pad1)*%
X134366000Y-86080000D03*
%TO.P,R4,2*%
%TO.N,Net-(U1-GPIO4{slash}D3{slash}A3)*%
X134366000Y-89180000D03*
%TD*%
D11*
%TO.P,C2,1*%
%TO.N,Net-(U1-GPIO4{slash}D3{slash}A3)*%
X137706500Y-82042000D03*
%TO.P,C2,2*%
%TO.N,GND*%
X134581500Y-82042000D03*
%TD*%
D12*
%TO.P,R3,1*%
%TO.N,Net-(R2-Pad2)*%
X123698000Y-88926000D03*
%TO.P,R3,2*%
%TO.N,Net-(U1-GPIO3{slash}D2{slash}A2)*%
X123698000Y-85826000D03*
%TD*%
D11*
%TO.P,C1,1*%
%TO.N,Net-(U1-GPIO3{slash}D2{slash}A2)*%
X129324500Y-82042000D03*
%TO.P,C1,2*%
%TO.N,GND*%
X126199500Y-82042000D03*
%TD*%
D12*
%TO.P,R5,1*%
%TO.N,Net-(R4-Pad1)*%
X139954000Y-89180000D03*
%TO.P,R5,2*%
%TO.N,/3V3*%
X139954000Y-86080000D03*
%TD*%
D13*
%TO.P,U1,1,GPIO1/D0/A0*%
%TO.N,Net-(U1-GPIO1{slash}D0{slash}A0)*%
X120650000Y-112341000D03*
D14*
X120650000Y-111506000D03*
D13*
%TO.P,U1,2,GPIO2/DA/A1*%
%TO.N,Net-(U1-GPIO2{slash}DA{slash}A1)*%
X123190000Y-112341000D03*
D14*
X123190000Y-111506000D03*
D13*
%TO.P,U1,3,GPIO3/D2/A2*%
%TO.N,Net-(U1-GPIO3{slash}D2{slash}A2)*%
X125730000Y-112341000D03*
D14*
X125730000Y-111506000D03*
D13*
%TO.P,U1,4,GPIO4/D3/A3*%
%TO.N,Net-(U1-GPIO4{slash}D3{slash}A3)*%
X128270000Y-112341000D03*
D14*
X128270000Y-111506000D03*
D13*
%TO.P,U1,5,GPIO5/D4/I2C_SDA*%
%TO.N,Net-(OLED1-SDA)*%
X130810000Y-112341000D03*
D14*
X130810000Y-111506000D03*
D13*
%TO.P,U1,6,GPIO9/D5/I2C_SCL*%
%TO.N,Net-(OLED1-SCL)*%
X133350000Y-112341000D03*
D14*
X133350000Y-111506000D03*
D13*
%TO.P,U1,7,U0TXD/D6/TX*%
%TO.N,unconnected-(U1-U0TXD{slash}D6{slash}TX-Pad7)_1*%
X135890000Y-112341000D03*
D14*
%TO.N,unconnected-(U1-U0TXD{slash}D6{slash}TX-Pad7)*%
X135890000Y-111506000D03*
%TO.P,U1,8,U0RXD/D7/RX*%
%TO.N,unconnected-(U1-U0RXD{slash}D7{slash}RX-Pad8)_1*%
X135890000Y-96266000D03*
D15*
%TO.N,unconnected-(U1-U0RXD{slash}D7{slash}RX-Pad8)*%
X135890000Y-95431000D03*
D14*
%TO.P,U1,9,GPIO7/D8/A8/SCK*%
%TO.N,Net-(U1-GPIO7{slash}D8{slash}A8{slash}SCK)*%
X133350000Y-96266000D03*
D15*
X133350000Y-95431000D03*
D14*
%TO.P,U1,10,GPIO8/D9/A9/MISO*%
%TO.N,Net-(U1-GPIO8{slash}D9{slash}A9{slash}MISO)*%
X130810000Y-96266000D03*
D15*
X130810000Y-95431000D03*
D14*
%TO.P,U1,11,GPIO9/D10/A10/MOSI*%
%TO.N,Net-(U1-GPIO9{slash}D10{slash}A10{slash}MOSI)*%
X128270000Y-96266000D03*
D15*
X128270000Y-95431000D03*
D14*
%TO.P,U1,12,VCC_3V3*%
%TO.N,/3V3*%
X125730000Y-96266000D03*
D15*
X125730000Y-95431000D03*
D14*
%TO.P,U1,13,GND*%
%TO.N,GND*%
X123190000Y-96266000D03*
D15*
X123190000Y-95431000D03*
D14*
%TO.P,U1,14,VBUS*%
%TO.N,Net-(J1-Pin_1)*%
X120650000Y-96266000D03*
D15*
X120650000Y-95431000D03*
%TD*%
D16*
%TO.P,SW3,1,1*%
%TO.N,Net-(U1-GPIO9{slash}D10{slash}A10{slash}MOSI)*%
X170180000Y-64770000D03*
X170180000Y-58270000D03*
%TO.P,SW3,2,2*%
%TO.N,/3V3*%
X174680000Y-64770000D03*
X174680000Y-58270000D03*
%TD*%
D17*
%TO.P,J1,1,Pin_1*%
%TO.N,Net-(J1-Pin_1)*%
X181073500Y-63378000D03*
D18*
%TO.P,J1,2,Pin_2*%
%TO.N,GND*%
X181073500Y-60838001D03*
%TD*%
D19*
%TO.P,U3,1,OUT*%
%TO.N,Net-(U1-GPIO2{slash}DA{slash}A1)*%
X124739400Y-121539000D03*
%TO.P,U3,2,GND*%
%TO.N,GND*%
X124739400Y-118999000D03*
%TO.P,U3,3,VS*%
%TO.N,/3V3*%
X124739400Y-116459000D03*
%TD*%
D20*
%TO.P,OLED1,1,GND*%
%TO.N,GND*%
X150876000Y-57150000D03*
%TO.P,OLED1,2,VCC*%
%TO.N,/3V3*%
X153416000Y-57150000D03*
%TO.P,OLED1,3,SCL*%
%TO.N,Net-(OLED1-SCL)*%
X155956000Y-57150000D03*
%TO.P,OLED1,4,SDA*%
%TO.N,Net-(OLED1-SDA)*%
X158496000Y-57150000D03*
%TD*%
D16*
%TO.P,SW4,1,1*%
%TO.N,Net-(U1-GPIO8{slash}D9{slash}A9{slash}MISO)*%
X170216000Y-74116000D03*
X170216000Y-67616000D03*
%TO.P,SW4,2,2*%
%TO.N,/3V3*%
X174716000Y-74116000D03*
X174716000Y-67616000D03*
%TD*%
D18*
%TO.P,U2,1,K*%
%TO.N,GND*%
X150168000Y-81288000D03*
%TO.P,U2,2,A*%
%TO.N,Net-(U2-A)*%
X150168000Y-78748000D03*
%TD*%
D21*
%TO.P,ROT1,A,A*%
%TO.N,Net-(R2-Pad2)*%
X134022000Y-59010000D03*
%TO.P,ROT1,B,B*%
%TO.N,Net-(R4-Pad1)*%
X129022000Y-59010000D03*
%TO.P,ROT1,C,C*%
%TO.N,GND*%
X131522000Y-59010000D03*
%TO.P,ROT1,S1,S1*%
%TO.N,Net-(U1-GPIO7{slash}D8{slash}A8{slash}SCK)*%
X129022000Y-75610000D03*
%TO.P,ROT1,S2,S2*%
%TO.N,/3V3*%
X134022000Y-75610000D03*
D22*
%TO.P,ROT1,X*%
%TO.N,N/C*%
X124922000Y-67215400D03*
%TO.P,ROT1,Y*%
X138222000Y-67215400D03*
%TD*%
D12*
%TO.P,R2,1*%
%TO.N,/3V3*%
X129286000Y-89180000D03*
%TO.P,R2,2*%
%TO.N,Net-(R2-Pad2)*%
X129286000Y-86080000D03*
%TD*%
D23*
%TO.P,R1,1*%
%TO.N,Net-(U2-A)*%
X155930000Y-80264000D03*
%TO.P,R1,2*%
%TO.N,Net-(U1-GPIO1{slash}D0{slash}A0)*%
X159030000Y-80264000D03*
%TD*%
D24*
%TO.N,Net-(U1-GPIO3{slash}D2{slash}A2)*%
X125349000Y-101981000D03*
X123317000Y-101219000D03*
%TO.N,Net-(U1-GPIO9{slash}D10{slash}A10{slash}MOSI)*%
X128270000Y-95271500D03*
X148971000Y-98171000D03*
%TO.N,Net-(U1-GPIO4{slash}D3{slash}A3)*%
X137668000Y-86487000D03*
X137668000Y-88265000D03*
%TO.N,Net-(U1-GPIO8{slash}D9{slash}A9{slash}MISO)*%
X134366000Y-92329000D03*
X161798000Y-74930000D03*
X164592000Y-74930000D03*
%TO.N,/3V3*%
X158623000Y-61087000D03*
X164338000Y-61087000D03*
%TO.N,GND*%
X131572000Y-61087000D03*
X124968000Y-82042000D03*
X133350000Y-82042000D03*
%TO.N,Net-(U1-GPIO1{slash}D0{slash}A0)*%
X120650000Y-112500500D03*
X135509000Y-106807000D03*
%TO.N,Net-(R4-Pad1)*%
X134239000Y-84963000D03*
X137795000Y-89662000D03*
%TD*%
D25*
%TO.N,Net-(OLED1-SCL)*%
X133350000Y-111506000D02*
X162560000Y-82296000D01*
X162560000Y-82296000D02*
X162560000Y-63754000D01*
X162560000Y-63754000D02*
X155956000Y-57150000D01*
%TO.N,Net-(U1-GPIO3{slash}D2{slash}A2)*%
X123698000Y-85826000D02*
X125540500Y-85826000D01*
X123317000Y-101219000D02*
X119126000Y-97028000D01*
X128016000Y-73533000D02*
X130048000Y-73533000D01*
X125540500Y-85826000D02*
X129324500Y-82042000D01*
X119126000Y-97028000D02*
X119126000Y-82423000D01*
X125730000Y-102362000D02*
X125349000Y-101981000D01*
X119126000Y-82423000D02*
X128016000Y-73533000D01*
X130048000Y-73533000D02*
X130810000Y-74295000D01*
X130810000Y-80556500D02*
X129324500Y-82042000D01*
X130810000Y-74295000D02*
X130810000Y-80556500D01*
X125730000Y-111506000D02*
X125730000Y-102362000D01*
%TO.N,Net-(OLED1-SDA)*%
X163195000Y-82804000D02*
X163195000Y-61849000D01*
X130810000Y-114300000D02*
X133731000Y-117221000D01*
X136779000Y-117221000D02*
X140716000Y-113284000D01*
X133731000Y-117221000D02*
X136779000Y-117221000D01*
X163195000Y-61849000D02*
X158496000Y-57150000D01*
X140716000Y-113284000D02*
X140716000Y-105283000D01*
X130810000Y-111506000D02*
X130810000Y-114300000D01*
X140716000Y-105283000D02*
X163195000Y-82804000D01*
%TO.N,Net-(U1-GPIO9{slash}D10{slash}A10{slash}MOSI)*%
X157353000Y-89789000D02*
X149987000Y-97155000D01*
X170180000Y-64770000D02*
X163850000Y-71100000D01*
X163850000Y-83292000D02*
X157353000Y-89789000D01*
X163850000Y-71100000D02*
X163850000Y-83292000D01*
X149987000Y-97155000D02*
X148971000Y-98171000D01*
%TO.N,Net-(U1-GPIO4{slash}D3{slash}A3)*%
X134814000Y-94009274D02*
X134814000Y-105684943D01*
X134814000Y-105684943D02*
X128992943Y-111506000D01*
X134366000Y-89180000D02*
X133765000Y-89781000D01*
X136753000Y-89180000D02*
X134366000Y-89180000D01*
X133765000Y-92960274D02*
X134814000Y-94009274D01*
X128992943Y-111506000D02*
X128270000Y-111506000D01*
X137706500Y-82042000D02*
X137706500Y-86448500D01*
X137668000Y-88265000D02*
X136753000Y-89180000D01*
X133765000Y-89781000D02*
X133765000Y-92960274D01*
X137706500Y-86448500D02*
X137668000Y-86487000D01*
%TO.N,Net-(U1-GPIO8{slash}D9{slash}A9{slash}MISO)*%
X170216000Y-74116000D02*
X165406000Y-74116000D01*
X145792378Y-85152782D02*
X138616160Y-92329000D01*
X138616160Y-92329000D02*
X134366000Y-92329000D01*
X170216000Y-67616000D02*
X170216000Y-74116000D01*
X152146108Y-74930000D02*
X145792378Y-81283730D01*
X165406000Y-74116000D02*
X164592000Y-74930000D01*
X145792378Y-81283730D02*
X145792378Y-85152782D01*
X161798000Y-74930000D02*
X152146108Y-74930000D01*
D26*
%TO.N,/3V3*%
X125730000Y-94107000D02*
X125730000Y-92736000D01*
D25*
X174680000Y-64770000D02*
X170997000Y-61087000D01*
D26*
X153416000Y-57150000D02*
X157353000Y-61087000D01*
D25*
X126873000Y-111399690D02*
X134413000Y-103859690D01*
X127381000Y-92456000D02*
X125730000Y-94107000D01*
D26*
X134022000Y-75610000D02*
X136144000Y-77732000D01*
D25*
X124739400Y-116459000D02*
X126873000Y-114325400D01*
D26*
X125730000Y-92736000D02*
X129286000Y-89180000D01*
X138658000Y-87376000D02*
X139954000Y-86080000D01*
D25*
X174680000Y-64770000D02*
X174680000Y-67580000D01*
X134022000Y-75610000D02*
X134956000Y-75610000D01*
D26*
X136144000Y-77732000D02*
X136144000Y-87376000D01*
X164338000Y-61087000D02*
X170997000Y-61087000D01*
D25*
X132693626Y-92456000D02*
X127381000Y-92456000D01*
D26*
X129286000Y-89180000D02*
X131090000Y-87376000D01*
X171863000Y-61087000D02*
X174680000Y-58270000D01*
D25*
X174680000Y-67580000D02*
X174716000Y-67616000D01*
X126873000Y-114325400D02*
X126873000Y-111399690D01*
D26*
X125730000Y-96266000D02*
X125730000Y-94107000D01*
D25*
X174716000Y-67616000D02*
X174716000Y-74116000D01*
D26*
X134956000Y-75610000D02*
X153416000Y-57150000D01*
D25*
X134413000Y-103859690D02*
X134413000Y-94175374D01*
D26*
X136144000Y-87376000D02*
X138658000Y-87376000D01*
X131090000Y-87376000D02*
X136144000Y-87376000D01*
X170997000Y-61087000D02*
X171863000Y-61087000D01*
D25*
X134413000Y-94175374D02*
X132693626Y-92456000D01*
X129417626Y-89180000D02*
X129286000Y-89180000D01*
D26*
X157353000Y-61087000D02*
X158623000Y-61087000D01*
D25*
%TO.N,GND*%
X124739400Y-118999000D02*
X123701800Y-117961400D01*
X123701800Y-114147826D02*
X124253000Y-113596626D01*
X124253000Y-113596626D02*
X124253000Y-97329000D01*
X131522000Y-59010000D02*
X131522000Y-61037000D01*
X126199500Y-82042000D02*
X124968000Y-82042000D01*
X131522000Y-61037000D02*
X131572000Y-61087000D01*
X124253000Y-97329000D02*
X123190000Y-96266000D01*
X134581500Y-82042000D02*
X133350000Y-82042000D01*
X123701800Y-117961400D02*
X123701800Y-114147826D01*
%TO.N,Net-(U1-GPIO1{slash}D0{slash}A0)*%
X135509000Y-106807000D02*
X158877000Y-83439000D01*
X159030000Y-82270000D02*
X159030000Y-80264000D01*
X158877000Y-83439000D02*
X158877000Y-82423000D01*
X158877000Y-82423000D02*
X159030000Y-82270000D01*
%TO.N,Net-(U2-A)*%
X151684000Y-80264000D02*
X150168000Y-78748000D01*
X155930000Y-80264000D02*
X151684000Y-80264000D01*
%TO.N,Net-(U1-GPIO7{slash}D8{slash}A8{slash}SCK)*%
X125289690Y-97329000D02*
X131452000Y-97329000D01*
X129022000Y-75610000D02*
X122522000Y-82110000D01*
X124667000Y-96706310D02*
X125289690Y-97329000D01*
X122522000Y-92030374D02*
X124667000Y-94175374D01*
X131452000Y-97329000D02*
X133350000Y-95431000D01*
X124667000Y-94175374D02*
X124667000Y-96706310D01*
X122522000Y-82110000D02*
X122522000Y-92030374D01*
%TO.N,Net-(R2-Pad2)*%
X126339000Y-88926000D02*
X123698000Y-88926000D01*
X129286000Y-86080000D02*
X129185000Y-86080000D01*
X134022000Y-64669849D02*
X131699000Y-66992849D01*
X129185000Y-86080000D02*
X126339000Y-88926000D01*
X131699000Y-83667000D02*
X129286000Y-86080000D01*
X134022000Y-59010000D02*
X134022000Y-64669849D01*
X131699000Y-66992849D02*
X131699000Y-83667000D01*
%TO.N,Net-(R4-Pad1)*%
X135823000Y-67961151D02*
X135823000Y-58186002D01*
X139472000Y-89662000D02*
X137795000Y-89662000D01*
X132749000Y-84463000D02*
X132749000Y-71035151D01*
X135823000Y-58186002D02*
X134895998Y-57259000D01*
X129022000Y-58885002D02*
X129022000Y-59010000D01*
X134895998Y-57259000D02*
X130648002Y-57259000D01*
X139954000Y-89180000D02*
X139472000Y-89662000D01*
X134239000Y-84963000D02*
X134239000Y-85953000D01*
X134366000Y-86080000D02*
X132749000Y-84463000D01*
X132749000Y-71035151D02*
X135823000Y-67961151D01*
X130648002Y-57259000D02*
X129022000Y-58885002D01*
X134239000Y-85953000D02*
X134366000Y-86080000D01*
%TO.N,Net-(U1-GPIO2{slash}DA{slash}A1)*%
X124739400Y-121539000D02*
X123190000Y-119989600D01*
X123190000Y-119989600D02*
X123190000Y-112341000D01*
%TD*%
M02*
