%TF.GenerationSoftware,KiCad,Pcbnew,9.0.6*%
%TF.CreationDate,2025-12-03T21:47:33+01:00*%
%TF.ProjectId,hw,68772e6b-6963-4616-945f-706362585858,rev?*%
%TF.SameCoordinates,Original*%
%TF.FileFunction,Copper,L2,Bot*%
%TF.FilePolarity,Positive*%
%FSLAX46Y46*%
G04 Gerber Fmt 4.6, Leading zero omitted, Abs format (unit mm)*
G04 Created by KiCad (PCBNEW 9.0.6) date 2025-12-03 21:47:33*
%MOMM*%
%LPD*%
G01*
G04 APERTURE LIST*
G04 Aperture macros list*
%AMRoundRect*
0 Rectangle with rounded corners*
0 $1 Rounding radius*
0 $2 $3 $4 $5 $6 $7 $8 $9 X,Y pos of 4 corners*
0 Add a 4 corners polygon primitive as box body*
4,1,4,$2,$3,$4,$5,$6,$7,$8,$9,$2,$3,0*
0 Add four circle primitives for the rounded corners*
1,1,$1+$1,$2,$3*
1,1,$1+$1,$4,$5*
1,1,$1+$1,$6,$7*
1,1,$1+$1,$8,$9*
0 Add four rect primitives between the rounded corners*
20,1,$1+$1,$2,$3,$4,$5,0*
20,1,$1+$1,$4,$5,$6,$7,0*
20,1,$1+$1,$6,$7,$8,$9,0*
20,1,$1+$1,$8,$9,$2,$3,0*%
G04 Aperture macros list end*
%TA.AperFunction,ComponentPad*%
%ADD10C,1.524000*%
%TD*%
%TA.AperFunction,ComponentPad*%
%ADD11C,1.700000*%
%TD*%
%TA.AperFunction,ComponentPad*%
%ADD12RoundRect,0.250000X0.750000X-0.750000X0.750000X0.750000X-0.750000X0.750000X-0.750000X-0.750000X0*%
%TD*%
%TA.AperFunction,ComponentPad*%
%ADD13C,2.000000*%
%TD*%
%TA.AperFunction,ComponentPad*%
%ADD14C,1.473200*%
%TD*%
%TA.AperFunction,ComponentPad*%
%ADD15O,1.600000X2.000000*%
%TD*%
%TA.AperFunction,ViaPad*%
%ADD16C,0.600000*%
%TD*%
%TA.AperFunction,Conductor*%
%ADD17C,0.200000*%
%TD*%
%TA.AperFunction,Conductor*%
%ADD18C,0.600000*%
%TD*%
%TA.AperFunction,Conductor*%
%ADD19C,1.000000*%
%TD*%
G04 APERTURE END LIST*
D10*
%TO.P,U1,1,GPIO1/D0/A0*%
%TO.N,Net-(U1-GPIO1{slash}D0{slash}A0)*%
X120650000Y-111506000D03*
%TO.P,U1,2,GPIO2/DA/A1*%
%TO.N,Net-(U1-GPIO2{slash}DA{slash}A1)*%
X123190000Y-111506000D03*
%TO.P,U1,3,GPIO3/D2/A2*%
%TO.N,Net-(U1-GPIO3{slash}D2{slash}A2)*%
X125730000Y-111506000D03*
%TO.P,U1,4,GPIO4/D3/A3*%
%TO.N,Net-(U1-GPIO4{slash}D3{slash}A3)*%
X128270000Y-111506000D03*
%TO.P,U1,5,GPIO5/D4/I2C_SDA*%
%TO.N,Net-(OLED1-SDA)*%
X130810000Y-111506000D03*
%TO.P,U1,6,GPIO9/D5/I2C_SCL*%
%TO.N,Net-(OLED1-SCL)*%
X133350000Y-111506000D03*
%TO.P,U1,7,U0TXD/D6/TX*%
%TO.N,unconnected-(U1-U0TXD{slash}D6{slash}TX-Pad7)*%
X135890000Y-111506000D03*
%TO.P,U1,8,U0RXD/D7/RX*%
%TO.N,unconnected-(U1-U0RXD{slash}D7{slash}RX-Pad8)_1*%
X135890000Y-96266000D03*
%TO.P,U1,9,GPIO7/D8/A8/SCK*%
%TO.N,Net-(U1-GPIO7{slash}D8{slash}A8{slash}SCK)*%
X133350000Y-96266000D03*
%TO.P,U1,10,GPIO8/D9/A9/MISO*%
%TO.N,Net-(U1-GPIO8{slash}D9{slash}A9{slash}MISO)*%
X130810000Y-96266000D03*
%TO.P,U1,11,GPIO9/D10/A10/MOSI*%
%TO.N,Net-(U1-GPIO9{slash}D10{slash}A10{slash}MOSI)*%
X128270000Y-96266000D03*
%TO.P,U1,12,VCC_3V3*%
%TO.N,/3V3*%
X125730000Y-96266000D03*
%TO.P,U1,13,GND*%
%TO.N,GND*%
X123190000Y-96266000D03*
%TO.P,U1,14,VBUS*%
%TO.N,Net-(J1-Pin_1)*%
X120650000Y-96266000D03*
%TD*%
D11*
%TO.P,SW3,1,1*%
%TO.N,Net-(U1-GPIO9{slash}D10{slash}A10{slash}MOSI)*%
X170180000Y-64770000D03*
X170180000Y-58270000D03*
%TO.P,SW3,2,2*%
%TO.N,/3V3*%
X174680000Y-64770000D03*
X174680000Y-58270000D03*
%TD*%
D12*
%TO.P,J1,1,Pin_1*%
%TO.N,Net-(J1-Pin_1)*%
X181073500Y-63378000D03*
D13*
%TO.P,J1,2,Pin_2*%
%TO.N,GND*%
X181073500Y-60838001D03*
%TD*%
D14*
%TO.P,U3,1,OUT*%
%TO.N,Net-(U1-GPIO2{slash}DA{slash}A1)*%
X124739400Y-121539000D03*
%TO.P,U3,2,GND*%
%TO.N,GND*%
X124739400Y-118999000D03*
%TO.P,U3,3,VS*%
%TO.N,/3V3*%
X124739400Y-116459000D03*
%TD*%
D15*
%TO.P,OLED1,1,GND*%
%TO.N,GND*%
X150876000Y-57150000D03*
%TO.P,OLED1,2,VCC*%
%TO.N,/3V3*%
X153416000Y-57150000D03*
%TO.P,OLED1,3,SCL*%
%TO.N,Net-(OLED1-SCL)*%
X155956000Y-57150000D03*
%TO.P,OLED1,4,SDA*%
%TO.N,Net-(OLED1-SDA)*%
X158496000Y-57150000D03*
%TD*%
D11*
%TO.P,SW4,1,1*%
%TO.N,Net-(U1-GPIO8{slash}D9{slash}A9{slash}MISO)*%
X170216000Y-74116000D03*
X170216000Y-67616000D03*
%TO.P,SW4,2,2*%
%TO.N,/3V3*%
X174716000Y-74116000D03*
X174716000Y-67616000D03*
%TD*%
D13*
%TO.P,U2,1,K*%
%TO.N,GND*%
X150168000Y-81288000D03*
%TO.P,U2,2,A*%
%TO.N,Net-(U2-A)*%
X150168000Y-78748000D03*
%TD*%
D16*
%TO.N,Net-(U1-GPIO3{slash}D2{slash}A2)*%
X125349000Y-101981000D03*
X123317000Y-101219000D03*
%TO.N,Net-(U1-GPIO9{slash}D10{slash}A10{slash}MOSI)*%
X128270000Y-95271500D03*
X148971000Y-98171000D03*
%TO.N,Net-(U1-GPIO4{slash}D3{slash}A3)*%
X137668000Y-86487000D03*
X137668000Y-88265000D03*
%TO.N,Net-(U1-GPIO8{slash}D9{slash}A9{slash}MISO)*%
X134366000Y-92329000D03*
X161798000Y-74930000D03*
X164592000Y-74930000D03*
%TO.N,/3V3*%
X158623000Y-61087000D03*
X164338000Y-61087000D03*
%TO.N,GND*%
X131572000Y-61087000D03*
X124968000Y-82042000D03*
X133350000Y-82042000D03*
%TO.N,Net-(U1-GPIO1{slash}D0{slash}A0)*%
X120650000Y-112500500D03*
X135509000Y-106807000D03*
%TO.N,Net-(R4-Pad1)*%
X134239000Y-84963000D03*
X137795000Y-89662000D03*
%TD*%
D17*
%TO.N,Net-(U1-GPIO3{slash}D2{slash}A2)*%
X124079000Y-101981000D02*
X123317000Y-101219000D01*
X125349000Y-101981000D02*
X124079000Y-101981000D01*
%TO.N,Net-(U1-GPIO9{slash}D10{slash}A10{slash}MOSI)*%
X170180000Y-58270000D02*
X170180000Y-64770000D01*
X131813500Y-91728000D02*
X128270000Y-95271500D01*
X142528000Y-91728000D02*
X131813500Y-91728000D01*
X148971000Y-98171000D02*
X142528000Y-91728000D01*
%TO.N,Net-(U1-GPIO4{slash}D3{slash}A3)*%
X137668000Y-86487000D02*
X137668000Y-88265000D01*
%TO.N,Net-(U1-GPIO8{slash}D9{slash}A9{slash}MISO)*%
X134366000Y-92329000D02*
X134366000Y-92710000D01*
X134366000Y-92710000D02*
X130810000Y-96266000D01*
X164592000Y-74930000D02*
X161798000Y-74930000D01*
D18*
%TO.N,/3V3*%
X158623000Y-61087000D02*
X164338000Y-61087000D01*
D19*
%TO.N,Net-(J1-Pin_1)*%
X120650000Y-96266000D02*
X118618000Y-98298000D01*
X118618000Y-98298000D02*
X118618000Y-113284000D01*
X181581500Y-71910500D02*
X181581500Y-63886000D01*
X138811000Y-114681000D02*
X181581500Y-71910500D01*
X181581500Y-63886000D02*
X181073500Y-63378000D01*
X118618000Y-113284000D02*
X120015000Y-114681000D01*
X120015000Y-114681000D02*
X138811000Y-114681000D01*
D17*
%TO.N,Net-(U1-GPIO1{slash}D0{slash}A0)*%
X135382000Y-106934000D02*
X135509000Y-106807000D01*
X126216500Y-106934000D02*
X135382000Y-106934000D01*
X126216500Y-106934000D02*
X120650000Y-112500500D01*
%TO.N,Net-(R4-Pad1)*%
X134239000Y-86106000D02*
X134239000Y-84963000D01*
X137795000Y-89662000D02*
X134239000Y-86106000D01*
%TD*%
%TA.AperFunction,Conductor*%
%TO.N,GND*%
G36*
X150090147Y-55705186D02*
G01*
X150135902Y-55757990D01*
X150145846Y-55827148D01*
X150116821Y-55890704D01*
X150095994Y-55909819D01*
X150029105Y-55958417D01*
X150029104Y-55958417D01*
X149884417Y-56103104D01*
X149884417Y-56103105D01*
X149764140Y-56268650D01*
X149671244Y-56450968D01*
X149608009Y-56645582D01*
X149576000Y-56847682D01*
X149576000Y-56900000D01*
X150442988Y-56900000D01*
X150410075Y-56957007D01*
X150376000Y-57084174D01*
X150376000Y-57215826D01*
X150410075Y-57342993D01*
X150442988Y-57400000D01*
X149576000Y-57400000D01*
X149576000Y-57452317D01*
X149608009Y-57654417D01*
X149671244Y-57849031D01*
X149764140Y-58031349D01*
X149884417Y-58196894D01*
X149884417Y-58196895D01*
X150029104Y-58341582D01*
X150194650Y-58461859D01*
X150376968Y-58554754D01*
X150571578Y-58617988D01*
X150626000Y-58626607D01*
X150626000Y-57583012D01*
X150683007Y-57615925D01*
X150810174Y-57650000D01*
X150941826Y-57650000D01*
X151068993Y-57615925D01*
X151126000Y-57583012D01*
X151126000Y-58626606D01*
X151180421Y-58617988D01*
X151375031Y-58554754D01*
X151557349Y-58461859D01*
X151722894Y-58341582D01*
X151722895Y-58341582D01*
X151867582Y-58196895D01*
X151867582Y-58196894D01*
X151987861Y-58031347D01*
X152035234Y-57938371D01*
X152083208Y-57887575D01*
X152151028Y-57870779D01*
X152217164Y-57893316D01*
X152256203Y-57938369D01*
X152303713Y-58031611D01*
X152424028Y-58197213D01*
X152568786Y-58341971D01*
X152723749Y-58454556D01*
X152734390Y-58462287D01*
X152850607Y-58521503D01*
X152916776Y-58555218D01*
X152916778Y-58555218D01*
X152916781Y-58555220D01*
X153012248Y-58586239D01*
X153111465Y-58618477D01*
X153212557Y-58634488D01*
X153313648Y-58650500D01*
X153313649Y-58650500D01*
X153518351Y-58650500D01*
X153518352Y-58650500D01*
X153720534Y-58618477D01*
X153915219Y-58555220D01*
X154097610Y-58462287D01*
X154252273Y-58349919D01*
X154263213Y-58341971D01*
X154263215Y-58341968D01*
X154263219Y-58341966D01*
X154407966Y-58197219D01*
X154407968Y-58197215D01*
X154407971Y-58197213D01*
X154528284Y-58031614D01*
X154528286Y-58031611D01*
X154528287Y-58031610D01*
X154575516Y-57938917D01*
X154623489Y-57888123D01*
X154691310Y-57871328D01*
X154757445Y-57893865D01*
X154796483Y-57938917D01*
X154813854Y-57973008D01*
X154843715Y-58031614D01*
X154964028Y-58197213D01*
X155108786Y-58341971D01*
X155263749Y-58454556D01*
X155274390Y-58462287D01*
X155390607Y-58521503D01*
X155456776Y-58555218D01*
X155456778Y-58555218D01*
X155456781Y-58555220D01*
X155552248Y-58586239D01*
X155651465Y-58618477D01*
X155752557Y-58634488D01*
X155853648Y-58650500D01*
X155853649Y-58650500D01*
X156058351Y-58650500D01*
X156058352Y-58650500D01*
X156260534Y-58618477D01*
X156455219Y-58555220D01*
X156637610Y-58462287D01*
X156792273Y-58349919D01*
X156803213Y-58341971D01*
X156803215Y-58341968D01*
X156803219Y-58341966D01*
X156947966Y-58197219D01*
X156947968Y-58197215D01*
X156947971Y-58197213D01*
X157068284Y-58031614D01*
X157068286Y-58031611D01*
X157068287Y-58031610D01*
X157115516Y-57938917D01*
X157163489Y-57888123D01*
X157231310Y-57871328D01*
X157297445Y-57893865D01*
X157336483Y-57938917D01*
X157353854Y-57973008D01*
X157383715Y-58031614D01*
X157504028Y-58197213D01*
X157648786Y-58341971D01*
X157803749Y-58454556D01*
X157814390Y-58462287D01*
X157930607Y-58521503D01*
X157996776Y-58555218D01*
X157996778Y-58555218D01*
X157996781Y-58555220D01*
X158092248Y-58586239D01*
X158191465Y-58618477D01*
X158292557Y-58634488D01*
X158393648Y-58650500D01*
X158393649Y-58650500D01*
X158598351Y-58650500D01*
X158598352Y-58650500D01*
X158800534Y-58618477D01*
X158995219Y-58555220D01*
X159177610Y-58462287D01*
X159332273Y-58349919D01*
X159343213Y-58341971D01*
X159343215Y-58341968D01*
X159343219Y-58341966D01*
X159487966Y-58197219D01*
X159512309Y-58163713D01*
X168829500Y-58163713D01*
X168829500Y-58376286D01*
X168857766Y-58554754D01*
X168862754Y-58586243D01*
X168910481Y-58733132D01*
X168928444Y-58788414D01*
X169024951Y-58977820D01*
X169149890Y-59149786D01*
X169300213Y-59300109D01*
X169472184Y-59425051D01*
X169472184Y-59425052D01*
X169511793Y-59445233D01*
X169562590Y-59493206D01*
X169579500Y-59555718D01*
X169579500Y-63484281D01*
X169559815Y-63551320D01*
X169511795Y-63594765D01*
X169472185Y-63614947D01*
X169472184Y-63614948D01*
X169300213Y-63739890D01*
X169149890Y-63890213D01*
X169024951Y-64062179D01*
X168928444Y-64251585D01*
X168862753Y-64453760D01*
X168860083Y-64470621D01*
X168829500Y-64663713D01*
X168829500Y-64876287D01*
X168829851Y-64878500D01*
X168862753Y-65086239D01*
X168928444Y-65288414D01*
X169024951Y-65477820D01*
X169149890Y-65649786D01*
X169300213Y-65800109D01*
X169472179Y-65925048D01*
X169472181Y-65925049D01*
X169472184Y-65925051D01*
X169661588Y-66021557D01*
X169844283Y-66080918D01*
X169901956Y-66120354D01*
X169929155Y-66184713D01*
X169917240Y-66253559D01*
X169869996Y-66305035D01*
X169844282Y-66316779D01*
X169697583Y-66364444D01*
X169508179Y-66460951D01*
X169336213Y-66585890D01*
X169185890Y-66736213D01*
X169060951Y-66908179D01*
X168964444Y-67097585D01*
X168898753Y-67299760D01*
X168865500Y-67509713D01*
X168865500Y-67722286D01*
X168891145Y-67884206D01*
X168898754Y-67932243D01*
X168910652Y-67968862D01*
X168964444Y-68134414D01*
X169060951Y-68323820D01*
X169185890Y-68495786D01*
X169336213Y-68646109D01*
X169508179Y-68771048D01*
X169508181Y-68771049D01*
X169508184Y-68771051D01*
X169697588Y-68867557D01*
X169899757Y-68933246D01*
X170109713Y-68966500D01*
X170109714Y-68966500D01*
X170322286Y-68966500D01*
X170322287Y-68966500D01*
X170532243Y-68933246D01*
X170734412Y-68867557D01*
X170923816Y-68771051D01*
X170962058Y-68743267D01*
X171095786Y-68646109D01*
X171095788Y-68646106D01*
X171095792Y-68646104D01*
X171246104Y-68495792D01*
X171246106Y-68495788D01*
X171246109Y-68495786D01*
X171371048Y-68323820D01*
X171371047Y-68323820D01*
X171371051Y-68323816D01*
X171467557Y-68134412D01*
X171533246Y-67932243D01*
X171566500Y-67722287D01*
X171566500Y-67509713D01*
X171533246Y-67299757D01*
X171467557Y-67097588D01*
X171371051Y-66908184D01*
X171371049Y-66908181D01*
X171371048Y-66908179D01*
X171246109Y-66736213D01*
X171095786Y-66585890D01*
X170923820Y-66460951D01*
X170734414Y-66364444D01*
X170734413Y-66364443D01*
X170734412Y-66364443D01*
X170551717Y-66305081D01*
X170494042Y-66265644D01*
X170466844Y-66201286D01*
X170478759Y-66132439D01*
X170526003Y-66080964D01*
X170551710Y-66069223D01*
X170698412Y-66021557D01*
X170887816Y-65925051D01*
X170995186Y-65847043D01*
X171059786Y-65800109D01*
X171059788Y-65800106D01*
X171059792Y-65800104D01*
X171210104Y-65649792D01*
X171210106Y-65649788D01*
X171210109Y-65649786D01*
X171335048Y-65477820D01*
X171335047Y-65477820D01*
X171335051Y-65477816D01*
X171431557Y-65288412D01*
X171497246Y-65086243D01*
X171530500Y-64876287D01*
X171530500Y-64663713D01*
X173329500Y-64663713D01*
X173329500Y-64876287D01*
X173329851Y-64878500D01*
X173362753Y-65086239D01*
X173428444Y-65288414D01*
X173524951Y-65477820D01*
X173649890Y-65649786D01*
X173800213Y-65800109D01*
X173972179Y-65925048D01*
X173972181Y-65925049D01*
X173972184Y-65925051D01*
X174161588Y-66021557D01*
X174344283Y-66080918D01*
X174401956Y-66120354D01*
X174429155Y-66184713D01*
X174417240Y-66253559D01*
X174369996Y-66305035D01*
X174344282Y-66316779D01*
X174197583Y-66364444D01*
X174008179Y-66460951D01*
X173836213Y-66585890D01*
X173685890Y-66736213D01*
X173560951Y-66908179D01*
X173464444Y-67097585D01*
X173398753Y-67299760D01*
X173365500Y-67509713D01*
X173365500Y-67722286D01*
X173391145Y-67884206D01*
X173398754Y-67932243D01*
X173410652Y-67968862D01*
X173464444Y-68134414D01*
X173560951Y-68323820D01*
X173685890Y-68495786D01*
X173836213Y-68646109D01*
X174008179Y-68771048D01*
X174008181Y-68771049D01*
X174008184Y-68771051D01*
X174197588Y-68867557D01*
X174399757Y-68933246D01*
X174609713Y-68966500D01*
X174609714Y-68966500D01*
X174822286Y-68966500D01*
X174822287Y-68966500D01*
X175032243Y-68933246D01*
X175234412Y-68867557D01*
X175423816Y-68771051D01*
X175462058Y-68743267D01*
X175595786Y-68646109D01*
X175595788Y-68646106D01*
X175595792Y-68646104D01*
X175746104Y-68495792D01*
X175746106Y-68495788D01*
X175746109Y-68495786D01*
X175871048Y-68323820D01*
X175871047Y-68323820D01*
X175871051Y-68323816D01*
X175967557Y-68134412D01*
X176033246Y-67932243D01*
X176066500Y-67722287D01*
X176066500Y-67509713D01*
X176033246Y-67299757D01*
X175967557Y-67097588D01*
X175871051Y-66908184D01*
X175871049Y-66908181D01*
X175871048Y-66908179D01*
X175746109Y-66736213D01*
X175595786Y-66585890D01*
X175423820Y-66460951D01*
X175234414Y-66364444D01*
X175234413Y-66364443D01*
X175234412Y-66364443D01*
X175051717Y-66305081D01*
X174994042Y-66265644D01*
X174966844Y-66201286D01*
X174978759Y-66132439D01*
X175026003Y-66080964D01*
X175051710Y-66069223D01*
X175198412Y-66021557D01*
X175387816Y-65925051D01*
X175495186Y-65847043D01*
X175559786Y-65800109D01*
X175559788Y-65800106D01*
X175559792Y-65800104D01*
X175710104Y-65649792D01*
X175710106Y-65649788D01*
X175710109Y-65649786D01*
X175835048Y-65477820D01*
X175835047Y-65477820D01*
X175835051Y-65477816D01*
X175931557Y-65288412D01*
X175997246Y-65086243D01*
X176030500Y-64876287D01*
X176030500Y-64663713D01*
X175997246Y-64453757D01*
X175931557Y-64251588D01*
X175835051Y-64062184D01*
X175835049Y-64062181D01*
X175835048Y-64062179D01*
X175710109Y-63890213D01*
X175559786Y-63739890D01*
X175387820Y-63614951D01*
X175198414Y-63518444D01*
X175198413Y-63518443D01*
X175198412Y-63518443D01*
X174996243Y-63452754D01*
X174996241Y-63452753D01*
X174996240Y-63452753D01*
X174834957Y-63427208D01*
X174786287Y-63419500D01*
X174573713Y-63419500D01*
X174525042Y-63427208D01*
X174363760Y-63452753D01*
X174161585Y-63518444D01*
X173972179Y-63614951D01*
X173800213Y-63739890D01*
X173649890Y-63890213D01*
X173524951Y-64062179D01*
X173428444Y-64251585D01*
X173362753Y-64453760D01*
X173360083Y-64470621D01*
X173329500Y-64663713D01*
X171530500Y-64663713D01*
X171497246Y-64453757D01*
X171431557Y-64251588D01*
X171335051Y-64062184D01*
X171335049Y-64062181D01*
X171335048Y-64062179D01*
X171210109Y-63890213D01*
X171059786Y-63739890D01*
X170887815Y-63614948D01*
X170887814Y-63614947D01*
X170848205Y-63594765D01*
X170797409Y-63546791D01*
X170780500Y-63484281D01*
X170780500Y-59555718D01*
X170800185Y-59488679D01*
X170848207Y-59445233D01*
X170887815Y-59425052D01*
X170887815Y-59425051D01*
X170887816Y-59425051D01*
X171007631Y-59338001D01*
X171059786Y-59300109D01*
X171059788Y-59300106D01*
X171059792Y-59300104D01*
X171210104Y-59149792D01*
X171210106Y-59149788D01*
X171210109Y-59149786D01*
X171335048Y-58977820D01*
X171335047Y-58977820D01*
X171335051Y-58977816D01*
X171431557Y-58788412D01*
X171497246Y-58586243D01*
X171530500Y-58376287D01*
X171530500Y-58163713D01*
X173329500Y-58163713D01*
X173329500Y-58376286D01*
X173357766Y-58554754D01*
X173362754Y-58586243D01*
X173410481Y-58733132D01*
X173428444Y-58788414D01*
X173524951Y-58977820D01*
X173649890Y-59149786D01*
X173800213Y-59300109D01*
X173972179Y-59425048D01*
X173972181Y-59425049D01*
X173972184Y-59425051D01*
X174161588Y-59521557D01*
X174363757Y-59587246D01*
X174573713Y-59620500D01*
X174573714Y-59620500D01*
X174786286Y-59620500D01*
X174786287Y-59620500D01*
X174996243Y-59587246D01*
X175198412Y-59521557D01*
X175387816Y-59425051D01*
X175417243Y-59403671D01*
X175559786Y-59300109D01*
X175559788Y-59300106D01*
X175559792Y-59300104D01*
X175710104Y-59149792D01*
X175710106Y-59149788D01*
X175710109Y-59149786D01*
X175835048Y-58977820D01*
X175835047Y-58977820D01*
X175835051Y-58977816D01*
X175931557Y-58788412D01*
X175997246Y-58586243D01*
X176030500Y-58376287D01*
X176030500Y-58163713D01*
X175997246Y-57953757D01*
X175931557Y-57751588D01*
X175835051Y-57562184D01*
X175835049Y-57562181D01*
X175835048Y-57562179D01*
X175710109Y-57390213D01*
X175559786Y-57239890D01*
X175387820Y-57114951D01*
X175198414Y-57018444D01*
X175198413Y-57018443D01*
X175198412Y-57018443D01*
X174996243Y-56952754D01*
X174996241Y-56952753D01*
X174996240Y-56952753D01*
X174834957Y-56927208D01*
X174786287Y-56919500D01*
X174573713Y-56919500D01*
X174525042Y-56927208D01*
X174363760Y-56952753D01*
X174161585Y-57018444D01*
X173972179Y-57114951D01*
X173800213Y-57239890D01*
X173649890Y-57390213D01*
X173524951Y-57562179D01*
X173428444Y-57751585D01*
X173362753Y-57953760D01*
X173329500Y-58163713D01*
X171530500Y-58163713D01*
X171497246Y-57953757D01*
X171431557Y-57751588D01*
X171335051Y-57562184D01*
X171335049Y-57562181D01*
X171335048Y-57562179D01*
X171210109Y-57390213D01*
X171059786Y-57239890D01*
X170887820Y-57114951D01*
X170698414Y-57018444D01*
X170698413Y-57018443D01*
X170698412Y-57018443D01*
X170496243Y-56952754D01*
X170496241Y-56952753D01*
X170496240Y-56952753D01*
X170334957Y-56927208D01*
X170286287Y-56919500D01*
X170073713Y-56919500D01*
X170025042Y-56927208D01*
X169863760Y-56952753D01*
X169661585Y-57018444D01*
X169472179Y-57114951D01*
X169300213Y-57239890D01*
X169149890Y-57390213D01*
X169024951Y-57562179D01*
X168928444Y-57751585D01*
X168862753Y-57953760D01*
X168829500Y-58163713D01*
X159512309Y-58163713D01*
X159608287Y-58031610D01*
X159701220Y-57849219D01*
X159764477Y-57654534D01*
X159796500Y-57452352D01*
X159796500Y-56847648D01*
X159770592Y-56684075D01*
X159764477Y-56645465D01*
X159735127Y-56555137D01*
X159701220Y-56450781D01*
X159701218Y-56450778D01*
X159701218Y-56450776D01*
X159655515Y-56361080D01*
X159608287Y-56268390D01*
X159600556Y-56257749D01*
X159487971Y-56102786D01*
X159343219Y-55958034D01*
X159341577Y-55956841D01*
X159276856Y-55909819D01*
X159234191Y-55854490D01*
X159228212Y-55784877D01*
X159260817Y-55723081D01*
X159321655Y-55688724D01*
X159349742Y-55685501D01*
X177127602Y-55685501D01*
X177150294Y-55687594D01*
X177177076Y-55692581D01*
X177185936Y-55694572D01*
X177675149Y-55823524D01*
X177746627Y-55842365D01*
X177755363Y-55845015D01*
X178303643Y-56033650D01*
X178312138Y-56036926D01*
X178845095Y-56265406D01*
X178853331Y-56269302D01*
X179368004Y-56536356D01*
X179375932Y-56540848D01*
X179545699Y-56645465D01*
X179869564Y-56845044D01*
X179877154Y-56850116D01*
X180348909Y-57191134D01*
X180352559Y-57193876D01*
X181833740Y-58349919D01*
X181838572Y-58353891D01*
X182139116Y-58613883D01*
X182148140Y-58622522D01*
X182418844Y-58909212D01*
X182426938Y-58918699D01*
X182571961Y-59107180D01*
X182667385Y-59231198D01*
X182674501Y-59241482D01*
X182882226Y-59576573D01*
X182888271Y-59587520D01*
X183061199Y-59941852D01*
X183066110Y-59953353D01*
X183202465Y-60323291D01*
X183206193Y-60335229D01*
X183304592Y-60717017D01*
X183307099Y-60729269D01*
X183366544Y-61119042D01*
X183367803Y-61131484D01*
X183387842Y-61528370D01*
X183388000Y-61534623D01*
X183388000Y-61780624D01*
X183387618Y-61790353D01*
X183367657Y-62043977D01*
X183364613Y-62063195D01*
X183306363Y-62305824D01*
X183300350Y-62324330D01*
X183204866Y-62554850D01*
X183196032Y-62572187D01*
X183065657Y-62784939D01*
X183054220Y-62800680D01*
X182892167Y-62990420D01*
X182878420Y-63004167D01*
X182811313Y-63061483D01*
X182778530Y-63089482D01*
X182714769Y-63118052D01*
X182645683Y-63107614D01*
X182593207Y-63061483D01*
X182573999Y-62995191D01*
X182573999Y-62577998D01*
X182573998Y-62577981D01*
X182563499Y-62475203D01*
X182563498Y-62475200D01*
X182537583Y-62396994D01*
X182508314Y-62308666D01*
X182416212Y-62159344D01*
X182292156Y-62035288D01*
X182142834Y-61943186D01*
X181976297Y-61888001D01*
X181976295Y-61888000D01*
X181873516Y-61877500D01*
X181810807Y-61877500D01*
X181743768Y-61857815D01*
X181723126Y-61841181D01*
X181284559Y-61402613D01*
X181305091Y-61397112D01*
X181441908Y-61318120D01*
X181553619Y-61206409D01*
X181632611Y-61069592D01*
X181638112Y-61049060D01*
X182296158Y-61707106D01*
X182296158Y-61707105D01*
X182356414Y-61624170D01*
X182356418Y-61624164D01*
X182463602Y-61413803D01*
X182536565Y-61189248D01*
X182573500Y-60956053D01*
X182573500Y-60719948D01*
X182536565Y-60486753D01*
X182463602Y-60262198D01*
X182356414Y-60051829D01*
X182296158Y-59968895D01*
X182296158Y-59968894D01*
X181638112Y-60626941D01*
X181632611Y-60606410D01*
X181553619Y-60469593D01*
X181441908Y-60357882D01*
X181305091Y-60278890D01*
X181284559Y-60273388D01*
X181942605Y-59615341D01*
X181942604Y-59615339D01*
X181859674Y-59555088D01*
X181649302Y-59447898D01*
X181424747Y-59374935D01*
X181424748Y-59374935D01*
X181191552Y-59338001D01*
X180955448Y-59338001D01*
X180722252Y-59374935D01*
X180497697Y-59447898D01*
X180287330Y-59555085D01*
X180204394Y-59615341D01*
X180862441Y-60273388D01*
X180841909Y-60278890D01*
X180705092Y-60357882D01*
X180593381Y-60469593D01*
X180514389Y-60606410D01*
X180508887Y-60626941D01*
X179850840Y-59968895D01*
X179790584Y-60051831D01*
X179683397Y-60262198D01*
X179610434Y-60486753D01*
X179573500Y-60719948D01*
X179573500Y-60956053D01*
X179610434Y-61189248D01*
X179683397Y-61413803D01*
X179790587Y-61624175D01*
X179850838Y-61707105D01*
X179850840Y-61707106D01*
X180508887Y-61049059D01*
X180514389Y-61069592D01*
X180593381Y-61206409D01*
X180705092Y-61318120D01*
X180841909Y-61397112D01*
X180862440Y-61402613D01*
X180423872Y-61841181D01*
X180362549Y-61874666D01*
X180336193Y-61877500D01*
X180273499Y-61877500D01*
X180273480Y-61877501D01*
X180170703Y-61888000D01*
X180170700Y-61888001D01*
X180004168Y-61943185D01*
X180004163Y-61943187D01*
X179854842Y-62035289D01*
X179730789Y-62159342D01*
X179638687Y-62308663D01*
X179638686Y-62308666D01*
X179583501Y-62475203D01*
X179583501Y-62475204D01*
X179583500Y-62475204D01*
X179573000Y-62577983D01*
X179573000Y-64178001D01*
X179573001Y-64178018D01*
X179583500Y-64280796D01*
X179583501Y-64280799D01*
X179638685Y-64447331D01*
X179638687Y-64447336D01*
X179673569Y-64503888D01*
X179730788Y-64596656D01*
X179854844Y-64720712D01*
X179921114Y-64761587D01*
X179967838Y-64813535D01*
X179980002Y-64865219D01*
X180033016Y-68311069D01*
X180034101Y-68381569D01*
X180034089Y-68386065D01*
X180022122Y-68959224D01*
X180021609Y-68968200D01*
X179968352Y-69536758D01*
X179967189Y-69545673D01*
X179872883Y-70108849D01*
X179871078Y-70117657D01*
X179736208Y-70672545D01*
X179733769Y-70681198D01*
X179559055Y-71224837D01*
X179555996Y-71233291D01*
X179342344Y-71762855D01*
X179338680Y-71771065D01*
X179087225Y-72283749D01*
X179082976Y-72291672D01*
X178795032Y-72784794D01*
X178790220Y-72792388D01*
X178467312Y-73263339D01*
X178461963Y-73270565D01*
X178105767Y-73716898D01*
X178099908Y-73723717D01*
X177710791Y-74144709D01*
X177707680Y-74147955D01*
X169379258Y-82527630D01*
X142404146Y-109668743D01*
X141723065Y-110354014D01*
X141722796Y-110354283D01*
X141128715Y-110948363D01*
X141125768Y-110951215D01*
X140760580Y-111293010D01*
X140753819Y-111298894D01*
X140311195Y-111656844D01*
X140304027Y-111662224D01*
X139836703Y-111987272D01*
X139829165Y-111992120D01*
X139339600Y-112282554D01*
X139331732Y-112286846D01*
X138822432Y-112541177D01*
X138814274Y-112544888D01*
X138287971Y-112761754D01*
X138279567Y-112764867D01*
X137738959Y-112943156D01*
X137730352Y-112945654D01*
X137178265Y-113084433D01*
X137169499Y-113086302D01*
X136608845Y-113184838D01*
X136599976Y-113186068D01*
X136033659Y-113243853D01*
X136024721Y-113244439D01*
X135453486Y-113261231D01*
X135449004Y-113261282D01*
X133342045Y-113247047D01*
X127637032Y-113208499D01*
X127632626Y-113208391D01*
X127094441Y-113185611D01*
X127085654Y-113184926D01*
X126552626Y-113124223D01*
X126543910Y-113122915D01*
X126016546Y-113024504D01*
X126007945Y-113022580D01*
X125908315Y-112996547D01*
X125848429Y-112960554D01*
X125817510Y-112897898D01*
X125825373Y-112828472D01*
X125869523Y-112774319D01*
X125920264Y-112754102D01*
X126025636Y-112737413D01*
X126214632Y-112676005D01*
X126391694Y-112585787D01*
X126552464Y-112468981D01*
X126692981Y-112328464D01*
X126809787Y-112167694D01*
X126889515Y-112011218D01*
X126937490Y-111960423D01*
X127005311Y-111943628D01*
X127071446Y-111966165D01*
X127110484Y-112011218D01*
X127190213Y-112167694D01*
X127307019Y-112328464D01*
X127447536Y-112468981D01*
X127608306Y-112585787D01*
X127649607Y-112606831D01*
X127785367Y-112676005D01*
X127785370Y-112676006D01*
X127879866Y-112706709D01*
X127974364Y-112737413D01*
X128170639Y-112768500D01*
X128170640Y-112768500D01*
X128369360Y-112768500D01*
X128369361Y-112768500D01*
X128565636Y-112737413D01*
X128754632Y-112676005D01*
X128931694Y-112585787D01*
X129092464Y-112468981D01*
X129232981Y-112328464D01*
X129349787Y-112167694D01*
X129429515Y-112011218D01*
X129477490Y-111960423D01*
X129545311Y-111943628D01*
X129611446Y-111966165D01*
X129650484Y-112011218D01*
X129730213Y-112167694D01*
X129847019Y-112328464D01*
X129987536Y-112468981D01*
X130148306Y-112585787D01*
X130189607Y-112606831D01*
X130325367Y-112676005D01*
X130325370Y-112676006D01*
X130419866Y-112706709D01*
X130514364Y-112737413D01*
X130710639Y-112768500D01*
X130710640Y-112768500D01*
X130909360Y-112768500D01*
X130909361Y-112768500D01*
X131105636Y-112737413D01*
X131294632Y-112676005D01*
X131471694Y-112585787D01*
X131632464Y-112468981D01*
X131772981Y-112328464D01*
X131889787Y-112167694D01*
X131969515Y-112011218D01*
X132017490Y-111960423D01*
X132085311Y-111943628D01*
X132151446Y-111966165D01*
X132190484Y-112011218D01*
X132270213Y-112167694D01*
X132387019Y-112328464D01*
X132527536Y-112468981D01*
X132688306Y-112585787D01*
X132729607Y-112606831D01*
X132865367Y-112676005D01*
X132865370Y-112676006D01*
X132959866Y-112706709D01*
X133054364Y-112737413D01*
X133250639Y-112768500D01*
X133250640Y-112768500D01*
X133449360Y-112768500D01*
X133449361Y-112768500D01*
X133645636Y-112737413D01*
X133834632Y-112676005D01*
X134011694Y-112585787D01*
X134172464Y-112468981D01*
X134312981Y-112328464D01*
X134429787Y-112167694D01*
X134509515Y-112011218D01*
X134557490Y-111960423D01*
X134625311Y-111943628D01*
X134691446Y-111966165D01*
X134730484Y-112011218D01*
X134810213Y-112167694D01*
X134927019Y-112328464D01*
X135067536Y-112468981D01*
X135228306Y-112585787D01*
X135269607Y-112606831D01*
X135405367Y-112676005D01*
X135405370Y-112676006D01*
X135499866Y-112706709D01*
X135594364Y-112737413D01*
X135790639Y-112768500D01*
X135790640Y-112768500D01*
X135989360Y-112768500D01*
X135989361Y-112768500D01*
X136185636Y-112737413D01*
X136374632Y-112676005D01*
X136551694Y-112585787D01*
X136712464Y-112468981D01*
X136852981Y-112328464D01*
X136969787Y-112167694D01*
X137060005Y-111990632D01*
X137121413Y-111801636D01*
X137152500Y-111605361D01*
X137152500Y-111406639D01*
X137121413Y-111210364D01*
X137060005Y-111021368D01*
X137060005Y-111021367D01*
X136969786Y-110844305D01*
X136852981Y-110683536D01*
X136712464Y-110543019D01*
X136551694Y-110426213D01*
X136519260Y-110409687D01*
X136374632Y-110335994D01*
X136374629Y-110335993D01*
X136185637Y-110274587D01*
X136087498Y-110259043D01*
X135989361Y-110243500D01*
X135790639Y-110243500D01*
X135725214Y-110253862D01*
X135594362Y-110274587D01*
X135405370Y-110335993D01*
X135405367Y-110335994D01*
X135228305Y-110426213D01*
X135067533Y-110543021D01*
X134927021Y-110683533D01*
X134810213Y-110844305D01*
X134730485Y-111000780D01*
X134682510Y-111051576D01*
X134614689Y-111068371D01*
X134548554Y-111045833D01*
X134509515Y-111000780D01*
X134429786Y-110844305D01*
X134312981Y-110683536D01*
X134172464Y-110543019D01*
X134011694Y-110426213D01*
X133979260Y-110409687D01*
X133834632Y-110335994D01*
X133834629Y-110335993D01*
X133645637Y-110274587D01*
X133547498Y-110259043D01*
X133449361Y-110243500D01*
X133250639Y-110243500D01*
X133185214Y-110253862D01*
X133054362Y-110274587D01*
X132865370Y-110335993D01*
X132865367Y-110335994D01*
X132688305Y-110426213D01*
X132527533Y-110543021D01*
X132387021Y-110683533D01*
X132270213Y-110844305D01*
X132190485Y-111000780D01*
X132142510Y-111051576D01*
X132074689Y-111068371D01*
X132008554Y-111045833D01*
X131969515Y-111000780D01*
X131889786Y-110844305D01*
X131772981Y-110683536D01*
X131632464Y-110543019D01*
X131471694Y-110426213D01*
X131439260Y-110409687D01*
X131294632Y-110335994D01*
X131294629Y-110335993D01*
X131105637Y-110274587D01*
X131007498Y-110259043D01*
X130909361Y-110243500D01*
X130710639Y-110243500D01*
X130645214Y-110253862D01*
X130514362Y-110274587D01*
X130325370Y-110335993D01*
X130325367Y-110335994D01*
X130148305Y-110426213D01*
X129987533Y-110543021D01*
X129847021Y-110683533D01*
X129730213Y-110844305D01*
X129650485Y-111000780D01*
X129602510Y-111051576D01*
X129534689Y-111068371D01*
X129468554Y-111045833D01*
X129429515Y-111000780D01*
X129349786Y-110844305D01*
X129232981Y-110683536D01*
X129092464Y-110543019D01*
X128931694Y-110426213D01*
X128899260Y-110409687D01*
X128754632Y-110335994D01*
X128754629Y-110335993D01*
X128565637Y-110274587D01*
X128467498Y-110259043D01*
X128369361Y-110243500D01*
X128170639Y-110243500D01*
X128105214Y-110253862D01*
X127974362Y-110274587D01*
X127785370Y-110335993D01*
X127785367Y-110335994D01*
X127608305Y-110426213D01*
X127447533Y-110543021D01*
X127307021Y-110683533D01*
X127190213Y-110844305D01*
X127110485Y-111000780D01*
X127062510Y-111051576D01*
X126994689Y-111068371D01*
X126928554Y-111045833D01*
X126889515Y-111000780D01*
X126809786Y-110844305D01*
X126692981Y-110683536D01*
X126552464Y-110543019D01*
X126391694Y-110426213D01*
X126359260Y-110409687D01*
X126214632Y-110335994D01*
X126214629Y-110335993D01*
X126025637Y-110274587D01*
X125927498Y-110259043D01*
X125829361Y-110243500D01*
X125630639Y-110243500D01*
X125565214Y-110253862D01*
X125434362Y-110274587D01*
X125245370Y-110335993D01*
X125245367Y-110335994D01*
X125068305Y-110426213D01*
X124907533Y-110543021D01*
X124767021Y-110683533D01*
X124650213Y-110844305D01*
X124570485Y-111000780D01*
X124522510Y-111051576D01*
X124454689Y-111068371D01*
X124388554Y-111045833D01*
X124349515Y-111000780D01*
X124269786Y-110844305D01*
X124152981Y-110683536D01*
X124012464Y-110543019D01*
X123851694Y-110426213D01*
X123819483Y-110409800D01*
X123768688Y-110361824D01*
X123751894Y-110294003D01*
X123774433Y-110227869D01*
X123788093Y-110211641D01*
X126428917Y-107570819D01*
X126490240Y-107537334D01*
X126516598Y-107534500D01*
X135148869Y-107534500D01*
X135196320Y-107543938D01*
X135275503Y-107576737D01*
X135275506Y-107576737D01*
X135275511Y-107576739D01*
X135430153Y-107607499D01*
X135430156Y-107607500D01*
X135430158Y-107607500D01*
X135587844Y-107607500D01*
X135587845Y-107607499D01*
X135742497Y-107576737D01*
X135888179Y-107516394D01*
X136019289Y-107428789D01*
X136130789Y-107317289D01*
X136218394Y-107186179D01*
X136278737Y-107040497D01*
X136309500Y-106885842D01*
X136309500Y-106728158D01*
X136309500Y-106728155D01*
X136309499Y-106728153D01*
X136289667Y-106628451D01*
X136278737Y-106573503D01*
X136278735Y-106573498D01*
X136218397Y-106427827D01*
X136218390Y-106427814D01*
X136130789Y-106296711D01*
X136130786Y-106296707D01*
X136019292Y-106185213D01*
X136019288Y-106185210D01*
X135888185Y-106097609D01*
X135888172Y-106097602D01*
X135742501Y-106037264D01*
X135742489Y-106037261D01*
X135587845Y-106006500D01*
X135587842Y-106006500D01*
X135430158Y-106006500D01*
X135430155Y-106006500D01*
X135275510Y-106037261D01*
X135275498Y-106037264D01*
X135129827Y-106097602D01*
X135129814Y-106097609D01*
X134998711Y-106185210D01*
X134998707Y-106185213D01*
X134886740Y-106297181D01*
X134825417Y-106330666D01*
X134799059Y-106333500D01*
X126303170Y-106333500D01*
X126303154Y-106333499D01*
X126295558Y-106333499D01*
X126137443Y-106333499D01*
X125997236Y-106371067D01*
X125984711Y-106374424D01*
X125847787Y-106453477D01*
X125847782Y-106453481D01*
X121920075Y-110381186D01*
X121858752Y-110414671D01*
X121789060Y-110409687D01*
X121735616Y-110371029D01*
X121535252Y-110120902D01*
X121529990Y-110113832D01*
X121225185Y-109672374D01*
X121220438Y-109664948D01*
X120947754Y-109202942D01*
X120943560Y-109195223D01*
X120704369Y-108714988D01*
X120700728Y-108706974D01*
X120496270Y-108211000D01*
X120493203Y-108202738D01*
X120324489Y-107693483D01*
X120322026Y-107685058D01*
X120189907Y-107165093D01*
X120188043Y-107156486D01*
X120167207Y-107040489D01*
X120093193Y-106628451D01*
X120091949Y-106619758D01*
X120034847Y-106086318D01*
X120034222Y-106077532D01*
X120015078Y-105539193D01*
X120015000Y-105534786D01*
X120015000Y-101140153D01*
X122516500Y-101140153D01*
X122516500Y-101297846D01*
X122547261Y-101452489D01*
X122547264Y-101452501D01*
X122607602Y-101598172D01*
X122607609Y-101598185D01*
X122695210Y-101729288D01*
X122695213Y-101729292D01*
X122806707Y-101840786D01*
X122806711Y-101840789D01*
X122937814Y-101928390D01*
X122937827Y-101928397D01*
X123083498Y-101988735D01*
X123083503Y-101988737D01*
X123148147Y-102001595D01*
X123238849Y-102019638D01*
X123300760Y-102052023D01*
X123302334Y-102053569D01*
X123710284Y-102461520D01*
X123710286Y-102461521D01*
X123710290Y-102461524D01*
X123847209Y-102540573D01*
X123847216Y-102540577D01*
X123999943Y-102581501D01*
X123999945Y-102581501D01*
X124165654Y-102581501D01*
X124165670Y-102581500D01*
X124769234Y-102581500D01*
X124836273Y-102601185D01*
X124838125Y-102602398D01*
X124969814Y-102690390D01*
X124969827Y-102690397D01*
X125115498Y-102750735D01*
X125115503Y-102750737D01*
X125270153Y-102781499D01*
X125270156Y-102781500D01*
X125270158Y-102781500D01*
X125427844Y-102781500D01*
X125427845Y-102781499D01*
X125582497Y-102750737D01*
X125728179Y-102690394D01*
X125859289Y-102602789D01*
X125970789Y-102491289D01*
X126058394Y-102360179D01*
X126118737Y-102214497D01*
X126149500Y-102059842D01*
X126149500Y-101902158D01*
X126149500Y-101902155D01*
X126149499Y-101902153D01*
X126118738Y-101747510D01*
X126118737Y-101747503D01*
X126111192Y-101729288D01*
X126058397Y-101601827D01*
X126058390Y-101601814D01*
X125970789Y-101470711D01*
X125970786Y-101470707D01*
X125859292Y-101359213D01*
X125859288Y-101359210D01*
X125728185Y-101271609D01*
X125728172Y-101271602D01*
X125582501Y-101211264D01*
X125582489Y-101211261D01*
X125427845Y-101180500D01*
X125427842Y-101180500D01*
X125270158Y-101180500D01*
X125270155Y-101180500D01*
X125115510Y-101211261D01*
X125115498Y-101211264D01*
X124969827Y-101271602D01*
X124969814Y-101271609D01*
X124838125Y-101359602D01*
X124771447Y-101380480D01*
X124769234Y-101380500D01*
X124379098Y-101380500D01*
X124349657Y-101371855D01*
X124319671Y-101365332D01*
X124314655Y-101361577D01*
X124312059Y-101360815D01*
X124291417Y-101344181D01*
X124151573Y-101204337D01*
X124118088Y-101143014D01*
X124117637Y-101140847D01*
X124086738Y-100985510D01*
X124086737Y-100985503D01*
X124086735Y-100985498D01*
X124026397Y-100839827D01*
X124026390Y-100839814D01*
X123938789Y-100708711D01*
X123938786Y-100708707D01*
X123827292Y-100597213D01*
X123827288Y-100597210D01*
X123696185Y-100509609D01*
X123696172Y-100509602D01*
X123550501Y-100449264D01*
X123550489Y-100449261D01*
X123395845Y-100418500D01*
X123395842Y-100418500D01*
X123238158Y-100418500D01*
X123238155Y-100418500D01*
X123083510Y-100449261D01*
X123083498Y-100449264D01*
X122937827Y-100509602D01*
X122937814Y-100509609D01*
X122806711Y-100597210D01*
X122806707Y-100597213D01*
X122695213Y-100708707D01*
X122695210Y-100708711D01*
X122607609Y-100839814D01*
X122607602Y-100839827D01*
X122547264Y-100985498D01*
X122547261Y-100985510D01*
X122516500Y-101140153D01*
X120015000Y-101140153D01*
X120015000Y-98915832D01*
X120015388Y-98906036D01*
X120024363Y-98792786D01*
X120034297Y-98667424D01*
X120037382Y-98648082D01*
X120092487Y-98420186D01*
X120098572Y-98401595D01*
X120188885Y-98185220D01*
X120197834Y-98167800D01*
X120246421Y-98089184D01*
X120264204Y-98066714D01*
X120778459Y-97552459D01*
X120802083Y-97533970D01*
X120812430Y-97527729D01*
X120857067Y-97511440D01*
X120945636Y-97497413D01*
X121134632Y-97436005D01*
X121311694Y-97345787D01*
X121472464Y-97228981D01*
X121539663Y-97161781D01*
X121571884Y-97138557D01*
X121793000Y-97028000D01*
X121793000Y-96833402D01*
X121796119Y-96820404D01*
X121795128Y-96810527D01*
X121806509Y-96777119D01*
X121809791Y-96770677D01*
X121857759Y-96719879D01*
X121925578Y-96703076D01*
X121991715Y-96725607D01*
X122030765Y-96770668D01*
X122110641Y-96927432D01*
X122137730Y-96964715D01*
X122137731Y-96964716D01*
X122752352Y-96350094D01*
X122775792Y-96437571D01*
X122834311Y-96538930D01*
X122917070Y-96621689D01*
X123018429Y-96680208D01*
X123105905Y-96703647D01*
X122491283Y-97318268D01*
X122491283Y-97318269D01*
X122528567Y-97345358D01*
X122705562Y-97435542D01*
X122894477Y-97496924D01*
X123090679Y-97528000D01*
X123289321Y-97528000D01*
X123485520Y-97496924D01*
X123485523Y-97496924D01*
X123674437Y-97435542D01*
X123851425Y-97345362D01*
X123888716Y-97318268D01*
X123274095Y-96703647D01*
X123361571Y-96680208D01*
X123462930Y-96621689D01*
X123545689Y-96538930D01*
X123604208Y-96437571D01*
X123627647Y-96350094D01*
X124242268Y-96964715D01*
X124269364Y-96927422D01*
X124349234Y-96770669D01*
X124397208Y-96719872D01*
X124465029Y-96703077D01*
X124531164Y-96725614D01*
X124570203Y-96770667D01*
X124650213Y-96927694D01*
X124767019Y-97088464D01*
X124907536Y-97228981D01*
X125068306Y-97345787D01*
X125116535Y-97370361D01*
X125245367Y-97436005D01*
X125245370Y-97436006D01*
X125324148Y-97461602D01*
X125434364Y-97497413D01*
X125630639Y-97528500D01*
X125630640Y-97528500D01*
X125829360Y-97528500D01*
X125829361Y-97528500D01*
X126025636Y-97497413D01*
X126214632Y-97436005D01*
X126391694Y-97345787D01*
X126552464Y-97228981D01*
X126692981Y-97088464D01*
X126809787Y-96927694D01*
X126889515Y-96771218D01*
X126937490Y-96720423D01*
X127005311Y-96703628D01*
X127071446Y-96726165D01*
X127110484Y-96771218D01*
X127190213Y-96927694D01*
X127307019Y-97088464D01*
X127447536Y-97228981D01*
X127608306Y-97345787D01*
X127656535Y-97370361D01*
X127785367Y-97436005D01*
X127785370Y-97436006D01*
X127864148Y-97461602D01*
X127974364Y-97497413D01*
X128170639Y-97528500D01*
X128170640Y-97528500D01*
X128369360Y-97528500D01*
X128369361Y-97528500D01*
X128565636Y-97497413D01*
X128754632Y-97436005D01*
X128931694Y-97345787D01*
X129092464Y-97228981D01*
X129232981Y-97088464D01*
X129349787Y-96927694D01*
X129429515Y-96771218D01*
X129477490Y-96720423D01*
X129545311Y-96703628D01*
X129611446Y-96726165D01*
X129650484Y-96771218D01*
X129730213Y-96927694D01*
X129847019Y-97088464D01*
X129987536Y-97228981D01*
X130148306Y-97345787D01*
X130196535Y-97370361D01*
X130325367Y-97436005D01*
X130325370Y-97436006D01*
X130404148Y-97461602D01*
X130514364Y-97497413D01*
X130710639Y-97528500D01*
X130710640Y-97528500D01*
X130909360Y-97528500D01*
X130909361Y-97528500D01*
X131105636Y-97497413D01*
X131294632Y-97436005D01*
X131471694Y-97345787D01*
X131632464Y-97228981D01*
X131772981Y-97088464D01*
X131889787Y-96927694D01*
X131969515Y-96771218D01*
X132017490Y-96720423D01*
X132085311Y-96703628D01*
X132151446Y-96726165D01*
X132190484Y-96771218D01*
X132270213Y-96927694D01*
X132387019Y-97088464D01*
X132527536Y-97228981D01*
X132688306Y-97345787D01*
X132736535Y-97370361D01*
X132865367Y-97436005D01*
X132865370Y-97436006D01*
X132944148Y-97461602D01*
X133054364Y-97497413D01*
X133250639Y-97528500D01*
X133250640Y-97528500D01*
X133449360Y-97528500D01*
X133449361Y-97528500D01*
X133645636Y-97497413D01*
X133834632Y-97436005D01*
X134011694Y-97345787D01*
X134172464Y-97228981D01*
X134312981Y-97088464D01*
X134429787Y-96927694D01*
X134509515Y-96771218D01*
X134557490Y-96720423D01*
X134625311Y-96703628D01*
X134691446Y-96726165D01*
X134730484Y-96771218D01*
X134810213Y-96927694D01*
X134927019Y-97088464D01*
X135067536Y-97228981D01*
X135228306Y-97345787D01*
X135276535Y-97370361D01*
X135405367Y-97436005D01*
X135405370Y-97436006D01*
X135484148Y-97461602D01*
X135594364Y-97497413D01*
X135790639Y-97528500D01*
X135790640Y-97528500D01*
X135989360Y-97528500D01*
X135989361Y-97528500D01*
X136185636Y-97497413D01*
X136374632Y-97436005D01*
X136551694Y-97345787D01*
X136712464Y-97228981D01*
X136852981Y-97088464D01*
X136969787Y-96927694D01*
X137060005Y-96750632D01*
X137121413Y-96561636D01*
X137152500Y-96365361D01*
X137152500Y-96166639D01*
X137121413Y-95970364D01*
X137064567Y-95795409D01*
X137060006Y-95781370D01*
X137060005Y-95781367D01*
X137014035Y-95691149D01*
X136969787Y-95604306D01*
X136852981Y-95443536D01*
X136712464Y-95303019D01*
X136551694Y-95186213D01*
X136374632Y-95095994D01*
X136374629Y-95095993D01*
X136185637Y-95034587D01*
X136087498Y-95019043D01*
X135989361Y-95003500D01*
X135790639Y-95003500D01*
X135725214Y-95013862D01*
X135594362Y-95034587D01*
X135405370Y-95095993D01*
X135405367Y-95095994D01*
X135228305Y-95186213D01*
X135067533Y-95303021D01*
X134927021Y-95443533D01*
X134810213Y-95604305D01*
X134730485Y-95760780D01*
X134682510Y-95811576D01*
X134614689Y-95828371D01*
X134548554Y-95805833D01*
X134509515Y-95760780D01*
X134477831Y-95698597D01*
X134429787Y-95604306D01*
X134312981Y-95443536D01*
X134172464Y-95303019D01*
X134011694Y-95186213D01*
X133834632Y-95095994D01*
X133834629Y-95095993D01*
X133645637Y-95034587D01*
X133547498Y-95019043D01*
X133449361Y-95003500D01*
X133250639Y-95003500D01*
X133247482Y-95004000D01*
X133236765Y-95005697D01*
X133167472Y-94996739D01*
X133114022Y-94951741D01*
X133093385Y-94884989D01*
X133112113Y-94817676D01*
X133129687Y-94795546D01*
X134724506Y-93200728D01*
X134724511Y-93200724D01*
X134734714Y-93190520D01*
X134734716Y-93190520D01*
X134846520Y-93078716D01*
X134925577Y-92941784D01*
X134931722Y-92918849D01*
X134963814Y-92863262D01*
X134987789Y-92839289D01*
X135075394Y-92708179D01*
X135135737Y-92562497D01*
X135162429Y-92428309D01*
X135194814Y-92366398D01*
X135255529Y-92331824D01*
X135284046Y-92328500D01*
X142227903Y-92328500D01*
X142294942Y-92348185D01*
X142315584Y-92364819D01*
X148136425Y-98185660D01*
X148169910Y-98246983D01*
X148170361Y-98249149D01*
X148201261Y-98404491D01*
X148201264Y-98404501D01*
X148261602Y-98550172D01*
X148261609Y-98550185D01*
X148349210Y-98681288D01*
X148349213Y-98681292D01*
X148460707Y-98792786D01*
X148460711Y-98792789D01*
X148591814Y-98880390D01*
X148591827Y-98880397D01*
X148737498Y-98940735D01*
X148737503Y-98940737D01*
X148892153Y-98971499D01*
X148892156Y-98971500D01*
X148892158Y-98971500D01*
X149049844Y-98971500D01*
X149049845Y-98971499D01*
X149204497Y-98940737D01*
X149350179Y-98880394D01*
X149481289Y-98792789D01*
X149592789Y-98681289D01*
X149680394Y-98550179D01*
X149740737Y-98404497D01*
X149771500Y-98249842D01*
X149771500Y-98092158D01*
X149771500Y-98092155D01*
X149771499Y-98092153D01*
X149766437Y-98066703D01*
X149740737Y-97937503D01*
X149740735Y-97937498D01*
X149680397Y-97791827D01*
X149680390Y-97791814D01*
X149592789Y-97660711D01*
X149592786Y-97660707D01*
X149481292Y-97549213D01*
X149481288Y-97549210D01*
X149350185Y-97461609D01*
X149350172Y-97461602D01*
X149204501Y-97401264D01*
X149204491Y-97401261D01*
X149049149Y-97370361D01*
X148987238Y-97337976D01*
X148985660Y-97336425D01*
X143015590Y-91366355D01*
X143015588Y-91366352D01*
X142896717Y-91247481D01*
X142896716Y-91247480D01*
X142809904Y-91197360D01*
X142809904Y-91197359D01*
X142809900Y-91197358D01*
X142759785Y-91168423D01*
X142607057Y-91127499D01*
X142448943Y-91127499D01*
X142441347Y-91127499D01*
X142441331Y-91127500D01*
X131900170Y-91127500D01*
X131900154Y-91127499D01*
X131892558Y-91127499D01*
X131734443Y-91127499D01*
X131658079Y-91147961D01*
X131581714Y-91168423D01*
X131581709Y-91168426D01*
X131444790Y-91247475D01*
X131444782Y-91247481D01*
X128255339Y-94436925D01*
X128194016Y-94470410D01*
X128191850Y-94470861D01*
X128036508Y-94501761D01*
X128036498Y-94501764D01*
X127890827Y-94562102D01*
X127890814Y-94562109D01*
X127759711Y-94649710D01*
X127759707Y-94649713D01*
X127648213Y-94761207D01*
X127648210Y-94761211D01*
X127560609Y-94892314D01*
X127560602Y-94892327D01*
X127500264Y-95037998D01*
X127500261Y-95038010D01*
X127469500Y-95192653D01*
X127469500Y-95229693D01*
X127449815Y-95296732D01*
X127433181Y-95317374D01*
X127307021Y-95443533D01*
X127190213Y-95604305D01*
X127110485Y-95760780D01*
X127062510Y-95811576D01*
X126994689Y-95828371D01*
X126928554Y-95805833D01*
X126889515Y-95760780D01*
X126857831Y-95698597D01*
X126809787Y-95604306D01*
X126692981Y-95443536D01*
X126552464Y-95303019D01*
X126391694Y-95186213D01*
X126214632Y-95095994D01*
X126214629Y-95095993D01*
X126025637Y-95034587D01*
X125927498Y-95019043D01*
X125829361Y-95003500D01*
X125630639Y-95003500D01*
X125565214Y-95013862D01*
X125434362Y-95034587D01*
X125245370Y-95095993D01*
X125245367Y-95095994D01*
X125068305Y-95186213D01*
X124907533Y-95303021D01*
X124767021Y-95443533D01*
X124650213Y-95604305D01*
X124570204Y-95761331D01*
X124522229Y-95812127D01*
X124454408Y-95828922D01*
X124388273Y-95806384D01*
X124349234Y-95761331D01*
X124269358Y-95604567D01*
X124242268Y-95567283D01*
X123627647Y-96181904D01*
X123604208Y-96094429D01*
X123545689Y-95993070D01*
X123462930Y-95910311D01*
X123361571Y-95851792D01*
X123274094Y-95828352D01*
X123888716Y-95213731D01*
X123888715Y-95213730D01*
X123851432Y-95186641D01*
X123674437Y-95096457D01*
X123485522Y-95035075D01*
X123289321Y-95004000D01*
X123090679Y-95004000D01*
X122894479Y-95035075D01*
X122894476Y-95035075D01*
X122705562Y-95096457D01*
X122528564Y-95186643D01*
X122491283Y-95213729D01*
X122491282Y-95213730D01*
X123105906Y-95828352D01*
X123018429Y-95851792D01*
X122917070Y-95910311D01*
X122834311Y-95993070D01*
X122775792Y-96094429D01*
X122752352Y-96181905D01*
X122137730Y-95567282D01*
X122137729Y-95567283D01*
X122110641Y-95604566D01*
X122030764Y-95761332D01*
X122022115Y-95770488D01*
X122017377Y-95782161D01*
X121998579Y-95795409D01*
X121982790Y-95812127D01*
X121970562Y-95815154D01*
X121960266Y-95822412D01*
X121937290Y-95823394D01*
X121914969Y-95828922D01*
X121903046Y-95824858D01*
X121890460Y-95825397D01*
X121870600Y-95813801D01*
X121848834Y-95806384D01*
X121839557Y-95795676D01*
X121830122Y-95790168D01*
X121809789Y-95761319D01*
X121809514Y-95760780D01*
X121806509Y-95754880D01*
X121793000Y-95698597D01*
X121793000Y-94107000D01*
X120332500Y-94107000D01*
X120210375Y-94107000D01*
X120200646Y-94106618D01*
X119966887Y-94088220D01*
X119947669Y-94085176D01*
X119724422Y-94031579D01*
X119705917Y-94025566D01*
X119493807Y-93937708D01*
X119476469Y-93928874D01*
X119280709Y-93808911D01*
X119264974Y-93797479D01*
X119090376Y-93648359D01*
X119076640Y-93634623D01*
X118927518Y-93460023D01*
X118916088Y-93444290D01*
X118796122Y-93248524D01*
X118787294Y-93231198D01*
X118699431Y-93019078D01*
X118693420Y-93000577D01*
X118673799Y-92918851D01*
X118639822Y-92777325D01*
X118636779Y-92758112D01*
X118629536Y-92666085D01*
X118618382Y-92524353D01*
X118618000Y-92514624D01*
X118618000Y-84884153D01*
X133438500Y-84884153D01*
X133438500Y-85041846D01*
X133469261Y-85196489D01*
X133469264Y-85196501D01*
X133529602Y-85342172D01*
X133529609Y-85342185D01*
X133617602Y-85473874D01*
X133638480Y-85540551D01*
X133638500Y-85542765D01*
X133638500Y-86019330D01*
X133638499Y-86019348D01*
X133638499Y-86185054D01*
X133638498Y-86185054D01*
X133679423Y-86337785D01*
X133708358Y-86387900D01*
X133708359Y-86387904D01*
X133708360Y-86387904D01*
X133758479Y-86474714D01*
X133758481Y-86474717D01*
X133877349Y-86593585D01*
X133877355Y-86593590D01*
X136960425Y-89676660D01*
X136993910Y-89737983D01*
X136994361Y-89740149D01*
X137025261Y-89895491D01*
X137025264Y-89895501D01*
X137085602Y-90041172D01*
X137085609Y-90041185D01*
X137173210Y-90172288D01*
X137173213Y-90172292D01*
X137284707Y-90283786D01*
X137284711Y-90283789D01*
X137415814Y-90371390D01*
X137415827Y-90371397D01*
X137561498Y-90431735D01*
X137561503Y-90431737D01*
X137716153Y-90462499D01*
X137716156Y-90462500D01*
X137716158Y-90462500D01*
X137873844Y-90462500D01*
X137873845Y-90462499D01*
X138028497Y-90431737D01*
X138174179Y-90371394D01*
X138305289Y-90283789D01*
X138416789Y-90172289D01*
X138504394Y-90041179D01*
X138564737Y-89895497D01*
X138595500Y-89740842D01*
X138595500Y-89583158D01*
X138595500Y-89583155D01*
X138595499Y-89583153D01*
X138564738Y-89428510D01*
X138564737Y-89428503D01*
X138564735Y-89428498D01*
X138504397Y-89282827D01*
X138504390Y-89282814D01*
X138416789Y-89151711D01*
X138416786Y-89151707D01*
X138305291Y-89040212D01*
X138289679Y-89029781D01*
X138262817Y-89011832D01*
X138218014Y-88958222D01*
X138209306Y-88888897D01*
X138239460Y-88825869D01*
X138244029Y-88821049D01*
X138289786Y-88775292D01*
X138289789Y-88775289D01*
X138377394Y-88644179D01*
X138437737Y-88498497D01*
X138468500Y-88343842D01*
X138468500Y-88186158D01*
X138468500Y-88186155D01*
X138468499Y-88186153D01*
X138437738Y-88031510D01*
X138437737Y-88031503D01*
X138403915Y-87949849D01*
X138377397Y-87885827D01*
X138377390Y-87885814D01*
X138289398Y-87754125D01*
X138268520Y-87687447D01*
X138268500Y-87685234D01*
X138268500Y-87066765D01*
X138288185Y-86999726D01*
X138289398Y-86997874D01*
X138377390Y-86866185D01*
X138377390Y-86866184D01*
X138377394Y-86866179D01*
X138437737Y-86720497D01*
X138468500Y-86565842D01*
X138468500Y-86408158D01*
X138468500Y-86408155D01*
X138468499Y-86408153D01*
X138437738Y-86253510D01*
X138437737Y-86253503D01*
X138409385Y-86185054D01*
X138377397Y-86107827D01*
X138377390Y-86107814D01*
X138289789Y-85976711D01*
X138289786Y-85976707D01*
X138178292Y-85865213D01*
X138178288Y-85865210D01*
X138047185Y-85777609D01*
X138047172Y-85777602D01*
X137901501Y-85717264D01*
X137901489Y-85717261D01*
X137746845Y-85686500D01*
X137746842Y-85686500D01*
X137589158Y-85686500D01*
X137589155Y-85686500D01*
X137434510Y-85717261D01*
X137434498Y-85717264D01*
X137288827Y-85777602D01*
X137288814Y-85777609D01*
X137157711Y-85865210D01*
X137157707Y-85865213D01*
X137046213Y-85976707D01*
X137046210Y-85976711D01*
X136958609Y-86107814D01*
X136958602Y-86107827D01*
X136898264Y-86253498D01*
X136898261Y-86253510D01*
X136867500Y-86408153D01*
X136867500Y-86565846D01*
X136898261Y-86720489D01*
X136898264Y-86720501D01*
X136958602Y-86866172D01*
X136958609Y-86866185D01*
X137046602Y-86997874D01*
X137067480Y-87064551D01*
X137067500Y-87066765D01*
X137067500Y-87685234D01*
X137062171Y-87703379D01*
X137061834Y-87722288D01*
X137048335Y-87750501D01*
X137047815Y-87752273D01*
X137046601Y-87754126D01*
X137006278Y-87814472D01*
X136952666Y-87859276D01*
X136883340Y-87867983D01*
X136820313Y-87837828D01*
X136815496Y-87833261D01*
X134875819Y-85893584D01*
X134842334Y-85832261D01*
X134839500Y-85805903D01*
X134839500Y-85542765D01*
X134859185Y-85475726D01*
X134860398Y-85473874D01*
X134948390Y-85342185D01*
X134948390Y-85342184D01*
X134948394Y-85342179D01*
X135008737Y-85196497D01*
X135039500Y-85041842D01*
X135039500Y-84884158D01*
X135039500Y-84884155D01*
X135039499Y-84884153D01*
X135008738Y-84729510D01*
X135008737Y-84729503D01*
X135008735Y-84729498D01*
X134948397Y-84583827D01*
X134948390Y-84583814D01*
X134860789Y-84452711D01*
X134860786Y-84452707D01*
X134749292Y-84341213D01*
X134749288Y-84341210D01*
X134618185Y-84253609D01*
X134618172Y-84253602D01*
X134472501Y-84193264D01*
X134472489Y-84193261D01*
X134317845Y-84162500D01*
X134317842Y-84162500D01*
X134160158Y-84162500D01*
X134160155Y-84162500D01*
X134005510Y-84193261D01*
X134005498Y-84193264D01*
X133859827Y-84253602D01*
X133859814Y-84253609D01*
X133728711Y-84341210D01*
X133728707Y-84341213D01*
X133617213Y-84452707D01*
X133617210Y-84452711D01*
X133529609Y-84583814D01*
X133529602Y-84583827D01*
X133469264Y-84729498D01*
X133469261Y-84729510D01*
X133438500Y-84884153D01*
X118618000Y-84884153D01*
X118618000Y-80016695D01*
X139190878Y-80016695D01*
X139190878Y-80336062D01*
X139222181Y-80653901D01*
X139284487Y-80967133D01*
X139377198Y-81272761D01*
X139499418Y-81567825D01*
X139499420Y-81567830D01*
X139649962Y-81849473D01*
X139649979Y-81849501D01*
X139827390Y-82115017D01*
X139827407Y-82115040D01*
X140030016Y-82361919D01*
X140255837Y-82587740D01*
X140255842Y-82587744D01*
X140255843Y-82587745D01*
X140502722Y-82790354D01*
X140502729Y-82790359D01*
X140502739Y-82790366D01*
X140768255Y-82967777D01*
X140768260Y-82967780D01*
X140768272Y-82967788D01*
X140768281Y-82967792D01*
X140768283Y-82967794D01*
X141049926Y-83118336D01*
X141049928Y-83118336D01*
X141049934Y-83118340D01*
X141344997Y-83240559D01*
X141650618Y-83333268D01*
X141963855Y-83395575D01*
X142281691Y-83426879D01*
X142281694Y-83426879D01*
X142601062Y-83426879D01*
X142601065Y-83426879D01*
X142918901Y-83395575D01*
X143232138Y-83333268D01*
X143537759Y-83240559D01*
X143832822Y-83118340D01*
X144114484Y-82967788D01*
X144380034Y-82790354D01*
X144626913Y-82587745D01*
X144704000Y-82510658D01*
X144838941Y-82375718D01*
X144852739Y-82361919D01*
X144852744Y-82361914D01*
X145055353Y-82115035D01*
X145232787Y-81849485D01*
X145383339Y-81567823D01*
X145505558Y-81272760D01*
X145598267Y-80967139D01*
X145660574Y-80653902D01*
X145691878Y-80336066D01*
X145691878Y-80016692D01*
X145660574Y-79698856D01*
X145598267Y-79385619D01*
X145505558Y-79079998D01*
X145383339Y-78784935D01*
X145334295Y-78693181D01*
X145329115Y-78683489D01*
X145300472Y-78629902D01*
X148667500Y-78629902D01*
X148667500Y-78866097D01*
X148704446Y-79099368D01*
X148777433Y-79323996D01*
X148843318Y-79453301D01*
X148884657Y-79534433D01*
X149023483Y-79725510D01*
X149190490Y-79892517D01*
X149249716Y-79935547D01*
X149292381Y-79990875D01*
X149300448Y-80045593D01*
X149298893Y-80065340D01*
X150038591Y-80805037D01*
X149975007Y-80822075D01*
X149860993Y-80887901D01*
X149767901Y-80980993D01*
X149702075Y-81095007D01*
X149685037Y-81158591D01*
X148945340Y-80418894D01*
X148885084Y-80501830D01*
X148777897Y-80712197D01*
X148704934Y-80936752D01*
X148668000Y-81169947D01*
X148668000Y-81406052D01*
X148704934Y-81639247D01*
X148777897Y-81863802D01*
X148885087Y-82074174D01*
X148945338Y-82157104D01*
X148945340Y-82157105D01*
X149685037Y-81417408D01*
X149702075Y-81480993D01*
X149767901Y-81595007D01*
X149860993Y-81688099D01*
X149975007Y-81753925D01*
X150038590Y-81770962D01*
X149298893Y-82510658D01*
X149381828Y-82570914D01*
X149592197Y-82678102D01*
X149816752Y-82751065D01*
X149816751Y-82751065D01*
X150049948Y-82788000D01*
X150286052Y-82788000D01*
X150519247Y-82751065D01*
X150743802Y-82678102D01*
X150954163Y-82570918D01*
X150954169Y-82570914D01*
X151037104Y-82510658D01*
X151037105Y-82510658D01*
X150297408Y-81770962D01*
X150360993Y-81753925D01*
X150475007Y-81688099D01*
X150568099Y-81595007D01*
X150633925Y-81480993D01*
X150650962Y-81417409D01*
X151390658Y-82157105D01*
X151390658Y-82157104D01*
X151450914Y-82074169D01*
X151450918Y-82074163D01*
X151558102Y-81863802D01*
X151631065Y-81639247D01*
X151668000Y-81406052D01*
X151668000Y-81169947D01*
X151631065Y-80936752D01*
X151558102Y-80712197D01*
X151450914Y-80501828D01*
X151390658Y-80418894D01*
X151390658Y-80418893D01*
X150650962Y-81158590D01*
X150633925Y-81095007D01*
X150568099Y-80980993D01*
X150475007Y-80887901D01*
X150360993Y-80822075D01*
X150297409Y-80805037D01*
X151037105Y-80065340D01*
X151035551Y-80045594D01*
X151049915Y-79977216D01*
X151086284Y-79935547D01*
X151145510Y-79892517D01*
X151312517Y-79725510D01*
X151451343Y-79534433D01*
X151558568Y-79323992D01*
X151631553Y-79099368D01*
X151666090Y-78881311D01*
X151668500Y-78866097D01*
X151668500Y-78629902D01*
X151631553Y-78396631D01*
X151558566Y-78172003D01*
X151451342Y-77961566D01*
X151312517Y-77770490D01*
X151145510Y-77603483D01*
X150954433Y-77464657D01*
X150878865Y-77426153D01*
X150743996Y-77357433D01*
X150519368Y-77284446D01*
X150286097Y-77247500D01*
X150286092Y-77247500D01*
X150049908Y-77247500D01*
X150049903Y-77247500D01*
X149816631Y-77284446D01*
X149592003Y-77357433D01*
X149381566Y-77464657D01*
X149272550Y-77543862D01*
X149190490Y-77603483D01*
X149190488Y-77603485D01*
X149190487Y-77603485D01*
X149023485Y-77770487D01*
X149023485Y-77770488D01*
X149023483Y-77770490D01*
X148963862Y-77852550D01*
X148884657Y-77961566D01*
X148777433Y-78172003D01*
X148704446Y-78396631D01*
X148667500Y-78629902D01*
X145300472Y-78629902D01*
X145232793Y-78503284D01*
X145232791Y-78503282D01*
X145232787Y-78503273D01*
X145232776Y-78503256D01*
X145055365Y-78237740D01*
X145055358Y-78237730D01*
X145055353Y-78237723D01*
X144852744Y-77990844D01*
X144852743Y-77990843D01*
X144852739Y-77990838D01*
X144626918Y-77765017D01*
X144380039Y-77562408D01*
X144380016Y-77562391D01*
X144114500Y-77384980D01*
X144114472Y-77384963D01*
X143832829Y-77234421D01*
X143832824Y-77234419D01*
X143537760Y-77112199D01*
X143232132Y-77019488D01*
X142918899Y-76957182D01*
X142918900Y-76957182D01*
X142679519Y-76933606D01*
X142601065Y-76925879D01*
X142281691Y-76925879D01*
X142209200Y-76933018D01*
X141963855Y-76957182D01*
X141650623Y-77019488D01*
X141344995Y-77112199D01*
X141049931Y-77234419D01*
X141049926Y-77234421D01*
X140768283Y-77384963D01*
X140768255Y-77384980D01*
X140502739Y-77562391D01*
X140502716Y-77562408D01*
X140255837Y-77765017D01*
X140030016Y-77990838D01*
X139827407Y-78237717D01*
X139827390Y-78237740D01*
X139649979Y-78503256D01*
X139649962Y-78503284D01*
X139499420Y-78784927D01*
X139499418Y-78784932D01*
X139377198Y-79079996D01*
X139284487Y-79385624D01*
X139222181Y-79698856D01*
X139190878Y-80016695D01*
X118618000Y-80016695D01*
X118618000Y-74851153D01*
X160997500Y-74851153D01*
X160997500Y-75008846D01*
X161028261Y-75163489D01*
X161028264Y-75163501D01*
X161088602Y-75309172D01*
X161088609Y-75309185D01*
X161176210Y-75440288D01*
X161176213Y-75440292D01*
X161287707Y-75551786D01*
X161287711Y-75551789D01*
X161418814Y-75639390D01*
X161418827Y-75639397D01*
X161564498Y-75699735D01*
X161564503Y-75699737D01*
X161719153Y-75730499D01*
X161719156Y-75730500D01*
X161719158Y-75730500D01*
X161876844Y-75730500D01*
X161876845Y-75730499D01*
X162031497Y-75699737D01*
X162177179Y-75639394D01*
X162177185Y-75639390D01*
X162308875Y-75551398D01*
X162375553Y-75530520D01*
X162377766Y-75530500D01*
X164012234Y-75530500D01*
X164079273Y-75550185D01*
X164081125Y-75551398D01*
X164212814Y-75639390D01*
X164212827Y-75639397D01*
X164358498Y-75699735D01*
X164358503Y-75699737D01*
X164513153Y-75730499D01*
X164513156Y-75730500D01*
X164513158Y-75730500D01*
X164670844Y-75730500D01*
X164670845Y-75730499D01*
X164825497Y-75699737D01*
X164971179Y-75639394D01*
X165102289Y-75551789D01*
X165213789Y-75440289D01*
X165301394Y-75309179D01*
X165361737Y-75163497D01*
X165392500Y-75008842D01*
X165392500Y-74851158D01*
X165392500Y-74851155D01*
X165392499Y-74851153D01*
X165361738Y-74696510D01*
X165361737Y-74696503D01*
X165336019Y-74634414D01*
X165301397Y-74550827D01*
X165301390Y-74550814D01*
X165213789Y-74419711D01*
X165213786Y-74419707D01*
X165102292Y-74308213D01*
X165102288Y-74308210D01*
X164971185Y-74220609D01*
X164971172Y-74220602D01*
X164825501Y-74160264D01*
X164825489Y-74160261D01*
X164670845Y-74129500D01*
X164670842Y-74129500D01*
X164513158Y-74129500D01*
X164513155Y-74129500D01*
X164358510Y-74160261D01*
X164358498Y-74160264D01*
X164212827Y-74220602D01*
X164212814Y-74220609D01*
X164081125Y-74308602D01*
X164014447Y-74329480D01*
X164012234Y-74329500D01*
X162377766Y-74329500D01*
X162310727Y-74309815D01*
X162308875Y-74308602D01*
X162177185Y-74220609D01*
X162177172Y-74220602D01*
X162031501Y-74160264D01*
X162031489Y-74160261D01*
X161876845Y-74129500D01*
X161876842Y-74129500D01*
X161719158Y-74129500D01*
X161719155Y-74129500D01*
X161564510Y-74160261D01*
X161564498Y-74160264D01*
X161418827Y-74220602D01*
X161418814Y-74220609D01*
X161287711Y-74308210D01*
X161287707Y-74308213D01*
X161176213Y-74419707D01*
X161176210Y-74419711D01*
X161088609Y-74550814D01*
X161088602Y-74550827D01*
X161028264Y-74696498D01*
X161028261Y-74696510D01*
X160997500Y-74851153D01*
X118618000Y-74851153D01*
X118618000Y-74009713D01*
X168865500Y-74009713D01*
X168865500Y-74222287D01*
X168898754Y-74432243D01*
X168937284Y-74550827D01*
X168964444Y-74634414D01*
X169060951Y-74823820D01*
X169185890Y-74995786D01*
X169336213Y-75146109D01*
X169508179Y-75271048D01*
X169508181Y-75271049D01*
X169508184Y-75271051D01*
X169697588Y-75367557D01*
X169899757Y-75433246D01*
X170109713Y-75466500D01*
X170109714Y-75466500D01*
X170322286Y-75466500D01*
X170322287Y-75466500D01*
X170532243Y-75433246D01*
X170734412Y-75367557D01*
X170923816Y-75271051D01*
X170945789Y-75255086D01*
X171095786Y-75146109D01*
X171095788Y-75146106D01*
X171095792Y-75146104D01*
X171246104Y-74995792D01*
X171246106Y-74995788D01*
X171246109Y-74995786D01*
X171371048Y-74823820D01*
X171371047Y-74823820D01*
X171371051Y-74823816D01*
X171467557Y-74634412D01*
X171533246Y-74432243D01*
X171566500Y-74222287D01*
X171566500Y-74009713D01*
X173365500Y-74009713D01*
X173365500Y-74222287D01*
X173398754Y-74432243D01*
X173437284Y-74550827D01*
X173464444Y-74634414D01*
X173560951Y-74823820D01*
X173685890Y-74995786D01*
X173836213Y-75146109D01*
X174008179Y-75271048D01*
X174008181Y-75271049D01*
X174008184Y-75271051D01*
X174197588Y-75367557D01*
X174399757Y-75433246D01*
X174609713Y-75466500D01*
X174609714Y-75466500D01*
X174822286Y-75466500D01*
X174822287Y-75466500D01*
X175032243Y-75433246D01*
X175234412Y-75367557D01*
X175423816Y-75271051D01*
X175445789Y-75255086D01*
X175595786Y-75146109D01*
X175595788Y-75146106D01*
X175595792Y-75146104D01*
X175746104Y-74995792D01*
X175746106Y-74995788D01*
X175746109Y-74995786D01*
X175871048Y-74823820D01*
X175871047Y-74823820D01*
X175871051Y-74823816D01*
X175967557Y-74634412D01*
X176033246Y-74432243D01*
X176066500Y-74222287D01*
X176066500Y-74009713D01*
X176033246Y-73799757D01*
X175967557Y-73597588D01*
X175871051Y-73408184D01*
X175871049Y-73408181D01*
X175871048Y-73408179D01*
X175746109Y-73236213D01*
X175595786Y-73085890D01*
X175423820Y-72960951D01*
X175234414Y-72864444D01*
X175234413Y-72864443D01*
X175234412Y-72864443D01*
X175032243Y-72798754D01*
X175032241Y-72798753D01*
X175032240Y-72798753D01*
X174870957Y-72773208D01*
X174822287Y-72765500D01*
X174609713Y-72765500D01*
X174561042Y-72773208D01*
X174399760Y-72798753D01*
X174197585Y-72864444D01*
X174008179Y-72960951D01*
X173836213Y-73085890D01*
X173685890Y-73236213D01*
X173560951Y-73408179D01*
X173464444Y-73597585D01*
X173398753Y-73799760D01*
X173365500Y-74009713D01*
X171566500Y-74009713D01*
X171533246Y-73799757D01*
X171467557Y-73597588D01*
X171371051Y-73408184D01*
X171371049Y-73408181D01*
X171371048Y-73408179D01*
X171246109Y-73236213D01*
X171095786Y-73085890D01*
X170923820Y-72960951D01*
X170734414Y-72864444D01*
X170734413Y-72864443D01*
X170734412Y-72864443D01*
X170532243Y-72798754D01*
X170532241Y-72798753D01*
X170532240Y-72798753D01*
X170370957Y-72773208D01*
X170322287Y-72765500D01*
X170109713Y-72765500D01*
X170061042Y-72773208D01*
X169899760Y-72798753D01*
X169697585Y-72864444D01*
X169508179Y-72960951D01*
X169336213Y-73085890D01*
X169185890Y-73236213D01*
X169060951Y-73408179D01*
X168964444Y-73597585D01*
X168898753Y-73799760D01*
X168865500Y-74009713D01*
X118618000Y-74009713D01*
X118618000Y-67694480D01*
X118618195Y-67687528D01*
X118627354Y-67524435D01*
X118638372Y-67328234D01*
X118639926Y-67314439D01*
X118678148Y-67089485D01*
X127922700Y-67089485D01*
X127922700Y-67341314D01*
X127955395Y-67547746D01*
X127962095Y-67590044D01*
X128039915Y-67829548D01*
X128154243Y-68053930D01*
X128302265Y-68257665D01*
X128480335Y-68435735D01*
X128684070Y-68583757D01*
X128908452Y-68698085D01*
X129147956Y-68775905D01*
X129396685Y-68815300D01*
X129396686Y-68815300D01*
X129648514Y-68815300D01*
X129648515Y-68815300D01*
X129897244Y-68775905D01*
X130136748Y-68698085D01*
X130361130Y-68583757D01*
X130564865Y-68435735D01*
X130742935Y-68257665D01*
X130890957Y-68053930D01*
X131005285Y-67829548D01*
X131083105Y-67590044D01*
X131122500Y-67341315D01*
X131122500Y-67103989D01*
X132322700Y-67103989D01*
X132322700Y-67326810D01*
X132322701Y-67326826D01*
X132351785Y-67547742D01*
X132409461Y-67762991D01*
X132459670Y-67884206D01*
X132494735Y-67968860D01*
X132606152Y-68161840D01*
X132606157Y-68161846D01*
X132606158Y-68161848D01*
X132741804Y-68338625D01*
X132741810Y-68338632D01*
X132899367Y-68496189D01*
X132899373Y-68496194D01*
X133076160Y-68631848D01*
X133269140Y-68743265D01*
X133475013Y-68828540D01*
X133690254Y-68886214D01*
X133911183Y-68915300D01*
X133911190Y-68915300D01*
X134134010Y-68915300D01*
X134134017Y-68915300D01*
X134354946Y-68886214D01*
X134570187Y-68828540D01*
X134776060Y-68743265D01*
X134969040Y-68631848D01*
X135145827Y-68496194D01*
X135303394Y-68338627D01*
X135439048Y-68161840D01*
X135550465Y-67968860D01*
X135635740Y-67762987D01*
X135693414Y-67547746D01*
X135722500Y-67326817D01*
X135722500Y-67103983D01*
X135693414Y-66883054D01*
X135635740Y-66667813D01*
X135550465Y-66461940D01*
X135439048Y-66268960D01*
X135303394Y-66092173D01*
X135303389Y-66092167D01*
X135145832Y-65934610D01*
X135145825Y-65934604D01*
X134969048Y-65798958D01*
X134969046Y-65798957D01*
X134969040Y-65798952D01*
X134776060Y-65687535D01*
X134697260Y-65654895D01*
X134570191Y-65602261D01*
X134354942Y-65544585D01*
X134134026Y-65515501D01*
X134134023Y-65515500D01*
X134134017Y-65515500D01*
X133911183Y-65515500D01*
X133911177Y-65515500D01*
X133911173Y-65515501D01*
X133690257Y-65544585D01*
X133475008Y-65602261D01*
X133269146Y-65687532D01*
X133269137Y-65687536D01*
X133076166Y-65798948D01*
X133076151Y-65798958D01*
X132899374Y-65934604D01*
X132899367Y-65934610D01*
X132741810Y-66092167D01*
X132741804Y-66092174D01*
X132606158Y-66268951D01*
X132606148Y-66268966D01*
X132494736Y-66461937D01*
X132494732Y-66461946D01*
X132409461Y-66667808D01*
X132351785Y-66883057D01*
X132322701Y-67103973D01*
X132322700Y-67103989D01*
X131122500Y-67103989D01*
X131122500Y-67089485D01*
X131083105Y-66840756D01*
X131005285Y-66601252D01*
X130890957Y-66376870D01*
X130742935Y-66173135D01*
X130564865Y-65995065D01*
X130361130Y-65847043D01*
X130136748Y-65732715D01*
X129897244Y-65654895D01*
X129897242Y-65654894D01*
X129897241Y-65654894D01*
X129706173Y-65624632D01*
X129648515Y-65615500D01*
X129396685Y-65615500D01*
X129339026Y-65624632D01*
X129147959Y-65654894D01*
X128908449Y-65732716D01*
X128684069Y-65847043D01*
X128480332Y-65995067D01*
X128302267Y-66173132D01*
X128154243Y-66376869D01*
X128039916Y-66601249D01*
X127962094Y-66840759D01*
X127922700Y-67089485D01*
X118678148Y-67089485D01*
X118699621Y-66963102D01*
X118702715Y-66949546D01*
X118715156Y-66906365D01*
X118801371Y-66607103D01*
X118805963Y-66593982D01*
X118829427Y-66537335D01*
X118942341Y-66264735D01*
X118948360Y-66252236D01*
X119120751Y-65940319D01*
X119128146Y-65928551D01*
X119185979Y-65847043D01*
X119334368Y-65637907D01*
X119343024Y-65627053D01*
X119580502Y-65361314D01*
X119590314Y-65351502D01*
X119856053Y-65114024D01*
X119866907Y-65105368D01*
X120157556Y-64899142D01*
X120169319Y-64891751D01*
X120481236Y-64719360D01*
X120493735Y-64713341D01*
X120822986Y-64576961D01*
X120836103Y-64572371D01*
X121178551Y-64473713D01*
X121192098Y-64470621D01*
X121543439Y-64410926D01*
X121557234Y-64409372D01*
X121875684Y-64391488D01*
X121916529Y-64389195D01*
X121923481Y-64389000D01*
X125222000Y-64389000D01*
X125222000Y-61008153D01*
X157822500Y-61008153D01*
X157822500Y-61165846D01*
X157853261Y-61320489D01*
X157853264Y-61320501D01*
X157913602Y-61466172D01*
X157913609Y-61466185D01*
X158001210Y-61597288D01*
X158001213Y-61597292D01*
X158112707Y-61708786D01*
X158112711Y-61708789D01*
X158243814Y-61796390D01*
X158243827Y-61796397D01*
X158351947Y-61841181D01*
X158389503Y-61856737D01*
X158509706Y-61880647D01*
X158544153Y-61887499D01*
X158544156Y-61887500D01*
X158544158Y-61887500D01*
X164416844Y-61887500D01*
X164416845Y-61887499D01*
X164571497Y-61856737D01*
X164717179Y-61796394D01*
X164848289Y-61708789D01*
X164959789Y-61597289D01*
X165047394Y-61466179D01*
X165107737Y-61320497D01*
X165138500Y-61165842D01*
X165138500Y-61008158D01*
X165138500Y-61008155D01*
X165138499Y-61008153D01*
X165136178Y-60996486D01*
X165107737Y-60853503D01*
X165101316Y-60838001D01*
X165047397Y-60707827D01*
X165047390Y-60707814D01*
X164959789Y-60576711D01*
X164959786Y-60576707D01*
X164848292Y-60465213D01*
X164848288Y-60465210D01*
X164717185Y-60377609D01*
X164717172Y-60377602D01*
X164571501Y-60317264D01*
X164571489Y-60317261D01*
X164416845Y-60286500D01*
X164416842Y-60286500D01*
X158544158Y-60286500D01*
X158544155Y-60286500D01*
X158389510Y-60317261D01*
X158389498Y-60317264D01*
X158243827Y-60377602D01*
X158243814Y-60377609D01*
X158112711Y-60465210D01*
X158112707Y-60465213D01*
X158001213Y-60576707D01*
X158001210Y-60576711D01*
X157913609Y-60707814D01*
X157913602Y-60707827D01*
X157853264Y-60853498D01*
X157853261Y-60853510D01*
X157822500Y-61008153D01*
X125222000Y-61008153D01*
X125222000Y-59946871D01*
X125222132Y-59941144D01*
X125240697Y-59539581D01*
X125241754Y-59528186D01*
X125242679Y-59521555D01*
X125296895Y-59132896D01*
X125298995Y-59121659D01*
X125390376Y-58733132D01*
X125393499Y-58722153D01*
X125520347Y-58343691D01*
X125524470Y-58333051D01*
X125685691Y-57967918D01*
X125690774Y-57957709D01*
X125884996Y-57609015D01*
X125891022Y-57599283D01*
X125916439Y-57562179D01*
X126116586Y-57269999D01*
X126123468Y-57260886D01*
X126378452Y-56953820D01*
X126386147Y-56945380D01*
X126668380Y-56663147D01*
X126676820Y-56655452D01*
X126983886Y-56400468D01*
X126992998Y-56393586D01*
X127322288Y-56168018D01*
X127332015Y-56161996D01*
X127680709Y-55967774D01*
X127690918Y-55962691D01*
X128056051Y-55801470D01*
X128066691Y-55797347D01*
X128381217Y-55691928D01*
X128420623Y-55685501D01*
X150023108Y-55685501D01*
X150090147Y-55705186D01*
G37*
%TD.AperFunction*%
%TD*%
M02*
