%TF.GenerationSoftware,KiCad,Pcbnew,9.0.6*%
%TF.CreationDate,2025-12-03T21:47:33+01:00*%
%TF.ProjectId,hw,68772e6b-6963-4616-945f-706362585858,rev?*%
%TF.SameCoordinates,Original*%
%TF.FileFunction,Soldermask,Top*%
%TF.FilePolarity,Negative*%
%FSLAX46Y46*%
G04 Gerber Fmt 4.6, Leading zero omitted, Abs format (unit mm)*
G04 Created by KiCad (PCBNEW 9.0.6) date 2025-12-03 21:47:33*
%MOMM*%
%LPD*%
G01*
G04 APERTURE LIST*
G04 Aperture macros list*
%AMRoundRect*
0 Rectangle with rounded corners*
0 $1 Rounding radius*
0 $2 $3 $4 $5 $6 $7 $8 $9 X,Y pos of 4 corners*
0 Add a 4 corners polygon primitive as box body*
4,1,4,$2,$3,$4,$5,$6,$7,$8,$9,$2,$3,0*
0 Add four circle primitives for the rounded corners*
1,1,$1+$1,$2,$3*
1,1,$1+$1,$4,$5*
1,1,$1+$1,$6,$7*
1,1,$1+$1,$8,$9*
0 Add four rect primitives between the rounded corners*
20,1,$1+$1,$2,$3,$4,$5,0*
20,1,$1+$1,$4,$5,$6,$7,0*
20,1,$1+$1,$6,$7,$8,$9,0*
20,1,$1+$1,$8,$9,$2,$3,0*%
G04 Aperture macros list end*
%ADD10RoundRect,0.250000X-0.625000X0.400000X-0.625000X-0.400000X0.625000X-0.400000X0.625000X0.400000X0*%
%ADD11RoundRect,0.250000X0.412500X0.650000X-0.412500X0.650000X-0.412500X-0.650000X0.412500X-0.650000X0*%
%ADD12RoundRect,0.250000X0.625000X-0.400000X0.625000X0.400000X-0.625000X0.400000X-0.625000X-0.400000X0*%
%ADD13RoundRect,0.152400X-0.609600X1.063600X-0.609600X-1.063600X0.609600X-1.063600X0.609600X1.063600X0*%
%ADD14C,1.524000*%
%ADD15RoundRect,0.152400X0.609600X-1.063600X0.609600X1.063600X-0.609600X1.063600X-0.609600X-1.063600X0*%
%ADD16C,1.700000*%
%ADD17RoundRect,0.250000X0.750000X-0.750000X0.750000X0.750000X-0.750000X0.750000X-0.750000X-0.750000X0*%
%ADD18C,2.000000*%
%ADD19C,1.473200*%
%ADD20O,1.600000X2.000000*%
%ADD21RoundRect,0.270000X-0.630000X-1.180000X0.630000X-1.180000X0.630000X1.180000X-0.630000X1.180000X0*%
%ADD22RoundRect,0.375000X-0.875000X-1.125000X0.875000X-1.125000X0.875000X1.125000X-0.875000X1.125000X0*%
%ADD23RoundRect,0.250000X-0.400000X-0.625000X0.400000X-0.625000X0.400000X0.625000X-0.400000X0.625000X0*%
G04 APERTURE END LIST*
D10*
%TO.C,R4*%
X134366000Y-86080000D03*
X134366000Y-89180000D03*
%TD*%
D11*
%TO.C,C2*%
X137706500Y-82042000D03*
X134581500Y-82042000D03*
%TD*%
D12*
%TO.C,R3*%
X123698000Y-88926000D03*
X123698000Y-85826000D03*
%TD*%
D11*
%TO.C,C1*%
X129324500Y-82042000D03*
X126199500Y-82042000D03*
%TD*%
D12*
%TO.C,R5*%
X139954000Y-89180000D03*
X139954000Y-86080000D03*
%TD*%
D13*
%TO.C,U1*%
X120650000Y-112341000D03*
D14*
X120650000Y-111506000D03*
D13*
X123190000Y-112341000D03*
D14*
X123190000Y-111506000D03*
D13*
X125730000Y-112341000D03*
D14*
X125730000Y-111506000D03*
D13*
X128270000Y-112341000D03*
D14*
X128270000Y-111506000D03*
D13*
X130810000Y-112341000D03*
D14*
X130810000Y-111506000D03*
D13*
X133350000Y-112341000D03*
D14*
X133350000Y-111506000D03*
D13*
X135890000Y-112341000D03*
D14*
X135890000Y-111506000D03*
X135890000Y-96266000D03*
D15*
X135890000Y-95431000D03*
D14*
X133350000Y-96266000D03*
D15*
X133350000Y-95431000D03*
D14*
X130810000Y-96266000D03*
D15*
X130810000Y-95431000D03*
D14*
X128270000Y-96266000D03*
D15*
X128270000Y-95431000D03*
D14*
X125730000Y-96266000D03*
D15*
X125730000Y-95431000D03*
D14*
X123190000Y-96266000D03*
D15*
X123190000Y-95431000D03*
D14*
X120650000Y-96266000D03*
D15*
X120650000Y-95431000D03*
%TD*%
D16*
%TO.C,SW3*%
X170180000Y-64770000D03*
X170180000Y-58270000D03*
X174680000Y-64770000D03*
X174680000Y-58270000D03*
%TD*%
D17*
%TO.C,J1*%
X181073500Y-63378000D03*
D18*
X181073500Y-60838001D03*
%TD*%
D19*
%TO.C,U3*%
X124739400Y-121539000D03*
X124739400Y-118999000D03*
X124739400Y-116459000D03*
%TD*%
D20*
%TO.C,OLED1*%
X150876000Y-57150000D03*
X153416000Y-57150000D03*
X155956000Y-57150000D03*
X158496000Y-57150000D03*
%TD*%
D16*
%TO.C,SW4*%
X170216000Y-74116000D03*
X170216000Y-67616000D03*
X174716000Y-74116000D03*
X174716000Y-67616000D03*
%TD*%
D18*
%TO.C,U2*%
X150168000Y-81288000D03*
X150168000Y-78748000D03*
%TD*%
D21*
%TO.C,ROT1*%
X134022000Y-59010000D03*
X129022000Y-59010000D03*
X131522000Y-59010000D03*
X129022000Y-75610000D03*
X134022000Y-75610000D03*
D22*
X124922000Y-67215400D03*
X138222000Y-67215400D03*
%TD*%
D12*
%TO.C,R2*%
X129286000Y-89180000D03*
X129286000Y-86080000D03*
%TD*%
D23*
%TO.C,R1*%
X155930000Y-80264000D03*
X159030000Y-80264000D03*
%TD*%
M02*
