M48
; DRILL file {KiCad 9.0.6} date 2025-12-03T21:47:33+0100
; FORMAT={-:-/ absolute / inch / decimal}
; #@! TF.CreationDate,2025-12-03T21:47:33+01:00
; #@! TF.GenerationSoftware,Kicad,Pcbnew,9.0.6
; #@! TF.FileFunction,Plated,1,2,PTH
FMAT,2
INCH
; #@! TA.AperFunction,Plated,PTH,ViaDrill
T1C0.0118
; #@! TA.AperFunction,Plated,PTH,ComponentDrill
T2C0.0350
; #@! TA.AperFunction,Plated,PTH,ComponentDrill
T3C0.0380
; #@! TA.AperFunction,Plated,PTH,ComponentDrill
T4C0.0394
; #@! TA.AperFunction,Plated,PTH,ComponentDrill
T5C0.0472
%
G90
G05
T1
X4.75Y-4.4292
X4.855Y-3.985
X4.92Y-3.23
X4.935Y-4.015
X5.05Y-3.7508
X5.18Y-2.405
X5.25Y-3.23
X5.285Y-3.345
X5.29Y-3.635
X5.335Y-4.205
X5.42Y-3.405
X5.42Y-3.475
X5.425Y-3.53
X5.865Y-3.865
X6.245Y-2.405
X6.37Y-2.95
X6.47Y-2.405
X6.48Y-2.95
T2
X4.75Y-3.79
X4.75Y-4.39
X4.85Y-3.79
X4.85Y-4.39
X4.95Y-3.79
X4.95Y-4.39
X5.05Y-3.79
X5.05Y-4.39
X5.15Y-3.79
X5.15Y-4.39
X5.25Y-3.79
X5.25Y-4.39
X5.35Y-3.79
X5.35Y-4.39
T3
X4.911Y-4.585
X4.911Y-4.685
X4.911Y-4.785
T4
X5.9121Y-3.1003
X5.9121Y-3.2003
X5.94Y-2.25
X6.04Y-2.25
X6.14Y-2.25
X6.24Y-2.25
X6.7Y-2.2941
X6.7Y-2.55
X6.7014Y-2.662
X6.7014Y-2.918
X6.8772Y-2.2941
X6.8772Y-2.55
X6.8786Y-2.662
X6.8786Y-2.918
T5
X7.1289Y-2.3952
X7.1289Y-2.4952
M30
