%TF.GenerationSoftware,KiCad,Pcbnew,9.0.6*%
%TF.CreationDate,2026-01-26T20:05:51+01:00*%
%TF.ProjectId,hw,68772e6b-6963-4616-945f-706362585858,rev?*%
%TF.SameCoordinates,Original*%
%TF.FileFunction,Paste,Top*%
%TF.FilePolarity,Positive*%
%FSLAX46Y46*%
G04 Gerber Fmt 4.6, Leading zero omitted, Abs format (unit mm)*
G04 Created by KiCad (PCBNEW 9.0.6) date 2026-01-26 20:05:51*
%MOMM*%
%LPD*%
G01*
G04 APERTURE LIST*
G04 Aperture macros list*
%AMRoundRect*
0 Rectangle with rounded corners*
0 $1 Rounding radius*
0 $2 $3 $4 $5 $6 $7 $8 $9 X,Y pos of 4 corners*
0 Add a 4 corners polygon primitive as box body*
4,1,4,$2,$3,$4,$5,$6,$7,$8,$9,$2,$3,0*
0 Add four circle primitives for the rounded corners*
1,1,$1+$1,$2,$3*
1,1,$1+$1,$4,$5*
1,1,$1+$1,$6,$7*
1,1,$1+$1,$8,$9*
0 Add four rect primitives between the rounded corners*
20,1,$1+$1,$2,$3,$4,$5,0*
20,1,$1+$1,$4,$5,$6,$7,0*
20,1,$1+$1,$6,$7,$8,$9,0*
20,1,$1+$1,$8,$9,$2,$3,0*%
G04 Aperture macros list end*
%ADD10R,3.200000X1.600000*%
%ADD11R,1.200000X0.600000*%
%ADD12RoundRect,0.250000X-0.625000X0.400000X-0.625000X-0.400000X0.625000X-0.400000X0.625000X0.400000X0*%
%ADD13RoundRect,0.250000X0.650000X-0.412500X0.650000X0.412500X-0.650000X0.412500X-0.650000X-0.412500X0*%
%ADD14RoundRect,0.250000X0.412500X0.650000X-0.412500X0.650000X-0.412500X-0.650000X0.412500X-0.650000X0*%
%ADD15RoundRect,0.250000X0.412500X1.100000X-0.412500X1.100000X-0.412500X-1.100000X0.412500X-1.100000X0*%
%ADD16RoundRect,0.250000X0.625000X-0.400000X0.625000X0.400000X-0.625000X0.400000X-0.625000X-0.400000X0*%
%ADD17R,1.500000X4.000000*%
%ADD18RoundRect,0.250000X0.700000X-0.362500X0.700000X0.362500X-0.700000X0.362500X-0.700000X-0.362500X0*%
%ADD19RoundRect,0.250000X-0.325000X-1.100000X0.325000X-1.100000X0.325000X1.100000X-0.325000X1.100000X0*%
%ADD20R,1.200000X0.850000*%
%ADD21R,1.700000X0.750000*%
%ADD22RoundRect,0.270000X-0.630000X-1.180000X0.630000X-1.180000X0.630000X1.180000X-0.630000X1.180000X0*%
%ADD23RoundRect,0.375000X-0.875000X-1.125000X0.875000X-1.125000X0.875000X1.125000X-0.875000X1.125000X0*%
%ADD24R,2.200000X2.150000*%
%ADD25R,1.820000X1.160000*%
G04 APERTURE END LIST*
D10*
%TO.C,C5*%
X160441000Y-74676000D03*
X165441000Y-74676000D03*
%TD*%
D11*
%TO.C,PS1*%
X146157000Y-92268000D03*
X146157000Y-93218000D03*
X146157000Y-94168000D03*
X143657000Y-94168000D03*
X143657000Y-93218000D03*
X143657000Y-92268000D03*
%TD*%
D12*
%TO.C,R4*%
X133604000Y-85064000D03*
X133604000Y-88164000D03*
%TD*%
D13*
%TO.C,C3*%
X133096000Y-119672500D03*
X133096000Y-116547500D03*
%TD*%
D14*
%TO.C,C2*%
X129451500Y-89154000D03*
X126326500Y-89154000D03*
%TD*%
D15*
%TO.C,Cin1*%
X145961500Y-101981000D03*
X142836500Y-101981000D03*
%TD*%
D16*
%TO.C,R3*%
X123063000Y-86259000D03*
X123063000Y-83159000D03*
%TD*%
D13*
%TO.C,C1*%
X123063000Y-80556500D03*
X123063000Y-77431500D03*
%TD*%
D16*
%TO.C,R5*%
X140004000Y-89098000D03*
X140004000Y-85998000D03*
%TD*%
D17*
%TO.C,L1*%
X156222000Y-94234000D03*
X152622000Y-94234000D03*
%TD*%
D18*
%TO.C,L2*%
X144780000Y-89165500D03*
X144780000Y-85840500D03*
%TD*%
D12*
%TO.C,Rfbt1*%
X149098000Y-99161000D03*
X149098000Y-102261000D03*
%TD*%
D16*
%TO.C,R6*%
X136144000Y-119660000D03*
X136144000Y-116560000D03*
%TD*%
D19*
%TO.C,COut1*%
X158418000Y-86741000D03*
X161368000Y-86741000D03*
%TD*%
D20*
%TO.C,D1*%
X180594000Y-76709000D03*
X180594000Y-73659000D03*
%TD*%
D10*
%TO.C,C4*%
X152360000Y-73914000D03*
X147360000Y-73914000D03*
%TD*%
D21*
%TO.C,LED1*%
X144994000Y-80137000D03*
X139994000Y-80137000D03*
%TD*%
D22*
%TO.C,ROT1*%
X134072000Y-58928000D03*
X129072000Y-58928000D03*
X131572000Y-58928000D03*
X129072000Y-75528000D03*
X134072000Y-75528000D03*
D23*
X124972000Y-67133400D03*
X138272000Y-67133400D03*
%TD*%
D13*
%TO.C,CBoot1*%
X140081000Y-94145500D03*
X140081000Y-91020500D03*
%TD*%
D24*
%TO.C,D2*%
X151470000Y-87630000D03*
X155870000Y-87630000D03*
%TD*%
D25*
%TO.C,F1*%
X181229000Y-71198000D03*
X181229000Y-68248000D03*
%TD*%
D19*
%TO.C,COut2*%
X158545000Y-81153000D03*
X161495000Y-81153000D03*
%TD*%
D16*
%TO.C,R2*%
X123063000Y-91593000D03*
X123063000Y-88493000D03*
%TD*%
%TO.C,R1*%
X136906000Y-83338000D03*
X136906000Y-80238000D03*
%TD*%
D14*
%TO.C,Cinx1*%
X146088500Y-96266000D03*
X142963500Y-96266000D03*
%TD*%
D16*
%TO.C,Rfbb1*%
X140208000Y-99467000D03*
X140208000Y-96367000D03*
%TD*%
M02*
