M48
; DRILL file {KiCad 9.0.6} date 2026-01-26T20:05:51+0100
; FORMAT={-:-/ absolute / inch / decimal}
; #@! TF.CreationDate,2026-01-26T20:05:51+01:00
; #@! TF.GenerationSoftware,Kicad,Pcbnew,9.0.6
; #@! TF.FileFunction,Plated,1,2,PTH
FMAT,2
INCH
; #@! TA.AperFunction,Plated,PTH,ViaDrill
T1C0.0118
; #@! TA.AperFunction,Plated,PTH,ComponentDrill
T2C0.0380
; #@! TA.AperFunction,Plated,PTH,ComponentDrill
T3C0.0394
; #@! TA.AperFunction,Plated,PTH,ComponentDrill
T4C0.0472
%
G90
G05
T1
X4.76Y-3.855
X4.805Y-3.755
X4.845Y-3.0
X4.85Y-3.66
X4.8865Y-3.94
X4.9337Y-3.995
X4.97Y-3.69
X4.975Y-3.445
X5.06Y-3.685
X5.065Y-3.65
X5.065Y-3.94
X5.095Y-3.5809
X5.1018Y-3.9032
X5.1254Y-3.645
X5.145Y-3.5337
X5.175Y-3.44
X5.18Y-2.24
X5.24Y-4.545
X5.25Y-3.61
X5.27Y-4.275
X5.28Y-2.895
X5.3445Y-3.4245
X5.3965Y-3.4615
X5.43Y-3.12
X5.49Y-3.12
X5.52Y-3.87
X5.575Y-3.8077
X5.575Y-3.95
X5.59Y-3.885
X5.655Y-3.735
X5.67Y-4.02
X5.6742Y-3.585
X5.69Y-3.815
X5.71Y-3.125
X5.7304Y-3.8504
X5.735Y-3.6
X5.75Y-4.275
X5.7534Y-3.46
X5.7614Y-3.8864
X5.7701Y-3.925
X5.8Y-2.85
X5.836Y-3.415
X5.836Y-3.46
X5.836Y-3.6
X5.92Y-3.72
X5.97Y-3.265
X6.022Y-3.215
X6.06Y-3.66
X6.0969Y-3.6231
X6.135Y-3.38
X6.14Y-2.39
X6.4Y-3.415
X6.41Y-3.195
X6.515Y-2.885
X6.615Y-2.835
X6.615Y-2.885
X6.655Y-2.885
T2
X4.913Y-4.5818
X4.913Y-4.6818
X4.913Y-4.7818
T3
X5.942Y-2.2468
X6.042Y-2.2468
X6.142Y-2.2468
X6.242Y-2.2468
X6.702Y-2.2909
X6.702Y-2.5468
X6.7034Y-2.6588
X6.7034Y-2.9147
X6.8791Y-2.2909
X6.8791Y-2.5468
X6.8806Y-2.6588
X6.8806Y-2.9147
T4
X7.1308Y-2.392
X7.1308Y-2.492
M30
